<?xml version="1.0" encoding="UTF-8"?>
<svg id="Layer_1" data-name="Layer 1" xmlns="http://www.w3.org/2000/svg" viewBox="0 0 145.96 137.63">
  <defs>
    <style>
      .cls-1 {
        fill: #fff;
      }
    </style>
  </defs>
  <g id="Layer_1-2" data-name="Layer 1-2">
    <g>
      <path class="cls-1" d="M86.9,106.61l-7.59.92s-8.08-4.62-17.31-7.47c-9.22-2.86-16.16-2.52-16.16-2.52l-5.23-4.54s13.3,0,22.69,3.11c9.39,3.11,23.59,10.49,23.59,10.49"/>
      <path class="cls-1" d="M107.56,97.13l-4.73,3.7s-5.99-.1-16.49-4.54c-6.5-2.74-13.55-6.51-24.74-10.49-13.02-4.64-28.73-1.93-28.73-1.93l-2.7-4.03s13.22-3.02,29.31.92c8.49,2.09,21.36,9.11,31.67,12.84,9.2,3.33,16.4,3.53,16.4,3.53"/>
      <path class="cls-1" d="M122.24,81.01c-.18.57-11.64.75-22.6-.76-7.58-1.03-16.11-5.66-23.59-9.48-22.62-11.53-51.58-5.86-51.58-5.86l1.22,4.45s15.23-3.63,31.75-.25c13.93,2.85,28.9,12.43,35.5,14.02,14.61,3.5,25.68,2.46,26.1,2.12.01-.01.01-.03.02-.06l3.19-4.17"/>
      <path class="cls-1" d="M23.56,50.89s10.45-3.36,23.67-2.69c13.22.67,20.04,3.6,24.41,5.19,4.82,1.77,13.12,6.67,27.86,11.5,9.11,2.98,27.38.5,27.38.5l-2.9,4.73s-16,2.47-31.27-2.8c-13.38-4.62-19.35-11.41-35.67-13.93-17.22-2.65-33.47,1.44-33.47,1.44v-3.95Z"/>
      <path class="cls-1" d="M28.19,53.86h-4.63c0-15.07,5.47-28.92,15.4-39C48.82,4.87,62.22,0,76.73,0v3.98c-27.67,0-48.54,21.45-48.54,49.88"/>
      <path class="cls-1" d="M128.2,52.57l-1.03,1.98c-.15-7.88-2.05-15.22-4.65-21.52-4.39-9.44-11.16-16.3-18.88-21.52-7.93-5.35-17.38-7.54-27.32-7.54V0c10.87,0,20.56,3.11,29.26,8.98,8.47,5.73,15.9,15.54,18.36,22.16,2.82,6.86,3.87,12.49,4.25,21.42"/>
    </g>
  </g>
  <g id="Layer_1-2-2" data-name="Layer 1-2">
    <g>
      <path class="cls-1" d="M2.4,124.47c-.44,0-.83-.1-1.16-.3s-.58-.49-.75-.86c-.17-.37-.26-.8-.26-1.29v-1.27h1.15v1.27c0,.3.04.55.13.76s.2.35.35.45c.15.1.33.15.52.15s.36-.05.52-.15c.15-.1.27-.26.35-.46s.13-.51.13-.92v-4.94h1.14v5.55c-.03.43-.14.79-.32,1.09s-.43.53-.73.69-.67.24-1.08.24h0Z"/>
      <path class="cls-1" d="M8.41,119.1c.29.17.52.43.68.76s.24.71.24,1.13v1.09c0,.87-.22,1.53-.66,1.97s-1.11.65-2,.65h-1.12v-1.06h1.13c.45,0,.79-.08,1.02-.24s.36-.32.39-.48h-.43c-.71,0-1.24-.17-1.61-.52-.36-.34-.55-.86-.55-1.54,0-.39.08-.74.25-1.04.16-.31.39-.55.68-.72s.62-.26.99-.26.7.09,1,.26h0ZM8.18,121.9v-.77c0-.47-.07-.8-.2-.99s-.32-.28-.57-.28c-.15,0-.27.04-.39.12s-.21.2-.27.35c-.07.15-.1.33-.1.54,0,.36.08.62.24.78s.42.25.77.25h.53,0Z"/>
      <path class="cls-1" d="M12.71,122.92h-2.48v-1.04h.96v-4.12h1.15v4.14h.24c.31,0,.52-.08.64-.2.13-.14.2-.39.2-.74v-4.05h1.18v4.06c-.02.64-.2,1.12-.52,1.46s-.78.5-1.38.5ZM12.14,116.65v.55h-1.63v-.55h.55c-.09.19-.17.21-.26.03-.09-.17-.13-.3-.13-.39,0-.14.04-.26.11-.36s.17-.18.29-.25c.12-.06.26-.09.42-.09s.3.02.47.07v.55c-.17-.04-.31-.07-.43-.07-.08,0-.15.02-.19.06s-.07.09-.07.16c0,.08.03.15.1.2.07.05.16.08.26.08h.52Z"/>
      <path class="cls-1" d="M15.71,116.9h1.13v6.02s-1.13,0-1.13,0v-4.37s0-1.65,0-1.65h0Z"/>
      <path class="cls-1" d="M23.96,123.43c-.12-.12-.28-.18-.45-.18s-.33.06-.45.18c-.13.12-.19.27-.19.45s.07.33.19.45c.12.13.27.19.45.19s.33-.06.45-.18.19-.27.19-.45-.07-.33-.19-.45ZM22.52,123.43c-.13-.12-.28-.18-.46-.18s-.33.06-.45.18c-.12.12-.19.27-.19.45s.07.33.19.45.28.19.45.19.33-.06.46-.18.19-.27.19-.45-.06-.33-.19-.45Z"/>
      <path class="cls-1" d="M40.58,123.46c-.12-.12-.26-.17-.42-.17-.16,0-.3.06-.41.17-.11.11-.17.25-.17.41s.06.3.17.41.26.17.41.17.3-.06.42-.17c.12-.11.17-.25.17-.41s-.06-.29-.17-.41Z"/>
      <path class="cls-1" d="M41.46,118.95v2.02c-.02.63-.2,1.12-.52,1.45s-.78.51-1.38.51h-11.56c-.36,0-.68-.08-.94-.24-.11-.07-.2-.17-.26-.3l-1.46-3.04c-.05,0-.14.02-.26.06-.3.08-.51.19-.62.32-.12.13-.15.28-.1.44.02.09.07.19.14.31.07.12.19.28.34.49l.16.2c.18.23.33.46.45.67.12.22.24.58.36,1.09h-4.26c-.78,0-1.35-.2-1.72-.59-.35-.36-.53-.89-.53-1.57v-1.12h1.13v1.12c0,.26.03.47.11.63.07.17.19.3.35.38.16.08.38.12.66.12h2.5l-.21-.26c-.18-.24-.33-.45-.44-.64-.11-.18-.19-.38-.25-.58-.13-.48-.04-.89.26-1.23.31-.35.78-.6,1.4-.78.35-.09.79-.18,1.34-.26l.26.62,1.28,2.85c.08.17.26.26.53.26h8.69c-.07-.12-.15-.29-.23-.5l-.25-.58c-.12-.29-.24-.51-.34-.64-.1-.14-.2-.23-.31-.27-.1-.04-.25-.07-.44-.07h-1.17v-1.03h1.17c.38,0,.7.04.95.13.25.09.47.24.65.47.19.22.36.54.53.96l.24.59c.11.26.2.45.29.58.09.13.17.22.24.26.08.05.2.08.37.1h.44c.55,0,.89-.07,1.02-.21s.19-.38.19-.73v-2.02h1.18,0Z"/>
      <path class="cls-1" d="M47.3,116.9v1.61l-.02,2.45c0,.64-.16,1.12-.48,1.46-.32.34-.78.51-1.38.51h-.98c-.02.54-.18.97-.49,1.27-.34.34-.83.52-1.48.58h-.8v-1.08h.75c.3,0,.53-.08.67-.23.14-.16.22-.41.22-.77v-3.75h1.17v2.95h.85c.28,0,.49-.08.61-.21.13-.14.19-.38.19-.73l-.02-2.44v-1.61s1.18,0,1.18,0Z"/>
      <path class="cls-1" d="M48.33,116.9h1.13v6.02s-1.13,0-1.13,0v-4.37s0-1.65,0-1.65h0Z"/>
      <path class="cls-1" d="M69.55,123.46c-.11-.11-.26-.17-.42-.17s-.3.06-.42.17c-.11.11-.17.25-.17.41s.06.29.17.41.26.17.42.17.3-.06.42-.17c.11-.11.17-.25.17-.41s-.06-.3-.17-.41ZM68.15,123.46c-.11-.11-.26-.17-.42-.17s-.3.06-.42.17c-.11.11-.17.25-.17.41s.06.29.17.41.26.17.42.17.3-.06.41-.17c.12-.11.17-.25.17-.41s-.06-.3-.17-.41h0Z"/>
      <path class="cls-1" d="M73.22,117.13c-.11-.11-.26-.17-.42-.17s-.3.06-.42.17c-.11.11-.17.25-.17.41s.06.29.17.41c.12.11.26.17.42.17s.3-.06.41-.17c.12-.11.17-.25.17-.41s-.06-.3-.17-.41h0Z"/>
      <path class="cls-1" d="M74.71,121.9v1.03h-4.99c-.27,0-.55-.09-.82-.25-.15-.09-.29-.22-.41-.38-.09.16-.2.28-.34.38-.24.17-.57.26-1.02.26h-13.29c-.02.54-.18.97-.49,1.27-.34.34-.83.52-1.48.58h-.8v-1.08h.75c.31,0,.53-.08.67-.23.15-.16.22-.41.22-.77v-3.75h1.17v2.95h13.25c.27,0,.47-.07.6-.21s.19-.37.17-.68v-1.67h1.21v1.67c-.02.31.04.54.17.68s.33.21.6.21h1.06c-.04-.07-.07-.12-.08-.13-.18-.35-.27-.7-.27-1.04,0-.41.1-.77.3-1.09.19-.33.47-.58.82-.76.35-.18.75-.27,1.19-.27.27,0,.64.05,1.09.16l-.13,1.19c-.39-.14-.69-.21-.89-.21-.26,0-.48.03-.65.11-.17.07-.31.18-.42.33-.1.15-.16.33-.16.54s.08.43.23.63c.15.21.37.35.65.43s.62.11,1,.11h1.07Z"/>
      <path class="cls-1" d="M78.27,122.66c-.16.18-.25.39-.28.63-.02.21,0,.41.07.58.07.17.19.32.36.44s.38.21.64.27h1.8l-.51.96h-1.48c-.43-.06-.82-.2-1.14-.43s-.56-.51-.71-.85c-.15-.35-.2-.72-.15-1.12.05-.39.19-.73.42-1.01.04-.05.09-.1.14-.15-.05-.07-.09-.14-.14-.22-.18-.35-.27-.7-.27-1.04,0-.41.1-.77.3-1.09s.47-.58.82-.76c.35-.18.74-.27,1.18-.27.28,0,.64.06,1.09.17l-.13,1.18c-.4-.14-.69-.21-.89-.21-.26,0-.48.04-.65.11s-.31.18-.42.34-.16.33-.16.54.08.43.23.63.37.35.66.43.62.11,1,.11h.68v1h-1.11c-.52-.01-.96-.09-1.34-.24h0Z"/>
      <path class="cls-1" d="M109.16,117.48c-.11-.11-.25-.17-.42-.17s-.3.06-.41.17c-.12.11-.17.25-.17.41s.06.29.17.41c.11.11.25.17.41.17s.3-.06.42-.17.17-.25.17-.41-.06-.3-.17-.41ZM107.76,117.48c-.11-.11-.26-.17-.42-.17s-.3.06-.41.17c-.12.11-.17.25-.17.41s.06.29.17.41c.11.11.25.17.41.17s.3-.06.42-.17c.11-.11.17-.25.17-.41s-.06-.3-.17-.41Z"/>
      <path class="cls-1" d="M111.41,116.9v1.61l.02,2.44c0,.35-.07.6-.19.73-.13.14-.34.2-.62.21h-1.08l.2-.9c.1-.43.07-.8-.1-1.14-.16-.34-.39-.59-.68-.77s-.62-.26-1-.26-.69.09-.99.26c-.29.17-.52.42-.68.73-.16.31-.24.66-.24,1.05s.09.72.29,1.02h-1.02c-.26,0-.42-.03-.48-.09.07-.15.1-.37.1-.68,0-.56-.17-1.02-.52-1.4s-.84-.51-1.47-.39l-2.58.63v-3.11h-1.14v5.05h-15.53c-.29,0-.51-.07-.63-.21-.13-.14-.19-.38-.19-.73v-2.45s.01-1.61.01-1.61h-1.18v1.61l.02,2.45c0,.64.16,1.12.47,1.46s.78.51,1.38.51h19.38c.56,0,.98-.12,1.29-.37.25.25.55.37.91.37h5.57c.6,0,1.06-.17,1.38-.51s.48-.82.48-1.46l.02-2.45v-1.61h-1.18,0ZM103.6,121.71c-.13.13-.34.19-.64.19h-2.59v-.81l2.66-.63c.26-.06.46-.02.58.1.13.12.19.31.19.57s-.07.45-.19.58h0ZM108.59,120.92l-.22.98h-.17c-.35,0-.6-.09-.77-.25-.17-.17-.25-.42-.25-.76,0-.22.03-.4.09-.56.07-.16.16-.27.27-.35.11-.08.25-.12.4-.12.23,0,.42.09.55.27.13.17.16.44.09.78Z"/>
      <path class="cls-1" d="M113.62,116.9h1.13v6.02s-1.13,0-1.13,0v-4.37s0-1.65,0-1.65h0Z"/>
      <path class="cls-1" d="M135.94,117.43c-.11-.11-.26-.17-.42-.17s-.3.06-.41.17c-.12.11-.17.25-.17.41s.06.29.17.41c.11.11.25.17.41.17s.3-.06.42-.17c.11-.11.17-.25.17-.41s-.06-.3-.17-.41ZM134.54,117.43c-.11-.11-.26-.17-.42-.17s-.3.06-.42.17c-.11.11-.17.25-.17.41s.06.29.17.41c.12.11.26.17.42.17s.3-.06.42-.17c.11-.11.17-.25.17-.41s-.06-.3-.17-.41Z"/>
      <path class="cls-1" d="M134.39,118.95v2.02c0,.35-.06.59-.19.73-.13.14-.47.21-1.02.21h-.15c-.27,0-.47-.07-.6-.21-.04-.05-.09-.11-.16-.2,0-.01,0-.03,0-.04.09-.36.08-.71-.03-1.03-.1-.33-.3-.6-.59-.84-.29-.24-.65-.35-1.1-.35h-1.97c-.28,1.5-.47,2.31-.57,2.42-.12.14-.32.22-.6.25h-8.24v-2.95h-1.17v3.75c0,.35-.07.61-.22.77-.14.15-.36.23-.67.23h-.75v1.08h.8c.65-.05,1.14-.24,1.48-.58.31-.3.47-.73.49-1.27h8.54c.23,0,.45-.05.65-.15.18-.09.35-.27.5-.57.3.34.65.56,1.03.65.38.09.74.09,1.08,0,.27-.08.51-.2.72-.37.08.08.17.15.26.2.26.16.58.24.94.24h.82c.6,0,1.06-.17,1.38-.51.32-.34.49-.82.52-1.45v-2.02h-1.19,0ZM131.28,121.22c-.04.15-.11.27-.21.36-.1.09-.23.16-.4.18-.17.03-.35.02-.56-.03-.33-.07-.56-.21-.69-.41-.13-.2-.15-.47-.08-.8l.04-.17h1.01c.35,0,.6.1.74.26.15.17.2.37.14.6h0Z"/>
      <path class="cls-1" d="M138.55,117.64c-.11,0-.2-.02-.27-.08-.06-.05-.09-.12-.09-.2,0-.06.02-.12.07-.16.05-.04.11-.07.19-.07.12,0,.26.02.43.07v-.55c-.17-.05-.32-.07-.47-.07s-.29.03-.42.09c-.12.06-.22.14-.29.24s-.1.23-.1.36c0,.08.04.2.11.35h-.27v.55h1.64v-.55h-.52Z"/>
      <path class="cls-1" d="M145.87,120.42c-.11-.33-.31-.6-.6-.84-.29-.24-.65-.35-1.09-.35h-1.98c-.27,1.5-.46,2.31-.57,2.42-.11.14-.32.22-.6.25h-.72v-.91c0-.43-.08-.81-.24-1.13-.16-.33-.38-.58-.68-.76-.29-.17-.62-.26-.99-.26s-.7.09-.99.26c-.29.17-.52.42-.68.73-.17.31-.25.66-.25,1.04,0,.68.18,1.19.55,1.54.36.34.9.52,1.61.52h.43c-.03.16-.16.32-.39.47-.23.16-.57.24-1.02.24h-1.13v1.06h1.12c.89,0,1.56-.22,2-.65.29-.28.48-.66.58-1.12h1.07c.24,0,.45-.05.65-.15.18-.09.35-.27.49-.57.3.34.65.56,1.03.65.38.09.74.09,1.08,0s.63-.26.86-.5c.24-.25.39-.55.47-.9.09-.36.08-.71-.03-1.03ZM138.65,121.9c-.35,0-.61-.08-.77-.25s-.24-.43-.24-.78c0-.21.03-.39.1-.54.07-.16.16-.27.27-.35s.25-.12.39-.12c.24,0,.43.09.56.28.14.18.2.52.2.99v.77h-.52,0ZM144.91,121.22c-.04.15-.1.27-.2.36-.1.09-.24.16-.4.18-.17.03-.35.02-.57-.03-.33-.07-.56-.21-.69-.41-.13-.2-.15-.47-.08-.8l.04-.17h1.01c.35,0,.6.1.75.26.15.17.19.37.14.6h0Z"/>
      <path class="cls-1" d="M3.38,130.06c-.12-.11-.26-.17-.42-.17-.16,0-.3.06-.41.17s-.17.25-.17.41.06.29.17.41.26.17.41.17.3-.06.42-.17c.12-.11.17-.25.17-.41s-.06-.3-.17-.41ZM1.98,130.06c-.12-.11-.26-.17-.42-.17s-.3.06-.41.17c-.11.11-.17.25-.17.41s.06.29.17.41.25.17.41.17.3-.06.42-.17c.12-.11.17-.25.17-.41s-.06-.3-.17-.41Z"/>
      <path class="cls-1" d="M8.6,134.75c-.38,0-.71-.04-1-.11-.28-.08-.5-.22-.65-.43-.16-.21-.23-.42-.23-.63s.05-.39.16-.54c.1-.15.24-.26.41-.33.17-.08.39-.11.66-.11.19,0,.49.07.88.21l.13-1.19c-.45-.11-.81-.16-1.09-.16-.44,0-.84.09-1.19.27-.35.18-.62.43-.82.76-.2.32-.3.69-.3,1.09,0,.34.09.69.27,1.04,0,.01.03.06.08.13h-1.04c-.26,0-.46-.07-.6-.22-.14-.15-.21-.37-.21-.68v-2.38h-1.05v.37l-1-.13c-.43-.06-.8,0-1.12.2-.32.19-.55.44-.7.75-.15.31-.21.65-.18,1.02.04.37.16.69.35.96.2.27.46.47.78.61.33.13.68.18,1.07.16.37-.03.7-.16,1-.38.1.19.27.36.51.51.27.17.6.25.98.25h4.97v-1.03s-1.07,0-1.07,0ZM2.86,133.95c-.16.18-.4.28-.74.31-.22.02-.41,0-.57-.05-.16-.06-.28-.13-.37-.24-.09-.1-.14-.23-.15-.38-.02-.24.05-.43.22-.58.17-.15.43-.2.77-.15l1.02.12v.17c.03.35-.03.61-.18.79Z"/>
      <path class="cls-1" d="M10.7,129.76h1.13v6.02s-1.13,0-1.13,0v-4.37s0-1.65,0-1.65h0Z"/>
      <path class="cls-1" d="M12.14,136.55h.75c.31,0,.53-.08.67-.23s.22-.41.22-.77v-3.75h1.14v3.77c0,.65-.17,1.15-.5,1.48-.34.34-.83.52-1.48.57h-.8v-1.08h0Z"/>
      <path class="cls-1" d="M17.74,130.44c-.11-.11-.26-.17-.42-.17s-.3.06-.42.17c-.11.11-.17.25-.17.41s.06.29.17.41c.12.11.26.17.42.17s.3-.06.41-.17c.12-.11.17-.25.17-.41s-.06-.3-.17-.41Z"/>
      <path class="cls-1" d="M23.28,129.76v1.61l-.02,2.45c0,.64-.16,1.12-.48,1.46s-.78.51-1.38.51h-3.45c-.02.54-.18.97-.49,1.27-.34.34-.83.52-1.48.58h-.8v-1.08h.75c.3,0,.53-.08.67-.23s.22-.41.22-.77v-3.75h1.17v2.95h3.3c.3,0,.51-.07.64-.21.13-.14.19-.38.19-.73l-.02-2.44v-1.61s1.18,0,1.18,0Z"/>
      <path class="cls-1" d="M24.31,129.76h1.13v6.02s-1.13,0-1.13,0v-4.37s0-1.65,0-1.65h0Z"/>
      <path class="cls-1" d="M29.36,131.95c.29.17.52.43.68.76s.24.71.24,1.13v1.09c0,.87-.22,1.53-.66,1.97s-1.11.65-2,.65h-1.12v-1.06h1.13c.45,0,.79-.08,1.02-.24s.36-.32.39-.48h-.43c-.71,0-1.24-.17-1.61-.52s-.55-.86-.55-1.54c0-.39.08-.74.25-1.04.16-.31.39-.55.68-.72s.62-.26.99-.26.7.09,1,.26h0ZM29.14,134.75v-.77c0-.47-.07-.8-.2-.99s-.32-.28-.57-.28c-.15,0-.27.04-.39.12-.11.08-.21.2-.27.35-.07.15-.1.33-.1.54,0,.36.08.62.24.78s.42.25.77.25h.53,0Z"/>
      <path class="cls-1" d="M34.85,135.78c-.81-.15-1.26-.76-1.35-1.83-.04-.39,0-.74.14-1.07.13-.33.34-.59.61-.79s.6-.32.96-.35c.37-.03.71.02,1.02.17s.55.38.75.69c.19.32.26.69.21,1.13l-.27,2.05h-2.07ZM35.92,134.75l.12-1c.04-.34,0-.6-.16-.77-.15-.17-.34-.24-.57-.22-.16.01-.28.07-.39.16s-.18.22-.24.38-.07.35-.04.57c.03.34.14.58.32.73s.44.21.79.18l.18-.02h0Z"/>
      <path class="cls-1" d="M64.62,129.76v1.61l.02,2.44c0,.35-.07.6-.19.73-.13.13-.33.2-.61.21h-.17c-.26,0-.44-.08-.57-.21-.04-.05-.09-.11-.16-.2,0-.01,0-.03.01-.04.09-.36.07-.71-.03-1.03-.11-.33-.31-.6-.6-.84-.29-.24-.65-.35-1.09-.35h-1.98c-.28,1.5-.46,2.31-.57,2.42-.11.14-.32.22-.6.25h-.13c-.26,0-.47-.07-.6-.21s-.19-.37-.17-.68v-1.67h-1.21v1.67c.02.31-.04.54-.17.68s-.34.21-.6.21h-15.07c-.29,0-.51-.07-.64-.21-.13-.14-.19-.38-.19-.73l.02-2.45v-1.61h-1.18v1.61l.02,2.45c0,.64.16,1.12.48,1.46.32.34.78.51,1.38.51h15.19c.44,0,.78-.09,1.02-.26.13-.09.24-.22.34-.37.12.16.26.29.41.38.27.17.55.25.82.25h.58c.24,0,.45-.05.65-.15.18-.09.34-.27.49-.57.3.34.65.56,1.03.65.38.09.74.09,1.09,0,.27-.08.51-.2.71-.37.09.08.17.15.26.2.26.16.58.24.95.24h.39c.6,0,1.06-.17,1.38-.51.32-.34.48-.82.48-1.46l.02-2.45v-1.61h-1.18,0ZM61.96,134.07c-.04.15-.1.27-.21.36-.1.09-.23.16-.4.18-.17.03-.36.02-.57-.03-.33-.07-.56-.21-.69-.41-.13-.2-.15-.47-.08-.8l.04-.17h1.01c.35,0,.6.1.75.26.15.17.19.37.14.6Z"/>
      <path class="cls-1" d="M57.61,136.32c-.11-.11-.26-.17-.42-.17s-.3.06-.41.17c-.12.11-.17.25-.17.41s.06.29.17.41c.11.12.25.17.41.17s.3-.06.42-.17c.11-.11.17-.25.17-.41s-.06-.3-.17-.41ZM56.21,136.32c-.11-.11-.26-.17-.42-.17s-.3.06-.42.17c-.11.11-.17.25-.17.41s.06.29.17.41.26.17.42.17.3-.06.42-.17c.11-.11.17-.25.17-.41s-.06-.3-.17-.41Z"/>
      <path class="cls-1" d="M66.84,129.76h1.13v6.02s-1.13,0-1.13,0v-4.37s0-1.65,0-1.65h0Z"/>
      <path class="cls-1" d="M71.89,131.95c.29.17.52.43.68.76s.24.71.24,1.13v1.09c0,.87-.22,1.53-.66,1.97s-1.11.65-2,.65h-1.12v-1.06h1.13c.45,0,.79-.08,1.02-.24.23-.16.36-.32.39-.48h-.43c-.71,0-1.24-.17-1.61-.52-.36-.34-.55-.86-.55-1.54,0-.39.08-.74.25-1.04.16-.31.39-.55.68-.72s.62-.26.99-.26.7.09,1,.26h0ZM71.67,134.75v-.77c0-.47-.07-.8-.2-.99s-.32-.28-.57-.28c-.15,0-.27.04-.39.12s-.21.2-.27.35c-.07.15-.1.33-.1.54,0,.36.08.62.24.78s.42.25.77.25h.53,0Z"/>
      <path class="cls-1" d="M79.26,130.06c-.11-.11-.25-.17-.42-.17s-.3.06-.41.17c-.11.11-.17.25-.17.41s.06.29.17.41.25.17.41.17.3-.06.42-.17c.12-.11.17-.25.17-.41s-.06-.3-.17-.41ZM77.86,130.06c-.11-.11-.25-.17-.42-.17s-.3.06-.41.17c-.12.11-.17.25-.17.41s.06.29.17.41c.11.11.25.17.41.17s.3-.06.42-.17c.12-.11.17-.25.17-.41s-.06-.3-.17-.41Z"/>
      <path class="cls-1" d="M93.05,129.76v4.05c.01.35-.05.6-.18.73-.13.14-.34.21-.63.21h-.15c-.27,0-.47-.07-.6-.21s-.19-.37-.17-.68v-1.67h-1.21v1.67c.01.31-.04.54-.17.68s-.33.21-.6.21h-.19c-.27,0-.47-.07-.6-.21s-.19-.37-.17-.68v-1.67h-1.21v1.67c.01.31-.04.54-.17.68s-.34.21-.6.21h-.19c-.27,0-.47-.07-.6-.21s-.19-.37-.17-.68v-1.67h-1.21v1.67c.01.31-.04.54-.17.68s-.34.21-.6.21h-2.65c-.26,0-.46-.07-.6-.22s-.21-.37-.21-.68v-2.38h-1.05v.37l-1-.13c-.43-.06-.8,0-1.12.2-.32.19-.55.44-.7.75-.15.31-.21.65-.18,1.02.04.37.16.69.35.96.2.27.46.47.78.61.33.13.68.18,1.07.16.37-.03.7-.16,1-.38.1.19.27.36.51.51.27.17.6.25.98.25h2.83c.44,0,.78-.09,1.02-.26.13-.09.24-.22.34-.37.12.16.26.29.41.38.27.17.55.25.82.25h.37c.44,0,.78-.09,1.01-.26.13-.09.24-.22.34-.37.12.16.26.29.41.38.27.17.55.25.82.25h.37c.44,0,.78-.09,1.02-.26.13-.09.24-.22.34-.37.12.16.26.29.41.38.27.17.55.25.82.25h.44c.6,0,1.06-.17,1.38-.51.32-.34.48-.82.48-1.46l.02-2.45v-1.61h-1.18,0ZM78.74,133.95c-.16.18-.4.28-.74.31-.22.02-.41,0-.57-.05-.16-.06-.28-.13-.37-.24-.09-.1-.14-.23-.15-.38-.02-.24.05-.43.22-.58.17-.15.43-.2.77-.15l1.02.12v.17c.03.35-.03.61-.18.79h0Z"/>
      <path class="cls-1" d="M85.08,130.99c-.11,0-.2-.02-.26-.08s-.1-.12-.1-.2c0-.07.02-.12.07-.16.05-.04.11-.06.19-.06.11,0,.26.02.43.07v-.55c-.17-.05-.32-.07-.47-.07s-.29.03-.41.09c-.13.06-.22.14-.29.25-.07.1-.11.23-.11.36,0,.08.04.2.11.35h-.27v.55h1.63v-.55s-.52,0-.52,0Z"/>
      <path class="cls-1" d="M88.77,136.32c-.11-.11-.25-.17-.42-.17s-.3.06-.41.17c-.12.11-.17.25-.17.41s.06.29.17.41c.11.12.25.17.41.17s.3-.06.42-.17.17-.25.17-.41-.06-.3-.17-.41ZM87.38,136.32c-.11-.11-.26-.17-.42-.17s-.3.06-.41.17c-.12.11-.17.25-.17.41s.06.29.17.41c.11.12.25.17.41.17s.3-.06.42-.17c.11-.11.17-.25.17-.41s-.06-.3-.17-.41Z"/>
      <path class="cls-1" d="M91.21,136.32c-.12-.12-.26-.17-.42-.17s-.3.06-.42.17c-.11.11-.17.25-.17.41s.06.29.17.41.26.17.42.17.3-.06.41-.17c.12-.11.17-.25.17-.41s-.06-.3-.17-.41h0Z"/>
      <path class="cls-1" d="M95.26,129.76h1.13v6.02s-1.13,0-1.13,0v-4.37s0-1.65,0-1.65h0Z"/>
      <path class="cls-1" d="M101.1,135.78c-.81-.15-1.26-.76-1.35-1.83-.04-.39,0-.74.14-1.07s.34-.59.61-.79c.27-.2.6-.32.96-.35.37-.03.71.02,1.02.17s.55.38.75.69c.19.32.26.69.21,1.13l-.27,2.05h-2.07ZM100.52,131.19c-.11-.11-.17-.25-.17-.41s.06-.3.17-.41c.11-.11.25-.17.41-.17s.3.06.42.17.17.25.17.41-.06.3-.17.41c-.12.11-.26.17-.42.17s-.3-.06-.41-.17h0ZM102.17,134.75l.12-1c.04-.34,0-.6-.16-.77-.15-.17-.34-.24-.57-.22-.16.01-.28.07-.39.16s-.18.22-.24.38-.07.35-.04.57c.03.34.14.58.32.73s.44.21.79.18l.18-.02h0ZM101.92,131.19c-.11-.11-.17-.25-.17-.41s.06-.3.17-.41c.11-.11.25-.17.41-.17s.3.06.42.17.17.25.17.41-.06.3-.17.41c-.12.11-.26.17-.42.17s-.3-.06-.41-.17h0Z"/>
      <path class="cls-1" d="M103.67,136.55h.75c.31,0,.53-.08.67-.23s.22-.41.22-.77v-3.75h1.14v3.77c0,.65-.17,1.15-.5,1.48-.34.34-.83.52-1.48.57h-.8v-1.08h0Z"/>
      <path class="cls-1" d="M107.63,129.76h1.13v6.02s-1.13,0-1.13,0v-4.37s0-1.65,0-1.65h0Z"/>
      <path class="cls-1" d="M109.06,136.55h.75c.31,0,.53-.08.67-.23s.22-.41.22-.77v-3.75h1.14v3.77c0,.65-.17,1.15-.5,1.48-.34.34-.83.52-1.48.57h-.8v-1.08h0ZM110.8,131.26c-.11-.11-.17-.25-.17-.41s.06-.3.17-.41c.11-.11.25-.17.41-.17s.3.06.42.17.17.25.17.41-.06.3-.17.41c-.12.11-.26.17-.42.17s-.3-.06-.41-.17h0Z"/>
      <path class="cls-1" d="M115.71,131.95c.29.17.52.43.68.76s.24.71.24,1.13v1.09c0,.87-.22,1.53-.66,1.97s-1.11.65-2,.65h-1.12v-1.06h1.13c.45,0,.79-.08,1.02-.24.23-.16.36-.32.39-.48h-.43c-.71,0-1.24-.17-1.61-.52-.36-.34-.55-.86-.55-1.54,0-.39.08-.74.25-1.04.16-.31.39-.55.68-.72s.62-.26.99-.26.7.09,1,.26h0ZM115.49,134.75v-.77c0-.47-.07-.8-.2-.99s-.32-.28-.57-.28c-.15,0-.27.04-.39.12s-.21.2-.27.35c-.07.15-.1.33-.1.54,0,.36.08.62.24.78s.42.25.77.25h.53,0Z"/>
      <path class="cls-1" d="M124.75,136.28c-.13-.12-.28-.18-.46-.18s-.33.06-.45.18-.19.27-.19.45.06.33.19.45c.13.13.28.19.45.19s.33-.06.45-.18.19-.27.19-.45-.07-.33-.19-.45ZM123.3,136.28c-.12-.12-.28-.18-.45-.18s-.33.06-.45.18c-.13.12-.19.27-.19.45s.07.33.19.45c.12.13.27.19.45.19s.33-.06.45-.18.19-.27.19-.45-.07-.33-.19-.45Z"/>
      <path class="cls-1" d="M145.66,132.72c-.16-.34-.39-.59-.68-.77s-.62-.26-1-.26-.69.09-.99.26c-.29.17-.52.42-.68.73-.16.31-.24.66-.24,1.05s.09.72.29,1.02h-13.33c-.28,0-.45-.09-.53-.26l-1.29-2.85-.26-.62c-.54.08-.99.17-1.34.26-.63.17-1.1.43-1.4.78-.31.34-.4.76-.27,1.23.06.2.14.39.25.58.11.19.26.4.44.64l.21.26h-2.5c-.28,0-.5-.04-.66-.12-.16-.09-.28-.21-.35-.38-.07-.16-.11-.37-.11-.63v-1.12h-1.13v1.12c0,.69.17,1.21.53,1.57.37.39.95.59,1.72.59h4.26c-.12-.51-.24-.87-.36-1.09-.12-.21-.27-.44-.45-.67l-.16-.2c-.16-.21-.27-.37-.35-.49s-.12-.22-.14-.31c-.05-.16,0-.31.1-.44.12-.13.33-.24.62-.32.12-.03.2-.05.26-.06l1.46,3.04c.06.13.15.23.26.3.26.16.57.24.94.24h16.52l.45-1.92c.09-.43.06-.81-.1-1.14h0ZM144.62,133.77l-.21.98h-.18c-.35,0-.6-.09-.77-.25-.17-.17-.25-.42-.25-.76,0-.22.03-.4.1-.56.07-.16.16-.27.27-.35.11-.08.25-.12.4-.12.23,0,.42.09.55.27s.16.44.09.78Z"/>
      <path class="cls-1" d="M144.5,130.33c-.11-.11-.25-.17-.42-.17s-.3.06-.41.17-.17.25-.17.41.06.29.17.41.25.17.41.17.3-.06.42-.17.17-.25.17-.41-.06-.3-.17-.41Z"/>
    </g>
  </g>
</svg>