<?xml version="1.0" encoding="UTF-8"?>
<svg id="Layer_2" data-name="Layer 2" xmlns="http://www.w3.org/2000/svg" viewBox="0 0 174.17 48.07">
  <defs>
    <style>
      .cls-1 {
        fill: none;
        stroke: #fdc029;
        stroke-miterlimit: 10;
        stroke-width: .5px;
      }

      .cls-2 {
        fill: #fdc029;
      }

      .cls-3 {
        fill: #015d45;
      }
    </style>
  </defs>
  <g id="Layer_1-2" data-name="Layer 1">
    <g>
      <path class="cls-3" d="M9.88,18.98v.34c0,.08-.06.14-.14.14-.36,0-.67-.11-.92-.28-.25.19-.61.29-1.07.29h-.07c-.41,0-.73-.1-.98-.23l-.04.02c-.21.08-.47.13-.67.27-.24.17-.32.54-.32,1.14h-.8c0-.68.14-1.2.54-1.56.3-.29.68-.36.74-.41v-2.34c.39-.2.94-.38,1.57-.38,1.1,0,1.63.54,1.63,1.53v.44c0,.29-.04.54-.13.76.15.07.35.12.54.12.08,0,.14.06.14.14ZM8.54,17.46c0-.55-.28-.82-.88-.82-.36,0-.64.1-.73.14v1.9c.15.07.41.14.75.14h.03c.58,0,.84-.27.84-.79v-.58Z"/>
      <path class="cls-3" d="M13.74,18.83v.63h-4.01c-.08,0-.14-.06-.14-.14v-.34c0-.08.06-.14.14-.14h1.16c-.2-.22-.3-.52-.3-.93v-.42c0-.98.54-1.52,1.65-1.5.67,0,1.09.13,1.37.24l-.19.63c-.35-.13-.67-.21-1.1-.22-.57,0-.93.23-.93.81v.46c0,.64.22.93.85.93h1.49Z"/>
      <path class="cls-3" d="M17.57,18.98v.34c0,.08-.06.14-.14.14-.26,0-.5-.06-.67-.22-.23.18-.58.22-1.06.22h-1.51v-.63h1.51c.44,0,.54-.04.54-.34v-1.03c0-.55-.27-.82-.87-.82-.33,0-.62.07-.86.15l-.13-.65c.18-.05.65-.15,1.04-.15,1.1,0,1.62.53,1.62,1.53v1.04c0,.2.14.26.4.26.08,0,.14.06.14.14Z"/>
      <path class="cls-3" d="M19.24,14.47v4.99h-1.82c-.08,0-.14-.06-.14-.14v-.34c0-.08.06-.14.14-.14h1.03v-4.36h.79Z"/>
      <path class="cls-3" d="M20.32,19.46v-4.99h.79v4.99h-.79Z"/>
      <path class="cls-3" d="M29.59,18.98v.34c0,.08-.06.14-.14.14-.36,0-.67-.11-.92-.28-.25.19-.61.29-1.07.29h-.07c-.41,0-.73-.1-.98-.23l-.04.02c-.21.08-.47.13-.67.27-.24.17-.32.54-.32,1.14h-.8c0-.68.14-1.2.54-1.56.3-.29.68-.36.74-.41v-2.34c.39-.2.94-.38,1.57-.38,1.1,0,1.63.54,1.63,1.53v.44c0,.29-.04.54-.13.76.15.07.35.12.54.12.08,0,.14.06.14.14ZM28.25,17.46c0-.55-.28-.82-.88-.82-.36,0-.64.1-.73.14v1.9c.15.07.41.14.75.14h.03c.58,0,.84-.27.84-.79v-.58Z"/>
      <path class="cls-3" d="M31.31,16.09v3.37h-1.87c-.08,0-.14-.06-.14-.14v-.34c0-.08.06-.14.14-.14h1.08v-2.74h.79ZM29.38,20.94v-.7h.75v.7h-.75ZM30.35,20.94v-.7h.75v.7h-.75Z"/>
      <path class="cls-3" d="M35.34,18.98v.34c0,.08-.06.14-.14.14-.26,0-.5-.06-.67-.22-.23.18-.58.22-1.06.22h-1.51v-.63h1.51c.44,0,.54-.04.54-.34v-1.03c0-.55-.27-.82-.87-.82-.33,0-.62.07-.86.15l-.13-.65c.18-.05.65-.15,1.04-.15,1.1,0,1.62.53,1.62,1.53v1.04c0,.2.14.26.4.26.08,0,.14.06.14.14Z"/>
      <path class="cls-3" d="M39.87,18.98v.34c0,.08-.06.14-.14.14h-4.53c-.08,0-.14-.06-.14-.14v-.34c0-.08.06-.14.14-.14h1.18c-.2-.22-.3-.52-.3-.92v-.42c0-.99.58-1.51,1.62-1.51s1.62.52,1.62,1.51v.42c0,.4-.1.7-.3.92h.7c.08,0,.14.06.14.14ZM37.57,14.69v.71h-.75v-.71h.75ZM36.87,18.08c0,.47.29.75.83.76.54,0,.83-.29.83-.76v-.65c0-.5-.28-.78-.83-.79-.55,0-.83.3-.83.79v.65ZM38.54,14.69v.71h-.75v-.71h.75Z"/>
      <path class="cls-3" d="M41.59,16.09v3.37h-1.87c-.08,0-.14-.06-.14-.14v-.34c0-.08.06-.14.14-.14h1.08v-2.74h.79ZM40.71,14.69v.71h-.74v-.71h.74ZM40.95,14.69h.74v.71h-.74v-.71Z"/>
      <path class="cls-3" d="M45.6,16.34v3.27c0,1.03-.48,1.59-1.62,1.59h-.84v-.64h.84c.63,0,.83-.33.83-.91v-.19h-.81c-1.08,0-1.58-.54-1.58-1.5v-.45c0-.99.52-1.53,1.62-1.53.63,0,1.17.17,1.57.36ZM44.8,16.78c-.09-.05-.36-.14-.73-.14-.6,0-.88.27-.88.82v.57c0,.53.26.81.85.81h.77v-2.05Z"/>
      <path class="cls-3" d="M50.94,19.46c-1.01,0-1.04.26-1.04.68,0,.5.16.67,1.07.67.47,0,.88-.05,1.16-.09v.66c-.35.04-.69.08-1.14.08-1.18,0-1.88-.24-1.88-1.31,0-.7.28-.99.83-1.11-.37-.21-.55-.58-.55-1.13v-.42c0-.98.54-1.52,1.65-1.51.67,0,1.09.14,1.37.24l-.19.64c-.35-.13-.67-.22-1.1-.22-.57,0-.93.23-.93.81v.46c0,.64.22.93.85.93h1.5v.63h-1.59Z"/>
      <path class="cls-3" d="M54.67,18.98v.34c0,.08-.06.14-.14.14h-1.33v-4.99h.79v4.36h.54c.08,0,.14.06.14.14Z"/>
      <path class="cls-3" d="M60.28,18.98v.34c0,.08-.06.14-.14.14-.26,0-.5-.07-.67-.22-.22.18-.57.22-1.06.22h-3.87c-.08,0-.14-.06-.14-.14v-.34c0-.08.06-.14.14-.14h1.08v-4.36h.79v2.24c.38-.25,1.21-.77,2-.76.8.02,1.33.45,1.33,1.45v1.16c0,.2.14.26.4.26.08,0,.14.06.14.14ZM58.93,17.38c0-.56-.26-.77-.73-.77-.59,0-1.38.57-1.8.88v1.33h2c.44,0,.53-.04.53-.34v-1.11Z"/>
      <path class="cls-3" d="M64.81,18.98v.34c0,.08-.06.14-.14.14h-4.53c-.08,0-.14-.06-.14-.14v-.34c0-.08.06-.14.14-.14h1.18c-.2-.22-.3-.52-.3-.92v-.42c0-.99.58-1.51,1.62-1.51s1.62.52,1.62,1.51v.42c0,.4-.1.7-.3.92h.7c.08,0,.14.06.14.14ZM62.51,14.69v.71h-.75v-.71h.75ZM61.81,18.08c0,.47.29.75.83.76.54,0,.83-.29.83-.76v-.65c0-.5-.28-.78-.83-.79-.55,0-.83.3-.83.79v.65ZM63.48,14.69v.71h-.75v-.71h.75Z"/>
      <path class="cls-3" d="M66.48,14.47v4.99h-1.82c-.08,0-.14-.06-.14-.14v-.34c0-.08.06-.14.14-.14h1.03v-4.36h.79Z"/>
      <path class="cls-3" d="M67.56,19.46v-4.99h.79v4.99h-.79Z"/>
      <path class="cls-3" d="M72.21,19.46v-4.99h.79v4.99h-.79Z"/>
      <path class="cls-3" d="M77.02,18.98v.34c0,.08-.06.14-.14.14-.26,0-.5-.06-.68-.22-.22.18-.58.22-1.06.22h-1.51v-.63h1.51c.44,0,.54-.04.54-.34v-1.03c0-.55-.27-.82-.87-.82-.33,0-.62.07-.86.15l-.13-.65c.18-.05.65-.15,1.04-.15,1.1,0,1.62.53,1.62,1.53v1.04c0,.2.14.26.41.26.08,0,.14.06.14.14ZM75.42,14.69v.7h-.8v-.7h.8Z"/>
      <path class="cls-3" d="M80.93,15.96c.42,0,1.49.18,1.49,1.46v.58c0,.87-.4,1.46-1.49,1.46h-.24v.69h-.79v-.69h-3.01c-.08,0-.14-.06-.14-.14v-.34c0-.08.06-.14.14-.14h1.19c-.21-.22-.31-.51-.31-.91v-.43c0-.89.5-1.44,1.36-1.49-.13-.23-.19-.53-.2-.9h.78c.03.55.15.86.82.86h.4ZM79.88,18.83v-1.67c0-.52-.26-.77-.67-.77s-.67.24-.67.77v.92c0,.49.27.75.82.75h.51ZM81.62,17.35c0-.44-.21-.76-.8-.76h-.44c.19.29.3.66.3,1.06v1.18h.14c.59,0,.8-.31.8-.75v-.74Z"/>
      <path class="cls-3" d="M92.08,18.98v.34c0,.08-.06.14-.14.14-.9,0-1.33-.13-1.33-1v-1.74h-.69c-.42,0-.65.07-.78.14v3.16c0,.25-.05.33-.31.43-.31.13-.77.26-1.46.26-1.12,0-1.63-.57-1.63-1.57v-1.62h.79v1.73c0,.55.3.81.95.81.32,0,.58-.04.77-.11.06-.03.08-.04.08-.12v-3.4c.22-.13.74-.34,1.57-.34h1.5v2.4c0,.31.1.34.54.34.08,0,.14.06.14.14ZM87.65,15.42v.7h-.81v-.7h.81ZM89.65,20.94v-.7h.75v.7h-.75ZM90.62,20.94v-.7h.75v.7h-.75Z"/>
      <path class="cls-3" d="M96.78,18.98v.34c0,.08-.06.14-.14.14-.36,0-.67-.1-.92-.28-.24.18-.59.28-1.04.28h-2.75c-.08,0-.14-.06-.14-.14v-.34c0-.08.06-.14.14-.14h2.66c.55,0,.84-.28.84-.76v-.58c0-.46-.29-.75-.84-.75h-1.98v-.63l1.23-1.67h.93l-1.26,1.67h1.18c1.04,0,1.54.55,1.54,1.46v.42c0,.27-.04.51-.13.71.16.07.35.12.54.12.08,0,.14.06.14.14Z"/>
      <path class="cls-3" d="M101.46,18.98v.34c0,.08-.06.14-.14.14-.36,0-.67-.1-.91-.28-.26.19-.61.29-1.08.29h-.07c-.42,0-.74-.1-1-.23-.21.19-.58.23-1.08.23h-.54c-.08,0-.14-.06-.14-.14v-.34c0-.08.06-.14.14-.14h.54c.43,0,.54-.04.54-.34v-2.12c.4-.21.95-.38,1.57-.38,1.1,0,1.63.54,1.63,1.53v.44c0,.29-.04.54-.13.75.15.07.35.12.54.12.08,0,.14.06.14.14ZM100.12,17.47c0-.55-.28-.82-.88-.82-.37,0-.64.09-.74.14v1.89c.15.08.41.15.75.15h.03c.58,0,.84-.27.84-.8v-.57Z"/>
      <path class="cls-3" d="M103.19,16.09v3.37h-1.87c-.08,0-.14-.06-.14-.14v-.34c0-.08.06-.14.14-.14h1.08v-2.74h.79ZM102.3,14.69v.71h-.74v-.71h.74ZM102.54,14.69h.74v.71h-.74v-.71Z"/>
      <path class="cls-3" d="M113.81,18.98v.34c0,.08-.06.14-.14.14h-1.33v-2.67c-.1-.05-.37-.14-.74-.14-.6,0-.87.27-.87.82v.63c0,.43.2.74.65.74h.19v.63h-3.22c-1.03,0-1.49-.54-1.49-1.45v-1.29h.78v1.35c0,.53.26.76.81.76h1.81c-.21-.23-.31-.56-.31-.98v-.32c0-.99.52-1.55,1.63-1.55.62,0,1.17.18,1.57.37v2.48h.54c.08,0,.14.06.14.14Z"/>
      <path class="cls-3" d="M116.16,18.98v.34c0,.08-.06.14-.14.14-.3,0-.58-.06-.79-.23-.22.19-.58.23-1.08.23h-.49c-.08,0-.14-.06-.14-.14v-.34c0-.08.06-.14.14-.14h.49c.44,0,.54-.04.54-.34v-4.02h.79v4.1c0,.23.25.26.54.26.08,0,.14.06.14.14Z"/>
      <path class="cls-3" d="M120.03,18.83v.63h-4.01c-.08,0-.14-.06-.14-.14v-.34c0-.08.06-.14.14-.14h1.16c-.2-.22-.3-.52-.3-.93v-.42c0-.98.54-1.52,1.65-1.5.67,0,1.09.13,1.37.24l-.19.63c-.35-.13-.67-.21-1.1-.22-.57,0-.93.23-.93.81v.46c0,.64.22.93.85.93h1.49Z"/>
      <path class="cls-3" d="M127.29,18.98v.34c0,.08-.06.14-.14.14h-.54v.84c-.24.13-.77.41-1.76.41-1.12,0-1.63-.57-1.63-1.57v-1.62h.79v1.73c0,.55.31.81.96.81.39,0,.68-.08.86-.14v-5.45h.79v4.36h.54c.08,0,.14.06.14.14Z"/>
      <path class="cls-3" d="M131.97,18.98v.34c0,.08-.06.14-.14.14-.36,0-.67-.1-.91-.28-.26.19-.61.29-1.08.29h-.07c-.42,0-.74-.1-1-.23-.21.19-.58.23-1.08.23h-.54c-.08,0-.14-.06-.14-.14v-.34c0-.08.06-.14.14-.14h.54c.43,0,.54-.04.54-.34v-2.12c.4-.21.95-.38,1.57-.38,1.1,0,1.63.54,1.63,1.53v.44c0,.29-.04.54-.13.75.15.07.35.12.54.12.08,0,.14.06.14.14ZM130.63,17.47c0-.55-.28-.82-.88-.82-.37,0-.64.09-.74.14v1.89c.15.08.41.15.75.15h.03c.58,0,.84-.27.84-.8v-.57Z"/>
      <path class="cls-3" d="M136.55,18.98v.34c0,.08-.06.14-.14.14h-.61c-.42,0-.84-.05-1.21-.19-.29.13-.59.19-.88.19h-1.87c-.08,0-.14-.06-.14-.14v-.34c0-.08.06-.14.14-.14h1.93c-.49-.4-.86-1.01-.95-1.88-.09.03-.17.06-.26.09l-.22-.62c.74-.31,1.45-.45,2.05-.44,1.06,0,1.74.5,1.77,1.22.02.62-.32,1.21-.83,1.63h1.1c.08,0,.14.06.14.14ZM134.51,18.71c.56-.27.94-.98.82-1.48-.09-.39-.45-.57-.97-.58-.27,0-.58.04-.91.11.37,1.22.6,1.75,1.06,1.94Z"/>
      <path class="cls-3" d="M138.28,16.09v3.37h-1.87c-.08,0-.14-.06-.14-.14v-.34c0-.08.06-.14.14-.14h1.08v-2.74h.79ZM137.4,14.69v.71h-.74v-.71h.74ZM137.63,14.69h.74v.71h-.74v-.71Z"/>
      <path class="cls-3" d="M145.06,16.35v2.76c-.27.14-.88.35-1.54.35h-.07c-1.08,0-1.58-.54-1.58-1.5v-.45c0-.99.53-1.53,1.63-1.53.63,0,1.18.17,1.57.37ZM143.33,14.69v.71h-.75v-.71h.75ZM144.27,16.78c-.09-.05-.36-.14-.73-.14-.6,0-.88.28-.88.82v.57c0,.53.26.8.84.8h.22c.24-.02.43-.08.55-.14v-1.91ZM144.3,14.69v.71h-.75v-.71h.75Z"/>
      <path class="cls-3" d="M145.23,20.57c.8.05,1.04-.29,1.04-.92v-3.56h.79v3.51c0,1.09-.55,1.66-1.83,1.59v-.63Z"/>
      <path class="cls-3" d="M148.13,19.46v-4.99h.79v4.99h-.79Z"/>
      <path class="cls-3" d="M149.1,20.57c.8.05,1.04-.29,1.04-.92v-3.56h.79v3.51c0,1.09-.55,1.66-1.83,1.59v-.63ZM150.1,15.39v-.7h.81v.7h-.81Z"/>
      <path class="cls-3" d="M155.62,18.98v.34c0,.08-.06.14-.14.14h-.54v.14c0,1.03-.48,1.59-1.62,1.59h-.84v-.64h.84c.63,0,.83-.33.83-.91v-.19h-.81c-1.08,0-1.58-.54-1.58-1.5v-.45c0-.99.52-1.53,1.62-1.53.63,0,1.17.17,1.57.36v2.49h.54c.08,0,.14.06.14.14ZM154.14,18.83v-2.05c-.09-.05-.36-.14-.73-.14-.6,0-.88.27-.88.82v.57c0,.53.26.81.85.81h.77Z"/>
      <path class="cls-3" d="M157.29,14.47v4.99h-1.82c-.08,0-.14-.06-.14-.14v-.34c0-.08.06-.14.14-.14h1.03v-4.36h.79Z"/>
      <path class="cls-3" d="M158.37,19.46v-4.99h.79v4.99h-.79Z"/>
      <path class="cls-3" d="M160.4,18.57l-.51-.49,1.09-1.11-1.09-1.13.49-.47,1.54,1.61-1.52,1.58ZM162.04,18.57l-.51-.49,1.09-1.11-1.09-1.13.5-.47,1.54,1.61-1.52,1.58Z"/>
      <path class="cls-3" d="M17.9,30.57l-1.52-1.58,1.54-1.61.5.47-1.09,1.13,1.09,1.11-.51.49ZM19.54,30.57l-1.52-1.58,1.54-1.61.5.47-1.09,1.13,1.09,1.11-.51.49Z"/>
      <path class="cls-3" d="M20.6,31.46v-.43l.55-.54c1.33-1.26,1.93-1.94,1.94-2.72,0-.53-.26-1.02-1.03-1.02-.47,0-.87.24-1.1.44l-.22-.5c.36-.3.87-.53,1.47-.53,1.12,0,1.59.77,1.59,1.51,0,.96-.7,1.73-1.79,2.79l-.42.38v.02h2.33v.58h-3.32Z"/>
      <path class="cls-3" d="M28.16,28.81c0,1.77-.65,2.74-1.81,2.74-1.02,0-1.7-.95-1.72-2.67,0-1.74.75-2.7,1.81-2.7s1.72.98,1.72,2.63ZM25.34,28.89c0,1.35.42,2.12,1.06,2.12.72,0,1.06-.84,1.06-2.17s-.33-2.12-1.05-2.12c-.62,0-1.06.75-1.06,2.17Z"/>
      <path class="cls-3" d="M28.98,30.65c.2.13.66.33,1.15.33.9,0,1.18-.58,1.18-1.01,0-.73-.66-1.04-1.34-1.04h-.39v-.53h.39c.51,0,1.16-.26,1.16-.88,0-.42-.26-.78-.91-.78-.41,0-.81.18-1.04.34l-.18-.51c.27-.2.8-.4,1.36-.4,1.02,0,1.49.61,1.49,1.24,0,.54-.32.99-.96,1.22v.02c.64.13,1.16.61,1.16,1.34,0,.83-.65,1.56-1.89,1.56-.58,0-1.1-.18-1.35-.35l.19-.54Z"/>
      <path class="cls-3" d="M36.37,28.81c0,1.77-.66,2.74-1.81,2.74-1.02,0-1.7-.95-1.72-2.67,0-1.74.75-2.7,1.81-2.7s1.72.98,1.72,2.63ZM33.55,28.89c0,1.35.42,2.12,1.05,2.12.72,0,1.06-.84,1.06-2.17s-.33-2.12-1.06-2.12c-.62,0-1.06.75-1.06,2.17Z"/>
      <path class="cls-3" d="M42.14,30.98v.34c0,.08-.06.14-.14.14-.3,0-.6-.07-.81-.23-.32.12-.78.23-1.27.23h-.07c-1.08,0-1.58-.54-1.58-1.5v-.45c0-.99.53-1.53,1.63-1.53.63,0,1.18.17,1.57.37v2.22c0,.23.25.26.54.26.08,0,.14.06.14.14ZM39.73,26.69v.71h-.75v-.71h.75ZM40.67,28.78c-.09-.05-.36-.14-.73-.14-.6,0-.88.28-.88.82v.57c0,.53.26.8.84.8h.22c.24-.02.43-.08.55-.14v-1.91ZM40.7,26.69v.71h-.75v-.71h.75Z"/>
      <path class="cls-3" d="M46.84,30.98v.34c0,.08-.06.14-.14.14-.36,0-.67-.1-.92-.28-.24.18-.6.28-1.04.28h-2.75c-.08,0-.14-.06-.14-.14v-.34c0-.08.06-.14.14-.14h2.66c.55,0,.84-.28.84-.76v-.58c0-.46-.29-.75-.84-.75h-1.98v-.63l1.23-1.67h.93l-1.26,1.67h1.18c1.04,0,1.54.55,1.54,1.46v.42c0,.27-.04.51-.13.71.16.07.35.12.54.12.08,0,.14.06.14.14Z"/>
      <path class="cls-3" d="M49.2,30.98v.34c0,.08-.06.14-.14.14-.3,0-.59-.06-.79-.23-.21.19-.58.23-1.08.23h-.49c-.08,0-.14-.06-.14-.14v-.34c0-.08.06-.14.14-.14h.49c.44,0,.54-.04.54-.34v-4.02h.79v4.1c0,.23.25.26.54.26.08,0,.14.06.14.14Z"/>
      <path class="cls-3" d="M53.88,30.98v.34c0,.08-.06.14-.14.14-.36,0-.67-.1-.91-.28-.26.19-.61.29-1.08.29h-.07c-.42,0-.74-.1-1-.23-.21.19-.58.23-1.08.23h-.54c-.08,0-.14-.06-.14-.14v-.34c0-.08.06-.14.14-.14h.54c.43,0,.54-.04.54-.34v-2.12c.4-.21.95-.38,1.57-.38,1.1,0,1.63.54,1.63,1.53v.44c0,.29-.04.54-.13.75.15.07.35.12.54.12.08,0,.14.06.14.14ZM52.54,29.47c0-.55-.28-.82-.88-.82-.37,0-.64.09-.74.14v1.89c.15.08.41.15.75.15h.03c.58,0,.84-.27.84-.8v-.57Z"/>
      <path class="cls-3" d="M58.56,30.98v.34c0,.08-.06.14-.14.14-.36,0-.67-.1-.91-.28-.26.19-.61.29-1.08.29h-.07c-.42,0-.74-.1-1-.23-.21.19-.58.23-1.08.23h-.54c-.08,0-.14-.06-.14-.14v-.34c0-.08.06-.14.14-.14h.54c.43,0,.54-.04.54-.34v-2.12c.4-.21.95-.38,1.57-.38,1.1,0,1.63.54,1.63,1.53v.44c0,.29-.04.54-.13.75.15.07.35.12.54.12.08,0,.14.06.14.14ZM57.22,29.47c0-.55-.28-.82-.88-.82-.37,0-.64.09-.74.14v1.89c.15.08.41.15.75.15h.03c.58,0,.84-.27.84-.8v-.57Z"/>
      <path class="cls-3" d="M60.23,26.47v4.99h-1.82c-.08,0-.14-.06-.14-.14v-.34c0-.08.06-.14.14-.14h1.03v-4.36h.79Z"/>
      <path class="cls-3" d="M61.31,31.46v-4.99h.79v4.99h-.79Z"/>
      <path class="cls-3" d="M68.13,30.98v.34c0,.08-.06.14-.14.14-.3,0-.6-.07-.81-.23-.31.12-.78.23-1.27.23h-.07c-1.08,0-1.58-.54-1.58-1.5v-.45c0-.99.53-1.53,1.63-1.53.63,0,1.18.17,1.57.37v2.22c0,.23.25.26.54.26.08,0,.14.06.14.14ZM65.71,26.69v.71h-.75v-.71h.75ZM66.65,28.78c-.09-.05-.36-.14-.73-.14-.6,0-.88.28-.88.82v.57c0,.53.26.8.84.8h.23c.24-.02.43-.08.55-.14v-1.91ZM66.69,26.69v.71h-.75v-.71h.75Z"/>
      <path class="cls-3" d="M69.04,30.88v.42c0,.09-.07.16-.16.16h-.9c-.09,0-.16-.07-.16-.16v-.42c0-.08.07-.16.16-.16h.9c.09,0,.16.08.16.16Z"/>
      <path class="cls-3" d="M69.94,30.88v.42c0,.09-.07.16-.16.16h-.9c-.09,0-.16-.07-.16-.16v-.42c0-.08.07-.16.16-.16h.9c.09,0,.16.08.16.16Z"/>
      <path class="cls-3" d="M70.84,30.88v.42c0,.09-.07.16-.16.16h-.9c-.09,0-.16-.07-.16-.16v-.42c0-.08.07-.16.16-.16h.9c.09,0,.16.08.16.16Z"/>
      <path class="cls-3" d="M71.74,30.88v.42c0,.09-.07.16-.16.16h-.9c-.09,0-.16-.07-.16-.16v-.42c0-.08.07-.16.16-.16h.9c.09,0,.16.08.16.16Z"/>
      <path class="cls-3" d="M72.64,30.88v.42c0,.09-.07.16-.16.16h-.9c-.09,0-.16-.07-.16-.16v-.42c0-.08.07-.16.16-.16h.9c.09,0,.16.08.16.16Z"/>
      <path class="cls-3" d="M73.54,30.88v.42c0,.09-.07.16-.16.16h-.9c-.09,0-.16-.07-.16-.16v-.42c0-.08.07-.16.16-.16h.9c.09,0,.16.08.16.16Z"/>
      <path class="cls-3" d="M74.44,30.88v.42c0,.09-.07.16-.16.16h-.9c-.09,0-.16-.07-.16-.16v-.42c0-.08.07-.16.16-.16h.9c.09,0,.16.08.16.16Z"/>
      <path class="cls-3" d="M76.15,28.09v3.37h-1.87c-.08,0-.14-.06-.14-.14v-.34c0-.08.06-.14.14-.14h1.08v-2.74h.79ZM74.22,32.94v-.7h.75v.7h-.75ZM75.19,32.94v-.7h.75v.7h-.75Z"/>
      <path class="cls-3" d="M80.16,28.34v3.27c0,1.03-.48,1.59-1.62,1.59h-.84v-.64h.84c.63,0,.83-.33.83-.91v-.19h-.81c-1.08,0-1.58-.54-1.58-1.5v-.45c0-.99.52-1.53,1.62-1.53.63,0,1.17.17,1.57.36ZM78.87,27.14v.32h-1.28v-.32h.23c-.05-.07-.06-.16-.06-.29v-.02c0-.58.52-.69,1.04-.49l-.09.31c-.31-.16-.58-.09-.58.16v.14c0,.13.09.19.23.19h.5ZM79.37,28.78c-.09-.05-.36-.14-.73-.14-.6,0-.88.27-.88.82v.57c0,.53.26.81.85.81h.77v-2.05Z"/>
      <path class="cls-3" d="M80.33,32.57c.8.05,1.04-.29,1.04-.92v-3.56h.79v3.51c0,1.09-.55,1.66-1.83,1.59v-.63Z"/>
      <path class="cls-3" d="M88.69,30.98v.34c0,.08-.06.14-.14.14h-.62c-.41,0-.83-.05-1.21-.18-.29.12-.58.19-.88.19h0c-.5.08-.55.34-.55.68,0,.49.16.67,1.07.67.47,0,.88-.06,1.15-.1v.67c-.34.04-.67.08-1.14.08-1.18,0-1.88-.25-1.88-1.31,0-.93.49-1.24,1.43-1.31-.51-.4-.87-1-.98-1.89-.09.03-.17.05-.26.09l-.22-.62c.75-.31,1.46-.45,2.05-.44,1.07,0,1.74.5,1.76,1.23.02.61-.32,1.2-.82,1.61h1.1c.08,0,.14.06.14.14ZM86.65,30.72c.56-.28.93-.99.82-1.48-.09-.38-.46-.57-.98-.58-.26,0-.58.03-.91.11.38,1.22.59,1.75,1.07,1.94Z"/>
      <path class="cls-3" d="M89.61,30.88v.42c0,.09-.07.16-.16.16h-.9c-.09,0-.16-.07-.16-.16v-.42c0-.08.07-.16.16-.16h.9c.09,0,.16.08.16.16Z"/>
      <path class="cls-3" d="M90.51,30.88v.42c0,.09-.07.16-.16.16h-.9c-.09,0-.16-.07-.16-.16v-.42c0-.08.07-.16.16-.16h.9c.09,0,.16.08.16.16Z"/>
      <path class="cls-3" d="M91.41,30.88v.42c0,.09-.07.16-.16.16h-.9c-.09,0-.16-.07-.16-.16v-.42c0-.08.07-.16.16-.16h.9c.09,0,.16.08.16.16Z"/>
      <path class="cls-3" d="M92.31,30.88v.42c0,.09-.07.16-.16.16h-.9c-.09,0-.16-.07-.16-.16v-.42c0-.08.07-.16.16-.16h.9c.09,0,.16.08.16.16Z"/>
      <path class="cls-3" d="M93.21,30.88v.42c0,.09-.07.16-.16.16h-.9c-.09,0-.16-.07-.16-.16v-.42c0-.08.07-.16.16-.16h.9c.09,0,.16.08.16.16Z"/>
      <path class="cls-3" d="M94.11,30.88v.42c0,.09-.07.16-.16.16h-.9c-.09,0-.16-.07-.16-.16v-.42c0-.08.07-.16.16-.16h.9c.09,0,.16.08.16.16Z"/>
      <path class="cls-3" d="M95.01,30.88v.42c0,.09-.07.16-.16.16h-.9c-.09,0-.16-.07-.16-.16v-.42c0-.08.07-.16.16-.16h.9c.09,0,.16.08.16.16Z"/>
      <path class="cls-3" d="M95.91,30.88v.42c0,.09-.07.16-.16.16h-.9c-.09,0-.16-.07-.16-.16v-.42c0-.08.07-.16.16-.16h.9c.09,0,.16.08.16.16Z"/>
      <path class="cls-3" d="M96.81,30.88v.42c0,.09-.07.16-.16.16h-.9c-.09,0-.16-.07-.16-.16v-.42c0-.08.07-.16.16-.16h.9c.09,0,.16.08.16.16Z"/>
      <path class="cls-3" d="M97.71,30.88v.42c0,.09-.07.16-.16.16h-.9c-.09,0-.16-.07-.16-.16v-.42c0-.08.07-.16.16-.16h.9c.09,0,.16.08.16.16Z"/>
      <path class="cls-3" d="M98.61,30.88v.42c0,.09-.07.16-.16.16h-.9c-.09,0-.16-.07-.16-.16v-.42c0-.08.07-.16.16-.16h.9c.09,0,.16.08.16.16Z"/>
      <path class="cls-3" d="M102.72,29.53v.44c0,.97-.5,1.5-1.59,1.5h-.07c-.42,0-.74-.1-1-.23-.22.19-.58.23-1.08.23h-.54c-.08,0-.14-.06-.14-.14v-.34c0-.08.06-.14.14-.14h.54c.43,0,.54-.04.54-.34v-2.12c.4-.21.95-.38,1.57-.38,1.1,0,1.63.54,1.63,1.53ZM101.93,29.47c0-.55-.28-.82-.87-.82-.37,0-.64.09-.74.14v1.89c.15.08.41.15.75.15h.03c.58,0,.84-.27.84-.8v-.57Z"/>
      <path class="cls-3" d="M114.23,28.1h.8v1.87c0,1.03-.58,1.49-1.29,1.49-.4,0-.77-.14-1.04-.4-.22.25-.57.39-1.05.4-.95,0-1.37-.52-1.37-1.41v-1.27c-.09-.05-.36-.14-.72-.14-.6,0-.88.27-.88.82v.63c0,.39.16.68.52.74h.31v.63h-3.22c-1.03,0-1.49-.54-1.49-1.45v-1.29h.79v1.35c0,.53.26.76.8.76h1.8c-.21-.23-.31-.56-.31-.98v-.31c0-1,.53-1.56,1.64-1.56.62,0,1.17.18,1.56.38v1.77c0,.44.17.69.58.69s.57-.25.57-.69v-1.7h.79v1.62c0,.18-.02.34-.05.49.17.17.38.28.65.28.37,0,.61-.21.62-.6v-2.12ZM112.47,26.69v.71h-.75v-.71h.75ZM112.96,25.78v.7h-.75v-.7h.75ZM112.7,27.4v-.71h.75v.71h-.75Z"/>
      <path class="cls-3" d="M117.57,30.98v.34c0,.08-.06.14-.14.14h-1.33v-4.99h.79v4.36h.54c.08,0,.14.06.14.14Z"/>
      <path class="cls-3" d="M122.25,30.98v.34c0,.08-.06.14-.14.14-.36,0-.67-.1-.91-.28-.26.19-.61.29-1.08.29h-.07c-.42,0-.74-.1-1-.23-.21.19-.58.23-1.08.23h-.54c-.08,0-.14-.06-.14-.14v-.34c0-.08.06-.14.14-.14h.54c.43,0,.54-.04.54-.34v-2.12c.4-.21.95-.38,1.57-.38,1.1,0,1.63.54,1.63,1.53v.44c0,.29-.04.54-.13.75.15.07.35.12.54.12.08,0,.14.06.14.14ZM120.91,29.47c0-.55-.28-.82-.88-.82-.37,0-.64.09-.74.14v1.89c.15.08.41.15.75.15h.03c.58,0,.84-.27.84-.8v-.57Z"/>
      <path class="cls-3" d="M124.66,30.98v.34c0,.08-.06.14-.14.14-.3,0-.59-.06-.79-.23-.21.19-.58.23-1.08.23h-.54c-.08,0-.14-.06-.14-.14v-.34c0-.08.06-.14.14-.14h.54c.44,0,.54-.04.54-.34v-2.4h.79v2.48c0,.23.25.26.54.26.08,0,.14.06.14.14ZM122.98,26.69v.71h-.75v-.71h.75ZM123.95,26.69v.71h-.75v-.71h.75Z"/>
      <path class="cls-3" d="M126.39,28.09v3.37h-1.87c-.08,0-.14-.06-.14-.14v-.34c0-.08.06-.14.14-.14h1.08v-2.74h.79ZM124.46,32.94v-.7h.75v.7h-.75ZM125.43,32.94v-.7h.75v.7h-.75Z"/>
      <path class="cls-3" d="M130.28,30.98v.34c0,.08-.06.14-.14.14h-1.33v-4.99h.79v4.36h.54c.08,0,.14.06.14.14Z"/>
      <path class="cls-3" d="M134.96,30.98v.34c0,.08-.06.14-.14.14-.36,0-.67-.1-.91-.28-.26.19-.61.29-1.08.29h-.07c-.42,0-.74-.1-1-.23-.22.19-.58.23-1.08.23h-.54c-.08,0-.14-.06-.14-.14v-.34c0-.08.06-.14.14-.14h.54c.43,0,.54-.04.54-.34v-2.12c.4-.21.95-.38,1.57-.38,1.1,0,1.63.54,1.63,1.53v.44c0,.29-.04.54-.13.75.15.07.35.12.54.12.08,0,.14.06.14.14ZM133.62,29.47c0-.55-.28-.82-.87-.82-.37,0-.64.09-.74.14v1.89c.15.08.41.15.75.15h.03c.58,0,.84-.27.84-.8v-.57Z"/>
      <path class="cls-3" d="M136.69,28.09v3.37h-1.87c-.08,0-.14-.06-.14-.14v-.34c0-.08.06-.14.14-.14h1.08v-2.74h.79ZM135.09,32.94v-.7h.81v.7h-.81Z"/>
      <path class="cls-3" d="M138.91,31.61l.59-1.67h.5l-.25,1.67h-.84Z"/>
      <path class="cls-3" d="M144.5,30.98v.34c0,.08-.06.14-.14.14-.3,0-.6-.07-.81-.23-.32.12-.78.23-1.27.23h-.07c-1.08,0-1.58-.54-1.58-1.5v-.45c0-.99.53-1.53,1.63-1.53.63,0,1.18.17,1.57.37v2.22c0,.23.25.26.54.26.08,0,.14.06.14.14ZM143.02,28.78c-.09-.05-.36-.14-.73-.14-.6,0-.88.28-.88.82v.57c0,.53.26.8.84.8h.22c.24-.02.43-.08.55-.14v-1.91Z"/>
      <path class="cls-3" d="M146.17,26.47v4.99h-1.82c-.08,0-.14-.06-.14-.14v-.34c0-.08.06-.14.14-.14h1.03v-4.36h.79Z"/>
      <path class="cls-3" d="M152.65,29.52v.44c0,.97-.51,1.51-1.58,1.51h-.09c-.41,0-.71-.1-.96-.23l-.04.02c-.22.08-.47.13-.67.27-.24.17-.32.54-.32,1.14h-.8c0-.68.14-1.2.54-1.56.3-.29.68-.36.74-.41v-2.34c.39-.2.94-.38,1.57-.38,1.1,0,1.63.54,1.63,1.53ZM151.86,29.46c0-.55-.28-.82-.88-.82-.36,0-.64.1-.73.14v1.9c.15.07.41.14.75.14h.03c.58,0,.84-.27.84-.79v-.58Z"/>
      <path class="cls-3" d="M152.69,32.57c.8.05,1.04-.29,1.04-.92v-3.56h.79v3.51c0,1.09-.55,1.66-1.83,1.59v-.63ZM153.69,27.39v-.7h.81v.7h-.81Z"/>
      <path class="cls-3" d="M159.67,30.98v.34c0,.08-.06.14-.14.14-.3,0-.59-.06-.79-.23-.22.19-.58.23-1.08.23h-2.41v-.63h.85v-3.3h.8v3.3h.76c.44,0,.53-.04.53-.34v-4.02h.8v4.1c0,.23.25.26.54.26.08,0,.14.06.14.14Z"/>
      <path class="cls-3" d="M161.35,26.47v4.99h-1.82c-.08,0-.14-.06-.14-.14v-.34c0-.08.06-.14.14-.14h1.03v-4.36h.79Z"/>
      <path class="cls-3" d="M162.43,31.46v-4.99h.79v4.99h-.79Z"/>
    </g>
    <path class="cls-2" d="M165.06,3.45V0h3.75v3.45c0,1.27-.24,2.29-.73,3.08-.49.78-1.26,1.38-2.32,1.81l-.91-1.3c.7-.28,1.21-.69,1.54-1.24.33-.54.51-1.33.55-2.35h-1.87Z"/>
    <path class="cls-2" d="M170.42,3.45V0h3.75v3.45c0,1.27-.24,2.29-.73,3.08-.49.78-1.26,1.38-2.32,1.81l-.91-1.3c.7-.28,1.21-.69,1.54-1.24.33-.54.51-1.33.55-2.35h-1.87Z"/>
    <line class="cls-1" x1="162.09" y1="3.55" x2="6.75" y2="3.55"/>
    <line class="cls-1" x1="168.09" y1="44.55" x2="12.75" y2="44.55"/>
    <path class="cls-2" d="M9.17,44.62l-.06,3.45-3.75-.06.06-3.45c.02-1.27.28-2.29.78-3.06.5-.77,1.29-1.36,2.35-1.77l.89,1.31c-.7.27-1.22.67-1.56,1.21-.34.54-.54,1.32-.59,2.34l1.87.03Z"/>
    <path class="cls-2" d="M3.81,44.53l-.06,3.45-3.75-.06.06-3.45c.02-1.27.28-2.29.78-3.06.5-.77,1.29-1.36,2.35-1.77l.89,1.31c-.7.27-1.22.67-1.56,1.21-.34.54-.54,1.32-.59,2.34l1.87.03Z"/>
  </g>
</svg>