<?xml version="1.0" encoding="UTF-8"?>
<svg id="Layer_2" data-name="Layer 2" xmlns="http://www.w3.org/2000/svg" viewBox="0 0 429.93 94.81">
  <g id="Layer_1-2" data-name="Layer 1">
    <g>
      <g>
        <g>
          <path d="M5.08,34.53c-.94,0-1.76-.21-2.45-.64-.69-.43-1.22-1.04-1.58-1.82-.36-.79-.54-1.7-.54-2.74v-2.69h2.44v2.68c0,.63.09,1.17.27,1.6.18.43.43.75.75.96.32.21.69.32,1.1.32s.77-.11,1.09-.32c.32-.21.57-.54.75-.97.18-.43.27-1.08.27-1.94v-10.46h2.41v11.74c-.07.9-.29,1.67-.68,2.31-.39.64-.9,1.13-1.54,1.47s-1.41.51-2.29.51Z" style="fill: #fff;"/>
          <path d="M17.78,23.15c.62.37,1.1.9,1.43,1.6s.5,1.5.5,2.4v2.31c0,1.85-.47,3.24-1.4,4.16-.93.92-2.34,1.38-4.23,1.38h-2.36v-2.25h2.39c.96,0,1.68-.17,2.16-.5.48-.33.76-.67.83-1.01h-.91c-1.5,0-2.63-.37-3.4-1.1-.77-.73-1.16-1.82-1.16-3.25,0-.82.17-1.56.52-2.21.34-.65.82-1.17,1.44-1.53s1.31-.55,2.09-.55,1.49.18,2.11.55ZM17.31,29.08v-1.63c0-1-.15-1.7-.43-2.09-.28-.39-.68-.59-1.2-.59-.31,0-.58.08-.82.25-.24.17-.44.42-.58.74-.15.32-.22.7-.22,1.14,0,.76.17,1.31.51,1.66.34.35.88.52,1.63.52h1.12Z" style="fill: #fff;"/>
          <path d="M26.88,31.25h-5.25v-2.21h2.04v-8.71h2.44v8.75h.5c.65-.02,1.1-.16,1.36-.43.28-.3.42-.82.42-1.56v-8.59h2.5v8.6c-.05,1.35-.42,2.37-1.09,3.08-.67.71-1.65,1.06-2.92,1.06ZM25.69,17.98v1.17h-3.45v-1.17h1.16c-.19.41-.37.44-.55.07-.18-.36-.27-.64-.27-.83,0-.29.08-.55.23-.77s.36-.39.62-.52c.26-.12.56-.18.88-.18s.64.05.99.15v1.17c-.36-.09-.66-.14-.91-.14-.17,0-.31.04-.41.13s-.15.2-.15.34c0,.17.07.31.21.42.14.11.33.16.56.16h1.09Z" style="fill: #fff;"/>
          <path d="M33.23,18.51h2.39v3.5l.02,9.24h-2.42l.02-9.24v-3.5Z" style="fill: #fff;"/>
          <path d="M53.63,23.69c-.11.01-.29.05-.54.12-.63.17-1.07.39-1.32.67s-.32.59-.22.93c.04.18.14.39.3.64.16.25.4.59.73,1.04l.34.43c.38.49.7.97.96,1.42.25.46.51,1.22.77,2.3h-9.02c-1.64,0-2.85-.41-3.64-1.24-.74-.77-1.12-1.87-1.12-3.32v-2.36h2.39v2.35c0,.55.08.99.23,1.34.15.36.4.63.74.8.34.17.81.26,1.4.26h5.3l-.44-.55c-.38-.5-.69-.95-.93-1.35-.24-.4-.41-.81-.53-1.22-.27-1.01-.09-1.88.56-2.62.65-.73,1.64-1.28,2.97-1.63.74-.2,1.68-.38,2.83-.56l.55,1.32,2.72,6.05c.16.37.54.56,1.12.56h.28l.61.25v1.71l-.62.21h-.78c-.77,0-1.43-.17-1.98-.5-.24-.14-.42-.34-.55-.62l-3.08-6.43ZM45.32,33.27c0-.38.13-.7.4-.96s.59-.39.96-.39.7.13.97.39.4.58.4.96-.14.7-.41.96c-.27.26-.59.39-.96.39s-.69-.13-.96-.39-.4-.58-.4-.95ZM48.37,33.27c0-.38.13-.7.4-.96.27-.26.59-.39.96-.39s.7.13.97.39c.27.26.4.58.4.96s-.14.7-.41.96c-.27.26-.59.39-.96.39s-.69-.13-.96-.39c-.27-.26-.4-.58-.4-.95Z" style="fill: #fff;"/>
          <path d="M58.97,31.04v-1.76l.63-.21h5.71l.63.21v1.76l-.63.21h-5.71l-.63-.21Z" style="fill: #fff;"/>
          <path d="M64.21,31.04v-1.76l.63-.21h5.71l.63.21v1.76l-.63.21h-5.71l-.63-.21Z" style="fill: #fff;"/>
          <path d="M70.19,31.25l.08-2.17h8.79v1.08c-.42-.4-.7-.73-.86-1-.16-.27-.34-.64-.54-1.14l-.52-1.22c-.27-.62-.51-1.07-.72-1.36-.21-.29-.43-.48-.66-.57s-.54-.14-.93-.14h-2.47v-2.17h2.47c.81,0,1.48.09,2.01.28.53.18.99.51,1.39.98.4.47.77,1.15,1.12,2.03l.51,1.25c.22.54.43.94.61,1.22s.35.46.5.56c.16.1.41.17.78.21h.89l.48.2v1.83l-.49.14h-12.4Z" style="fill: #fff;"/>
          <path d="M86.64,30.18c-.67.71-1.65,1.06-2.92,1.06h-1.37l-.47-.2v-1.77l.47-.2h.3c1.17,0,1.89-.15,2.17-.44s.41-.81.41-1.54v-4.27h2.5v4.28c-.05,1.34-.42,2.36-1.09,3.07ZM84.1,34.12c-.24-.24-.36-.53-.36-.86s.12-.63.36-.87c.24-.24.53-.36.87-.36s.64.12.88.36c.24.24.37.53.37.87s-.12.63-.37.87c-.25.24-.54.36-.88.36s-.63-.12-.87-.36Z" style="fill: #fff;"/>
          <path d="M94.04,31.25c-.04,1.15-.39,2.05-1.04,2.7-.71.71-1.76,1.11-3.13,1.21h-1.7v-2.28h1.59c.65,0,1.12-.16,1.42-.49s.46-.87.46-1.62v-7.94h2.48v6.25h1.8l.47.2v1.77l-.47.2h-1.87Z" style="fill: #fff;"/>
          <path d="M99.03,30.18c-.67.71-1.65,1.06-2.92,1.06h-.55l-.47-.2v-1.77l.47-.2h.3c.62,0,1.07-.15,1.35-.44s.41-.81.41-1.55l-.03-5.18v-3.41h2.49v3.4l-.04,5.18c0,1.35-.34,2.38-1.01,3.09Z" style="fill: #fff;"/>
          <path d="M102.26,18.51h2.39v3.5l.02,9.24h-2.42l.02-9.24v-3.5Z" style="fill: #fff;"/>
          <path d="M113.95,31.25c-.04,1.15-.39,2.05-1.04,2.7-.71.71-1.76,1.11-3.13,1.21h-1.7v-2.28h1.59c.65,0,1.12-.16,1.42-.49s.46-.87.46-1.62v-7.94h2.48v6.25h1.8l.47.2v1.77l-.47.2h-1.87Z" style="fill: #fff;"/>
          <path d="M114.67,31.04v-1.76l.63-.21h5.71l.63.21v1.76l-.63.21h-5.71l-.63-.21Z" style="fill: #fff;"/>
          <path d="M119.91,31.04v-1.76l.63-.21h5.71l.63.21v1.76l-.63.21h-5.71l-.63-.21Z" style="fill: #fff;"/>
          <path d="M125.15,31.04v-1.76l.63-.21h5.71l.63.21v1.76l-.63.21h-5.71l-.63-.21Z" style="fill: #fff;"/>
          <path d="M130.39,31.04v-1.76l.63-.21h5.71l.63.21v1.76l-.63.21h-5.71l-.63-.21Z" style="fill: #fff;"/>
          <path d="M135.63,31.04v-1.76l.63-.21h5.71l.63.21v1.76l-.63.21h-5.71l-.63-.21Z" style="fill: #fff;"/>
          <path d="M148.67,29.32v1.73l-.47.2h-.67c-.58,0-1.16-.17-1.74-.53-.58-.35-1.04-.93-1.39-1.75h.98c-.27.8-.66,1.38-1.16,1.74-.5.36-1.21.54-2.15.54h-.3l-.47-.2v-1.77l.47-.2h.3c.57,0,.99-.15,1.28-.45s.4-.78.37-1.44v-3.54h2.56v3.54c-.04.66.08,1.13.36,1.44s.71.45,1.28.45h.31l.45.24ZM142.45,34.13c-.24-.24-.36-.53-.36-.86s.12-.63.36-.87.53-.36.87-.36.64.12.88.36c.24.24.37.53.37.87s-.12.63-.37.87c-.25.24-.54.36-.88.36s-.63-.12-.87-.36ZM145.41,34.13c-.24-.24-.37-.53-.37-.86s.12-.63.37-.87.53-.36.87-.36.64.12.88.36.37.53.37.87-.12.63-.37.87c-.25.24-.54.36-.88.36s-.63-.12-.87-.36Z" style="fill: #fff;"/>
          <path d="M150.14,29.08c-.09-.15-.15-.25-.16-.28-.38-.75-.57-1.49-.57-2.2,0-.86.21-1.63.62-2.32.42-.69.99-1.22,1.73-1.6.74-.38,1.58-.57,2.51-.57.58,0,1.35.11,2.3.34l-.28,2.52c-.84-.3-1.46-.45-1.88-.45-.56,0-1.02.08-1.38.23-.36.15-.66.39-.88.71-.22.32-.33.7-.33,1.14s.16.9.48,1.34.78.74,1.39.9c.6.16,1.31.24,2.12.24h2.27v2.17h-10.15l-.47-.2v-1.77l.47-.2h2.2ZM153.18,20.72c-.24-.24-.37-.53-.37-.86s.12-.63.37-.87.53-.36.87-.36.64.12.88.36.37.53.37.87-.12.63-.37.87-.54.36-.88.36-.63-.12-.87-.36Z" style="fill: #fff;"/>
          <path d="M165.61,30.68c-.33.38-.52.82-.59,1.34-.05.45,0,.87.15,1.23.15.37.41.68.77.93.36.25.81.44,1.35.57h3.8l-1.08,2.04h-3.13c-.92-.13-1.73-.43-2.42-.9-.69-.47-1.19-1.07-1.51-1.8-.32-.74-.43-1.53-.32-2.38.11-.83.41-1.54.88-2.13.08-.1.18-.21.29-.31-.1-.14-.2-.29-.29-.46-.38-.75-.57-1.48-.57-2.2,0-.86.21-1.63.63-2.31s1-1.22,1.74-1.6c.74-.38,1.57-.57,2.5-.57.59,0,1.35.12,2.31.35l-.28,2.5c-.84-.29-1.46-.44-1.88-.44-.56,0-1.02.08-1.38.23-.36.15-.66.39-.88.71-.22.32-.33.7-.33,1.14s.16.9.48,1.34.79.74,1.39.9c.6.16,1.31.24,2.12.24h1.44v2.11h-2.34c-1.09-.03-2.03-.2-2.83-.51Z" style="fill: #fff;"/>
          <path d="M173.91,30.18c-.67-.71-1-1.74-1-3.09l-.04-5.18v-3.4h2.49v3.4l-.03,5.18c0,.74.14,1.25.41,1.55s.72.44,1.35.44h.39l.55.21v1.76l-.55.21h-.63c-1.28,0-2.25-.35-2.92-1.06Z" style="fill: #fff;"/>
          <path d="M176.33,31.04v-1.76l.63-.21h5.71l.63.21v1.76l-.63.21h-5.71l-.63-.21Z" style="fill: #fff;"/>
          <path d="M181.57,31.04v-1.76l.63-.21h5.71l.63.21v1.76l-.63.21h-5.71l-.63-.21Z" style="fill: #fff;"/>
          <path d="M186.81,31.04v-1.76l.63-.21h5.71l.63.21v1.76l-.63.21h-5.71l-.63-.21Z" style="fill: #fff;"/>
          <path d="M192.06,31.04v-1.76l.63-.21h5.71l.63.21v1.76l-.63.21h-5.71l-.63-.21Z" style="fill: #fff;"/>
          <path d="M197.3,31.04v-1.76l.63-.21h5.71l.63.21v1.76l-.63.21h-5.71l-.63-.21Z" style="fill: #fff;"/>
          <path d="M202.54,31.04v-1.76l.63-.21h5.71l.63.21v1.76l-.63.21h-5.71l-.63-.21Z" style="fill: #fff;"/>
          <path d="M221.83,28.89c.13.13.47.2,1.01.2h.52l.37.23v1.74l-.39.2h-.84c-.76,0-1.4-.26-1.92-.77-.63.51-1.54.77-2.71.77h-9.26l-.39-.2v-1.77l.39-.2h1.36v-10.68h2.42v6.6l5.46-1.34c1.35-.25,2.38.02,3.11.82s1.1,1.79,1.1,2.96c0,.65-.07,1.13-.21,1.44ZM219.61,27.44c0-.54-.13-.94-.39-1.2-.26-.27-.67-.34-1.23-.22l-5.62,1.34v1.72h5.48c.63,0,1.08-.14,1.35-.41.27-.28.41-.68.41-1.23Z" style="fill: #fff;"/>
          <path d="M224.98,29.08c-.41-.62-.62-1.34-.62-2.15s.17-1.58.52-2.24c.34-.66.82-1.17,1.44-1.54s1.31-.55,2.09-.55,1.49.18,2.11.55c.62.37,1.1.91,1.44,1.62.34.71.42,1.51.21,2.42l-.43,1.89h2.29l.47.2v1.77l-.47.2h-10.98l-.47-.2v-1.77l.47-.2h1.93ZM226.26,21.46c-.24-.24-.37-.53-.37-.86s.12-.63.37-.87.53-.36.87-.36.64.12.88.36.37.53.37.87-.12.63-.37.87-.54.36-.88.36-.63-.12-.87-.36ZM229.31,29.08l.46-2.08c.16-.73.1-1.28-.18-1.66s-.67-.57-1.16-.57c-.32,0-.61.08-.85.25s-.43.41-.57.74-.21.72-.21,1.18c0,.72.17,1.25.52,1.61.35.36.89.53,1.62.53h.38ZM229.22,21.46c-.24-.24-.37-.53-.37-.86s.12-.63.37-.87c.24-.24.53-.36.87-.36s.64.12.88.36.37.53.37.87-.12.63-.37.87-.54.36-.88.36-.63-.12-.87-.36Z" style="fill: #fff;"/>
          <path d="M237.18,30.18c-.67.71-1.65,1.06-2.92,1.06h-.55l-.47-.2v-1.77l.47-.2h.3c.62,0,1.07-.15,1.35-.44s.41-.81.41-1.55l-.03-5.18v-3.41h2.49v3.4l-.04,5.18c0,1.35-.34,2.38-1.01,3.09Z" style="fill: #fff;"/>
          <path d="M240.41,18.51h2.39v3.5l.02,9.24h-2.42l.02-9.24v-3.5Z" style="fill: #fff;"/>
          <path d="M252.1,31.25c-.04,1.15-.39,2.05-1.04,2.7-.71.71-1.76,1.11-3.13,1.21h-1.7v-2.28h1.59c.65,0,1.12-.16,1.42-.49s.46-.87.46-1.62v-7.94h2.48v6.25h1.8l.47.2v1.77l-.47.2h-1.87Z" style="fill: #fff;"/>
          <path d="M252.82,31.04v-1.76l.63-.21h5.71l.63.21v1.76l-.63.21h-5.71l-.63-.21Z" style="fill: #fff;"/>
          <path d="M258.06,31.04v-1.76l.63-.21h5.71l.63.21v1.76l-.63.21h-5.71l-.63-.21Z" style="fill: #fff;"/>
          <path d="M263.3,31.04v-1.76l.63-.21h5.71l.63.21v1.76l-.63.21h-5.71l-.63-.21Z" style="fill: #fff;"/>
          <path d="M278.59,30.32c-.44.37-.94.63-1.52.78-.72.19-1.49.19-2.3,0-.82-.19-1.55-.64-2.19-1.37-.31.63-.65,1.03-1.04,1.21-.42.2-.88.3-1.38.3h-.84l-.39-.19v-1.97h.66c.61-.05,1.03-.23,1.28-.52.21-.24.61-1.94,1.2-5.09l4.18-.03c.94,0,1.71.25,2.32.74.61.5,1.03,1.08,1.25,1.77.23.68.25,1.41.07,2.18,0,.03-.01.06-.02.09.14.19.25.33.34.42.28.29.7.44,1.27.44h.28l.61.25v1.71l-.63.21h-.61c-.77,0-1.44-.17-1.99-.5-.19-.12-.37-.26-.54-.43ZM273.79,25.82l-.08.36c-.16.71-.11,1.28.16,1.7.27.42.75.71,1.45.87.44.1.84.12,1.19.06.35-.07.64-.2.85-.39.21-.2.36-.45.44-.77.12-.49.02-.91-.29-1.26s-.84-.54-1.58-.55h-2.13Z" style="fill: #fff;"/>
          <path d="M285.78,30.18c-.67.71-1.65,1.06-2.92,1.06h-1.37l-.47-.2v-1.77l.47-.2h.3c1.17,0,1.89-.15,2.17-.44s.41-.81.41-1.54v-4.27h2.5v4.28c-.05,1.34-.42,2.36-1.09,3.07ZM282.93,21.36c-.24-.24-.37-.53-.37-.86s.12-.63.37-.87.53-.36.87-.36.64.12.88.36.37.53.37.87-.12.63-.37.87c-.25.24-.54.36-.88.36s-.63-.12-.87-.36ZM285.89,21.36c-.24-.24-.37-.53-.37-.86s.12-.63.37-.87c.24-.24.53-.36.87-.36s.64.12.88.36.37.53.37.87-.12.63-.37.87c-.25.24-.54.36-.88.36s-.63-.12-.87-.36Z" style="fill: #fff;"/>
          <path d="M296.73,31.25c-.21.98-.62,1.77-1.22,2.37-.94.92-2.35,1.39-4.23,1.39h-2.36v-2.25h2.39c.96,0,1.68-.17,2.16-.5.48-.33.76-.67.83-1.01h-.91c-1.5,0-2.63-.37-3.4-1.1-.77-.73-1.16-1.82-1.16-3.25,0-.82.17-1.56.52-2.21.34-.65.82-1.17,1.44-1.53s1.31-.55,2.09-.55,1.49.18,2.11.55c.62.37,1.1.9,1.43,1.6s.5,1.5.5,2.4v1.93h1.58l.47.2v1.77l-.47.2h-1.76ZM294.26,20.07v1.17h-3.45v-1.17h1.16c-.19.41-.37.43-.55.07-.18-.36-.27-.64-.27-.83,0-.29.08-.55.23-.77.15-.22.36-.39.62-.52.26-.12.55-.18.88-.18s.64.05.99.15v1.17c-.36-.09-.66-.14-.91-.14-.17,0-.3.04-.41.13-.1.09-.15.2-.15.34,0,.17.07.31.21.42.14.11.33.16.56.16h1.09ZM294.49,29.08v-1.63c0-1-.15-1.7-.43-2.09-.28-.39-.68-.59-1.2-.59-.31,0-.58.08-.82.25-.24.17-.44.42-.58.74-.15.32-.22.7-.22,1.14,0,.76.17,1.31.51,1.66.34.35.88.52,1.63.52h1.12Z" style="fill: #fff;"/>
          <path d="M300.91,23.47l4.18-.03c.94,0,1.71.25,2.32.74.61.5,1.03,1.08,1.25,1.77.23.68.25,1.41.07,2.18-.17.75-.5,1.39-1,1.91-.5.52-1.11.87-1.83,1.06-.72.19-1.48.19-2.29,0-.82-.19-1.55-.64-2.19-1.37-.31.63-.65,1.03-1.04,1.21-.42.2-.88.3-1.38.3h-.84l-.39-.19v-1.97h.66c.61-.05,1.03-.23,1.28-.52.21-.24.61-1.94,1.2-5.09ZM302.62,25.82l-.08.36c-.16.71-.11,1.28.16,1.7.27.42.75.71,1.45.87.44.1.84.12,1.19.06.35-.07.64-.2.85-.39.21-.2.36-.45.44-.77.12-.49.02-.91-.29-1.26s-.84-.54-1.58-.55h-2.13Z" style="fill: #fff;"/>
          <path d="M6.8,56.86c-.63.46-1.33.73-2.12.8-.82.07-1.57-.04-2.26-.33-.69-.29-1.24-.72-1.66-1.29-.42-.58-.67-1.26-.75-2.04-.07-.78.06-1.5.38-2.14.32-.65.82-1.18,1.49-1.58.67-.41,1.47-.55,2.38-.42l2.12.28v-.78h2.23v5.03c0,.66.15,1.14.44,1.44s.72.46,1.28.46h.31l.45.24v1.73l-.46.2h-.68c-.8,0-1.49-.17-2.07-.53-.5-.3-.86-.66-1.08-1.07ZM2.43,48.07c-.24-.24-.36-.53-.36-.86s.12-.63.36-.87c.24-.24.53-.36.87-.36s.64.12.88.36c.24.24.36.53.36.87s-.12.63-.37.87c-.25.24-.54.36-.88.36s-.63-.12-.87-.36ZM6.45,52.54l-2.17-.26c-.73-.09-1.28.01-1.63.32-.36.31-.51.71-.47,1.22.03.32.14.59.32.81.19.22.45.39.79.51.34.11.74.15,1.2.1.71-.05,1.23-.27,1.55-.65s.46-.94.4-1.68v-.37ZM5.39,48.07c-.24-.24-.36-.53-.36-.86s.12-.63.36-.87c.24-.24.53-.36.87-.36s.64.12.88.36c.24.24.37.53.37.87s-.12.63-.37.87c-.25.24-.54.36-.88.36s-.63-.12-.87-.36Z" style="fill: #fff;"/>
          <path d="M12.53,56.28c-.09-.15-.15-.25-.16-.28-.38-.75-.57-1.49-.57-2.2,0-.86.21-1.63.62-2.32.42-.69.99-1.22,1.73-1.6.74-.38,1.58-.57,2.51-.57.58,0,1.35.11,2.3.34l-.28,2.52c-.84-.3-1.46-.45-1.88-.45-.56,0-1.02.08-1.38.23-.36.15-.66.39-.88.71-.22.32-.33.7-.33,1.14s.16.9.48,1.34.78.74,1.39.9c.6.16,1.31.24,2.12.24h2.27v2.17h-10.15l-.47-.2v-1.77l.47-.2h2.2Z" style="fill: #fff;"/>
          <path d="M22.64,45.71h2.39v3.5l.02,9.24h-2.42l.02-9.24v-3.5Z" style="fill: #fff;"/>
          <path d="M25.68,60.08h1.59c.65,0,1.12-.16,1.42-.49s.46-.87.46-1.62v-7.94h2.42v7.98c0,1.38-.35,2.43-1.06,3.13-.71.71-1.75,1.11-3.13,1.21h-1.7v-2.28Z" style="fill: #fff;"/>
          <path d="M37.97,58.45c-.04,1.15-.39,2.05-1.04,2.7-.71.71-1.76,1.11-3.13,1.21h-1.7v-2.28h1.59c.65,0,1.12-.16,1.42-.49s.46-.87.46-1.62v-7.94h2.48v6.25h1.8l.47.2v1.77l-.47.2h-1.87ZM35.79,48.89c-.24-.24-.37-.53-.37-.86s.12-.63.37-.87c.24-.24.53-.36.87-.36s.64.12.88.36c.24.24.36.53.36.87s-.12.63-.37.87c-.25.24-.54.36-.88.36s-.63-.12-.87-.36Z" style="fill: #fff;"/>
          <path d="M38.69,58.24v-1.76l.63-.21h5.71l.63.21v1.76l-.63.21h-5.71l-.63-.21Z" style="fill: #fff;"/>
          <path d="M48.2,57.39c-.67.71-1.65,1.06-2.92,1.06h-.55l-.47-.2v-1.77l.47-.2h.3c.62,0,1.07-.15,1.35-.44s.41-.81.41-1.55l-.03-5.18v-3.41h2.49v3.4l-.04,5.18c0,1.35-.34,2.38-1.01,3.09Z" style="fill: #fff;"/>
          <path d="M51.43,45.71h2.39v3.5l.02,9.24h-2.42l.02-9.24v-3.5Z" style="fill: #fff;"/>
          <path d="M62.13,50.35c.62.37,1.1.9,1.43,1.6s.5,1.5.5,2.4v2.31c0,1.85-.47,3.24-1.4,4.16-.93.92-2.34,1.38-4.23,1.38h-2.36v-2.25h2.39c.96,0,1.68-.17,2.16-.5.48-.33.76-.67.83-1.01h-.91c-1.5,0-2.63-.37-3.4-1.1-.77-.73-1.16-1.82-1.16-3.25,0-.82.17-1.56.52-2.21.34-.65.82-1.17,1.44-1.53s1.31-.55,2.09-.55,1.49.18,2.11.55ZM61.66,56.28v-1.63c0-1-.15-1.7-.43-2.09-.28-.39-.68-.59-1.2-.59-.31,0-.58.08-.82.25-.24.17-.44.42-.58.74-.15.32-.22.7-.22,1.14,0,.76.17,1.31.51,1.66.34.35.88.52,1.63.52h1.12Z" style="fill: #fff;"/>
          <path d="M73.74,58.46c-1.72-.32-2.67-1.61-2.86-3.87-.08-.82.02-1.57.3-2.26.28-.69.71-1.25,1.29-1.68.58-.43,1.26-.68,2.03-.75.79-.07,1.5.05,2.15.36.65.31,1.17.8,1.59,1.47.41.67.56,1.47.44,2.39l-.57,4.33h-4.36ZM76,56.27l.25-2.12c.09-.73-.02-1.28-.34-1.63-.31-.35-.72-.51-1.21-.46-.33.03-.6.14-.82.33s-.39.46-.5.8c-.11.34-.14.74-.09,1.2.07.71.29,1.22.67,1.54.38.32.94.45,1.67.38l.38-.04Z" style="fill: #fff;"/>
          <path d="M81.73,57.39c-.67-.71-1-1.74-1-3.09l-.04-5.18v-3.4h2.49v3.4l-.03,5.18c0,.74.14,1.25.41,1.55s.72.44,1.35.44h.39l.55.21v1.76l-.55.21h-.63c-1.28,0-2.25-.35-2.92-1.06Z" style="fill: #fff;"/>
          <path d="M84.16,58.24v-1.76l.63-.21h5.71l.63.21v1.76l-.63.21h-5.71l-.63-.21Z" style="fill: #fff;"/>
          <path d="M89.4,58.24v-1.76l.63-.21h5.71l.63.21v1.76l-.63.21h-5.71l-.63-.21Z" style="fill: #fff;"/>
          <path d="M94.64,58.24v-1.76l.63-.21h5.71l.63.21v1.76l-.63.21h-5.71l-.63-.21Z" style="fill: #fff;"/>
          <path d="M99.88,58.24v-1.76l.63-.21h5.71l.63.21v1.76l-.63.21h-5.71l-.63-.21Z" style="fill: #fff;"/>
          <path d="M105.12,58.24v-1.76l.63-.21h5.71l.63.21v1.76l-.63.21h-5.71l-.63-.21Z" style="fill: #fff;"/>
          <path d="M110.36,58.24v-1.76l.63-.21h5.71l.63.21v1.76l-.63.21h-5.71l-.63-.21Z" style="fill: #fff;"/>
          <path d="M123.4,56.52v1.73l-.47.2h-.67c-.58,0-1.16-.17-1.74-.53-.58-.35-1.04-.93-1.39-1.75h.98c-.27.8-.66,1.38-1.16,1.74-.5.36-1.21.54-2.15.54h-.3l-.47-.2v-1.77l.47-.2h.3c.57,0,.99-.15,1.28-.45s.4-.78.37-1.44v-3.54h2.56v3.54c-.04.66.08,1.13.36,1.44s.71.45,1.28.45h.31l.45.24ZM117.18,61.33c-.24-.24-.36-.53-.36-.86s.12-.63.36-.87.53-.36.87-.36.64.12.88.36c.24.24.37.53.37.87s-.12.63-.37.87c-.25.24-.54.36-.88.36s-.63-.12-.87-.36ZM120.14,61.33c-.24-.24-.37-.53-.37-.86s.12-.63.37-.87.53-.36.87-.36.64.12.88.36.37.53.37.87-.12.63-.37.87c-.25.24-.54.36-.88.36s-.63-.12-.87-.36Z" style="fill: #fff;"/>
          <path d="M131.91,57.52c-.44.37-.94.63-1.52.78-.72.19-1.49.19-2.3,0-.82-.19-1.55-.64-2.19-1.37-.31.63-.65,1.03-1.04,1.21-.42.2-.88.3-1.38.3h-.84l-.39-.19v-1.97h.66c.61-.05,1.03-.23,1.28-.52.21-.24.61-1.94,1.2-5.09l4.18-.03c.94,0,1.71.25,2.32.74.61.5,1.03,1.08,1.25,1.77.23.68.25,1.41.07,2.18,0,.03-.01.06-.02.09.14.19.25.33.34.42.28.29.7.44,1.27.44h.28l.61.25v1.71l-.63.21h-.61c-.77,0-1.44-.17-1.99-.5-.19-.12-.37-.26-.54-.43ZM127.1,53.02l-.08.36c-.16.71-.11,1.28.16,1.7.27.42.75.71,1.45.87.44.1.84.12,1.19.06.35-.07.64-.2.85-.39.21-.2.36-.45.44-.77.12-.49.02-.91-.29-1.26s-.84-.54-1.58-.55h-2.13Z" style="fill: #fff;"/>
          <path d="M138.19,57.39c-.67.71-1.65,1.06-2.92,1.06h-.55l-.47-.2v-1.77l.47-.2h.3c.62,0,1.07-.15,1.35-.44s.41-.81.41-1.55l-.03-5.18v-3.41h2.49v3.4l-.04,5.18c0,1.35-.34,2.38-1.01,3.09Z" style="fill: #fff;"/>
          <path d="M141.42,45.71h2.39v3.5l.02,9.24h-2.42l.02-9.24v-3.5Z" style="fill: #fff;"/>
          <path d="M152.12,50.35c.62.37,1.1.9,1.43,1.6s.5,1.5.5,2.4v2.31c0,1.85-.47,3.24-1.4,4.16-.93.92-2.34,1.38-4.23,1.38h-2.36v-2.25h2.39c.96,0,1.68-.17,2.16-.5.48-.33.76-.67.83-1.01h-.91c-1.5,0-2.63-.37-3.4-1.1-.77-.73-1.16-1.82-1.16-3.25,0-.82.17-1.56.52-2.21.34-.65.82-1.17,1.44-1.53s1.31-.55,2.09-.55,1.49.18,2.11.55ZM151.64,56.28v-1.63c0-1-.15-1.7-.43-2.09-.28-.39-.68-.59-1.2-.59-.31,0-.58.08-.82.25-.24.17-.44.42-.58.74-.15.32-.22.7-.22,1.14,0,.76.17,1.31.51,1.66.34.35.88.52,1.63.52h1.12Z" style="fill: #fff;"/>
          <path d="M167.36,56.86c-.63.46-1.33.73-2.12.8-.82.07-1.57-.04-2.26-.33-.69-.29-1.24-.72-1.66-1.29-.42-.58-.67-1.26-.75-2.04-.07-.78.06-1.5.38-2.14.32-.65.82-1.18,1.49-1.58.67-.41,1.47-.55,2.38-.42l2.12.28v-.78h2.23v5.03c0,.66.15,1.14.44,1.44s.72.46,1.28.46h.31l.45.24v1.73l-.46.2h-.68c-.8,0-1.49-.17-2.07-.53-.5-.3-.86-.66-1.08-1.07ZM162.99,48.07c-.24-.24-.36-.53-.36-.86s.12-.63.36-.87c.24-.24.53-.36.87-.36s.64.12.88.36c.24.24.36.53.36.87s-.12.63-.37.87c-.25.24-.54.36-.88.36s-.63-.12-.87-.36ZM167.01,52.54l-2.17-.26c-.73-.09-1.28.01-1.63.32-.36.31-.51.71-.47,1.22.03.32.14.59.32.81.19.22.45.39.79.51.34.11.74.15,1.2.1.71-.05,1.23-.27,1.55-.65s.46-.94.4-1.68v-.37ZM165.95,48.07c-.24-.24-.36-.53-.36-.86s.12-.63.36-.87c.24-.24.53-.36.87-.36s.64.12.88.36c.24.24.37.53.37.87s-.12.63-.37.87c-.25.24-.54.36-.88.36s-.63-.12-.87-.36Z" style="fill: #fff;"/>
          <path d="M170.07,58.24v-1.76l.63-.21h5.71l.63.21v1.76l-.63.21h-5.71l-.63-.21Z" style="fill: #fff;"/>
          <path d="M183.1,56.52v1.73l-.47.2h-.67c-.58,0-1.16-.17-1.74-.53-.58-.35-1.04-.93-1.39-1.75h.98c-.27.8-.66,1.38-1.16,1.74-.5.36-1.21.54-2.15.54h-.3l-.47-.2v-1.77l.47-.2h.3c.57,0,.99-.15,1.28-.45s.4-.78.37-1.44v-3.54h2.56v3.54c-.04.66.08,1.13.36,1.44s.71.45,1.28.45h.31l.45.24ZM181.12,48.32v1.17h-3.45v-1.17h1.16c-.19.41-.37.44-.55.07s-.27-.64-.27-.83c0-.29.08-.55.23-.77s.36-.39.62-.52c.26-.12.56-.18.88-.18s.64.05.99.15v1.17c-.36-.09-.66-.14-.91-.14-.17,0-.3.04-.41.13-.1.09-.15.2-.15.34,0,.17.07.31.21.42s.33.16.56.16h1.09Z" style="fill: #fff;"/>
          <path d="M189.35,56.52v1.73l-.47.2h-.67c-.58,0-1.16-.17-1.74-.53-.58-.35-1.04-.93-1.39-1.75h.98c-.27.8-.66,1.38-1.16,1.74-.5.36-1.21.54-2.15.54h-.3l-.47-.2v-1.77l.47-.2h.3c.57,0,.99-.15,1.28-.45s.4-.78.37-1.44v-3.54h2.56v3.54c-.04.66.08,1.13.36,1.44s.71.45,1.28.45h.31l.45.24ZM183.13,61.33c-.24-.24-.36-.53-.36-.86s.12-.63.36-.87.53-.36.87-.36.64.12.88.36c.24.24.37.53.37.87s-.12.63-.37.87c-.25.24-.54.36-.88.36s-.63-.12-.87-.36ZM186.09,61.33c-.24-.24-.37-.53-.37-.86s.12-.63.37-.87.53-.36.87-.36.64.12.88.36.37.53.37.87-.12.63-.37.87c-.25.24-.54.36-.88.36s-.63-.12-.87-.36Z" style="fill: #fff;"/>
          <path d="M195.6,56.52v1.73l-.47.2h-.67c-.58,0-1.16-.17-1.74-.53-.58-.35-1.04-.93-1.39-1.75h.98c-.27.8-.66,1.38-1.16,1.74-.5.36-1.21.54-2.15.54h-.3l-.47-.2v-1.77l.47-.2h.3c.57,0,.99-.15,1.28-.45s.4-.78.37-1.44v-3.54h2.56v3.54c-.04.66.08,1.13.36,1.44s.71.45,1.28.45h.31l.45.24ZM191.23,61.32c-.24-.24-.37-.53-.37-.86s.12-.63.37-.87c.24-.24.53-.36.87-.36s.64.12.88.36c.24.24.37.53.37.87s-.12.63-.37.87c-.25.24-.54.36-.88.36s-.63-.12-.87-.36Z" style="fill: #fff;"/>
          <path d="M198.33,57.39c-.67.71-1.65,1.06-2.92,1.06h-.55l-.47-.2v-1.77l.47-.2h.3c.62,0,1.07-.15,1.35-.44s.41-.81.41-1.55l-.03-5.18v-3.41h2.49v3.4l-.04,5.18c0,1.35-.34,2.38-1.01,3.09Z" style="fill: #fff;"/>
          <path d="M201.56,45.71h2.39v3.5l.02,9.24h-2.42l.02-9.24v-3.5Z" style="fill: #fff;"/>
          <path d="M213.92,58.46c-1.72-.32-2.67-1.61-2.86-3.87-.08-.82.02-1.57.3-2.26.28-.69.71-1.25,1.29-1.68.58-.43,1.26-.68,2.03-.75.79-.07,1.5.05,2.15.36.65.31,1.17.8,1.59,1.47.41.67.56,1.47.44,2.39l-.57,4.33h-4.36ZM212.69,48.73c-.24-.24-.36-.53-.36-.86s.12-.63.36-.87c.24-.24.53-.36.87-.36s.64.12.88.36c.24.24.36.53.36.87s-.12.63-.37.87c-.25.24-.54.36-.88.36s-.63-.12-.87-.36ZM216.18,56.27l.25-2.12c.09-.73-.02-1.28-.34-1.63-.31-.35-.72-.51-1.21-.46-.33.03-.6.14-.82.33s-.39.46-.5.8c-.11.34-.14.74-.09,1.2.07.71.29,1.22.67,1.54.38.32.94.45,1.67.38l.38-.04ZM215.65,48.73c-.24-.24-.36-.53-.36-.86s.12-.63.36-.87c.24-.24.53-.36.87-.36s.64.12.88.36c.24.24.37.53.37.87s-.12.63-.37.87c-.25.24-.54.36-.88.36s-.63-.12-.87-.36Z" style="fill: #fff;"/>
          <path d="M219.35,60.08h1.59c.65,0,1.12-.16,1.42-.49s.46-.87.46-1.62v-7.94h2.42v7.98c0,1.38-.35,2.43-1.06,3.13-.71.71-1.75,1.11-3.13,1.21h-1.7v-2.28Z" style="fill: #fff;"/>
          <path d="M227.73,45.71h2.39v3.5l.02,9.24h-2.42l.02-9.24v-3.5Z" style="fill: #fff;"/>
          <path d="M230.77,60.08h1.59c.65,0,1.12-.16,1.42-.49s.46-.87.46-1.62v-7.94h2.42v7.98c0,1.38-.35,2.43-1.06,3.13-.71.71-1.75,1.11-3.13,1.21h-1.7v-2.28ZM234.45,48.89c-.24-.24-.37-.53-.37-.86s.12-.63.37-.87c.24-.24.53-.36.87-.36s.64.12.88.36c.24.24.37.53.37.87s-.12.63-.37.87c-.25.24-.54.36-.88.36s-.63-.12-.87-.36Z" style="fill: #fff;"/>
          <path d="M244.84,50.35c.62.37,1.1.9,1.43,1.6s.5,1.5.5,2.4v2.31c0,1.85-.47,3.24-1.4,4.16-.93.92-2.34,1.38-4.23,1.38h-2.36v-2.25h2.39c.96,0,1.68-.17,2.16-.5.48-.33.76-.67.83-1.01h-.91c-1.5,0-2.63-.37-3.4-1.1-.77-.73-1.16-1.82-1.16-3.25,0-.82.17-1.56.52-2.21.34-.65.82-1.17,1.44-1.53s1.31-.55,2.09-.55,1.49.18,2.11.55ZM244.36,56.28v-1.63c0-1-.15-1.7-.43-2.09-.28-.39-.68-.59-1.2-.59-.31,0-.58.08-.82.25-.24.17-.44.42-.58.74-.15.32-.22.7-.22,1.14,0,.76.17,1.31.51,1.66.34.35.88.52,1.63.52h1.12Z" style="fill: #fff;"/>
          <path d="M266.89,50.89c-.11.01-.29.05-.54.12-.63.17-1.07.39-1.32.67s-.32.59-.22.93c.04.18.14.39.3.64.16.25.4.59.73,1.04l.34.43c.38.49.7.97.96,1.42.25.46.51,1.22.77,2.3h-9.02c-1.64,0-2.85-.41-3.64-1.24-.74-.77-1.12-1.87-1.12-3.32v-2.36h2.39v2.35c0,.55.08.99.23,1.34.15.36.4.63.74.8.34.17.81.26,1.4.26h5.3l-.44-.55c-.38-.5-.69-.95-.93-1.35-.24-.4-.41-.81-.53-1.22-.27-1.01-.09-1.88.56-2.62.65-.73,1.64-1.28,2.97-1.63.74-.2,1.68-.38,2.83-.56l.55,1.32,2.72,6.05c.16.37.54.56,1.12.56h.28l.61.25v1.71l-.62.21h-.78c-.77,0-1.43-.17-1.98-.5-.24-.14-.42-.34-.55-.62l-3.08-6.43ZM258.58,60.47c0-.38.13-.7.4-.96s.59-.39.96-.39.7.13.97.39.4.58.4.96-.14.7-.41.96c-.27.26-.59.39-.96.39s-.69-.13-.96-.39-.4-.58-.4-.95ZM261.63,60.47c0-.38.13-.7.4-.96.27-.26.59-.39.96-.39s.7.13.97.39c.27.26.4.58.4.96s-.14.7-.41.96c-.27.26-.59.39-.96.39s-.69-.13-.96-.39c-.27-.26-.4-.58-.4-.95Z" style="fill: #fff;"/>
          <path d="M272.23,58.24v-1.76l.63-.21h5.71l.63.21v1.76l-.63.21h-5.71l-.63-.21Z" style="fill: #fff;"/>
          <path d="M277.47,58.24v-1.76l.63-.21h5.71l.63.21v1.76l-.63.21h-5.71l-.63-.21Z" style="fill: #fff;"/>
          <path d="M282.71,58.24v-1.76l.63-.21h5.71l.63.21v1.76l-.63.21h-5.71l-.63-.21Z" style="fill: #fff;"/>
          <path d="M287.95,58.24v-1.76l.63-.21h5.71l.63.21v1.76l-.63.21h-5.71l-.63-.21Z" style="fill: #fff;"/>
          <path d="M293.19,58.24v-1.76l.63-.21h5.71l.63.21v1.76l-.63.21h-5.71l-.63-.21Z" style="fill: #fff;"/>
          <path d="M301.23,56.28c-.41-.62-.62-1.34-.62-2.15s.17-1.58.52-2.24c.34-.66.82-1.17,1.44-1.54s1.31-.55,2.09-.55,1.49.18,2.11.55,1.1.91,1.44,1.62c.34.71.42,1.52.21,2.42l-.95,4.05h-8.17l-.47-.2v-1.77l.47-.2h1.93ZM305.55,56.28l.46-2.08c.16-.73.1-1.28-.18-1.66s-.67-.57-1.16-.57c-.32,0-.61.08-.85.25-.24.17-.43.41-.57.74-.14.33-.21.72-.21,1.18,0,.72.17,1.25.52,1.61.35.36.89.53,1.62.53h.38ZM304,48.66c-.24-.24-.37-.53-.37-.86s.12-.63.37-.87c.24-.24.53-.36.87-.36s.64.12.88.36c.24.24.37.53.37.87s-.12.63-.37.87-.54.36-.88.36-.63-.12-.87-.36Z" style="fill: #fff;"/>
        </g>
        <g>
          <path d="M143.89,76.15c-.1,0-.14-.05-.14-.14v-.2c0-.1.05-.14.14-.14h3.66c.1,0,.14.05.14.14v.2c0,.1-.05.14-.14.14h-3.66ZM143.89,77.13c-.1,0-.14-.05-.14-.14v-.2c0-.1.05-.14.14-.14h3.66c.1,0,.14.05.14.14v.2c0,.1-.05.14-.14.14h-3.66Z" style="fill: #fff;"/>
          <path d="M145.18,78.28c0-.1.05-.14.14-.14h.92c.1,0,.14.05.14.14v7.76c0,.29.06.49.17.6s.29.17.53.17h.63c.38,0,.58.19.58.58,0,.24-.05.39-.14.45s-.24.09-.44.09h-.85c-.6,0-1.04-.15-1.3-.44-.26-.29-.39-.75-.39-1.38v-7.83Z" style="fill: #fff;"/>
          <path d="M152.07,88.03c-.45,0-.85-.06-1.19-.19-.35-.13-.64-.33-.88-.61-.2.31-.46.5-.78.58-.32.08-.61.12-.88.12h-.62c-.38,0-.58-.19-.58-.58,0-.24.05-.39.14-.45s.24-.09.44-.09h.72c.11,0,.21-.02.32-.07.11-.04.2-.11.29-.22.09-.1.16-.23.21-.4.05-.17.08-.38.08-.63,0-.1-.01-.19-.01-.28v-.29c0-1.1.24-1.9.73-2.4.49-.49,1.16-.74,2.02-.74s1.53.25,2.02.74.73,1.29.73,2.4c0,.55-.06,1.02-.19,1.41s-.31.72-.55.96c-.24.25-.52.43-.86.55s-.72.18-1.15.18ZM152.07,82.9c-.54,0-.93.18-1.17.53-.25.36-.37.85-.37,1.48,0,.69.12,1.2.37,1.51.24.32.64.48,1.17.48s.93-.16,1.17-.48c.24-.32.37-.82.37-1.51,0-.63-.12-1.13-.37-1.48-.24-.35-.64-.53-1.17-.53Z" style="fill: #fff;"/>
          <path d="M157.83,87.78c0,.1-.05.14-.14.14h-.92c-.1,0-.14-.05-.14-.14v-9.5c0-.1.05-.14.14-.14h.92c.1,0,.14.05.14.14v9.5Z" style="fill: #fff;"/>
          <path d="M165.08,85.82c0,.33.12.57.35.73.23.16.55.25.94.25h.16c.19,0,.34.04.43.12.1.08.14.22.14.41,0,.25-.05.41-.14.48-.09.07-.24.11-.44.11h-.3c-.33,0-.62-.07-.88-.21-.26-.14-.44-.35-.55-.63-.17.32-.39.54-.68.66-.29.12-.67.18-1.13.18h-3.2c-.1,0-.14-.05-.14-.14v-.84c0-.1.05-.14.14-.14h2.75c.27,0,.48-.02.65-.07.16-.04.29-.11.37-.22.09-.1.14-.23.17-.4.03-.16.04-.37.04-.62v-1.15c0-.97-.55-1.45-1.64-1.45h-1.67c-.1,0-.14-.05-.14-.14v-.83c0-.1.05-.14.14-.14h2.12c.73,0,1.33.21,1.79.62.47.41.7,1.06.7,1.94v1.48Z" style="fill: #fff;"/>
          <path d="M166.54,87.93c-.19,0-.32-.04-.39-.12-.07-.08-.1-.22-.1-.42,0-.24.03-.4.09-.47.06-.07.19-.11.4-.11h1.58c.19,0,.34.04.43.12s.14.22.14.42c0,.24-.05.4-.14.48s-.24.12-.44.12h-1.58Z" style="fill: #fff;"/>
          <path d="M168.14,87.93c-.19,0-.32-.04-.39-.12-.07-.08-.1-.22-.1-.42,0-.24.03-.4.09-.47.06-.07.19-.11.4-.11h1.58c.19,0,.34.04.43.12s.14.22.14.42c0,.24-.05.4-.14.48s-.24.12-.44.12h-1.58Z" style="fill: #fff;"/>
          <path d="M169.74,87.93c-.19,0-.32-.04-.39-.12-.07-.08-.1-.22-.1-.42,0-.24.03-.4.09-.47.06-.07.19-.11.4-.11h1.58c.19,0,.34.04.43.12s.14.22.14.42c0,.24-.05.4-.14.48s-.24.12-.44.12h-1.58Z" style="fill: #fff;"/>
          <path d="M171.42,87.93c-.19,0-.34-.03-.43-.1-.1-.07-.14-.2-.14-.4,0-.24.05-.4.14-.49.09-.09.24-.13.44-.13h.98c.24,0,.42-.06.53-.17s.17-.31.17-.6v-3.86c0-.1.05-.14.14-.14h.92c.1,0,.14.05.14.14v3.64c0,.33.12.57.35.73s.55.25.94.25h.17c.19,0,.34.04.43.12.1.08.14.22.14.41,0,.25-.05.41-.14.48-.09.07-.24.11-.44.11h-.32c-.31,0-.58-.06-.81-.19-.23-.12-.41-.31-.53-.56-.24.5-.74.75-1.5.75h-1.2ZM172.3,80.61c-.1,0-.14-.05-.14-.14v-1.05c0-.1.05-.14.14-.14h.98c.1,0,.14.05.14.14v1.05c0,.1-.05.14-.14.14h-.98ZM174.06,80.61c-.1,0-.14-.05-.14-.14v-1.05c0-.1.05-.14.14-.14h.98c.1,0,.14.05.14.14v1.05c0,.1-.05.14-.14.14h-.98Z" style="fill: #fff;"/>
          <path d="M180.16,87.93c-.31,0-.58-.06-.81-.19-.23-.12-.41-.31-.53-.56-.24.5-.74.75-1.5.75h-1.56c-.19,0-.34-.03-.43-.1-.1-.07-.14-.2-.14-.4,0-.24.05-.4.14-.49.09-.09.24-.13.44-.13h1.34c.24,0,.42-.06.53-.17s.17-.31.17-.6v-2.62c0-.1.05-.14.14-.14h.92c.1,0,.14.05.14.14v2.4c0,.33.11.57.35.73s.54.25.92.25h.36c.24,0,.42-.06.53-.17s.17-.31.17-.6v-2.62c0-.1.05-.14.14-.14h.92c.1,0,.14.05.14.14v2.46c0,.31.12.54.36.69.24.15.55.23.94.23h.33c.24,0,.42-.06.53-.17s.17-.31.17-.6v-3.86c0-.1.05-.14.14-.14h.92c.1,0,.14.05.14.14v3.64c0,.33.12.57.35.73.23.16.55.25.94.25h.16c.19,0,.34.04.43.12.1.08.14.22.14.41,0,.25-.05.41-.14.48-.09.07-.24.11-.44.11h-.3c-.31,0-.58-.06-.81-.19-.23-.12-.41-.31-.53-.56-.24.5-.74.75-1.5.75h-.69c-.31,0-.58-.06-.81-.19-.23-.12-.41-.31-.53-.56-.24.5-.74.75-1.5.75h-.69Z" style="fill: #fff;"/>
          <path d="M191.87,88.03c-.45,0-.85-.06-1.19-.19-.35-.13-.64-.33-.88-.61-.2.31-.46.5-.78.58-.32.08-.61.12-.88.12h-.62c-.38,0-.58-.19-.58-.58,0-.24.05-.39.14-.45s.24-.09.44-.09h.72c.11,0,.21-.02.32-.07.11-.04.2-.11.29-.22.09-.1.16-.23.21-.4.05-.17.08-.38.08-.63,0-.1-.01-.19-.01-.28v-.29c0-1.1.24-1.9.73-2.4.49-.49,1.16-.74,2.02-.74s1.53.25,2.02.74.73,1.29.73,2.4c0,.55-.06,1.02-.19,1.41s-.31.72-.55.96c-.24.25-.52.43-.86.55s-.72.18-1.15.18ZM191.87,82.9c-.54,0-.93.18-1.17.53-.25.36-.37.85-.37,1.48,0,.69.12,1.2.37,1.51.24.32.64.48,1.17.48s.93-.16,1.17-.48c.24-.32.37-.82.37-1.51,0-.63-.12-1.13-.37-1.48-.24-.35-.64-.53-1.17-.53Z" style="fill: #fff;"/>
          <path d="M198.58,76.15c-.1,0-.14-.05-.14-.14v-.2c0-.1.05-.14.14-.14h3.66c.1,0,.14.05.14.14v.2c0,.1-.05.14-.14.14h-3.66ZM198.58,77.13c-.1,0-.14-.05-.14-.14v-.2c0-.1.05-.14.14-.14h3.66c.1,0,.14.05.14.14v.2c0,.1-.05.14-.14.14h-3.66Z" style="fill: #fff;"/>
          <path d="M201.08,87.78c0,.1-.05.14-.14.14h-.92c-.1,0-.14-.05-.14-.14v-9.5c0-.1.05-.14.14-.14h.92c.1,0,.14.05.14.14v9.5Z" style="fill: #fff;"/>
          <path d="M202.24,90.79c-.1,0-.14-.05-.14-.14v-.83c0-.1.05-.14.14-.14h.33c.78,0,1.17-.41,1.17-1.22v-6.26c0-.1.05-.14.14-.14h.92c.1,0,.14.05.14.14v3.64c0,.33.12.57.35.73.23.16.55.25.94.25h.16c.19,0,.34.04.43.12.1.08.14.22.14.41,0,.25-.05.41-.14.48-.09.07-.24.11-.44.11h-.3c-.5,0-.88-.15-1.15-.46v.95c0,.78-.2,1.37-.59,1.77s-.97.6-1.73.6h-.39Z" style="fill: #fff;"/>
          <path d="M206.41,87.93c-.19,0-.32-.04-.39-.12-.07-.08-.1-.22-.1-.42,0-.24.03-.4.09-.47.06-.07.19-.11.4-.11h1.58c.19,0,.34.04.43.12s.14.22.14.42c0,.24-.05.4-.14.48s-.24.12-.44.12h-1.58Z" style="fill: #fff;"/>
          <path d="M208.01,87.93c-.19,0-.32-.04-.39-.12-.07-.08-.1-.22-.1-.42,0-.24.03-.4.09-.47.06-.07.19-.11.4-.11h1.58c.19,0,.34.04.43.12s.14.22.14.42c0,.24-.05.4-.14.48s-.24.12-.44.12h-1.58Z" style="fill: #fff;"/>
          <path d="M209.61,87.93c-.19,0-.32-.04-.39-.12-.07-.08-.1-.22-.1-.42,0-.24.03-.4.09-.47.06-.07.19-.11.4-.11h1.58c.19,0,.34.04.43.12s.14.22.14.42c0,.24-.05.4-.14.48s-.24.12-.44.12h-1.58Z" style="fill: #fff;"/>
          <path d="M211.19,87.93c-.19,0-.34-.03-.43-.1-.1-.07-.14-.2-.14-.4,0-.24.05-.4.14-.49.09-.09.24-.13.44-.13h.99c.24,0,.42-.06.53-.17s.17-.31.17-.6v-3.86c0-.1.05-.14.14-.14h.92c.1,0,.14.05.14.14v3.93c0,.62-.13,1.08-.39,1.38-.26.29-.69.44-1.3.44h-1.21ZM212.09,80.61c-.1,0-.14-.05-.14-.14v-1.05c0-.1.05-.14.14-.14h.98c.1,0,.14.05.14.14v1.05c0,.1-.05.14-.14.14h-.98ZM212.98,78.93c-.1,0-.14-.05-.14-.14v-1.05c0-.1.05-.14.14-.14h.98c.1,0,.14.05.14.14v1.05c0,.1-.05.14-.14.14h-.98ZM213.84,80.61c-.1,0-.14-.05-.14-.14v-1.05c0-.1.05-.14.14-.14h.98c.1,0,.14.05.14.14v1.05c0,.1-.05.14-.14.14h-.98Z" style="fill: #fff;"/>
          <path d="M215.86,76.81c-.08-.11-.14-.23-.19-.39-.05-.15-.07-.32-.07-.5,0-.15.02-.31.07-.48s.13-.32.25-.46c.11-.14.27-.25.45-.35.19-.09.42-.14.7-.14.25,0,.47.04.67.13.2.09.35.21.47.37.03.07.03.12,0,.14l-.3.25c-.07.06-.12.07-.16.03-.09-.1-.19-.17-.3-.24s-.25-.09-.39-.09c-.27,0-.47.08-.6.25-.13.16-.19.35-.19.58s.06.4.17.55.22.28.32.35h1.48c.06,0,.09.03.09.1v.4c0,.07-.03.1-.09.1h-2.92c-.06,0-.09-.03-.09-.1v-.4c0-.07.03-.1.09-.1h.55ZM217.39,87.78c0,.1-.05.14-.14.14h-.92c-.1,0-.14-.05-.14-.14v-9.5c0-.1.05-.14.14-.14h.92c.1,0,.14.05.14.14v9.5Z" style="fill: #fff;"/>
          <path d="M225.94,81.78c1.03,0,1.79.2,2.27.6s.73.95.73,1.64c0,.31-.05.6-.14.86s-.22.52-.37.75c-.15.23-.32.44-.51.63s-.38.34-.56.47c.11.02.21.04.32.05.11.01.21.02.3.02h2.1c.19,0,.34.03.43.1.1.07.14.2.14.4,0,.24-.05.4-.14.49-.09.09-.24.13-.44.13h-2.15c-.28,0-.58-.03-.89-.1-.32-.07-.6-.18-.85-.35-.28.11-.57.2-.88.28-.31.08-.59.17-.83.27-.25.1-.46.22-.62.36-.16.14-.25.34-.25.58s.09.41.27.53.5.18.97.18h1.38c.1,0,.14.05.14.14v.83c0,.1-.05.14-.14.14h-1.48c-.78,0-1.37-.14-1.77-.42s-.6-.75-.6-1.41c0-.41.09-.75.27-1.02.18-.27.4-.49.67-.65.27-.16.56-.29.88-.38.32-.09.62-.17.91-.22-.07-.38-.17-.71-.3-.99-.13-.28-.29-.52-.46-.73s-.36-.39-.57-.55c-.21-.16-.42-.31-.63-.47-.09-.06-.14-.11-.17-.15-.02-.04-.04-.09-.04-.14v-.86c0-.13.05-.23.14-.29.12-.07.27-.14.45-.23.19-.09.4-.17.65-.25.25-.08.52-.14.81-.19.3-.05.61-.07.94-.07ZM225.94,82.9c-.43,0-.81.05-1.14.14-.33.09-.54.17-.65.24.49.28.92.67,1.29,1.17s.64,1.09.8,1.79c.15-.1.32-.22.49-.37.17-.15.33-.31.47-.49s.25-.38.35-.59c.09-.22.14-.44.14-.67s-.05-.44-.14-.59c-.09-.15-.21-.28-.37-.37-.15-.09-.34-.16-.55-.19-.22-.04-.44-.06-.68-.06Z" style="fill: #fff;"/>
          <path d="M230.12,87.93c-.19,0-.32-.04-.39-.12-.07-.08-.1-.22-.1-.42,0-.24.03-.4.09-.47.06-.07.19-.11.4-.11h1.58c.19,0,.34.04.43.12s.14.22.14.42c0,.24-.05.4-.14.48s-.24.12-.44.12h-1.58Z" style="fill: #fff;"/>
          <path d="M231.71,87.93c-.19,0-.32-.04-.39-.12-.07-.08-.1-.22-.1-.42,0-.24.03-.4.09-.47.06-.07.19-.11.4-.11h1.58c.19,0,.34.04.43.12s.14.22.14.42c0,.24-.05.4-.14.48s-.24.12-.44.12h-1.58Z" style="fill: #fff;"/>
          <path d="M233.31,87.93c-.19,0-.32-.04-.39-.12-.07-.08-.1-.22-.1-.42,0-.24.03-.4.09-.47.06-.07.19-.11.4-.11h1.58c.19,0,.34.04.43.12s.14.22.14.42c0,.24-.05.4-.14.48s-.24.12-.44.12h-1.58Z" style="fill: #fff;"/>
          <path d="M234.91,87.93c-.19,0-.32-.04-.39-.12-.07-.08-.1-.22-.1-.42,0-.24.03-.4.09-.47.06-.07.19-.11.4-.11h1.58c.19,0,.34.04.43.12s.14.22.14.42c0,.24-.05.4-.14.48s-.24.12-.44.12h-1.58Z" style="fill: #fff;"/>
          <path d="M236.59,87.93c-.19,0-.34-.03-.43-.1-.1-.07-.14-.2-.14-.4,0-.24.05-.4.14-.49.09-.09.24-.13.44-.13h.91c.24,0,.42-.06.53-.17s.17-.31.17-.6v-3.86c0-.1.05-.14.14-.14h.92c.1,0,.14.05.14.14v3.64c0,.33.12.57.35.73.23.16.55.25.94.25h.17c.19,0,.34.04.43.12.1.08.14.22.14.41,0,.25-.05.41-.14.48-.09.07-.24.11-.44.11h-.32c-.31,0-.58-.06-.81-.19-.23-.12-.41-.31-.53-.56-.24.5-.74.75-1.5.75h-1.12ZM238.31,80.61c-.1,0-.14-.05-.14-.14v-1.05c0-.1.05-.14.14-.14h.98c.1,0,.14.05.14.14v1.05c0,.1-.05.14-.14.14h-.98Z" style="fill: #fff;"/>
          <path d="M240.76,87.93c-.19,0-.34-.03-.43-.1-.1-.07-.14-.2-.14-.4,0-.24.05-.4.14-.49.09-.09.24-.13.44-.13h.91c.24,0,.42-.06.53-.17s.17-.31.17-.6v-3.86c0-.1.05-.14.14-.14h.92c.1,0,.14.05.14.14v.49c.47-.25,1-.46,1.57-.63.58-.17,1.17-.26,1.77-.26.67,0,1.23.09,1.67.27s.8.43,1.06.74c.26.31.45.67.56,1.09.11.41.16.85.16,1.31,0,.12,0,.24,0,.35s0,.2,0,.28c0,.33.12.57.35.73.23.16.55.25.94.25h.16c.19,0,.34.04.43.12.1.08.14.22.14.41,0,.25-.05.41-.14.48-.09.07-.24.11-.44.11h-.3c-.34,0-.64-.08-.9-.23s-.45-.37-.56-.66c-.16.33-.4.56-.7.69-.3.13-.69.2-1.16.2h-4.85c-.23,0-.39-.06-.49-.19-.24.12-.56.19-.97.19h-1.12ZM246.82,82.9c-.29,0-.58.03-.88.08-.3.05-.59.12-.87.21-.28.09-.55.18-.81.29s-.49.21-.7.32v2.32c0,.24-.02.47-.07.69h4.26c.27,0,.49-.02.66-.07s.31-.13.4-.25c.1-.12.16-.29.19-.5s.05-.49.05-.83c0-.35-.04-.67-.11-.95-.07-.28-.19-.51-.37-.71-.17-.19-.4-.34-.69-.44-.29-.1-.65-.15-1.08-.15Z" style="fill: #fff;"/>
          <path d="M251.89,87.93c-.19,0-.34-.03-.43-.1-.1-.07-.14-.2-.14-.4,0-.24.05-.4.14-.49.09-.09.24-.13.44-.13h.91c.24,0,.42-.06.53-.17s.17-.31.17-.6v-3.86c0-.1.05-.14.14-.14h.92c.1,0,.14.05.14.14v3.93c0,.62-.13,1.08-.39,1.38-.26.29-.69.44-1.3.44h-1.12ZM253.6,80.61c-.1,0-.14-.05-.14-.14v-1.05c0-.1.05-.14.14-.14h.98c.1,0,.14.05.14.14v1.05c0,.1-.05.14-.14.14h-.98Z" style="fill: #fff;"/>
          <path d="M260.46,84.69c.04-.07.11-.07.2-.01l.79.43c.08.05.09.11.04.19-.17.27-.34.6-.5.99s-.24.81-.24,1.24.07.76.21,1.03c.14.27.32.49.54.65.22.16.46.27.72.34.26.07.51.1.76.1.61,0,1.12-.16,1.51-.48.39-.32.59-.83.59-1.54v-9.35c0-.1.05-.14.14-.14h.92c.1,0,.14.05.14.14v7.55c0,.33.12.57.35.73s.55.25.94.25h.16c.19,0,.34.04.43.12.1.08.14.22.14.41,0,.25-.05.41-.14.48-.09.07-.24.11-.44.11h-.3c-.5,0-.88-.15-1.15-.46v.17c0,.99-.29,1.76-.87,2.32s-1.42.83-2.51.83c-.52,0-.99-.07-1.4-.21-.42-.14-.77-.34-1.07-.61s-.52-.6-.68-.99c-.16-.39-.24-.84-.24-1.35,0-.57.09-1.11.28-1.63.19-.52.41-.96.66-1.32Z" style="fill: #fff;"/>
          <path d="M267.77,87.93c-.19,0-.32-.04-.39-.12-.07-.08-.1-.22-.1-.42,0-.24.03-.4.09-.47.06-.07.19-.11.4-.11h1.58c.19,0,.34.04.43.12s.14.22.14.42c0,.24-.05.4-.14.48s-.24.12-.44.12h-1.58Z" style="fill: #fff;"/>
          <path d="M269.37,87.93c-.19,0-.32-.04-.39-.12-.07-.08-.1-.22-.1-.42,0-.24.03-.4.09-.47.06-.07.19-.11.4-.11h1.58c.19,0,.34.04.43.12s.14.22.14.42c0,.24-.05.4-.14.48s-.24.12-.44.12h-1.58Z" style="fill: #fff;"/>
          <path d="M270.97,87.93c-.19,0-.32-.04-.39-.12-.07-.08-.1-.22-.1-.42,0-.24.03-.4.09-.47.06-.07.19-.11.4-.11h1.58c.19,0,.34.04.43.12s.14.22.14.42c0,.24-.05.4-.14.48s-.24.12-.44.12h-1.58Z" style="fill: #fff;"/>
          <path d="M276.9,88.03c-.45,0-.85-.06-1.19-.19-.35-.13-.64-.33-.88-.61-.2.31-.46.5-.78.58-.32.08-.61.12-.88.12h-.62c-.38,0-.58-.19-.58-.58,0-.24.05-.39.14-.45s.24-.09.44-.09h.72c.11,0,.21-.02.32-.07.11-.04.2-.11.29-.22.09-.1.16-.23.21-.4.05-.17.08-.38.08-.63,0-.1-.01-.19-.01-.28v-.29c0-1.1.24-1.9.73-2.4.49-.49,1.16-.74,2.02-.74s1.53.25,2.02.74.73,1.29.73,2.4c0,.55-.06,1.02-.19,1.41s-.31.72-.55.96c-.24.25-.52.43-.86.55s-.72.18-1.15.18ZM276.9,82.9c-.54,0-.93.18-1.17.53-.25.36-.37.85-.37,1.48,0,.69.12,1.2.37,1.51.24.32.64.48,1.17.48s.93-.16,1.17-.48c.24-.32.37-.82.37-1.51,0-.63-.12-1.13-.37-1.48-.24-.35-.64-.53-1.17-.53Z" style="fill: #fff;"/>
          <path d="M281.45,78.28c0-.1.05-.14.14-.14h.92c.1,0,.14.05.14.14v7.76c0,.29.06.49.17.6s.29.17.53.17h.63c.38,0,.58.19.58.58,0,.24-.05.39-.14.45s-.24.09-.44.09h-.85c-.6,0-1.04-.15-1.3-.44-.26-.29-.39-.75-.39-1.38v-7.83Z" style="fill: #fff;"/>
          <path d="M286.53,82.04h1.28c.73,0,1.33.21,1.79.62.47.41.7,1.06.7,1.94v.86c0,.08,0,.15,0,.23,0,.08,0,.15,0,.23.02.3.15.52.38.66.23.14.54.22.91.22h.16c.19,0,.34.04.43.12.1.08.14.22.14.41,0,.25-.05.41-.14.48-.09.07-.24.11-.44.11h-.3c-.32,0-.61-.07-.87-.21-.26-.14-.45-.34-.56-.61-.17.31-.39.52-.68.64-.29.12-.66.18-1.11.18h-4.23c-.38,0-.58-.19-.58-.58,0-.24.05-.39.14-.45s.24-.09.44-.09h3.79c.27,0,.48-.02.65-.07.16-.04.29-.11.37-.22.09-.1.14-.23.17-.4s.04-.37.04-.62v-.89c0-.97-.55-1.46-1.64-1.46h-2.32c-.1,0-.14-.05-.14-.14v-.81s.02-.09.05-.14c.03-.04.06-.07.08-.09l3.15-3.71c.06-.07.12-.08.19-.04l.69.58c.08.06.1.12.06.2l-2.59,3.04Z" style="fill: #fff;"/>
          <path d="M291.83,87.93c-.19,0-.34-.03-.43-.1-.1-.07-.14-.2-.14-.4,0-.24.05-.4.14-.49.09-.09.24-.13.44-.13h.98c.24,0,.42-.06.53-.17s.17-.31.17-.6v-3.86c0-.1.05-.14.14-.14h.92c.1,0,.14.05.14.14v3.64c0,.33.12.57.35.73s.55.25.94.25h.17c.19,0,.34.04.43.12.1.08.14.22.14.41,0,.25-.05.41-.14.48-.09.07-.24.11-.44.11h-.32c-.31,0-.58-.06-.81-.19-.23-.12-.41-.31-.53-.56-.24.5-.74.75-1.5.75h-1.2ZM292.71,80.61c-.1,0-.14-.05-.14-.14v-1.05c0-.1.05-.14.14-.14h.98c.1,0,.14.05.14.14v1.05c0,.1-.05.14-.14.14h-.98ZM294.47,80.61c-.1,0-.14-.05-.14-.14v-1.05c0-.1.05-.14.14-.14h.98c.1,0,.14.05.14.14v1.05c0,.1-.05.14-.14.14h-.98Z" style="fill: #fff;"/>
          <path d="M296.18,87.93c-.19,0-.34-.03-.43-.1-.1-.07-.14-.2-.14-.4,0-.24.05-.4.14-.49.09-.09.24-.13.44-.13h.91c.24,0,.42-.06.53-.17s.17-.31.17-.6v-7.76c0-.1.05-.14.14-.14h.92c.1,0,.14.05.14.14v7.83c0,.62-.13,1.08-.39,1.38-.26.29-.69.44-1.3.44h-1.12Z" style="fill: #fff;"/>
          <path d="M301.01,78.28c0-.1.05-.14.14-.14h.92c.1,0,.14.05.14.14v7.76c0,.29.06.49.17.6s.29.17.53.17h.63c.38,0,.58.19.58.58,0,.24-.05.39-.14.45s-.24.09-.44.09h-.85c-.6,0-1.04-.15-1.3-.44-.26-.29-.39-.75-.39-1.38v-7.83Z" style="fill: #fff;"/>
          <path d="M303.54,87.93c-.19,0-.34-.03-.43-.1-.1-.07-.14-.2-.14-.4,0-.24.05-.4.14-.49.09-.09.24-.13.44-.13h.91c.24,0,.42-.06.53-.17s.17-.31.17-.6v-3.86c0-.1.05-.14.14-.14h.92c.1,0,.14.05.14.14v3.93c0,.62-.13,1.08-.39,1.38-.26.29-.69.44-1.3.44h-1.12ZM304.92,90.56c-.1,0-.14-.05-.14-.14v-1.05c0-.1.05-.14.14-.14h.98c.1,0,.14.05.14.14v1.05c0,.1-.05.14-.14.14h-.98Z" style="fill: #fff;"/>
        </g>
        <g>
          <path d="M4.46,81.04c0-.61.14-1.06.41-1.37.27-.31.71-.46,1.32-.46h2.49c.1,0,.14.05.14.14v.84c0,.1-.05.14-.14.14h-2.13c-.36,0-.59.08-.71.23s-.17.39-.17.72v6.5c0,.1-.05.14-.14.14h-.92c-.1,0-.14-.05-.14-.14v-6.74Z" style="fill: #fff;"/>
          <path d="M13.07,85.98c-.13.13-.26.2-.37.21-.12,0-.25-.06-.42-.21l-.65-.66c-.14-.14-.22-.27-.23-.38s.07-.24.23-.4l.65-.65c.12-.12.24-.2.35-.22.11-.02.24.04.38.18l.71.69c.13.13.21.26.22.38,0,.12-.06.26-.22.41l-.65.65Z" style="fill: #fff;"/>
          <path d="M17.42,81.04c0-.61.14-1.06.41-1.37.27-.31.71-.46,1.32-.46h2.49c.1,0,.14.05.14.14v.84c0,.1-.05.14-.14.14h-2.13c-.36,0-.59.08-.71.23s-.17.39-.17.72v6.5c0,.1-.05.14-.14.14h-.92c-.1,0-.14-.05-.14-.14v-6.74Z" style="fill: #fff;"/>
          <path d="M25.6,87.93c-.31,0-.61-.03-.91-.09s-.57-.19-.81-.39c-.24-.2-.43-.48-.58-.86-.15-.38-.22-.88-.22-1.51v-1.84c0-.78.06-1.43.19-1.95.13-.52.31-.94.54-1.25.23-.31.5-.53.81-.66.31-.13.65-.19,1.02-.19s.69.06,1,.18c.31.12.58.34.81.65.23.31.4.73.53,1.25.13.52.19,1.19.19,1.99v1.74c0,.61-.07,1.11-.21,1.49s-.33.67-.56.89c-.24.21-.51.35-.82.43-.31.08-.64.12-.99.12ZM25.63,86.76c.22,0,.42-.02.58-.07s.31-.14.42-.27c.11-.13.19-.32.25-.55s.09-.54.09-.91v-1.61c0-1.09-.11-1.88-.32-2.35-.21-.47-.55-.71-1.02-.71-.23,0-.43.05-.6.16-.17.11-.31.28-.42.52-.11.24-.19.55-.24.94s-.08.85-.08,1.41v1.66c0,.39.03.71.09.94.06.24.14.42.26.55s.26.22.42.26c.17.04.36.07.57.07Z" style="fill: #fff;"/>
          <path d="M32.47,90.79c-.1,0-.14-.05-.14-.14v-.83c0-.1.05-.14.14-.14h.33c.78,0,1.17-.41,1.17-1.22v-6.26c0-.1.05-.14.14-.14h.92c.1,0,.14.05.14.14v3.64c0,.33.12.57.35.73.23.16.55.25.94.25h.16c.19,0,.34.04.43.12.1.08.14.22.14.41,0,.25-.05.41-.14.48-.09.07-.24.11-.44.11h-.3c-.5,0-.88-.15-1.15-.46v.95c0,.78-.2,1.37-.59,1.77s-.97.6-1.73.6h-.39Z" style="fill: #fff;"/>
          <path d="M36.73,87.93c-.19,0-.34-.03-.43-.1-.1-.07-.14-.2-.14-.4,0-.24.05-.4.14-.49.09-.09.24-.13.44-.13h.91c.24,0,.42-.06.53-.17s.17-.31.17-.6v-3.86c0-.1.05-.14.14-.14h.92c.1,0,.14.05.14.14v3.64c0,.33.12.57.35.73.23.16.55.25.94.25h.17c.19,0,.34.04.43.12.1.08.14.22.14.41,0,.25-.05.41-.14.48-.09.07-.24.11-.44.11h-.32c-.31,0-.58-.06-.81-.19-.23-.12-.41-.31-.53-.56-.24.5-.74.75-1.5.75h-1.12ZM38.47,90.56c-.1,0-.14-.05-.14-.14v-1.05c0-.1.05-.14.14-.14h.98c.1,0,.14.05.14.14v1.05c0,.1-.05.14-.14.14h-.98Z" style="fill: #fff;"/>
          <path d="M45.24,88.03c-.45,0-.85-.06-1.19-.19-.35-.13-.64-.33-.88-.61-.2.31-.46.5-.78.58-.32.08-.61.12-.88.12h-.62c-.38,0-.58-.19-.58-.58,0-.24.05-.39.14-.45s.24-.09.44-.09h.72c.11,0,.21-.02.32-.07.11-.04.2-.11.29-.22.09-.1.16-.23.21-.4.05-.17.08-.38.08-.63,0-.1-.01-.19-.01-.28v-.29c0-1.1.24-1.9.73-2.4.49-.49,1.16-.74,2.02-.74s1.53.25,2.02.74.73,1.29.73,2.4c0,.11,0,.21,0,.32s-.01.21-.02.3c0,.49.11.82.3,1,.19.18.39.27.6.27h.42c.19,0,.34.04.43.12.1.08.14.22.14.41,0,.25-.05.41-.14.48-.09.07-.24.11-.44.11h-.32c-.13,0-.28,0-.43-.02-.15-.01-.3-.05-.45-.09s-.29-.12-.42-.21c-.13-.09-.25-.21-.35-.37-.24.28-.53.48-.88.61-.35.12-.74.19-1.18.19ZM45.24,82.9c-.54,0-.93.18-1.17.53-.25.36-.37.85-.37,1.48,0,.69.12,1.2.37,1.51.24.32.64.48,1.17.48s.93-.16,1.17-.48c.24-.32.37-.82.37-1.51,0-.63-.12-1.13-.37-1.48-.24-.35-.64-.53-1.17-.53Z" style="fill: #fff;"/>
          <path d="M53.65,87.93c-.31,0-.58-.06-.81-.19-.23-.12-.41-.31-.53-.56-.24.5-.74.75-1.5.75h-1.56c-.19,0-.34-.03-.43-.1-.1-.07-.14-.2-.14-.4,0-.24.05-.4.14-.49.09-.09.24-.13.44-.13h1.34c.24,0,.42-.06.53-.17s.17-.31.17-.6v-2.62c0-.1.05-.14.14-.14h.92c.1,0,.14.05.14.14v2.4c0,.33.11.57.35.73s.54.25.92.25h.36c.24,0,.42-.06.53-.17s.17-.31.17-.6v-2.62c0-.1.05-.14.14-.14h.92c.1,0,.14.05.14.14v2.46c0,.31.12.54.36.69.24.15.55.23.94.23h.33c.24,0,.42-.06.53-.17s.17-.31.17-.6v-3.86c0-.1.05-.14.14-.14h.92c.1,0,.14.05.14.14v3.64c0,.33.12.57.35.73.23.16.55.25.94.25h.16c.19,0,.34.04.43.12.1.08.14.22.14.41,0,.25-.05.41-.14.48-.09.07-.24.11-.44.11h-.3c-.31,0-.58-.06-.81-.19-.23-.12-.41-.31-.53-.56-.24.5-.74.75-1.5.75h-.69c-.31,0-.58-.06-.81-.19-.23-.12-.41-.31-.53-.56-.24.5-.74.75-1.5.75h-.69Z" style="fill: #fff;"/>
          <path d="M61.01,87.93c-.19,0-.34-.03-.43-.1-.1-.07-.14-.2-.14-.4,0-.24.05-.4.14-.49.09-.09.24-.13.44-.13h.99c.24,0,.42-.06.53-.17s.17-.31.17-.6v-3.86c0-.1.05-.14.14-.14h.92c.1,0,.14.05.14.14v3.93c0,.62-.13,1.08-.39,1.38-.26.29-.69.44-1.3.44h-1.21ZM61.62,90.6c-.1,0-.14-.05-.14-.14v-1.05c0-.1.05-.14.14-.14h.98c.1,0,.14.05.14.14v1.05c0,.1-.05.14-.14.14h-.98ZM63.38,90.6c-.1,0-.14-.05-.14-.14v-1.05c0-.1.05-.14.14-.14h.98c.1,0,.14.05.14.14v1.05c0,.1-.05.14-.14.14h-.98Z" style="fill: #fff;"/>
          <path d="M71.23,85.46c0,.48-.04.88-.12,1.19-.08.32-.21.57-.38.76-.17.19-.39.32-.65.4s-.57.12-.94.12h-3.2c-.1,0-.14-.05-.14-.14v-.84c0-.1.05-.14.14-.14h2.75c.27,0,.48-.02.65-.07.16-.04.29-.11.37-.22.09-.1.14-.23.17-.4.03-.16.04-.37.04-.62v-1.15c0-.97-.55-1.45-1.64-1.45h-1.67c-.1,0-.14-.05-.14-.14v-.83c0-.1.05-.14.14-.14h2.12c.73,0,1.33.21,1.79.62.47.41.7,1.06.7,1.94v1.12Z" style="fill: #fff;"/>
          <path d="M76.49,80.34c-.1,0-.14-.05-.14-.14v-.84c0-.1.05-.14.14-.14h2.49c.6,0,1.04.15,1.32.46.27.31.41.76.41,1.37v6.74c0,.1-.05.14-.14.14h-.92c-.1,0-.14-.05-.14-.14v-6.5c0-.33-.06-.57-.17-.72s-.35-.23-.71-.23h-2.13Z" style="fill: #fff;"/>
          <path d="M82.62,84.51v-.83c0-.1.05-.14.14-.14h3.83c.1,0,.14.05.14.14v.83c0,.1-.05.14-.14.14h-3.83c-.1,0-.14-.05-.14-.14Z" style="fill: #fff;"/>
          <path d="M92.34,79.23c.03-.1.09-.13.17-.1l.94.23c.11.03.15.08.13.16l-2.32,8.28c-.03.11-.1.17-.21.18-.11.01-.25.02-.41.02-.15,0-.29,0-.4-.02-.11-.01-.18-.07-.21-.18l-2.3-8.28c-.02-.08.02-.13.13-.16l.94-.23c.09-.03.14,0,.17.1l1.67,6.65,1.7-6.65Z" style="fill: #fff;"/>
        </g>
      </g>
      <g>
        <path d="M393.53,94l-6.69.81s-7.12-4.07-15.26-6.59c-8.13-2.52-14.25-2.22-14.25-2.22l-4.61-4s11.73,0,20.01,2.74c8.28,2.74,20.8,9.25,20.8,9.25" style="fill: #fff;"/>
        <path d="M411.73,85.64l-4.17,3.26s-5.28-.09-14.54-4c-5.73-2.42-11.95-5.74-21.81-9.25-11.48-4.09-25.33-1.7-25.33-1.7l-2.38-3.55s11.66-2.66,25.84.81c7.49,1.84,18.83,8.03,27.92,11.32,8.11,2.94,14.46,3.11,14.46,3.11" style="fill: #fff;"/>
        <path d="M424.69,71.43c-.16.5-10.26.66-19.93-.67-6.68-.91-14.2-4.99-20.8-8.36-19.93-10.18-45.48-5.18-45.48-5.18l1.08,3.92s13.43-3.2,27.99-.22c12.28,2.51,25.48,10.96,31.3,12.36,12.88,3.09,22.64,2.17,23.01,1.87.01-.01.01-.03.02-.05l2.81-3.68" style="fill: #fff;"/>
        <path d="M337.68,44.87s9.21-2.96,20.87-2.37c11.66.59,17.67,3.17,21.52,4.58,4.25,1.56,11.57,5.88,24.56,10.14,8.03,2.63,24.14.44,24.14.44l-2.56,4.17s-14.11,2.18-27.57-2.47c-11.8-4.07-17.06-10.06-31.45-12.28-15.18-2.34-29.51,1.26-29.51,1.26v-3.48Z" style="fill: #fff;"/>
        <path d="M341.76,47.49h-4.08c0-13.29,4.82-25.5,13.58-34.39C359.95,4.29,371.77,0,384.55,0v3.51c-24.4,0-42.8,18.91-42.8,43.98" style="fill: #fff;"/>
        <path d="M429.93,46.35l-.91,1.75c-.13-6.95-1.81-13.42-4.1-18.97-3.87-8.32-9.84-14.37-16.65-18.97-6.99-4.72-15.32-6.65-24.09-6.65V0c9.58,0,18.13,2.74,25.8,7.92,7.47,5.05,14.02,13.7,16.19,19.54,2.49,6.05,3.41,11.01,3.75,18.89" style="fill: #fff;"/>
      </g>
    </g>
  </g>
</svg>