<?xml version="1.0" encoding="UTF-8"?>
<svg id="Layer_2" data-name="Layer 2" xmlns="http://www.w3.org/2000/svg" viewBox="0 0 174.17 53.07">
  <defs>
    <style>
      .cls-1 {
        fill: #0e5e46;
      }

      .cls-2 {
        fill: none;
        stroke: #fdc029;
        stroke-miterlimit: 10;
        stroke-width: .5px;
      }

      .cls-3 {
        fill: #fdc029;
      }
    </style>
  </defs>
  <g id="Layer_1-2" data-name="Layer 1">
    <path class="cls-1" d="M10.55,14.11v.3c0,.07-.06.13-.13.13-.26,0-.54-.06-.72-.21-.28.1-.7.21-1.13.21h-.06c-.96,0-1.41-.48-1.41-1.34v-.4c0-.88.47-1.36,1.45-1.36.56,0,1.05.15,1.39.33v1.98c0,.2.22.23.48.23.07,0,.13.06.13.13ZM8.41,10.3v.63h-.66v-.63h.66ZM9.24,12.15c-.08-.05-.32-.13-.65-.13-.54,0-.78.25-.78.73v.5c0,.47.23.71.74.71h.2c.22-.02.38-.07.49-.12v-1.7ZM9.27,10.3v.63h-.66v-.63h.66Z"/>
    <path class="cls-1" d="M11.35,14.11v.3c0,.07-.06.13-.13.13h-.8c-.07,0-.13-.06-.13-.13v-.3c0-.07.06-.13.13-.13h.8c.07,0,.13.06.13.13Z"/>
    <path class="cls-1" d="M12.15,14.11v.3c0,.07-.06.13-.13.13h-.8c-.07,0-.13-.06-.13-.13v-.3c0-.07.06-.13.13-.13h.8c.07,0,.13.06.13.13Z"/>
    <path class="cls-1" d="M15.77,13.98v.56h-3.76c-.07,0-.12-.06-.12-.13v-.3c0-.07.05-.12.12-.13h2.56c-.1-.19-.15-.43-.15-.71v-.58c0-.46-.22-.66-.68-.66-.43,0-.73.1-.99.23l-.17-.56c.21-.08.61-.26,1.25-.26.89,0,1.3.46,1.3,1.28v.62c0,.35.15.64.49.65h.16Z"/>
    <path class="cls-1" d="M16.19,14.54v-4.43h.7v4.43h-.7Z"/>
    <path class="cls-1" d="M17.05,15.52c.71.05.92-.26.92-.82v-3.16h.7v3.12c0,.97-.49,1.47-1.62,1.42v-.56Z"/>
    <path class="cls-1" d="M27.23,14.11v.3c0,.07-.06.13-.13.13-.26,0-.54-.06-.72-.21-.28.1-.7.21-1.13.21h-.06c-.96,0-1.41-.48-1.41-1.34v-.4c0-.88.47-1.36,1.45-1.36.56,0,1.05.15,1.39.33v1.98c0,.2.22.23.48.23.07,0,.13.06.13.13ZM25.92,12.15c-.08-.05-.32-.13-.65-.13-.54,0-.78.25-.78.73v.5c0,.47.23.71.74.71h.2c.22-.02.38-.07.49-.12v-1.7Z"/>
    <path class="cls-1" d="M28.03,14.11v.3c0,.07-.06.13-.13.13h-.8c-.07,0-.13-.06-.13-.13v-.3c0-.07.06-.13.13-.13h.8c.07,0,.13.06.13.13Z"/>
    <path class="cls-1" d="M28.83,14.11v.3c0,.07-.06.13-.13.13h-.8c-.07,0-.13-.06-.13-.13v-.3c0-.07.06-.13.13-.13h.8c.07,0,.13.06.13.13Z"/>
    <path class="cls-1" d="M30.97,14.11v.3c0,.07-.06.13-.13.13-.26,0-.52-.06-.7-.2-.19.17-.51.2-.96.2h-.48c-.07,0-.13-.06-.13-.13v-.3c0-.07.06-.13.13-.13h.48c.39,0,.48-.03.48-.3v-2.13h.7v2.2c0,.2.22.23.48.23.07,0,.13.06.13.13ZM28.59,15.85v-.62h.66v.62h-.66ZM29.45,15.85v-.62h.66v.62h-.66Z"/>
    <path class="cls-1" d="M34.47,11.77v2.77h-3.62c-.07,0-.13-.06-.13-.13v-.3c0-.07.06-.13.13-.13h1.05c-.18-.19-.26-.46-.26-.82v-.38c0-.86.46-1.34,1.42-1.34.58,0,1.06.16,1.42.33ZM33.77,13.98v-1.82c-.11-.04-.35-.13-.68-.13-.51,0-.74.24-.74.71v.57c0,.42.26.67.75.67h.67ZM33.42,10.3v.62h-.71v-.62h.71Z"/>
    <path class="cls-1" d="M43.49,14.11v.3c0,.07-.06.13-.13.13h-.55c-.37,0-.74-.05-1.07-.16-.26.1-.52.17-.78.17h0c-.45.07-.49.3-.49.61,0,.43.14.59.95.59.42,0,.78-.06,1.02-.09v.59c-.3.03-.59.07-1.01.07-1.05,0-1.67-.22-1.67-1.17,0-.82.43-1.1,1.27-1.16-.46-.35-.78-.89-.87-1.68-.08.02-.15.05-.23.08l-.19-.55c.66-.27,1.29-.4,1.82-.39.95,0,1.54.44,1.57,1.1.02.54-.29,1.06-.73,1.43h.98c.07,0,.13.06.13.13ZM41.68,13.88c.5-.25.82-.88.73-1.31-.08-.34-.41-.5-.87-.51-.23,0-.51.02-.81.1.34,1.08.53,1.55.95,1.73Z"/>
    <path class="cls-1" d="M44.3,14.11v.3c0,.07-.06.13-.13.13h-.8c-.07,0-.13-.06-.13-.13v-.3c0-.07.06-.13.13-.13h.8c.07,0,.13.06.13.13Z"/>
    <path class="cls-1" d="M45.1,14.11v.3c0,.07-.06.13-.13.13h-.8c-.07,0-.13-.06-.13-.13v-.3c0-.07.06-.13.13-.13h.8c.07,0,.13.06.13.13Z"/>
    <path class="cls-1" d="M49.25,14.11v.3c0,.07-.06.13-.13.13-.32,0-.59-.09-.81-.25-.23.17-.54.26-.96.26h-.06c-.38,0-.66-.09-.89-.21-.19.17-.51.2-.96.2h-.48c-.07,0-.13-.06-.13-.13v-.3c0-.07.06-.13.13-.13h.48c.38,0,.48-.03.48-.3v-1.88c.35-.18.84-.34,1.39-.34.98,0,1.45.48,1.45,1.36v.39c0,.26-.04.48-.12.66.14.06.31.1.48.1.07,0,.13.06.13.13ZM48.06,12.77c0-.49-.25-.73-.78-.73-.33,0-.57.08-.66.13v1.68c.14.07.37.14.66.14h.02c.51,0,.74-.24.74-.71v-.5Z"/>
    <path class="cls-1" d="M51.4,14.11v.3c0,.07-.06.13-.13.13-.26,0-.52-.06-.7-.2-.19.17-.51.2-.96.2h-.48c-.07,0-.13-.06-.13-.13v-.3c0-.07.06-.13.13-.13h.48c.39,0,.48-.03.48-.3v-2.13h.7v2.2c0,.2.22.23.48.23.07,0,.13.06.13.13ZM49.9,10.3v.63h-.66v-.63h.66ZM50.77,10.3v.63h-.66v-.63h.66Z"/>
    <path class="cls-1" d="M55,14.11v.3c0,.07-.06.13-.13.13h-3.6c-.07,0-.13-.06-.13-.13v-.3c0-.07.06-.13.13-.13h2.54c-.1-.19-.15-.43-.15-.71v-.58c0-.46-.21-.66-.67-.66-.43,0-.74.1-.99.23l-.17-.56c.21-.08.61-.26,1.25-.26.89,0,1.29.46,1.29,1.28v.62c0,.36.17.65.5.65.07,0,.13.06.13.13ZM53.03,15.85v-.62h.71v.62h-.71Z"/>
    <path class="cls-1" d="M59.16,14.11v.3c0,.07-.06.13-.13.13-.32,0-.59-.09-.81-.25-.23.17-.54.26-.96.26h-.06c-.38,0-.66-.09-.89-.21-.19.17-.51.2-.96.2h-.48c-.07,0-.13-.06-.13-.13v-.3c0-.07.06-.13.13-.13h.48c.38,0,.48-.03.48-.3v-1.88c.35-.18.84-.34,1.39-.34.98,0,1.45.48,1.45,1.36v.39c0,.26-.04.48-.12.66.14.06.31.1.48.1.07,0,.13.06.13.13ZM57.97,12.77c0-.49-.25-.73-.78-.73-.33,0-.57.08-.66.13v1.68c.14.07.37.14.66.14h.02c.51,0,.74-.24.74-.71v-.5Z"/>
    <path class="cls-1" d="M60.65,10.11v4.43h-1.62c-.07,0-.13-.06-.13-.13v-.3c0-.07.06-.13.13-.13h.91v-3.87h.7Z"/>
    <path class="cls-1" d="M61.61,14.54v-4.43h.7v4.43h-.7Z"/>
    <path class="cls-1" d="M69.79,12.82v1.72h-2.53v-.56h1.82v-1.22c0-.49-.24-.73-.78-.73-.29,0-.55.06-.76.14l-.12-.58c.16-.05.58-.14.92-.14.98,0,1.44.47,1.44,1.36Z"/>
    <path class="cls-1" d="M70.63,14.54v-4.43h.7v4.43h-.7Z"/>
    <path class="cls-1" d="M73.72,14.11v.3c0,.07-.06.13-.13.13h-.48v.13c0,.97-.49,1.47-1.62,1.42v-.56c.71.05.92-.26.92-.82v-3.16h.7v2.43h.48c.07,0,.13.06.13.13Z"/>
    <path class="cls-1" d="M74.52,14.11v.3c0,.07-.06.13-.13.13h-.8c-.07,0-.13-.06-.13-.13v-.3c0-.07.06-.13.13-.13h.8c.07,0,.13.06.13.13Z"/>
    <path class="cls-1" d="M75.32,14.11v.3c0,.07-.06.13-.13.13h-.8c-.07,0-.13-.06-.13-.13v-.3c0-.07.06-.13.13-.13h.8c.07,0,.13.06.13.13Z"/>
    <path class="cls-1" d="M78.81,11.77v2.77h-3.62c-.07,0-.13-.06-.13-.13v-.3c0-.07.06-.13.13-.13h1.05c-.18-.19-.26-.46-.26-.82v-.38c0-.86.46-1.34,1.42-1.34.58,0,1.06.16,1.42.33ZM78.11,13.98v-1.82c-.11-.04-.35-.13-.68-.13-.51,0-.74.24-.74.71v.57c0,.42.26.67.75.67h.67ZM77.77,10.3v.62h-.71v-.62h.71Z"/>
    <path class="cls-1" d="M80.7,9.37v.29h-1.14v-.29h.2c-.04-.06-.06-.14-.06-.26h0c0-.54.47-.63.93-.45l-.09.28c-.28-.14-.5-.09-.5.14v.13c0,.11.07.16.2.16h.46ZM79.78,14.54v-4.43h.7v4.43h-.7Z"/>
    <path class="cls-1" d="M91.25,14.11v.3c0,.07-.06.13-.13.13-.8,0-1.18-.11-1.18-.89v-1.54h-.62c-.38,0-.58.06-.7.12v2.81c0,.22-.05.3-.27.38-.27.11-.68.23-1.29.23-1,0-1.45-.5-1.45-1.39v-1.44h.7v1.54c0,.49.27.72.84.72.29,0,.51-.04.69-.1.06-.02.07-.04.07-.1v-3.02c.2-.11.66-.3,1.39-.3h1.34v2.13c0,.27.09.3.48.3.07,0,.13.06.13.13ZM87.31,10.95v.62h-.72v-.62h.72ZM89.09,15.85v-.62h.66v.62h-.66ZM89.95,15.85v-.62h.66v.62h-.66Z"/>
    <path class="cls-1" d="M92.78,11.55v2.99h-1.66c-.07,0-.13-.06-.13-.13v-.3c0-.07.06-.13.13-.13h.96v-2.43h.7ZM91.36,15.85v-.62h.72v.62h-.72Z"/>
    <path class="cls-1" d="M102.24,14.11v.3c0,.07-.06.13-.13.13-.32,0-.59-.1-.82-.25-.22.17-.54.26-.95.26h-.06c-.37,0-.65-.09-.87-.21l-.04.02c-.19.07-.42.12-.59.24-.22.15-.29.48-.29,1.02h-.71c0-.6.13-1.06.48-1.38.26-.26.6-.32.66-.36v-2.08c.34-.18.83-.34,1.39-.34.98,0,1.45.48,1.45,1.36v.39c0,.26-.04.48-.12.67.14.06.31.1.48.1.07,0,.13.06.13.13ZM101.05,12.76c0-.49-.25-.73-.78-.73-.32,0-.57.09-.65.13v1.69c.14.06.37.13.66.13h.02c.51,0,.74-.24.74-.7v-.51Z"/>
    <path class="cls-1" d="M103.04,14.11v.3c0,.07-.06.13-.13.13h-.8c-.07,0-.13-.06-.13-.13v-.3c0-.07.06-.13.13-.13h.8c.07,0,.13.06.13.13Z"/>
    <path class="cls-1" d="M103.84,14.11v.3c0,.07-.06.13-.13.13h-.8c-.07,0-.13-.06-.13-.13v-.3c0-.07.06-.13.13-.13h.8c.07,0,.13.06.13.13Z"/>
    <path class="cls-1" d="M107.46,13.98v.56h-3.76c-.07,0-.12-.06-.12-.13v-.3c0-.07.05-.12.12-.13h2.56c-.1-.19-.15-.43-.15-.71v-.58c0-.46-.22-.66-.68-.66-.43,0-.73.1-.99.23l-.17-.56c.21-.08.61-.26,1.25-.26.89,0,1.3.46,1.3,1.28v.62c0,.35.15.64.49.65h.16Z"/>
    <path class="cls-1" d="M107.88,14.54v-4.43h.7v4.43h-.7Z"/>
    <path class="cls-1" d="M113,14.11v.3c0,.07-.06.13-.13.13-.8,0-1.19-.11-1.19-.89v-1.54h-.61c-.38,0-.59.06-.7.12v2.44c0,.97-.49,1.47-1.62,1.42v-.56c.7.05.91-.26.91-.82v-2.85c.21-.11.66-.3,1.39-.3h1.34v2.13c0,.27.1.3.49.3.07,0,.13.06.13.13ZM111.43,10.3v.63h-.66v-.63h.66ZM112.3,10.3v.63h-.66v-.63h.66Z"/>
    <path class="cls-1" d="M114.49,10.11v4.43h-1.62c-.07,0-.13-.06-.13-.13v-.3c0-.07.06-.13.13-.13h.91v-3.87h.7Z"/>
    <path class="cls-1" d="M115.45,14.54v-4.43h.7v4.43h-.7Z"/>
    <path class="cls-1" d="M119.71,11.76v2.9c0,.91-.42,1.42-1.44,1.42h-.74v-.57h.74c.56,0,.74-.3.74-.81v-.17h-.72c-.96,0-1.41-.48-1.41-1.34v-.4c0-.88.46-1.36,1.44-1.36.56,0,1.04.15,1.39.32ZM119.01,12.15c-.08-.05-.32-.13-.65-.13-.54,0-.78.24-.78.73v.5c0,.47.23.72.75.72h.68v-1.82Z"/>
    <path class="cls-1" d="M128.62,12.79c.85,0,1.37.23,1.37,1.02,0,.71-.3,1.23-1.36,1.23h-2.43c-.91,0-1.33-.47-1.33-1.29v-1.05h.7v1.1c0,.47.22.67.72.67h2.3c.59,0,.68-.34.68-.67,0-.31-.22-.47-.62-.47h-1.78v-1.03c0-.83.62-1.17,1.34-1.17.54,0,1.14.19,1.35.77l-.54.22c-.14-.26-.4-.43-.78-.43s-.68.15-.68.62v.47h1.05ZM126.53,16.06v-.62h.66v.62h-.66ZM127.39,16.06v-.62h.66v.62h-.66Z"/>
    <path class="cls-1" d="M134.22,14.11v.3c0,.07-.06.13-.13.13-.8,0-1.19-.11-1.19-.89v-1.54h-.61c-.38,0-.59.06-.7.12v2.44c0,.97-.49,1.47-1.62,1.42v-.56c.7.05.91-.26.91-.82v-2.85c.21-.11.66-.3,1.39-.3h1.34v2.13c0,.27.1.3.49.3.07,0,.13.06.13.13ZM132.01,15.85v-.62h.66v.62h-.66ZM132.87,15.85v-.62h.66v.62h-.66Z"/>
    <path class="cls-1" d="M137.82,14.11v.3c0,.07-.06.13-.13.13h-3.6c-.07,0-.13-.06-.13-.13v-.3c0-.07.06-.13.13-.13h2.54c-.1-.19-.15-.43-.15-.71v-.58c0-.46-.21-.66-.67-.66-.43,0-.74.1-.99.23l-.17-.56c.21-.08.61-.26,1.25-.26.89,0,1.29.46,1.29,1.28v.62c0,.36.17.65.5.65.07,0,.13.06.13.13ZM136.27,10.3v.62h-.71v-.62h.71Z"/>
    <path class="cls-1" d="M138.63,14.11v.3c0,.07-.06.13-.13.13h-.8c-.07,0-.13-.06-.13-.13v-.3c0-.07.06-.13.13-.13h.8c.07,0,.13.06.13.13Z"/>
    <path class="cls-1" d="M139.43,14.11v.3c0,.07-.06.13-.13.13h-.8c-.07,0-.13-.06-.13-.13v-.3c0-.07.06-.13.13-.13h.8c.07,0,.13.06.13.13Z"/>
    <path class="cls-1" d="M140.91,10.11v4.43h-1.62c-.07,0-.13-.06-.13-.13v-.3c0-.07.06-.13.13-.13h.91v-3.87h.7Z"/>
    <path class="cls-1" d="M141.87,14.54v-4.43h.7v4.43h-.7Z"/>
    <path class="cls-1" d="M151.32,14.11v.3c0,.07-.06.13-.13.13h-.48v.74c-.22.12-.69.37-1.57.37-.99,0-1.45-.5-1.45-1.39v-1.44h.7v1.54c0,.49.27.72.85.72.34,0,.6-.07.76-.13v-4.84h.7v3.87h.48c.07,0,.13.06.13.13Z"/>
    <path class="cls-1" d="M152.12,14.11v.3c0,.07-.06.13-.13.13h-.8c-.07,0-.13-.06-.13-.13v-.3c0-.07.06-.13.13-.13h.8c.07,0,.13.06.13.13Z"/>
    <path class="cls-1" d="M152.92,14.11v.3c0,.07-.06.13-.13.13h-.8c-.07,0-.13-.06-.13-.13v-.3c0-.07.06-.13.13-.13h.8c.07,0,.13.06.13.13Z"/>
    <path class="cls-1" d="M157.08,14.11v.3c0,.07-.06.13-.13.13-.32,0-.59-.09-.81-.25-.23.17-.54.26-.96.26h-.06c-.38,0-.66-.09-.89-.21-.19.17-.51.2-.96.2h-.48c-.07,0-.13-.06-.13-.13v-.3c0-.07.06-.13.13-.13h.48c.38,0,.48-.03.48-.3v-1.88c.35-.18.84-.34,1.39-.34.98,0,1.45.48,1.45,1.36v.39c0,.26-.04.48-.12.66.14.06.31.1.48.1.07,0,.13.06.13.13ZM155.89,12.77c0-.49-.25-.73-.78-.73-.33,0-.57.08-.66.13v1.68c.14.07.37.14.66.14h.02c.51,0,.74-.24.74-.71v-.5Z"/>
    <path class="cls-1" d="M161.15,14.11v.3c0,.07-.06.13-.13.13h-.54c-.38,0-.74-.05-1.08-.17-.26.11-.53.17-.78.17h-1.66c-.07,0-.13-.06-.13-.13v-.3c0-.07.06-.13.13-.13h1.71c-.44-.35-.76-.9-.85-1.67-.08.02-.15.06-.23.08l-.19-.55c.66-.27,1.29-.4,1.82-.39.94,0,1.54.45,1.57,1.09.02.55-.29,1.07-.74,1.45h.97c.07,0,.13.06.13.13ZM159.34,13.87c.5-.24.83-.87.73-1.31-.08-.34-.4-.5-.86-.51-.24,0-.51.03-.81.1.33,1.08.53,1.55.94,1.73Z"/>
    <path class="cls-1" d="M162.64,10.11v4.43h-1.62c-.07,0-.13-.06-.13-.13v-.3c0-.07.06-.13.13-.13h.91v-3.87h.7Z"/>
    <path class="cls-1" d="M163.6,14.54v-4.43h.7v4.43h-.7Z"/>
    <path class="cls-1" d="M165.41,13.75l-.46-.43.97-.98-.97-1.01.44-.42,1.37,1.43-1.35,1.41ZM166.86,13.75l-.46-.43.97-.98-.97-1.01.44-.42,1.37,1.43-1.35,1.41Z"/>
    <path class="cls-1" d="M9.96,23.71v.3c0,.07-.06.13-.13.13-.23,0-.45-.06-.6-.19-.2.16-.51.19-.94.19h-1.34v-.56h1.34c.39,0,.48-.03.48-.3v-.91c0-.49-.24-.73-.78-.73-.3,0-.55.06-.76.14l-.12-.58c.16-.05.58-.14.92-.14.98,0,1.44.47,1.44,1.36v.93c0,.18.13.23.36.23.07,0,.13.06.13.13Z"/>
    <path class="cls-1" d="M10.76,23.71v.3c0,.07-.06.13-.13.13h-.8c-.07,0-.13-.06-.13-.13v-.3c0-.07.06-.13.13-.13h.8c.07,0,.13.06.13.13Z"/>
    <path class="cls-1" d="M11.56,23.71v.3c0,.07-.06.13-.13.13h-.8c-.07,0-.13-.06-.13-.13v-.3c0-.07.06-.13.13-.13h.8c.07,0,.13.06.13.13Z"/>
    <path class="cls-1" d="M15.63,23.71v.3c0,.07-.06.13-.13.13h-.54c-.38,0-.74-.05-1.08-.17-.26.11-.53.17-.78.17h-1.66c-.07,0-.13-.06-.13-.13v-.3c0-.07.06-.13.13-.13h1.71c-.44-.35-.76-.9-.85-1.67-.08.02-.15.06-.23.08l-.19-.55c.66-.27,1.29-.4,1.82-.39.94,0,1.54.45,1.57,1.09.02.55-.29,1.07-.74,1.45h.97c.07,0,.13.06.13.13ZM13.81,23.47c.5-.24.83-.87.73-1.31-.08-.34-.4-.5-.86-.51-.24,0-.51.03-.81.1.33,1.08.53,1.55.94,1.73Z"/>
    <path class="cls-1" d="M17.17,21.15v2.99h-1.66c-.07,0-.13-.06-.13-.13v-.3c0-.07.06-.13.13-.13h.96v-2.43h.7ZM15.74,25.45v-.62h.72v.62h-.72Z"/>
    <path class="cls-1" d="M21.88,23.71v.3c0,.07-.06.13-.13.13h-1.18v-4.43h.7v3.87h.48c.07,0,.13.06.13.13Z"/>
    <path class="cls-1" d="M22.68,23.71v.3c0,.07-.06.13-.13.13h-.8c-.07,0-.13-.06-.13-.13v-.3c0-.07.06-.13.13-.13h.8c.07,0,.13.06.13.13Z"/>
    <path class="cls-1" d="M23.48,23.71v.3c0,.07-.06.13-.13.13h-.8c-.07,0-.13-.06-.13-.13v-.3c0-.07.06-.13.13-.13h.8c.07,0,.13.06.13.13Z"/>
    <path class="cls-1" d="M27.64,23.71v.3c0,.07-.06.13-.13.13-.32,0-.59-.09-.81-.25-.23.17-.54.26-.96.26h-.06c-.38,0-.66-.09-.89-.21-.19.17-.51.2-.96.2h-.48c-.07,0-.13-.06-.13-.13v-.3c0-.07.06-.13.13-.13h.48c.38,0,.48-.03.48-.3v-1.88c.35-.18.84-.34,1.39-.34.98,0,1.45.48,1.45,1.36v.39c0,.26-.04.48-.12.66.14.06.31.1.48.1.07,0,.13.06.13.13ZM26.45,22.37c0-.49-.25-.73-.78-.73-.33,0-.57.08-.66.13v1.68c.14.07.37.14.66.14h.02c.51,0,.74-.24.74-.71v-.5Z"/>
    <path class="cls-1" d="M29.13,19.71v4.43h-1.62c-.07,0-.13-.06-.13-.13v-.3c0-.07.06-.13.13-.13h.91v-3.87h.7Z"/>
    <path class="cls-1" d="M32.69,21.36v2.9c0,.91-.42,1.42-1.44,1.42h-.74v-.57h.74c.56,0,.74-.3.74-.81v-.17h-.72c-.96,0-1.41-.48-1.41-1.34v-.4c0-.88.46-1.36,1.44-1.36.56,0,1.04.15,1.39.32ZM31.99,21.75c-.08-.05-.32-.13-.65-.13-.54,0-.78.24-.78.73v.5c0,.47.23.72.75.72h.68v-1.82Z"/>
    <path class="cls-1" d="M38.7,21.37v2.45c-.24.13-.78.31-1.37.31h-.06c-.96,0-1.41-.48-1.41-1.34v-.4c0-.88.47-1.36,1.45-1.36.56,0,1.05.15,1.39.33ZM37.16,19.9v.63h-.66v-.63h.66ZM37.99,21.75c-.08-.05-.32-.13-.65-.13-.54,0-.78.25-.78.73v.5c0,.47.23.71.74.71h.2c.22-.02.38-.07.49-.12v-1.7ZM38.02,19.9v.63h-.66v-.63h.66Z"/>
    <path class="cls-1" d="M40.97,23.71v.3c0,.07-.06.13-.13.13h-1.18v-4.43h.7v3.87h.48c.07,0,.13.06.13.13Z"/>
    <path class="cls-1" d="M41.77,23.71v.3c0,.07-.06.13-.13.13h-.8c-.07,0-.13-.06-.13-.13v-.3c0-.07.06-.13.13-.13h.8c.07,0,.13.06.13.13Z"/>
    <path class="cls-1" d="M42.57,23.71v.3c0,.07-.06.13-.13.13h-.8c-.07,0-.13-.06-.13-.13v-.3c0-.07.06-.13.13-.13h.8c.07,0,.13.06.13.13Z"/>
    <path class="cls-1" d="M44.71,23.71v.3c0,.07-.06.13-.13.13-.26,0-.52-.06-.7-.2-.19.17-.51.2-.96.2h-.48c-.07,0-.13-.06-.13-.13v-.3c0-.07.06-.13.13-.13h.48c.39,0,.48-.03.48-.3v-2.13h.7v2.2c0,.2.22.23.48.23.07,0,.13.06.13.13ZM42.33,25.45v-.62h.66v.62h-.66ZM43.19,25.45v-.62h.66v.62h-.66Z"/>
    <path class="cls-1" d="M48.31,23.71v.3c0,.07-.06.13-.13.13h-3.6c-.07,0-.13-.06-.13-.13v-.3c0-.07.06-.13.13-.13h2.54c-.1-.19-.15-.43-.15-.71v-.58c0-.46-.21-.66-.67-.66-.43,0-.74.1-.99.23l-.17-.56c.21-.08.61-.26,1.25-.26.89,0,1.29.46,1.29,1.28v.62c0,.36.17.65.5.65.07,0,.13.06.13.13Z"/>
    <path class="cls-1" d="M49.8,19.71v4.43h-1.62c-.07,0-.13-.06-.13-.13v-.3c0-.07.06-.13.13-.13h.91v-3.87h.7Z"/>
    <path class="cls-1" d="M50.76,24.14v-4.43h.7v4.43h-.7Z"/>
    <path class="cls-1" d="M57.49,23.71v.3c0,.07-.06.13-.13.13-.23,0-.45-.06-.6-.19-.2.16-.51.19-.94.19h-1.34v-.56h1.34c.39,0,.48-.03.48-.3v-.91c0-.49-.24-.73-.78-.73-.3,0-.55.06-.76.14l-.12-.58c.16-.05.58-.14.92-.14.98,0,1.44.47,1.44,1.36v.93c0,.18.13.23.36.23.07,0,.13.06.13.13Z"/>
    <path class="cls-1" d="M58.29,23.71v.3c0,.07-.06.13-.13.13h-.8c-.07,0-.13-.06-.13-.13v-.3c0-.07.06-.13.13-.13h.8c.07,0,.13.06.13.13Z"/>
    <path class="cls-1" d="M59.09,23.71v.3c0,.07-.06.13-.13.13h-.8c-.07,0-.13-.06-.13-.13v-.3c0-.07.06-.13.13-.13h.8c.07,0,.13.06.13.13Z"/>
    <path class="cls-1" d="M63.16,23.71v.3c0,.07-.06.13-.13.13h-.54c-.38,0-.74-.05-1.08-.17-.26.11-.53.17-.78.17h-1.66c-.07,0-.13-.06-.13-.13v-.3c0-.07.06-.13.13-.13h1.71c-.44-.35-.76-.9-.85-1.67-.08.02-.15.06-.23.08l-.19-.55c.66-.27,1.29-.4,1.82-.39.94,0,1.54.45,1.57,1.09.02.55-.29,1.07-.74,1.45h.97c.07,0,.13.06.13.13ZM61.34,23.47c.5-.24.83-.87.73-1.31-.08-.34-.4-.5-.86-.51-.24,0-.51.03-.81.1.33,1.08.53,1.55.94,1.73Z"/>
    <path class="cls-1" d="M64.7,21.15v2.99h-1.66c-.07,0-.13-.06-.13-.13v-.3c0-.07.06-.13.13-.13h.96v-2.43h.7ZM63.27,25.45v-.62h.72v.62h-.72Z"/>
    <path class="cls-1" d="M69.41,23.71v.3c0,.07-.06.13-.13.13h-1.18v-4.43h.7v3.87h.48c.07,0,.13.06.13.13Z"/>
    <path class="cls-1" d="M70.21,23.71v.3c0,.07-.06.13-.13.13h-.8c-.07,0-.13-.06-.13-.13v-.3c0-.07.06-.13.13-.13h.8c.07,0,.13.06.13.13Z"/>
    <path class="cls-1" d="M71.01,23.71v.3c0,.07-.06.13-.13.13h-.8c-.07,0-.13-.06-.13-.13v-.3c0-.07.06-.13.13-.13h.8c.07,0,.13.06.13.13Z"/>
    <path class="cls-1" d="M75.17,23.71v.3c0,.07-.06.13-.13.13-.32,0-.59-.09-.81-.25-.23.17-.54.26-.96.26h-.06c-.38,0-.66-.09-.89-.21-.19.17-.51.2-.96.2h-.48c-.07,0-.13-.06-.13-.13v-.3c0-.07.06-.13.13-.13h.48c.38,0,.48-.03.48-.3v-1.88c.35-.18.84-.34,1.39-.34.98,0,1.45.48,1.45,1.36v.39c0,.26-.04.48-.12.66.14.06.31.1.48.1.07,0,.13.06.13.13ZM73.98,22.37c0-.49-.25-.73-.78-.73-.33,0-.57.08-.66.13v1.68c.14.07.37.14.66.14h.02c.51,0,.74-.24.74-.71v-.5Z"/>
    <path class="cls-1" d="M76.66,19.71v4.43h-1.62c-.07,0-.13-.06-.13-.13v-.3c0-.07.06-.13.13-.13h.91v-3.87h.7Z"/>
    <path class="cls-1" d="M81.49,23.71v.3c0,.07-.06.13-.13.13h-.48v.13c0,.97-.49,1.47-1.62,1.42v-.56c.71.05.92-.26.92-.82v-3.16h.7v2.43h.48c.07,0,.13.06.13.13Z"/>
    <path class="cls-1" d="M82.29,23.71v.3c0,.07-.06.13-.13.13h-.8c-.07,0-.13-.06-.13-.13v-.3c0-.07.06-.13.13-.13h.8c.07,0,.13.06.13.13Z"/>
    <path class="cls-1" d="M83.09,23.71v.3c0,.07-.06.13-.13.13h-.8c-.07,0-.13-.06-.13-.13v-.3c0-.07.06-.13.13-.13h.8c.07,0,.13.06.13.13Z"/>
    <path class="cls-1" d="M97.07,23.71v.3c0,.07-.06.13-.13.13-.23,0-.45-.06-.6-.19-.19.16-.5.19-.94.19h-12.44c-.07,0-.13-.06-.13-.13v-.3c0-.07.06-.13.13-.13h9.96v-3.87h.7v1.99c.34-.22,1.07-.69,1.78-.67.71.02,1.18.4,1.18,1.29v1.03c0,.18.13.23.36.23.07,0,.13.06.13.13ZM95.87,22.29c0-.5-.23-.69-.65-.68-.53,0-1.23.5-1.6.78v1.18h1.78c.39,0,.47-.03.47-.3v-.98ZM95.02,19.89v.62h-.72v-.62h.72Z"/>
    <path class="cls-1" d="M99.22,23.71v.3c0,.07-.06.13-.13.13-.26,0-.52-.06-.7-.2-.19.17-.51.2-.96.2h-.48c-.07,0-.13-.06-.13-.13v-.3c0-.07.06-.13.13-.13h.48c.39,0,.48-.03.48-.3v-2.13h.7v2.2c0,.2.22.23.48.23.07,0,.13.06.13.13ZM98.42,19.9v.62h-.71v-.62h.71Z"/>
    <path class="cls-1" d="M100.76,21.15v2.99h-1.66c-.07,0-.13-.06-.13-.13v-.3c0-.07.06-.13.13-.13h.96v-2.43h.7ZM100.56,19.9v.62h-.71v-.62h.71Z"/>
    <path class="cls-1" d="M102.78,23.86v-1.44h.7v1.54c0,.5.27.73.84.73.35,0,.61-.07.76-.14v-3.37h.7v3.7c-.21.13-.69.37-1.56.37-.99,0-1.45-.5-1.45-1.39ZM103.76,21.17v-.62h.71v.62h-.71Z"/>
    <path class="cls-1" d="M107.66,18.97v.29h-1.14v-.29h.2c-.04-.06-.06-.14-.06-.26h0c0-.54.47-.63.93-.45l-.09.28c-.28-.14-.5-.09-.5.14v.13c0,.11.07.16.2.16h.46ZM106.74,24.14v-4.43h.7v4.43h-.7Z"/>
    <path class="cls-1" d="M116.59,22.31v1.82h-2.96v.7c-.21.12-.69.37-1.56.37-1,0-1.45-.5-1.45-1.39v-1.34h.7v1.43c0,.5.27.73.84.73.35,0,.61-.08.76-.14v-3.35h.7v.55c.34-.22,1.07-.69,1.78-.67.71.02,1.18.4,1.18,1.29ZM115.88,22.29c0-.5-.23-.69-.65-.68-.53,0-1.23.5-1.6.78v1.18h2.25v-1.29ZM115.02,19.9v.62h-.72v-.62h.72Z"/>
    <path class="cls-1" d="M118.85,23.71v.3c0,.07-.06.13-.13.13h-.48v.13c0,.97-.49,1.47-1.62,1.42v-.56c.71.05.92-.26.92-.82v-3.16h.7v2.43h.48c.07,0,.13.06.13.13Z"/>
    <path class="cls-1" d="M119.65,23.71v.3c0,.07-.06.13-.13.13h-.8c-.07,0-.13-.06-.13-.13v-.3c0-.07.06-.13.13-.13h.8c.07,0,.13.06.13.13Z"/>
    <path class="cls-1" d="M120.45,23.71v.3c0,.07-.06.13-.13.13h-.8c-.07,0-.13-.06-.13-.13v-.3c0-.07.06-.13.13-.13h.8c.07,0,.13.06.13.13Z"/>
    <path class="cls-1" d="M124.48,23.71v.3c0,.07-.06.13-.13.13h-4.02c-.07,0-.13-.06-.13-.13v-.3c0-.07.06-.13.13-.13h1.05c-.18-.19-.26-.46-.26-.82v-.38c0-.88.51-1.34,1.44-1.34s1.44.46,1.44,1.34v.38c0,.35-.09.62-.26.82h.62c.07,0,.13.06.13.13ZM121.81,22.91c0,.42.26.66.74.67.48,0,.74-.26.74-.67v-.58c0-.44-.25-.7-.74-.7-.49,0-.74.26-.74.7v.58ZM122.91,19.9v.62h-.71v-.62h.71Z"/>
    <path class="cls-1" d="M126.01,21.15v2.99h-1.66c-.07,0-.13-.06-.13-.13v-.3c0-.07.06-.13.13-.13h.96v-2.43h.7ZM124.29,25.45v-.62h.66v.62h-.66ZM125.16,25.45v-.62h.66v.62h-.66Z"/>
    <path class="cls-1" d="M130.73,23.71v.3c0,.07-.06.13-.13.13h-1.18v-4.43h.7v3.87h.48c.07,0,.13.06.13.13Z"/>
    <path class="cls-1" d="M131.53,23.71v.3c0,.07-.06.13-.13.13h-.8c-.07,0-.13-.06-.13-.13v-.3c0-.07.06-.13.13-.13h.8c.07,0,.13.06.13.13Z"/>
    <path class="cls-1" d="M132.33,23.71v.3c0,.07-.06.13-.13.13h-.8c-.07,0-.13-.06-.13-.13v-.3c0-.07.06-.13.13-.13h.8c.07,0,.13.06.13.13Z"/>
    <path class="cls-1" d="M134.48,23.71v.3c0,.07-.06.13-.13.13-.26,0-.52-.06-.7-.2-.19.17-.51.2-.96.2h-.48c-.07,0-.13-.06-.13-.13v-.3c0-.07.06-.13.13-.13h.48c.39,0,.48-.03.48-.3v-2.13h.7v2.2c0,.2.22.23.48.23.07,0,.13.06.13.13ZM133.68,19.9v.62h-.71v-.62h.71Z"/>
    <path class="cls-1" d="M136.62,23.71v.3c0,.07-.06.13-.13.13-.26,0-.52-.06-.7-.2-.19.17-.51.2-.96.2h-.48c-.07,0-.13-.06-.13-.13v-.3c0-.07.06-.13.13-.13h.48c.39,0,.48-.03.48-.3v-2.13h.7v2.2c0,.2.22.23.48.23.07,0,.13.06.13.13ZM135.82,19.9v.62h-.71v-.62h.71Z"/>
    <path class="cls-1" d="M138.15,21.15v2.99h-1.66c-.07,0-.13-.06-.13-.13v-.3c0-.07.06-.13.13-.13h.96v-2.43h.7ZM136.44,25.45v-.62h.66v.62h-.66ZM137.3,25.45v-.62h.66v.62h-.66Z"/>
    <path class="cls-1" d="M141.24,22.42v1.72h-2.53v-.56h1.82v-1.22c0-.49-.24-.73-.78-.73-.3,0-.55.06-.76.14l-.12-.58c.16-.05.58-.14.92-.14.98,0,1.44.47,1.44,1.36Z"/>
    <path class="cls-1" d="M144.68,21.36v2.9c0,.91-.42,1.42-1.44,1.42h-.74v-.57h.74c.56,0,.74-.3.74-.81v-.17h-.72c-.96,0-1.41-.48-1.41-1.34v-.4c0-.88.46-1.36,1.44-1.36.56,0,1.04.15,1.39.32ZM143.98,21.75c-.08-.05-.32-.13-.65-.13-.54,0-.78.24-.78.73v.5c0,.47.23.72.75.72h.68v-1.82Z"/>
    <path class="cls-1" d="M147.92,24.27l.52-1.49h.45l-.22,1.49h-.74Z"/>
    <path class="cls-1" d="M156.56,23.71v.3c0,.07-.06.13-.13.13-.34,0-.62-.11-.86-.28-.2.19-.46.28-.76.28-.35,0-.69-.13-.91-.34-.19.22-.5.34-.93.34h-.52v.7c-.21.13-.69.37-1.56.37-1,0-1.45-.5-1.45-1.39v-1.34h.7v1.43c0,.5.27.73.84.73.35,0,.61-.07.76-.14v-3.05h.7v2.13h.43c.41,0,.58-.21.58-.62v-1.5h.7v1.44c0,.15-.02.3-.05.43.15.15.33.25.58.25.33,0,.54-.18.54-.54v-1.89h.7v1.66c0,.24-.03.44-.1.61.15.1.37.16.58.16.07,0,.13.06.13.13Z"/>
    <path class="cls-1" d="M157.36,23.71v.3c0,.07-.06.13-.13.13h-.8c-.07,0-.13-.06-.13-.13v-.3c0-.07.06-.13.13-.13h.8c.07,0,.13.06.13.13Z"/>
    <path class="cls-1" d="M158.16,23.71v.3c0,.07-.06.13-.13.13h-.8c-.07,0-.13-.06-.13-.13v-.3c0-.07.06-.13.13-.13h.8c.07,0,.13.06.13.13Z"/>
    <path class="cls-1" d="M162.18,23.71v.3c0,.07-.06.13-.13.13h-4.02c-.07,0-.13-.06-.13-.13v-.3c0-.07.06-.13.13-.13h1.05c-.18-.19-.26-.46-.26-.82v-.38c0-.88.51-1.34,1.44-1.34s1.44.46,1.44,1.34v.38c0,.35-.09.62-.26.82h.62c.07,0,.13.06.13.13ZM159.52,22.91c0,.42.26.66.74.67.48,0,.74-.26.74-.67v-.58c0-.44-.25-.7-.74-.7-.49,0-.74.26-.74.7v.58ZM160.62,19.9v.62h-.71v-.62h.71Z"/>
    <path class="cls-1" d="M164.33,23.71v.3c0,.07-.06.13-.13.13-.26,0-.52-.06-.7-.2-.19.17-.51.2-.96.2h-.48c-.07,0-.13-.06-.13-.13v-.3c0-.07.06-.13.13-.13h.48c.39,0,.48-.03.48-.3v-2.13h.7v2.2c0,.2.22.23.48.23.07,0,.13.06.13.13ZM163.53,19.9v.62h-.71v-.62h.71Z"/>
    <path class="cls-1" d="M166.42,23.71v.3c0,.07-.06.13-.13.13-.26,0-.52-.06-.7-.2-.19.17-.51.2-.96.2h-.43c-.07,0-.13-.06-.13-.13v-.3c0-.07.06-.13.13-.13h.43c.39,0,.48-.03.48-.3v-3.57h.7v3.64c0,.2.22.23.48.23.07,0,.13.06.13.13Z"/>
    <path class="cls-1" d="M167.91,19.71v4.43h-1.62c-.07,0-.13-.06-.13-.13v-.3c0-.07.06-.13.13-.13h.91v-3.87h.7Z"/>
    <path class="cls-1" d="M7.11,33.46v-1.44h.7v1.54c0,.5.27.73.84.73.35,0,.61-.07.76-.14v-3.37h.7v3.7c-.21.13-.69.37-1.56.37-.99,0-1.45-.5-1.45-1.39ZM8.09,30.77v-.62h.71v.62h-.71Z"/>
    <path class="cls-1" d="M12,28.57v.29h-1.14v-.29h.2c-.04-.06-.06-.14-.06-.26h0c0-.54.47-.63.93-.45l-.09.28c-.28-.14-.5-.09-.5.14v.13c0,.11.07.16.2.16h.46ZM11.08,33.74v-4.43h.7v4.43h-.7Z"/>
    <path class="cls-1" d="M22.95,29.31v4.43h-1.61c-.26,0-.52-.06-.7-.2-.19.17-.51.2-.96.2h-.43c-.26,0-.54-.06-.72-.21-.28.1-.7.21-1.13.21h-.06c-.96,0-1.41-.48-1.41-1.34v-.4c0-.88.47-1.36,1.45-1.36.56,0,1.05.15,1.39.33v1.98c0,.2.22.23.48.23h.43c.39,0,.48-.03.48-.3v-3.57h.7v3.64c0,.2.22.23.48.23h.91v-3.87h.7ZM18.06,31.35c-.08-.05-.32-.13-.65-.13-.54,0-.78.25-.78.73v.5c0,.47.23.71.74.71h.2c.22-.02.38-.07.49-.12v-1.7ZM19.73,28.46v-.5h.26v.52c0,.13.05.19.18.19s.18-.06.18-.19v-.52h.25v.52c0,.13.05.19.18.19.13,0,.17-.06.17-.19v-.52h.26v.5c0,.26-.14.43-.42.43-.15,0-.25-.05-.3-.12-.06.07-.16.12-.31.12-.3,0-.43-.18-.43-.43ZM20.54,26.91v.81h-.14v-.81h.14ZM23.91,29.31h.7v4.43h-.7v-4.43Z"/>
    <path class="cls-1" d="M38.51,33.31v.3c0,.07-.06.13-.13.13-.34,0-.62-.1-.85-.27-.2.19-.47.28-.77.28-.35,0-.69-.13-.92-.35-.2.22-.5.34-.94.35-.84,0-1.22-.46-1.22-1.26v-1.13c-.08-.05-.32-.13-.64-.13-.54,0-.78.24-.78.73v.56c0,.34.14.61.46.66h.27v.56h-2.86c-.91,0-1.33-.48-1.33-1.29v-1.14h.7v1.2c0,.47.23.67.71.67h1.6c-.18-.21-.27-.5-.27-.87v-.27c0-.89.47-1.38,1.46-1.38.55,0,1.04.16,1.38.34v1.58c0,.39.15.62.51.62s.5-.22.5-.62v-1.51h.7v1.44c0,.16-.02.3-.05.43.15.15.34.25.58.25.33,0,.54-.18.55-.54v-1.88h.71v1.66c0,.23-.03.44-.1.61.15.1.36.15.57.15.07,0,.13.06.13.13Z"/>
    <path class="cls-1" d="M41.94,33.18v.56h-3.56c-.07,0-.13-.06-.13-.13v-.3c0-.07.06-.13.13-.13h1.03c-.18-.19-.26-.46-.26-.82v-.38c0-.87.48-1.35,1.46-1.33.59,0,.97.11,1.22.22l-.17.56c-.31-.11-.59-.18-.98-.19-.5,0-.82.21-.82.72v.41c0,.57.2.82.75.82h1.33Z"/>
    <path class="cls-1" d="M45.8,33.87l.52-1.49h.45l-.22,1.49h-.74Z"/>
    <path class="cls-1" d="M47.33,33.46v-1.44h.7v1.54c0,.49.27.72.85.72.34,0,.6-.07.76-.13v-4.84h.7v5.17c-.22.12-.69.37-1.57.37-.99,0-1.45-.5-1.45-1.39Z"/>
    <path class="cls-1" d="M52.61,33.31v.3c0,.07-.06.13-.13.13h-1.18v-4.43h.7v3.87h.48c.07,0,.13.06.13.13Z"/>
    <path class="cls-1" d="M53.41,33.31v.3c0,.07-.06.13-.13.13h-.8c-.07,0-.13-.06-.13-.13v-.3c0-.07.06-.13.13-.13h.8c.07,0,.13.06.13.13Z"/>
    <path class="cls-1" d="M54.21,33.31v.3c0,.07-.06.13-.13.13h-.8c-.07,0-.13-.06-.13-.13v-.3c0-.07.06-.13.13-.13h.8c.07,0,.13.06.13.13Z"/>
    <path class="cls-1" d="M58.37,33.31v.3c0,.07-.06.13-.13.13-.32,0-.59-.09-.81-.25-.23.17-.54.26-.96.26h-.06c-.38,0-.66-.09-.89-.21-.19.17-.51.2-.96.2h-.48c-.07,0-.13-.06-.13-.13v-.3c0-.07.06-.13.13-.13h.48c.38,0,.48-.03.48-.3v-1.88c.35-.18.84-.34,1.39-.34.98,0,1.45.48,1.45,1.36v.39c0,.26-.04.48-.12.66.14.06.31.1.48.1.07,0,.13.06.13.13ZM57.18,31.97c0-.49-.25-.73-.78-.73-.33,0-.57.08-.66.13v1.68c.14.07.37.14.66.14h.02c.51,0,.74-.24.74-.71v-.5Z"/>
    <path class="cls-1" d="M59.86,29.31v4.43h-1.62c-.07,0-.13-.06-.13-.13v-.3c0-.07.06-.13.13-.13h.91v-3.87h.7Z"/>
    <path class="cls-1" d="M60.82,33.74v-4.43h.7v4.43h-.7Z"/>
    <path class="cls-1" d="M68.52,33.31v.3c0,.07-.06.13-.13.13-.23,0-.45-.06-.6-.19-.2.16-.51.19-.94.19h-1.34v-.56h1.34c.39,0,.48-.03.48-.3v-.91c0-.49-.24-.73-.78-.73-.29,0-.55.06-.76.14l-.12-.58c.16-.05.58-.14.92-.14.98,0,1.44.47,1.44,1.36v.93c0,.18.13.23.36.23.07,0,.13.06.13.13Z"/>
    <path class="cls-1" d="M69.32,33.31v.3c0,.07-.06.13-.13.13h-.8c-.07,0-.13-.06-.13-.13v-.3c0-.07.06-.13.13-.13h.8c.07,0,.13.06.13.13Z"/>
    <path class="cls-1" d="M70.12,33.31v.3c0,.07-.06.13-.13.13h-.8c-.07,0-.13-.06-.13-.13v-.3c0-.07.06-.13.13-.13h.8c.07,0,.13.06.13.13Z"/>
    <path class="cls-1" d="M74.19,33.31v.3c0,.07-.06.13-.13.13h-.54c-.38,0-.74-.05-1.08-.17-.26.11-.53.17-.78.17h-1.66c-.07,0-.13-.06-.13-.13v-.3c0-.07.06-.13.13-.13h1.71c-.44-.35-.76-.9-.85-1.67-.08.02-.15.06-.23.08l-.19-.55c.66-.27,1.29-.4,1.82-.39.94,0,1.54.45,1.57,1.09.02.55-.29,1.07-.74,1.45h.97c.07,0,.13.06.13.13ZM72.38,33.07c.5-.24.83-.87.73-1.31-.08-.34-.4-.5-.86-.51-.24,0-.51.03-.81.1.33,1.08.53,1.55.94,1.73Z"/>
    <path class="cls-1" d="M75.73,30.75v2.99h-1.66c-.07,0-.13-.06-.13-.13v-.3c0-.07.06-.13.13-.13h.96v-2.43h.7ZM74.31,35.05v-.62h.72v.62h-.72Z"/>
    <path class="cls-1" d="M81.42,33.31v.3c0,.07-.06.13-.13.13h-1.18v-4.43h.7v3.87h.48c.07,0,.13.06.13.13Z"/>
    <path class="cls-1" d="M82.22,33.31v.3c0,.07-.06.13-.13.13h-.8c-.07,0-.13-.06-.13-.13v-.3c0-.07.06-.13.13-.13h.8c.07,0,.13.06.13.13Z"/>
    <path class="cls-1" d="M83.02,33.31v.3c0,.07-.06.13-.13.13h-.8c-.07,0-.13-.06-.13-.13v-.3c0-.07.06-.13.13-.13h.8c.07,0,.13.06.13.13Z"/>
    <path class="cls-1" d="M87.18,33.31v.3c0,.07-.06.13-.13.13-.32,0-.59-.09-.81-.25-.23.17-.54.26-.96.26h-.06c-.38,0-.66-.09-.89-.21-.19.17-.51.2-.96.2h-.48c-.07,0-.13-.06-.13-.13v-.3c0-.07.06-.13.13-.13h.48c.38,0,.48-.03.48-.3v-1.88c.35-.18.84-.34,1.39-.34.98,0,1.45.48,1.45,1.36v.39c0,.26-.04.48-.12.66.14.06.31.1.48.1.07,0,.13.06.13.13ZM85.99,31.97c0-.49-.25-.73-.78-.73-.33,0-.57.08-.66.13v1.68c.14.07.37.14.66.14h.02c.51,0,.74-.24.74-.71v-.5Z"/>
    <path class="cls-1" d="M88.67,29.31v4.43h-1.62c-.07,0-.13-.06-.13-.13v-.3c0-.07.06-.13.13-.13h.91v-3.87h.7Z"/>
    <path class="cls-1" d="M92.23,30.96v2.9c0,.91-.42,1.42-1.44,1.42h-.74v-.57h.74c.56,0,.74-.3.74-.81v-.17h-.72c-.96,0-1.41-.48-1.41-1.34v-.4c0-.88.46-1.36,1.44-1.36.56,0,1.04.15,1.39.32ZM91.53,31.35c-.08-.05-.32-.13-.65-.13-.54,0-.78.24-.78.73v.5c0,.47.23.72.75.72h.68v-1.82Z"/>
    <path class="cls-1" d="M99.82,33.31v.3c0,.07-.06.13-.13.13-.26,0-.54-.06-.72-.21-.28.1-.7.21-1.13.21h-.06c-.96,0-1.41-.48-1.41-1.34v-.4c0-.88.47-1.36,1.45-1.36.56,0,1.05.15,1.39.33v1.98c0,.2.22.23.48.23.07,0,.13.06.13.13ZM97.68,29.5v.63h-.66v-.63h.66ZM98.51,31.35c-.08-.05-.32-.13-.65-.13-.54,0-.78.25-.78.73v.5c0,.47.23.71.74.71h.2c.22-.02.38-.07.49-.12v-1.7ZM98.54,29.5v.63h-.66v-.63h.66Z"/>
    <path class="cls-1" d="M104.8,33.31v.3c0,.07-.06.13-.13.13-.23,0-.45-.06-.6-.19-.19.16-.5.19-.94.19h-3.44c-.07,0-.13-.06-.13-.13v-.3c0-.07.06-.13.13-.13h.96v-3.87h.7v1.99c.34-.22,1.07-.69,1.78-.67.71.02,1.18.4,1.18,1.29v1.03c0,.18.13.23.36.23.07,0,.13.06.13.13ZM103.6,31.89c0-.5-.23-.69-.65-.68-.53,0-1.23.5-1.6.78v1.18h1.78c.39,0,.47-.03.47-.3v-.98Z"/>
    <path class="cls-1" d="M106.9,33.31v.3c0,.07-.06.13-.13.13-.26,0-.52-.06-.7-.2-.19.17-.51.2-.96.2h-.43c-.07,0-.13-.06-.13-.13v-.3c0-.07.06-.13.13-.13h.43c.39,0,.48-.03.48-.3v-3.57h.7v3.64c0,.2.22.23.48.23.07,0,.13.06.13.13Z"/>
    <path class="cls-1" d="M107.7,33.31v.3c0,.07-.06.13-.13.13h-.8c-.07,0-.13-.06-.13-.13v-.3c0-.07.06-.13.13-.13h.8c.07,0,.13.06.13.13Z"/>
    <path class="cls-1" d="M108.5,33.31v.3c0,.07-.06.13-.13.13h-.8c-.07,0-.13-.06-.13-.13v-.3c0-.07.06-.13.13-.13h.8c.07,0,.13.06.13.13Z"/>
    <path class="cls-1" d="M114.13,33.31v.3c0,.07-.06.13-.13.13-.34,0-.62-.1-.85-.27-.2.18-.46.27-.76.27-.35,0-.69-.13-.91-.34-.19.22-.5.34-.93.34h-2.18c-.07,0-.13-.06-.13-.13v-.3c0-.07.06-.13.13-.13h.96v-2.13h.7v2.13h.43c.41,0,.58-.21.58-.62v-1.5h.7v1.44c0,.15-.02.3-.05.43.15.15.33.25.58.25.33,0,.54-.18.54-.54v-1.89h.7v1.66c0,.24-.03.45-.1.62.15.1.36.15.57.15.07,0,.13.06.13.13Z"/>
    <path class="cls-1" d="M115.62,29.31v4.43h-1.62c-.07,0-.13-.06-.13-.13v-.3c0-.07.06-.13.13-.13h.91v-3.87h.7Z"/>
    <path class="cls-1" d="M116.58,33.74v-4.43h.7v4.43h-.7Z"/>
    <path class="cls-1" d="M124.28,33.31v.3c0,.07-.06.13-.13.13-.23,0-.45-.06-.6-.19-.2.16-.51.19-.94.19h-1.34v-.56h1.34c.39,0,.48-.03.48-.3v-.91c0-.49-.24-.73-.78-.73-.3,0-.55.06-.76.14l-.12-.58c.16-.05.58-.14.92-.14.98,0,1.44.47,1.44,1.36v.93c0,.18.13.23.36.23.07,0,.13.06.13.13Z"/>
    <path class="cls-1" d="M125.08,33.31v.3c0,.07-.06.13-.13.13h-.8c-.07,0-.13-.06-.13-.13v-.3c0-.07.06-.13.13-.13h.8c.07,0,.13.06.13.13Z"/>
    <path class="cls-1" d="M125.88,33.31v.3c0,.07-.06.13-.13.13h-.8c-.07,0-.13-.06-.13-.13v-.3c0-.07.06-.13.13-.13h.8c.07,0,.13.06.13.13Z"/>
    <path class="cls-1" d="M129.95,33.31v.3c0,.07-.06.13-.13.13h-.54c-.38,0-.74-.05-1.08-.17-.26.11-.53.17-.78.17h-1.66c-.07,0-.13-.06-.13-.13v-.3c0-.07.06-.13.13-.13h1.71c-.44-.35-.76-.9-.85-1.67-.08.02-.15.06-.23.08l-.19-.55c.66-.27,1.29-.4,1.82-.39.94,0,1.54.45,1.57,1.09.02.55-.29,1.07-.74,1.45h.97c.07,0,.13.06.13.13ZM128.14,33.07c.5-.24.83-.87.73-1.31-.08-.34-.4-.5-.86-.51-.24,0-.51.03-.81.1.33,1.08.53,1.55.94,1.73Z"/>
    <path class="cls-1" d="M131.49,30.75v2.99h-1.66c-.07,0-.13-.06-.13-.13v-.3c0-.07.06-.13.13-.13h.96v-2.43h.7ZM130.06,35.05v-.62h.72v.62h-.72Z"/>
    <path class="cls-1" d="M137.18,33.31v.3c0,.07-.06.13-.13.13h-1.18v-4.43h.7v3.87h.48c.07,0,.13.06.13.13Z"/>
    <path class="cls-1" d="M137.98,33.31v.3c0,.07-.06.13-.13.13h-.8c-.07,0-.13-.06-.13-.13v-.3c0-.07.06-.13.13-.13h.8c.07,0,.13.06.13.13Z"/>
    <path class="cls-1" d="M138.78,33.31v.3c0,.07-.06.13-.13.13h-.8c-.07,0-.13-.06-.13-.13v-.3c0-.07.06-.13.13-.13h.8c.07,0,.13.06.13.13Z"/>
    <path class="cls-1" d="M142.94,33.31v.3c0,.07-.06.13-.13.13-.32,0-.59-.09-.81-.25-.23.17-.54.26-.96.26h-.06c-.38,0-.66-.09-.89-.21-.19.17-.51.2-.96.2h-.48c-.07,0-.13-.06-.13-.13v-.3c0-.07.06-.13.13-.13h.48c.38,0,.48-.03.48-.3v-1.88c.35-.18.84-.34,1.39-.34.98,0,1.45.48,1.45,1.36v.39c0,.26-.04.48-.12.66.14.06.31.1.48.1.07,0,.13.06.13.13ZM141.75,31.97c0-.49-.25-.73-.78-.73-.33,0-.57.08-.66.13v1.68c.14.07.37.14.66.14h.02c.51,0,.74-.24.74-.71v-.5Z"/>
    <path class="cls-1" d="M144.43,29.31v4.43h-1.62c-.07,0-.13-.06-.13-.13v-.3c0-.07.06-.13.13-.13h.91v-3.87h.7Z"/>
    <path class="cls-1" d="M147.99,30.96v2.9c0,.91-.42,1.42-1.44,1.42h-.74v-.57h.74c.56,0,.74-.3.74-.81v-.17h-.72c-.96,0-1.41-.48-1.41-1.34v-.4c0-.88.46-1.36,1.44-1.36.56,0,1.04.15,1.39.32ZM147.28,31.35c-.08-.05-.32-.13-.65-.13-.54,0-.78.24-.78.73v.5c0,.47.23.72.75.72h.68v-1.82Z"/>
    <path class="cls-1" d="M154.97,30.97v2.45c-.24.13-.78.31-1.37.31h-.06c-.96,0-1.41-.48-1.41-1.34v-.4c0-.88.47-1.36,1.45-1.36.56,0,1.05.15,1.39.33ZM153.43,29.5v.63h-.66v-.63h.66ZM154.27,31.35c-.08-.05-.32-.13-.65-.13-.54,0-.78.25-.78.73v.5c0,.47.23.71.74.71h.2c.22-.02.38-.07.49-.12v-1.7ZM154.3,29.5v.63h-.66v-.63h.66Z"/>
    <path class="cls-1" d="M159.14,33.31v.3c0,.07-.06.13-.13.13h-.48v.13c0,.91-.42,1.42-1.44,1.42h-.74v-.57h.74c.56,0,.74-.3.74-.81v-.17h-.72c-.96,0-1.41-.48-1.41-1.34v-.4c0-.88.46-1.36,1.44-1.36.56,0,1.04.15,1.39.32v2.21h.48c.07,0,.13.06.13.13ZM157.83,33.18v-1.82c-.08-.05-.32-.13-.65-.13-.54,0-.78.24-.78.73v.5c0,.47.23.72.75.72h.68Z"/>
    <path class="cls-1" d="M159.94,33.31v.3c0,.07-.06.13-.13.13h-.8c-.07,0-.13-.06-.13-.13v-.3c0-.07.06-.13.13-.13h.8c.07,0,.13.06.13.13Z"/>
    <path class="cls-1" d="M160.74,33.31v.3c0,.07-.06.13-.13.13h-.8c-.07,0-.13-.06-.13-.13v-.3c0-.07.06-.13.13-.13h.8c.07,0,.13.06.13.13Z"/>
    <path class="cls-1" d="M164.76,33.31v.3c0,.07-.06.13-.13.13h-4.02c-.07,0-.13-.06-.13-.13v-.3c0-.07.06-.13.13-.13h1.05c-.18-.19-.26-.46-.26-.82v-.38c0-.88.51-1.34,1.44-1.34s1.44.46,1.44,1.34v.38c0,.35-.09.62-.26.82h.62c.07,0,.13.06.13.13ZM162.72,29.5v.63h-.66v-.63h.66ZM162.1,32.51c0,.42.26.66.74.67.48,0,.74-.26.74-.67v-.58c0-.44-.25-.7-.74-.7-.49,0-.74.26-.74.7v.58ZM163.58,29.5v.63h-.66v-.63h.66Z"/>
    <path class="cls-1" d="M166.25,29.31v4.43h-1.62c-.07,0-.13-.06-.13-.13v-.3c0-.07.06-.13.13-.13h.91v-3.87h.7Z"/>
    <path class="cls-1" d="M167.21,33.74v-4.43h.7v4.43h-.7Z"/>
    <path class="cls-1" d="M8.38,42.55l-1.35-1.41,1.37-1.43.44.42-.97,1.01.97.98-.46.43ZM9.84,42.55l-1.35-1.41,1.37-1.43.44.42-.97,1.01.97.98-.46.43Z"/>
    <path class="cls-1" d="M15.05,42.91v.3c0,.07-.06.13-.13.13-.32,0-.59-.1-.82-.25-.22.17-.54.26-.95.26h-.06c-.37,0-.65-.09-.87-.21l-.04.02c-.19.07-.42.12-.59.24-.22.15-.29.48-.29,1.02h-.71c0-.6.13-1.06.48-1.38.26-.26.6-.32.66-.36v-2.08c.34-.18.83-.34,1.39-.34.98,0,1.45.48,1.45,1.36v.39c0,.26-.04.48-.12.67.14.06.31.1.48.1.07,0,.13.06.13.13ZM13.86,41.56c0-.49-.25-.73-.78-.73-.32,0-.57.09-.65.13v1.69c.14.06.37.13.66.13h.02c.51,0,.74-.24.74-.7v-.51Z"/>
    <path class="cls-1" d="M17.2,42.91v.3c0,.07-.06.13-.13.13-.26,0-.52-.06-.7-.2-.19.17-.51.2-.96.2h-.48c-.07,0-.13-.06-.13-.13v-.3c0-.07.06-.13.13-.13h.48c.39,0,.48-.03.48-.3v-2.13h.7v2.2c0,.2.22.23.48.23.07,0,.13.06.13.13ZM14.81,44.65v-.62h.66v.62h-.66ZM15.68,44.65v-.62h.66v.62h-.66Z"/>
    <path class="cls-1" d="M19.29,42.91v.3c0,.07-.06.13-.13.13-.26,0-.52-.06-.7-.2-.19.17-.51.2-.96.2h-.43c-.07,0-.13-.06-.13-.13v-.3c0-.07.06-.13.13-.13h.43c.39,0,.48-.03.48-.3v-3.57h.7v3.64c0,.2.22.23.48.23.07,0,.13.06.13.13Z"/>
    <path class="cls-1" d="M20.09,42.91v.3c0,.07-.06.13-.13.13h-.8c-.07,0-.13-.06-.13-.13v-.3c0-.07.06-.13.13-.13h.8c.07,0,.13.06.13.13Z"/>
    <path class="cls-1" d="M20.75,42.91v.3c0,.07-.06.13-.13.13h-.8c-.07,0-.13-.06-.13-.13v-.3c0-.07.06-.13.13-.13h.8c.07,0,.13.06.13.13Z"/>
    <path class="cls-1" d="M25.07,40.35h.7v1.66c0,.91-.5,1.33-1.14,1.33-.35,0-.69-.13-.91-.34-.19.22-.5.34-.93.34h-2.18c-.07,0-.13-.06-.13-.13v-.3c0-.07.06-.13.13-.13h.96v-2.13h.7v2.13h.43c.41,0,.58-.21.58-.62v-1.5h.7v1.44c0,.15-.02.3-.05.43.15.15.33.25.58.25.33,0,.54-.18.54-.54v-1.89Z"/>
    <path class="cls-1" d="M33.53,42.91v.3c0,.07-.06.13-.13.13-.26,0-.52-.06-.7-.2-.19.17-.5.2-.95.2h-2.61c-.91,0-1.33-.48-1.33-1.29v-1.06h.7v1.12c0,.47.22.67.72.67h2.52c.39,0,.47-.03.47-.3v-2.13h.71v2.2c0,.2.22.23.47.23.07,0,.13.06.13.13ZM30.02,44.65v-.62h.71v.62h-.71Z"/>
    <path class="cls-1" d="M34.33,42.91v.3c0,.07-.06.13-.13.13h-.8c-.07,0-.13-.06-.13-.13v-.3c0-.07.06-.13.13-.13h.8c.07,0,.13.06.13.13Z"/>
    <path class="cls-1" d="M34.98,42.91v.3c0,.07-.06.13-.13.13h-.8c-.07,0-.13-.06-.13-.13v-.3c0-.07.06-.13.13-.13h.8c.07,0,.13.06.13.13Z"/>
    <path class="cls-1" d="M37.08,42.91v.3c0,.07-.06.13-.13.13-.26,0-.52-.06-.7-.2-.19.17-.51.2-.96.2h-.43c-.07,0-.13-.06-.13-.13v-.3c0-.07.06-.13.13-.13h.43c.39,0,.48-.03.48-.3v-3.57h.7v3.64c0,.2.22.23.48.23.07,0,.13.06.13.13Z"/>
    <path class="cls-1" d="M41.1,42.91v.3c0,.07-.06.13-.13.13h-4.02c-.07,0-.13-.06-.13-.13v-.3c0-.07.06-.13.13-.13h1.05c-.18-.19-.26-.46-.26-.82v-.38c0-.88.51-1.34,1.44-1.34s1.44.46,1.44,1.34v.38c0,.35-.09.62-.26.82h.62c.07,0,.13.06.13.13ZM39.06,39.1v.63h-.66v-.63h.66ZM38.44,42.11c0,.42.26.66.74.67.48,0,.74-.26.74-.67v-.58c0-.44-.25-.7-.74-.7-.49,0-.74.26-.74.7v.58ZM39.93,39.1v.63h-.66v-.63h.66Z"/>
    <path class="cls-1" d="M42.64,40.35v2.99h-1.66c-.07,0-.13-.06-.13-.13v-.3c0-.07.06-.13.13-.13h.96v-2.43h.7ZM41.22,44.65v-.62h.72v.62h-.72Z"/>
    <path class="cls-1" d="M47.99,42.91v.3c0,.07-.06.13-.13.13-.26,0-.54-.06-.72-.21-.28.1-.7.21-1.13.21h-.06c-.96,0-1.41-.48-1.41-1.34v-.4c0-.88.47-1.36,1.45-1.36.56,0,1.05.15,1.39.33v1.98c0,.2.22.23.48.23.07,0,.13.06.13.13ZM46.68,40.95c-.08-.05-.32-.13-.65-.13-.54,0-.78.25-.78.73v.5c0,.47.23.71.74.71h.2c.22-.02.38-.07.49-.12v-1.7Z"/>
    <path class="cls-1" d="M48.79,42.91v.3c0,.07-.06.13-.13.13h-.8c-.07,0-.13-.06-.13-.13v-.3c0-.07.06-.13.13-.13h.8c.07,0,.13.06.13.13Z"/>
    <path class="cls-1" d="M49.44,42.91v.3c0,.07-.06.13-.13.13h-.8c-.07,0-.13-.06-.13-.13v-.3c0-.07.06-.13.13-.13h.8c.07,0,.13.06.13.13Z"/>
    <path class="cls-1" d="M51.54,42.91v.3c0,.07-.06.13-.13.13-.26,0-.52-.06-.7-.2-.19.17-.51.2-.96.2h-.43c-.07,0-.13-.06-.13-.13v-.3c0-.07.06-.13.13-.13h.43c.39,0,.48-.03.48-.3v-3.57h.7v3.64c0,.2.22.23.48.23.07,0,.13.06.13.13Z"/>
    <path class="cls-1" d="M53.03,38.91v4.43h-1.62c-.07,0-.13-.06-.13-.13v-.3c0-.07.06-.13.13-.13h.91v-3.87h.7Z"/>
    <path class="cls-1" d="M55.3,42.91v.3c0,.07-.06.13-.13.13h-1.18v-4.43h.7v3.87h.48c.07,0,.13.06.13.13Z"/>
    <path class="cls-1" d="M59.21,41.59c.85,0,1.37.23,1.37,1.02,0,.71-.3,1.23-1.36,1.23h-2.43c-.91,0-1.33-.47-1.33-1.29v-1.05h.7v1.1c0,.47.22.67.72.67h2.3c.59,0,.68-.34.68-.67,0-.31-.22-.47-.62-.47h-1.78v-1.03c0-.83.62-1.17,1.34-1.17.54,0,1.14.19,1.35.77l-.54.22c-.14-.26-.4-.43-.78-.43s-.68.15-.68.62v.47h1.05Z"/>
    <path class="cls-1" d="M62.48,40.35v2.99h-1.66c-.07,0-.13-.06-.13-.13v-.3c0-.07.06-.13.13-.13h.96v-2.43h.7ZM61.7,39.1v.63h-.66v-.63h.66ZM61.91,39.1h.66v.63h-.66v-.63Z"/>
    <path class="cls-1" d="M64.36,38.17v.29h-1.14v-.29h.2c-.04-.06-.06-.14-.06-.26h0c0-.54.47-.63.93-.45l-.09.28c-.28-.14-.5-.09-.5.14v.13c0,.11.07.16.2.16h.46ZM63.44,43.34v-4.43h.7v4.43h-.7Z"/>
    <path class="cls-1" d="M69.67,42.91v.3c0,.07-.06.13-.13.13h-.48v.74c-.21.13-.69.37-1.56.37-.99,0-1.45-.5-1.45-1.39v-1.44h.7v1.54c0,.5.27.73.84.73.35,0,.61-.07.76-.14v-3.37h.7v2.4h.48c.07,0,.13.06.13.13ZM67.75,39.75v.62h-.71v-.62h.71Z"/>
    <path class="cls-1" d="M70.47,42.91v.3c0,.07-.06.13-.13.13h-.8c-.07,0-.13-.06-.13-.13v-.3c0-.07.06-.13.13-.13h.8c.07,0,.13.06.13.13Z"/>
    <path class="cls-1" d="M71.13,42.91v.3c0,.07-.06.13-.13.13h-.8c-.07,0-.13-.06-.13-.13v-.3c0-.07.06-.13.13-.13h.8c.07,0,.13.06.13.13Z"/>
    <path class="cls-1" d="M74.8,41.62v.39c0,.86-.45,1.33-1.41,1.33h-.06c-.38,0-.66-.09-.89-.21-.19.17-.51.2-.96.2h-.48c-.07,0-.13-.06-.13-.13v-.3c0-.07.06-.13.13-.13h.48c.38,0,.48-.03.48-.3v-1.88c.35-.18.84-.34,1.39-.34.98,0,1.45.48,1.45,1.36ZM74.09,41.57c0-.49-.25-.73-.78-.73-.33,0-.57.08-.66.13v1.68c.14.07.37.14.66.14h.02c.51,0,.74-.24.74-.71v-.5Z"/>
    <path class="cls-1" d="M79.84,38.91v4.43h-3.33v-.56h.76v-2.93h.71v2.93h1.14v-3.87h.71Z"/>
    <path class="cls-1" d="M81.72,44.49v.29h-1.14v-.29h.2c-.04-.06-.06-.14-.06-.26v-.02c0-.52.47-.62.93-.43l-.09.27c-.28-.14-.5-.08-.5.14v.12c0,.11.07.17.2.17h.46ZM81.5,38.91v4.43h-.7v-4.43h.7Z"/>
    <path class="cls-1" d="M83.41,43.06v-1.44h.7v1.54c0,.5.27.73.84.73.35,0,.61-.07.76-.14v-3.37h.7v3.7c-.21.13-.69.37-1.56.37-.99,0-1.45-.5-1.45-1.39ZM84.4,40.37v-.62h.71v.62h-.71Z"/>
    <path class="cls-1" d="M90.59,42.91v.3c0,.07-.06.13-.13.13h-.48v.13c0,.91-.42,1.42-1.44,1.42h-.74v-.57h.74c.56,0,.74-.3.74-.81v-.17h-.72c-.96,0-1.41-.48-1.41-1.34v-.4c0-.88.46-1.36,1.44-1.36.56,0,1.04.15,1.39.32v2.21h.48c.07,0,.13.06.13.13ZM89.28,42.78v-1.82c-.08-.05-.32-.13-.65-.13-.54,0-.78.24-.78.73v.5c0,.47.23.72.75.72h.68Z"/>
    <path class="cls-1" d="M91.39,42.91v.3c0,.07-.06.13-.13.13h-.8c-.07,0-.13-.06-.13-.13v-.3c0-.07.06-.13.13-.13h.8c.07,0,.13.06.13.13Z"/>
    <path class="cls-1" d="M92.04,42.91v.3c0,.07-.06.13-.13.13h-.8c-.07,0-.13-.06-.13-.13v-.3c0-.07.06-.13.13-.13h.8c.07,0,.13.06.13.13Z"/>
    <path class="cls-1" d="M94.19,42.91v.3c0,.07-.06.13-.13.13-.26,0-.52-.06-.7-.2-.19.17-.51.2-.96.2h-.48c-.07,0-.13-.06-.13-.13v-.3c0-.07.06-.13.13-.13h.48c.39,0,.48-.03.48-.3v-2.13h.7v2.2c0,.2.22.23.48.23.07,0,.13.06.13.13ZM93.39,39.1v.62h-.71v-.62h.71Z"/>
    <path class="cls-1" d="M95.72,40.35v2.99h-1.66c-.07,0-.13-.06-.13-.13v-.3c0-.07.06-.13.13-.13h.96v-2.43h.7ZM94.3,44.65v-.62h.72v.62h-.72Z"/>
    <path class="cls-1" d="M100.88,38.91v4.43h-3.33v-.56h.76v-2.93h.71v2.93h1.14v-3.87h.71Z"/>
    <path class="cls-1" d="M104.44,40.56v2.9c0,.91-.42,1.42-1.44,1.42h-.74v-.57h.74c.56,0,.74-.3.74-.81v-.17h-.72c-.96,0-1.41-.48-1.41-1.34v-.4c0-.88.46-1.36,1.44-1.36.56,0,1.04.15,1.39.32ZM103.74,40.95c-.08-.05-.32-.13-.65-.13-.54,0-.78.24-.78.73v.5c0,.47.23.72.75.72h.68v-1.82Z"/>
    <path class="cls-1" d="M106.35,43.06v-1.44h.7v1.54c0,.49.27.72.85.72.34,0,.6-.07.76-.13v-4.84h.7v5.17c-.22.12-.69.37-1.57.37-.99,0-1.45-.5-1.45-1.39Z"/>
    <path class="cls-1" d="M111.64,42.91v.3c0,.07-.06.13-.13.13h-1.18v-4.43h.7v3.87h.48c.07,0,.13.06.13.13Z"/>
    <path class="cls-1" d="M112.44,42.91v.3c0,.07-.06.13-.13.13h-.8c-.07,0-.13-.06-.13-.13v-.3c0-.07.06-.13.13-.13h.8c.07,0,.13.06.13.13Z"/>
    <path class="cls-1" d="M113.09,42.91v.3c0,.07-.06.13-.13.13h-.8c-.07,0-.13-.06-.13-.13v-.3c0-.07.06-.13.13-.13h.8c.07,0,.13.06.13.13Z"/>
    <path class="cls-1" d="M116.76,41.62v.39c0,.86-.45,1.33-1.41,1.33h-.06c-.38,0-.66-.09-.89-.21-.19.17-.51.2-.96.2h-.48c-.07,0-.13-.06-.13-.13v-.3c0-.07.06-.13.13-.13h.48c.38,0,.48-.03.48-.3v-1.88c.35-.18.84-.34,1.39-.34.98,0,1.45.48,1.45,1.36ZM116.06,41.57c0-.49-.25-.73-.78-.73-.33,0-.57.08-.66.13v1.68c.14.07.37.14.66.14h.02c.51,0,.74-.24.74-.71v-.5Z"/>
    <path class="cls-1" d="M122.45,42.91v.3c0,.07-.06.13-.13.13h-.55c-.37,0-.74-.05-1.07-.16-.26.1-.52.17-.78.17h0c-.45.07-.49.3-.49.61,0,.43.14.59.95.59.42,0,.78-.06,1.02-.09v.59c-.3.03-.59.07-1.01.07-1.05,0-1.67-.22-1.67-1.17,0-.82.43-1.1,1.27-1.16-.46-.35-.78-.89-.87-1.68-.08.02-.15.05-.23.08l-.19-.55c.66-.27,1.29-.4,1.82-.39.95,0,1.54.44,1.57,1.1.02.54-.29,1.06-.73,1.43h.98c.07,0,.13.06.13.13ZM120.64,42.68c.5-.25.82-.88.73-1.31-.08-.34-.41-.5-.87-.51-.23,0-.51.02-.81.1.34,1.08.53,1.55.95,1.73Z"/>
    <path class="cls-1" d="M123.25,42.91v.3c0,.07-.06.13-.13.13h-.8c-.07,0-.13-.06-.13-.13v-.3c0-.07.06-.13.13-.13h.8c.07,0,.13.06.13.13Z"/>
    <path class="cls-1" d="M123.91,42.91v.3c0,.07-.06.13-.13.13h-.8c-.07,0-.13-.06-.13-.13v-.3c0-.07.06-.13.13-.13h.8c.07,0,.13.06.13.13Z"/>
    <path class="cls-1" d="M127.93,42.91v.3c0,.07-.06.13-.13.13h-4.02c-.07,0-.13-.06-.13-.13v-.3c0-.07.06-.13.13-.13h1.05c-.18-.19-.26-.46-.26-.82v-.38c0-.88.51-1.34,1.44-1.34s1.44.46,1.44,1.34v.38c0,.35-.09.62-.26.82h.62c.07,0,.13.06.13.13ZM125.27,42.11c0,.42.26.66.74.67.48,0,.74-.26.74-.67v-.58c0-.44-.25-.7-.74-.7-.49,0-.74.26-.74.7v.58ZM126.36,39.1v.62h-.71v-.62h.71Z"/>
    <path class="cls-1" d="M130.07,42.91v.3c0,.07-.06.13-.13.13-.26,0-.52-.06-.7-.2-.19.17-.51.2-.96.2h-.48c-.07,0-.13-.06-.13-.13v-.3c0-.07.06-.13.13-.13h.48c.39,0,.48-.03.48-.3v-2.13h.7v2.2c0,.2.22.23.48.23.07,0,.13.06.13.13ZM129.27,39.1v.62h-.71v-.62h.71Z"/>
    <path class="cls-1" d="M131.61,40.35v2.99h-1.66c-.07,0-.13-.06-.13-.13v-.3c0-.07.06-.13.13-.13h.96v-2.43h.7ZM129.89,44.65v-.62h.66v.62h-.66ZM130.75,44.65v-.62h.66v.62h-.66Z"/>
    <path class="cls-1" d="M136.77,38.91v4.43h-3.33v-.56h.76v-2.93h.71v2.93h1.14v-3.87h.71Z"/>
    <path class="cls-1" d="M142.53,41.61v.39c0,.86-.46,1.34-1.41,1.34h-.08c-.36,0-.63-.09-.86-.21l-.04.02c-.19.07-.42.12-.59.24-.22.15-.29.48-.29,1.02h-.71c0-.6.13-1.06.48-1.38.26-.26.6-.32.66-.36v-2.08c.34-.18.83-.34,1.39-.34.98,0,1.45.48,1.45,1.36ZM141.82,41.56c0-.49-.25-.73-.78-.73-.32,0-.57.09-.65.13v1.69c.14.06.37.13.66.13h.02c.51,0,.74-.24.74-.7v-.51Z"/>
    <path class="cls-1" d="M146.58,42.91v.3c0,.07-.06.13-.13.13h-.48v.13c0,.91-.42,1.42-1.44,1.42h-.74v-.57h.74c.56,0,.74-.3.74-.81v-.17h-.72c-.96,0-1.41-.48-1.41-1.34v-.4c0-.88.46-1.36,1.44-1.36.56,0,1.04.15,1.39.32v2.21h.48c.07,0,.13.06.13.13ZM145.27,42.78v-1.82c-.08-.05-.32-.13-.65-.13-.54,0-.78.24-.78.73v.5c0,.47.23.72.75.72h.68Z"/>
    <path class="cls-1" d="M147.38,42.91v.3c0,.07-.06.13-.13.13h-.8c-.07,0-.13-.06-.13-.13v-.3c0-.07.06-.13.13-.13h.8c.07,0,.13.06.13.13Z"/>
    <path class="cls-1" d="M148.03,42.91v.3c0,.07-.06.13-.13.13h-.8c-.07,0-.13-.06-.13-.13v-.3c0-.07.06-.13.13-.13h.8c.07,0,.13.06.13.13Z"/>
    <path class="cls-1" d="M149.56,40.35v2.99h-1.66c-.07,0-.13-.06-.13-.13v-.3c0-.07.06-.13.13-.13h.96v-2.43h.7ZM147.85,44.65v-.62h.66v.62h-.66ZM148.71,44.65v-.62h.66v.62h-.66Z"/>
    <path class="cls-1" d="M153.02,42.91v.3c0,.07-.06.13-.13.13h-1.18v-4.43h.7v3.87h.48c.07,0,.13.06.13.13Z"/>
    <path class="cls-1" d="M153.82,42.91v.3c0,.07-.06.13-.13.13h-.8c-.07,0-.13-.06-.13-.13v-.3c0-.07.06-.13.13-.13h.8c.07,0,.13.06.13.13Z"/>
    <path class="cls-1" d="M154.47,42.91v.3c0,.07-.06.13-.13.13h-.8c-.07,0-.13-.06-.13-.13v-.3c0-.07.06-.13.13-.13h.8c.07,0,.13.06.13.13Z"/>
    <path class="cls-1" d="M156.62,42.91v.3c0,.07-.06.13-.13.13-.26,0-.52-.06-.7-.2-.19.17-.51.2-.96.2h-.48c-.07,0-.13-.06-.13-.13v-.3c0-.07.06-.13.13-.13h.48c.39,0,.48-.03.48-.3v-2.13h.7v2.2c0,.2.22.23.48.23.07,0,.13.06.13.13ZM155.82,39.1v.62h-.71v-.62h.71Z"/>
    <path class="cls-1" d="M160.78,42.91v.3c0,.07-.06.13-.13.13-.32,0-.59-.09-.81-.25-.23.17-.54.26-.96.26h-.06c-.38,0-.66-.09-.89-.21-.19.17-.51.2-.96.2h-.48c-.07,0-.13-.06-.13-.13v-.3c0-.07.06-.13.13-.13h.48c.38,0,.48-.03.48-.3v-1.88c.35-.18.84-.34,1.39-.34.98,0,1.45.48,1.45,1.36v.39c0,.26-.04.48-.12.66.14.06.31.1.48.1.07,0,.13.06.13.13ZM159.58,41.57c0-.49-.25-.73-.78-.73-.33,0-.57.08-.66.13v1.68c.14.07.37.14.66.14h.02c.51,0,.74-.24.74-.71v-.5Z"/>
    <path class="cls-1" d="M164.4,42.78v.56h-3.76c-.07,0-.12-.06-.12-.13v-.3c0-.07.05-.12.12-.13h2.56c-.1-.19-.15-.43-.15-.71v-.58c0-.46-.22-.66-.68-.66-.43,0-.73.1-.99.23l-.17-.56c.21-.08.61-.26,1.25-.26.89,0,1.3.46,1.3,1.28v.62c0,.35.15.64.49.65h.16Z"/>
    <path class="cls-1" d="M166.38,42.91v.3c0,.07-.06.13-.13.13h-.48v.13c0,.97-.49,1.47-1.62,1.42v-.56c.71.05.92-.26.92-.82v-3.16h.7v2.43h.48c.07,0,.13.06.13.13Z"/>
    <path class="cls-1" d="M167.91,40.35v2.99h-1.66c-.07,0-.13-.06-.13-.13v-.3c0-.07.06-.13.13-.13h.96v-2.43h.7ZM166.19,44.65v-.62h.66v.62h-.66ZM167.06,44.65v-.62h.66v.62h-.66Z"/>
    <path class="cls-3" d="M165.06,3.45V0h3.75v3.45c0,1.27-.24,2.29-.73,3.08-.49.78-1.26,1.38-2.32,1.81l-.91-1.3c.7-.28,1.21-.69,1.54-1.24.33-.54.51-1.33.55-2.35h-1.87Z"/>
    <path class="cls-3" d="M170.42,3.45V0h3.75v3.45c0,1.27-.24,2.29-.73,3.08-.49.78-1.26,1.38-2.32,1.81l-.91-1.3c.7-.28,1.21-.69,1.54-1.24.33-.54.51-1.33.55-2.35h-1.87Z"/>
    <line class="cls-2" x1="162.09" y1="3.55" x2="6.75" y2="3.55"/>
    <line class="cls-2" x1="168.09" y1="49.55" x2="12.75" y2="49.55"/>
    <path class="cls-3" d="M9.17,49.62l-.06,3.45-3.75-.06.06-3.45c.02-1.27.28-2.29.78-3.06.5-.77,1.29-1.36,2.35-1.77l.89,1.31c-.7.27-1.22.67-1.56,1.21-.34.54-.54,1.32-.59,2.34l1.87.03Z"/>
    <path class="cls-3" d="M3.81,49.53l-.06,3.45-3.75-.06.06-3.45c.02-1.27.28-2.29.78-3.06.5-.77,1.29-1.36,2.35-1.77l.89,1.31c-.7.27-1.22.67-1.56,1.21-.34.54-.54,1.32-.59,2.34l1.87.03Z"/>
  </g>
</svg>