<?xml version="1.0" encoding="UTF-8"?>
<svg id="Layer_2" data-name="Layer 2" xmlns="http://www.w3.org/2000/svg" xmlns:xlink="http://www.w3.org/1999/xlink" viewBox="0 0 429.93 94.81">
  <defs>
    <linearGradient id="linear-gradient" x1="352.72" y1="88.41" x2="393.53" y2="88.41" gradientUnits="userSpaceOnUse">
      <stop offset="0" stop-color="#10634b"/>
      <stop offset="1" stop-color="#558d92"/>
    </linearGradient>
    <linearGradient id="linear-gradient-2" x1="343.51" y1="79.16" x2="411.73" y2="79.16" xlink:href="#linear-gradient"/>
    <linearGradient id="linear-gradient-3" x1="338.47" y1="65.76" x2="424.69" y2="65.76" xlink:href="#linear-gradient"/>
    <linearGradient id="linear-gradient-4" x1="337.68" y1="52.39" x2="428.77" y2="52.39" xlink:href="#linear-gradient"/>
    <linearGradient id="linear-gradient-5" x1="384.19" y1="24.05" x2="429.93" y2="24.05" xlink:href="#linear-gradient"/>
  </defs>
  <g id="Layer_1-2" data-name="Layer 1">
    <g>
      <g>
        <path d="M5.08,42.87c-.94,0-1.76-.21-2.45-.64-.69-.43-1.22-1.04-1.58-1.82-.36-.79-.54-1.7-.54-2.74v-2.69h2.44v2.68c0,.63.09,1.17.27,1.6.18.43.43.75.75.96.32.21.69.32,1.1.32s.77-.11,1.09-.32c.32-.21.57-.54.75-.97.18-.43.27-1.08.27-1.94v-10.46h2.41v11.74c-.07.9-.29,1.67-.68,2.31-.39.64-.9,1.13-1.54,1.47s-1.41.51-2.29.51Z" style="fill: #10634b;"/>
        <path d="M17.78,31.5c.62.37,1.1.9,1.43,1.6s.5,1.5.5,2.4v2.31c0,1.85-.47,3.24-1.4,4.16-.93.92-2.34,1.38-4.23,1.38h-2.36v-2.25h2.39c.96,0,1.68-.17,2.16-.5.48-.33.76-.67.83-1.01h-.91c-1.5,0-2.63-.37-3.4-1.1-.77-.73-1.16-1.82-1.16-3.25,0-.82.17-1.56.52-2.21.34-.65.82-1.17,1.44-1.53s1.31-.55,2.09-.55,1.49.18,2.11.55ZM17.31,37.43v-1.63c0-1-.15-1.7-.43-2.09-.28-.39-.68-.59-1.2-.59-.31,0-.58.08-.82.25-.24.17-.44.42-.58.74-.15.32-.22.7-.22,1.14,0,.76.17,1.31.51,1.66.34.35.88.52,1.63.52h1.12Z" style="fill: #10634b;"/>
        <path d="M26.88,39.59h-5.25v-2.21h2.04v-8.71h2.44v8.75h.5c.65-.02,1.1-.16,1.36-.43.28-.3.42-.82.42-1.56v-8.59h2.5v8.6c-.05,1.35-.42,2.37-1.09,3.08-.67.71-1.65,1.06-2.92,1.06ZM25.69,26.33v1.17h-3.45v-1.17h1.16c-.19.41-.37.44-.55.07-.18-.36-.27-.64-.27-.83,0-.29.08-.55.23-.77s.36-.39.62-.52c.26-.12.56-.18.88-.18s.64.05.99.15v1.17c-.36-.09-.66-.14-.91-.14-.17,0-.31.04-.41.13s-.15.2-.15.34c0,.17.07.31.21.42.14.11.33.16.56.16h1.09Z" style="fill: #10634b;"/>
        <path d="M33.23,26.85h2.39v3.5l.02,9.24h-2.42l.02-9.24v-3.5Z" style="fill: #10634b;"/>
        <path d="M53.63,32.04c-.11.01-.29.05-.54.12-.63.17-1.07.39-1.32.67s-.32.59-.22.93c.04.18.14.39.3.64.16.25.4.59.73,1.04l.34.43c.38.49.7.97.96,1.42.25.46.51,1.22.77,2.3h-9.02c-1.64,0-2.85-.41-3.64-1.24-.74-.77-1.12-1.87-1.12-3.32v-2.36h2.39v2.35c0,.55.08.99.23,1.34.15.36.4.63.74.8.34.17.81.26,1.4.26h5.3l-.44-.55c-.38-.5-.69-.95-.93-1.35-.24-.4-.41-.81-.53-1.22-.27-1.01-.09-1.88.56-2.62.65-.73,1.64-1.28,2.97-1.63.74-.2,1.68-.38,2.83-.56l.55,1.32,2.72,6.05c.16.37.54.56,1.12.56h.28l.61.25v1.71l-.62.21h-.78c-.77,0-1.43-.17-1.98-.5-.24-.14-.42-.34-.55-.62l-3.08-6.43ZM45.32,41.62c0-.38.13-.7.4-.96s.59-.39.96-.39.7.13.97.39.4.58.4.96-.14.7-.41.96c-.27.26-.59.39-.96.39s-.69-.13-.96-.39-.4-.58-.4-.95ZM48.37,41.62c0-.38.13-.7.4-.96.27-.26.59-.39.96-.39s.7.13.97.39c.27.26.4.58.4.96s-.14.7-.41.96c-.27.26-.59.39-.96.39s-.69-.13-.96-.39c-.27-.26-.4-.58-.4-.95Z" style="fill: #10634b;"/>
        <path d="M58.97,39.39v-1.76l.63-.21h5.71l.63.21v1.76l-.63.21h-5.71l-.63-.21Z" style="fill: #10634b;"/>
        <path d="M64.21,39.39v-1.76l.63-.21h5.71l.63.21v1.76l-.63.21h-5.71l-.63-.21Z" style="fill: #10634b;"/>
        <path d="M70.19,39.59l.08-2.17h8.79v1.08c-.42-.4-.7-.73-.86-1-.16-.27-.34-.64-.54-1.14l-.52-1.22c-.27-.62-.51-1.07-.72-1.36-.21-.29-.43-.48-.66-.57s-.54-.14-.93-.14h-2.47v-2.17h2.47c.81,0,1.48.09,2.01.28.53.18.99.51,1.39.98.4.47.77,1.15,1.12,2.03l.51,1.25c.22.54.43.94.61,1.22s.35.46.5.56c.16.1.41.17.78.21h.89l.48.2v1.83l-.49.14h-12.4Z" style="fill: #10634b;"/>
        <path d="M86.64,38.53c-.67.71-1.65,1.06-2.92,1.06h-1.37l-.47-.2v-1.77l.47-.2h.3c1.17,0,1.89-.15,2.17-.44s.41-.81.41-1.54v-4.27h2.5v4.28c-.05,1.34-.42,2.36-1.09,3.07ZM84.1,42.46c-.24-.24-.36-.53-.36-.86s.12-.63.36-.87c.24-.24.53-.36.87-.36s.64.12.88.36c.24.24.37.53.37.87s-.12.63-.37.87c-.25.24-.54.36-.88.36s-.63-.12-.87-.36Z" style="fill: #10634b;"/>
        <path d="M94.04,39.59c-.04,1.15-.39,2.05-1.04,2.7-.71.71-1.76,1.11-3.13,1.21h-1.7v-2.28h1.59c.65,0,1.12-.16,1.42-.49s.46-.87.46-1.62v-7.94h2.48v6.25h1.8l.47.2v1.77l-.47.2h-1.87Z" style="fill: #10634b;"/>
        <path d="M99.03,38.53c-.67.71-1.65,1.06-2.92,1.06h-.55l-.47-.2v-1.77l.47-.2h.3c.62,0,1.07-.15,1.35-.44s.41-.81.41-1.55l-.03-5.18v-3.41h2.49v3.4l-.04,5.18c0,1.35-.34,2.38-1.01,3.09Z" style="fill: #10634b;"/>
        <path d="M102.26,26.85h2.39v3.5l.02,9.24h-2.42l.02-9.24v-3.5Z" style="fill: #10634b;"/>
        <path d="M113.95,39.59c-.04,1.15-.39,2.05-1.04,2.7-.71.71-1.76,1.11-3.13,1.21h-1.7v-2.28h1.59c.65,0,1.12-.16,1.42-.49s.46-.87.46-1.62v-7.94h2.48v6.25h1.8l.47.2v1.77l-.47.2h-1.87Z" style="fill: #10634b;"/>
        <path d="M114.67,39.39v-1.76l.63-.21h5.71l.63.21v1.76l-.63.21h-5.71l-.63-.21Z" style="fill: #10634b;"/>
        <path d="M119.91,39.39v-1.76l.63-.21h5.71l.63.21v1.76l-.63.21h-5.71l-.63-.21Z" style="fill: #10634b;"/>
        <path d="M125.15,39.39v-1.76l.63-.21h5.71l.63.21v1.76l-.63.21h-5.71l-.63-.21Z" style="fill: #10634b;"/>
        <path d="M130.39,39.39v-1.76l.63-.21h5.71l.63.21v1.76l-.63.21h-5.71l-.63-.21Z" style="fill: #10634b;"/>
        <path d="M135.63,39.39v-1.76l.63-.21h5.71l.63.21v1.76l-.63.21h-5.71l-.63-.21Z" style="fill: #10634b;"/>
        <path d="M148.67,37.67v1.73l-.47.2h-.67c-.58,0-1.16-.17-1.74-.53-.58-.35-1.04-.93-1.39-1.75h.98c-.27.8-.66,1.38-1.16,1.74-.5.36-1.21.54-2.15.54h-.3l-.47-.2v-1.77l.47-.2h.3c.57,0,.99-.15,1.28-.45s.4-.78.37-1.44v-3.54h2.56v3.54c-.04.66.08,1.13.36,1.44s.71.45,1.28.45h.31l.45.24ZM142.45,42.47c-.24-.24-.36-.53-.36-.86s.12-.63.36-.87.53-.36.87-.36.64.12.88.36c.24.24.37.53.37.87s-.12.63-.37.87c-.25.24-.54.36-.88.36s-.63-.12-.87-.36ZM145.41,42.47c-.24-.24-.37-.53-.37-.86s.12-.63.37-.87.53-.36.87-.36.64.12.88.36.37.53.37.87-.12.63-.37.87c-.25.24-.54.36-.88.36s-.63-.12-.87-.36Z" style="fill: #10634b;"/>
        <path d="M150.14,37.43c-.09-.15-.15-.25-.16-.28-.38-.75-.57-1.49-.57-2.2,0-.86.21-1.63.62-2.32.42-.69.99-1.22,1.73-1.6.74-.38,1.58-.57,2.51-.57.58,0,1.35.11,2.3.34l-.28,2.52c-.84-.3-1.46-.45-1.88-.45-.56,0-1.02.08-1.38.23-.36.15-.66.39-.88.71-.22.32-.33.7-.33,1.14s.16.9.48,1.34.78.74,1.39.9c.6.16,1.31.24,2.12.24h2.27v2.17h-10.15l-.47-.2v-1.77l.47-.2h2.2ZM153.18,29.07c-.24-.24-.37-.53-.37-.86s.12-.63.37-.87.53-.36.87-.36.64.12.88.36.37.53.37.87-.12.63-.37.87-.54.36-.88.36-.63-.12-.87-.36Z" style="fill: #10634b;"/>
        <path d="M165.61,39.03c-.33.38-.52.82-.59,1.34-.05.45,0,.87.15,1.23.15.37.41.68.77.93.36.25.81.44,1.35.57h3.8l-1.08,2.04h-3.13c-.92-.13-1.73-.43-2.42-.9-.69-.47-1.19-1.07-1.51-1.8-.32-.74-.43-1.53-.32-2.38.11-.83.41-1.54.88-2.13.08-.1.18-.21.29-.31-.1-.14-.2-.29-.29-.46-.38-.75-.57-1.48-.57-2.2,0-.86.21-1.63.63-2.31s1-1.22,1.74-1.6c.74-.38,1.57-.57,2.5-.57.59,0,1.35.12,2.31.35l-.28,2.5c-.84-.29-1.46-.44-1.88-.44-.56,0-1.02.08-1.38.23-.36.15-.66.39-.88.71-.22.32-.33.7-.33,1.14s.16.9.48,1.34.79.74,1.39.9c.6.16,1.31.24,2.12.24h1.44v2.11h-2.34c-1.09-.03-2.03-.2-2.83-.51Z" style="fill: #10634b;"/>
        <path d="M173.91,38.53c-.67-.71-1-1.74-1-3.09l-.04-5.18v-3.4h2.49v3.4l-.03,5.18c0,.74.14,1.25.41,1.55s.72.44,1.35.44h.39l.55.21v1.76l-.55.21h-.63c-1.28,0-2.25-.35-2.92-1.06Z" style="fill: #10634b;"/>
        <path d="M176.33,39.39v-1.76l.63-.21h5.71l.63.21v1.76l-.63.21h-5.71l-.63-.21Z" style="fill: #10634b;"/>
        <path d="M181.57,39.39v-1.76l.63-.21h5.71l.63.21v1.76l-.63.21h-5.71l-.63-.21Z" style="fill: #10634b;"/>
        <path d="M186.81,39.39v-1.76l.63-.21h5.71l.63.21v1.76l-.63.21h-5.71l-.63-.21Z" style="fill: #10634b;"/>
        <path d="M192.06,39.39v-1.76l.63-.21h5.71l.63.21v1.76l-.63.21h-5.71l-.63-.21Z" style="fill: #10634b;"/>
        <path d="M197.3,39.39v-1.76l.63-.21h5.71l.63.21v1.76l-.63.21h-5.71l-.63-.21Z" style="fill: #10634b;"/>
        <path d="M202.54,39.39v-1.76l.63-.21h5.71l.63.21v1.76l-.63.21h-5.71l-.63-.21Z" style="fill: #10634b;"/>
        <path d="M221.83,37.23c.13.13.47.2,1.01.2h.52l.37.23v1.74l-.39.2h-.84c-.76,0-1.4-.26-1.92-.77-.63.51-1.54.77-2.71.77h-9.26l-.39-.2v-1.77l.39-.2h1.36v-10.68h2.42v6.6l5.46-1.34c1.35-.25,2.38.02,3.11.82s1.1,1.79,1.1,2.96c0,.65-.07,1.13-.21,1.44ZM219.61,35.79c0-.54-.13-.94-.39-1.2-.26-.27-.67-.34-1.23-.22l-5.62,1.34v1.72h5.48c.63,0,1.08-.14,1.35-.41.27-.28.41-.68.41-1.23Z" style="fill: #10634b;"/>
        <path d="M224.98,37.43c-.41-.62-.62-1.34-.62-2.15s.17-1.58.52-2.24c.34-.66.82-1.17,1.44-1.54s1.31-.55,2.09-.55,1.49.18,2.11.55c.62.37,1.1.91,1.44,1.62.34.71.42,1.51.21,2.42l-.43,1.89h2.29l.47.2v1.77l-.47.2h-10.98l-.47-.2v-1.77l.47-.2h1.93ZM226.26,29.81c-.24-.24-.37-.53-.37-.86s.12-.63.37-.87.53-.36.87-.36.64.12.88.36.37.53.37.87-.12.63-.37.87-.54.36-.88.36-.63-.12-.87-.36ZM229.31,37.43l.46-2.08c.16-.73.1-1.28-.18-1.66s-.67-.57-1.16-.57c-.32,0-.61.08-.85.25s-.43.41-.57.74-.21.72-.21,1.18c0,.72.17,1.25.52,1.61.35.36.89.53,1.62.53h.38ZM229.22,29.81c-.24-.24-.37-.53-.37-.86s.12-.63.37-.87c.24-.24.53-.36.87-.36s.64.12.88.36.37.53.37.87-.12.63-.37.87-.54.36-.88.36-.63-.12-.87-.36Z" style="fill: #10634b;"/>
        <path d="M237.18,38.53c-.67.71-1.65,1.06-2.92,1.06h-.55l-.47-.2v-1.77l.47-.2h.3c.62,0,1.07-.15,1.35-.44s.41-.81.41-1.55l-.03-5.18v-3.41h2.49v3.4l-.04,5.18c0,1.35-.34,2.38-1.01,3.09Z" style="fill: #10634b;"/>
        <path d="M240.41,26.85h2.39v3.5l.02,9.24h-2.42l.02-9.24v-3.5Z" style="fill: #10634b;"/>
        <path d="M252.1,39.59c-.04,1.15-.39,2.05-1.04,2.7-.71.71-1.76,1.11-3.13,1.21h-1.7v-2.28h1.59c.65,0,1.12-.16,1.42-.49s.46-.87.46-1.62v-7.94h2.48v6.25h1.8l.47.2v1.77l-.47.2h-1.87Z" style="fill: #10634b;"/>
        <path d="M252.82,39.39v-1.76l.63-.21h5.71l.63.21v1.76l-.63.21h-5.71l-.63-.21Z" style="fill: #10634b;"/>
        <path d="M258.06,39.39v-1.76l.63-.21h5.71l.63.21v1.76l-.63.21h-5.71l-.63-.21Z" style="fill: #10634b;"/>
        <path d="M263.3,39.39v-1.76l.63-.21h5.71l.63.21v1.76l-.63.21h-5.71l-.63-.21Z" style="fill: #10634b;"/>
        <path d="M278.59,38.67c-.44.37-.94.63-1.52.78-.72.19-1.49.19-2.3,0-.82-.19-1.55-.64-2.19-1.37-.31.63-.65,1.03-1.04,1.21-.42.2-.88.3-1.38.3h-.84l-.39-.19v-1.97h.66c.61-.05,1.03-.23,1.28-.52.21-.24.61-1.94,1.2-5.09l4.18-.03c.94,0,1.71.25,2.32.74.61.5,1.03,1.08,1.25,1.77.23.68.25,1.41.07,2.18,0,.03-.01.06-.02.09.14.19.25.33.34.42.28.29.7.44,1.27.44h.28l.61.25v1.71l-.63.21h-.61c-.77,0-1.44-.17-1.99-.5-.19-.12-.37-.26-.54-.43ZM273.79,34.16l-.08.36c-.16.71-.11,1.28.16,1.7.27.42.75.71,1.45.87.44.1.84.12,1.19.06.35-.07.64-.2.85-.39.21-.2.36-.45.44-.77.12-.49.02-.91-.29-1.26s-.84-.54-1.58-.55h-2.13Z" style="fill: #10634b;"/>
        <path d="M285.78,38.53c-.67.71-1.65,1.06-2.92,1.06h-1.37l-.47-.2v-1.77l.47-.2h.3c1.17,0,1.89-.15,2.17-.44s.41-.81.41-1.54v-4.27h2.5v4.28c-.05,1.34-.42,2.36-1.09,3.07ZM282.93,29.71c-.24-.24-.37-.53-.37-.86s.12-.63.37-.87.53-.36.87-.36.64.12.88.36.37.53.37.87-.12.63-.37.87c-.25.24-.54.36-.88.36s-.63-.12-.87-.36ZM285.89,29.71c-.24-.24-.37-.53-.37-.86s.12-.63.37-.87c.24-.24.53-.36.87-.36s.64.12.88.36.37.53.37.87-.12.63-.37.87c-.25.24-.54.36-.88.36s-.63-.12-.87-.36Z" style="fill: #10634b;"/>
        <path d="M296.73,39.59c-.21.98-.62,1.77-1.22,2.37-.94.92-2.35,1.39-4.23,1.39h-2.36v-2.25h2.39c.96,0,1.68-.17,2.16-.5.48-.33.76-.67.83-1.01h-.91c-1.5,0-2.63-.37-3.4-1.1-.77-.73-1.16-1.82-1.16-3.25,0-.82.17-1.56.52-2.21.34-.65.82-1.17,1.44-1.53s1.31-.55,2.09-.55,1.49.18,2.11.55c.62.37,1.1.9,1.43,1.6s.5,1.5.5,2.4v1.93h1.58l.47.2v1.77l-.47.2h-1.76ZM294.26,28.41v1.17h-3.45v-1.17h1.16c-.19.41-.37.43-.55.07-.18-.36-.27-.64-.27-.83,0-.29.08-.55.23-.77.15-.22.36-.39.62-.52.26-.12.55-.18.88-.18s.64.05.99.15v1.17c-.36-.09-.66-.14-.91-.14-.17,0-.3.04-.41.13-.1.09-.15.2-.15.34,0,.17.07.31.21.42.14.11.33.16.56.16h1.09ZM294.49,37.43v-1.63c0-1-.15-1.7-.43-2.09-.28-.39-.68-.59-1.2-.59-.31,0-.58.08-.82.25-.24.17-.44.42-.58.74-.15.32-.22.7-.22,1.14,0,.76.17,1.31.51,1.66.34.35.88.52,1.63.52h1.12Z" style="fill: #10634b;"/>
        <path d="M300.91,31.82l4.18-.03c.94,0,1.71.25,2.32.74.61.5,1.03,1.08,1.25,1.77.23.68.25,1.41.07,2.18-.17.75-.5,1.39-1,1.91-.5.52-1.11.87-1.83,1.06-.72.19-1.48.19-2.29,0-.82-.19-1.55-.64-2.19-1.37-.31.63-.65,1.03-1.04,1.21-.42.2-.88.3-1.38.3h-.84l-.39-.19v-1.97h.66c.61-.05,1.03-.23,1.28-.52.21-.24.61-1.94,1.2-5.09ZM302.62,34.16l-.08.36c-.16.71-.11,1.28.16,1.7.27.42.75.71,1.45.87.44.1.84.12,1.19.06.35-.07.64-.2.85-.39.21-.2.36-.45.44-.77.12-.49.02-.91-.29-1.26s-.84-.54-1.58-.55h-2.13Z" style="fill: #10634b;"/>
        <path d="M6.8,65.2c-.63.46-1.33.73-2.12.8-.82.07-1.57-.04-2.26-.33-.69-.29-1.24-.72-1.66-1.29-.42-.58-.67-1.26-.75-2.04-.07-.78.06-1.5.38-2.14.32-.65.82-1.18,1.49-1.58.67-.41,1.47-.55,2.38-.42l2.12.28v-.78h2.23v5.03c0,.66.15,1.14.44,1.44s.72.46,1.28.46h.31l.45.24v1.73l-.46.2h-.68c-.8,0-1.49-.17-2.07-.53-.5-.3-.86-.66-1.08-1.07ZM2.43,56.42c-.24-.24-.36-.53-.36-.86s.12-.63.36-.87c.24-.24.53-.36.87-.36s.64.12.88.36c.24.24.36.53.36.87s-.12.63-.37.87c-.25.24-.54.36-.88.36s-.63-.12-.87-.36ZM6.45,60.89l-2.17-.26c-.73-.09-1.28.01-1.63.32-.36.31-.51.71-.47,1.22.03.32.14.59.32.81.19.22.45.39.79.51.34.11.74.15,1.2.1.71-.05,1.23-.27,1.55-.65s.46-.94.4-1.68v-.37ZM5.39,56.42c-.24-.24-.36-.53-.36-.86s.12-.63.36-.87c.24-.24.53-.36.87-.36s.64.12.88.36c.24.24.37.53.37.87s-.12.63-.37.87c-.25.24-.54.36-.88.36s-.63-.12-.87-.36Z" style="fill: #10634b;"/>
        <path d="M12.53,64.63c-.09-.15-.15-.25-.16-.28-.38-.75-.57-1.49-.57-2.2,0-.86.21-1.63.62-2.32.42-.69.99-1.22,1.73-1.6.74-.38,1.58-.57,2.51-.57.58,0,1.35.11,2.3.34l-.28,2.52c-.84-.3-1.46-.45-1.88-.45-.56,0-1.02.08-1.38.23-.36.15-.66.39-.88.71-.22.32-.33.7-.33,1.14s.16.9.48,1.34.78.74,1.39.9c.6.16,1.31.24,2.12.24h2.27v2.17h-10.15l-.47-.2v-1.77l.47-.2h2.2Z" style="fill: #10634b;"/>
        <path d="M22.64,54.05h2.39v3.5l.02,9.24h-2.42l.02-9.24v-3.5Z" style="fill: #10634b;"/>
        <path d="M25.68,68.43h1.59c.65,0,1.12-.16,1.42-.49s.46-.87.46-1.62v-7.94h2.42v7.98c0,1.38-.35,2.43-1.06,3.13-.71.71-1.75,1.11-3.13,1.21h-1.7v-2.28Z" style="fill: #10634b;"/>
        <path d="M37.97,66.79c-.04,1.15-.39,2.05-1.04,2.7-.71.71-1.76,1.11-3.13,1.21h-1.7v-2.28h1.59c.65,0,1.12-.16,1.42-.49s.46-.87.46-1.62v-7.94h2.48v6.25h1.8l.47.2v1.77l-.47.2h-1.87ZM35.79,57.24c-.24-.24-.37-.53-.37-.86s.12-.63.37-.87c.24-.24.53-.36.87-.36s.64.12.88.36c.24.24.36.53.36.87s-.12.63-.37.87c-.25.24-.54.36-.88.36s-.63-.12-.87-.36Z" style="fill: #10634b;"/>
        <path d="M38.69,66.59v-1.76l.63-.21h5.71l.63.21v1.76l-.63.21h-5.71l-.63-.21Z" style="fill: #10634b;"/>
        <path d="M48.2,65.73c-.67.71-1.65,1.06-2.92,1.06h-.55l-.47-.2v-1.77l.47-.2h.3c.62,0,1.07-.15,1.35-.44s.41-.81.41-1.55l-.03-5.18v-3.41h2.49v3.4l-.04,5.18c0,1.35-.34,2.38-1.01,3.09Z" style="fill: #10634b;"/>
        <path d="M51.43,54.05h2.39v3.5l.02,9.24h-2.42l.02-9.24v-3.5Z" style="fill: #10634b;"/>
        <path d="M62.13,58.7c.62.37,1.1.9,1.43,1.6s.5,1.5.5,2.4v2.31c0,1.85-.47,3.24-1.4,4.16-.93.92-2.34,1.38-4.23,1.38h-2.36v-2.25h2.39c.96,0,1.68-.17,2.16-.5.48-.33.76-.67.83-1.01h-.91c-1.5,0-2.63-.37-3.4-1.1-.77-.73-1.16-1.82-1.16-3.25,0-.82.17-1.56.52-2.21.34-.65.82-1.17,1.44-1.53s1.31-.55,2.09-.55,1.49.18,2.11.55ZM61.66,64.63v-1.63c0-1-.15-1.7-.43-2.09-.28-.39-.68-.59-1.2-.59-.31,0-.58.08-.82.25-.24.17-.44.42-.58.74-.15.32-.22.7-.22,1.14,0,.76.17,1.31.51,1.66.34.35.88.52,1.63.52h1.12Z" style="fill: #10634b;"/>
        <path d="M73.74,66.8c-1.72-.32-2.67-1.61-2.86-3.87-.08-.82.02-1.57.3-2.26.28-.69.71-1.25,1.29-1.68.58-.43,1.26-.68,2.03-.75.79-.07,1.5.05,2.15.36.65.31,1.17.8,1.59,1.47.41.67.56,1.47.44,2.39l-.57,4.33h-4.36ZM76,64.61l.25-2.12c.09-.73-.02-1.28-.34-1.63-.31-.35-.72-.51-1.21-.46-.33.03-.6.14-.82.33s-.39.46-.5.8c-.11.34-.14.74-.09,1.2.07.71.29,1.22.67,1.54.38.32.94.45,1.67.38l.38-.04Z" style="fill: #10634b;"/>
        <path d="M81.73,65.73c-.67-.71-1-1.74-1-3.09l-.04-5.18v-3.4h2.49v3.4l-.03,5.18c0,.74.14,1.25.41,1.55s.72.44,1.35.44h.39l.55.21v1.76l-.55.21h-.63c-1.28,0-2.25-.35-2.92-1.06Z" style="fill: #10634b;"/>
        <path d="M84.16,66.59v-1.76l.63-.21h5.71l.63.21v1.76l-.63.21h-5.71l-.63-.21Z" style="fill: #10634b;"/>
        <path d="M89.4,66.59v-1.76l.63-.21h5.71l.63.21v1.76l-.63.21h-5.71l-.63-.21Z" style="fill: #10634b;"/>
        <path d="M94.64,66.59v-1.76l.63-.21h5.71l.63.21v1.76l-.63.21h-5.71l-.63-.21Z" style="fill: #10634b;"/>
        <path d="M99.88,66.59v-1.76l.63-.21h5.71l.63.21v1.76l-.63.21h-5.71l-.63-.21Z" style="fill: #10634b;"/>
        <path d="M105.12,66.59v-1.76l.63-.21h5.71l.63.21v1.76l-.63.21h-5.71l-.63-.21Z" style="fill: #10634b;"/>
        <path d="M110.36,66.59v-1.76l.63-.21h5.71l.63.21v1.76l-.63.21h-5.71l-.63-.21Z" style="fill: #10634b;"/>
        <path d="M123.4,64.87v1.73l-.47.2h-.67c-.58,0-1.16-.17-1.74-.53-.58-.35-1.04-.93-1.39-1.75h.98c-.27.8-.66,1.38-1.16,1.74-.5.36-1.21.54-2.15.54h-.3l-.47-.2v-1.77l.47-.2h.3c.57,0,.99-.15,1.28-.45s.4-.78.37-1.44v-3.54h2.56v3.54c-.04.66.08,1.13.36,1.44s.71.45,1.28.45h.31l.45.24ZM117.18,69.67c-.24-.24-.36-.53-.36-.86s.12-.63.36-.87.53-.36.87-.36.64.12.88.36c.24.24.37.53.37.87s-.12.63-.37.87c-.25.24-.54.36-.88.36s-.63-.12-.87-.36ZM120.14,69.67c-.24-.24-.37-.53-.37-.86s.12-.63.37-.87.53-.36.87-.36.64.12.88.36.37.53.37.87-.12.63-.37.87c-.25.24-.54.36-.88.36s-.63-.12-.87-.36Z" style="fill: #10634b;"/>
        <path d="M131.91,65.87c-.44.37-.94.63-1.52.78-.72.19-1.49.19-2.3,0-.82-.19-1.55-.64-2.19-1.37-.31.63-.65,1.03-1.04,1.21-.42.2-.88.3-1.38.3h-.84l-.39-.19v-1.97h.66c.61-.05,1.03-.23,1.28-.52.21-.24.61-1.94,1.2-5.09l4.18-.03c.94,0,1.71.25,2.32.74.61.5,1.03,1.08,1.25,1.77.23.68.25,1.41.07,2.18,0,.03-.01.06-.02.09.14.19.25.33.34.42.28.29.7.44,1.27.44h.28l.61.25v1.71l-.63.21h-.61c-.77,0-1.44-.17-1.99-.5-.19-.12-.37-.26-.54-.43ZM127.1,61.36l-.08.36c-.16.71-.11,1.28.16,1.7.27.42.75.71,1.45.87.44.1.84.12,1.19.06.35-.07.64-.2.85-.39.21-.2.36-.45.44-.77.12-.49.02-.91-.29-1.26s-.84-.54-1.58-.55h-2.13Z" style="fill: #10634b;"/>
        <path d="M138.19,65.73c-.67.71-1.65,1.06-2.92,1.06h-.55l-.47-.2v-1.77l.47-.2h.3c.62,0,1.07-.15,1.35-.44s.41-.81.41-1.55l-.03-5.18v-3.41h2.49v3.4l-.04,5.18c0,1.35-.34,2.38-1.01,3.09Z" style="fill: #10634b;"/>
        <path d="M141.42,54.05h2.39v3.5l.02,9.24h-2.42l.02-9.24v-3.5Z" style="fill: #10634b;"/>
        <path d="M152.12,58.7c.62.37,1.1.9,1.43,1.6s.5,1.5.5,2.4v2.31c0,1.85-.47,3.24-1.4,4.16-.93.92-2.34,1.38-4.23,1.38h-2.36v-2.25h2.39c.96,0,1.68-.17,2.16-.5.48-.33.76-.67.83-1.01h-.91c-1.5,0-2.63-.37-3.4-1.1-.77-.73-1.16-1.82-1.16-3.25,0-.82.17-1.56.52-2.21.34-.65.82-1.17,1.44-1.53s1.31-.55,2.09-.55,1.49.18,2.11.55ZM151.64,64.63v-1.63c0-1-.15-1.7-.43-2.09-.28-.39-.68-.59-1.2-.59-.31,0-.58.08-.82.25-.24.17-.44.42-.58.74-.15.32-.22.7-.22,1.14,0,.76.17,1.31.51,1.66.34.35.88.52,1.63.52h1.12Z" style="fill: #10634b;"/>
        <path d="M167.36,65.2c-.63.46-1.33.73-2.12.8-.82.07-1.57-.04-2.26-.33-.69-.29-1.24-.72-1.66-1.29-.42-.58-.67-1.26-.75-2.04-.07-.78.06-1.5.38-2.14.32-.65.82-1.18,1.49-1.58.67-.41,1.47-.55,2.38-.42l2.12.28v-.78h2.23v5.03c0,.66.15,1.14.44,1.44s.72.46,1.28.46h.31l.45.24v1.73l-.46.2h-.68c-.8,0-1.49-.17-2.07-.53-.5-.3-.86-.66-1.08-1.07ZM162.99,56.42c-.24-.24-.36-.53-.36-.86s.12-.63.36-.87c.24-.24.53-.36.87-.36s.64.12.88.36c.24.24.36.53.36.87s-.12.63-.37.87c-.25.24-.54.36-.88.36s-.63-.12-.87-.36ZM167.01,60.89l-2.17-.26c-.73-.09-1.28.01-1.63.32-.36.31-.51.71-.47,1.22.03.32.14.59.32.81.19.22.45.39.79.51.34.11.74.15,1.2.1.71-.05,1.23-.27,1.55-.65s.46-.94.4-1.68v-.37ZM165.95,56.42c-.24-.24-.36-.53-.36-.86s.12-.63.36-.87c.24-.24.53-.36.87-.36s.64.12.88.36c.24.24.37.53.37.87s-.12.63-.37.87c-.25.24-.54.36-.88.36s-.63-.12-.87-.36Z" style="fill: #10634b;"/>
        <path d="M170.07,66.59v-1.76l.63-.21h5.71l.63.21v1.76l-.63.21h-5.71l-.63-.21Z" style="fill: #10634b;"/>
        <path d="M183.1,64.87v1.73l-.47.2h-.67c-.58,0-1.16-.17-1.74-.53-.58-.35-1.04-.93-1.39-1.75h.98c-.27.8-.66,1.38-1.16,1.74-.5.36-1.21.54-2.15.54h-.3l-.47-.2v-1.77l.47-.2h.3c.57,0,.99-.15,1.28-.45s.4-.78.37-1.44v-3.54h2.56v3.54c-.04.66.08,1.13.36,1.44s.71.45,1.28.45h.31l.45.24ZM181.12,56.67v1.17h-3.45v-1.17h1.16c-.19.41-.37.44-.55.07s-.27-.64-.27-.83c0-.29.08-.55.23-.77s.36-.39.62-.52c.26-.12.56-.18.88-.18s.64.05.99.15v1.17c-.36-.09-.66-.14-.91-.14-.17,0-.3.04-.41.13-.1.09-.15.2-.15.34,0,.17.07.31.21.42s.33.16.56.16h1.09Z" style="fill: #10634b;"/>
        <path d="M189.35,64.87v1.73l-.47.2h-.67c-.58,0-1.16-.17-1.74-.53-.58-.35-1.04-.93-1.39-1.75h.98c-.27.8-.66,1.38-1.16,1.74-.5.36-1.21.54-2.15.54h-.3l-.47-.2v-1.77l.47-.2h.3c.57,0,.99-.15,1.28-.45s.4-.78.37-1.44v-3.54h2.56v3.54c-.04.66.08,1.13.36,1.44s.71.45,1.28.45h.31l.45.24ZM183.13,69.67c-.24-.24-.36-.53-.36-.86s.12-.63.36-.87.53-.36.87-.36.64.12.88.36c.24.24.37.53.37.87s-.12.63-.37.87c-.25.24-.54.36-.88.36s-.63-.12-.87-.36ZM186.09,69.67c-.24-.24-.37-.53-.37-.86s.12-.63.37-.87.53-.36.87-.36.64.12.88.36.37.53.37.87-.12.63-.37.87c-.25.24-.54.36-.88.36s-.63-.12-.87-.36Z" style="fill: #10634b;"/>
        <path d="M195.6,64.87v1.73l-.47.2h-.67c-.58,0-1.16-.17-1.74-.53-.58-.35-1.04-.93-1.39-1.75h.98c-.27.8-.66,1.38-1.16,1.74-.5.36-1.21.54-2.15.54h-.3l-.47-.2v-1.77l.47-.2h.3c.57,0,.99-.15,1.28-.45s.4-.78.37-1.44v-3.54h2.56v3.54c-.04.66.08,1.13.36,1.44s.71.45,1.28.45h.31l.45.24ZM191.23,69.66c-.24-.24-.37-.53-.37-.86s.12-.63.37-.87c.24-.24.53-.36.87-.36s.64.12.88.36c.24.24.37.53.37.87s-.12.63-.37.87c-.25.24-.54.36-.88.36s-.63-.12-.87-.36Z" style="fill: #10634b;"/>
        <path d="M198.33,65.73c-.67.71-1.65,1.06-2.92,1.06h-.55l-.47-.2v-1.77l.47-.2h.3c.62,0,1.07-.15,1.35-.44s.41-.81.41-1.55l-.03-5.18v-3.41h2.49v3.4l-.04,5.18c0,1.35-.34,2.38-1.01,3.09Z" style="fill: #10634b;"/>
        <path d="M201.56,54.05h2.39v3.5l.02,9.24h-2.42l.02-9.24v-3.5Z" style="fill: #10634b;"/>
        <path d="M213.92,66.8c-1.72-.32-2.67-1.61-2.86-3.87-.08-.82.02-1.57.3-2.26.28-.69.71-1.25,1.29-1.68.58-.43,1.26-.68,2.03-.75.79-.07,1.5.05,2.15.36.65.31,1.17.8,1.59,1.47.41.67.56,1.47.44,2.39l-.57,4.33h-4.36ZM212.69,57.07c-.24-.24-.36-.53-.36-.86s.12-.63.36-.87c.24-.24.53-.36.87-.36s.64.12.88.36c.24.24.36.53.36.87s-.12.63-.37.87c-.25.24-.54.36-.88.36s-.63-.12-.87-.36ZM216.18,64.61l.25-2.12c.09-.73-.02-1.28-.34-1.63-.31-.35-.72-.51-1.21-.46-.33.03-.6.14-.82.33s-.39.46-.5.8c-.11.34-.14.74-.09,1.2.07.71.29,1.22.67,1.54.38.32.94.45,1.67.38l.38-.04ZM215.65,57.07c-.24-.24-.36-.53-.36-.86s.12-.63.36-.87c.24-.24.53-.36.87-.36s.64.12.88.36c.24.24.37.53.37.87s-.12.63-.37.87c-.25.24-.54.36-.88.36s-.63-.12-.87-.36Z" style="fill: #10634b;"/>
        <path d="M219.35,68.43h1.59c.65,0,1.12-.16,1.42-.49s.46-.87.46-1.62v-7.94h2.42v7.98c0,1.38-.35,2.43-1.06,3.13-.71.71-1.75,1.11-3.13,1.21h-1.7v-2.28Z" style="fill: #10634b;"/>
        <path d="M227.73,54.05h2.39v3.5l.02,9.24h-2.42l.02-9.24v-3.5Z" style="fill: #10634b;"/>
        <path d="M230.77,68.43h1.59c.65,0,1.12-.16,1.42-.49s.46-.87.46-1.62v-7.94h2.42v7.98c0,1.38-.35,2.43-1.06,3.13-.71.71-1.75,1.11-3.13,1.21h-1.7v-2.28ZM234.45,57.24c-.24-.24-.37-.53-.37-.86s.12-.63.37-.87c.24-.24.53-.36.87-.36s.64.12.88.36c.24.24.37.53.37.87s-.12.63-.37.87c-.25.24-.54.36-.88.36s-.63-.12-.87-.36Z" style="fill: #10634b;"/>
        <path d="M244.84,58.7c.62.37,1.1.9,1.43,1.6s.5,1.5.5,2.4v2.31c0,1.85-.47,3.24-1.4,4.16-.93.92-2.34,1.38-4.23,1.38h-2.36v-2.25h2.39c.96,0,1.68-.17,2.16-.5.48-.33.76-.67.83-1.01h-.91c-1.5,0-2.63-.37-3.4-1.1-.77-.73-1.16-1.82-1.16-3.25,0-.82.17-1.56.52-2.21.34-.65.82-1.17,1.44-1.53s1.31-.55,2.09-.55,1.49.18,2.11.55ZM244.36,64.63v-1.63c0-1-.15-1.7-.43-2.09-.28-.39-.68-.59-1.2-.59-.31,0-.58.08-.82.25-.24.17-.44.42-.58.74-.15.32-.22.7-.22,1.14,0,.76.17,1.31.51,1.66.34.35.88.52,1.63.52h1.12Z" style="fill: #10634b;"/>
        <path d="M266.89,59.24c-.11.01-.29.05-.54.12-.63.17-1.07.39-1.32.67s-.32.59-.22.93c.04.18.14.39.3.64.16.25.4.59.73,1.04l.34.43c.38.49.7.97.96,1.42.25.46.51,1.22.77,2.3h-9.02c-1.64,0-2.85-.41-3.64-1.24-.74-.77-1.12-1.87-1.12-3.32v-2.36h2.39v2.35c0,.55.08.99.23,1.34.15.36.4.63.74.8.34.17.81.26,1.4.26h5.3l-.44-.55c-.38-.5-.69-.95-.93-1.35-.24-.4-.41-.81-.53-1.22-.27-1.01-.09-1.88.56-2.62.65-.73,1.64-1.28,2.97-1.63.74-.2,1.68-.38,2.83-.56l.55,1.32,2.72,6.05c.16.37.54.56,1.12.56h.28l.61.25v1.71l-.62.21h-.78c-.77,0-1.43-.17-1.98-.5-.24-.14-.42-.34-.55-.62l-3.08-6.43ZM258.58,68.82c0-.38.13-.7.4-.96s.59-.39.96-.39.7.13.97.39.4.58.4.96-.14.7-.41.96c-.27.26-.59.39-.96.39s-.69-.13-.96-.39-.4-.58-.4-.95ZM261.63,68.82c0-.38.13-.7.4-.96.27-.26.59-.39.96-.39s.7.13.97.39c.27.26.4.58.4.96s-.14.7-.41.96c-.27.26-.59.39-.96.39s-.69-.13-.96-.39c-.27-.26-.4-.58-.4-.95Z" style="fill: #10634b;"/>
        <path d="M272.23,66.59v-1.76l.63-.21h5.71l.63.21v1.76l-.63.21h-5.71l-.63-.21Z" style="fill: #10634b;"/>
        <path d="M277.47,66.59v-1.76l.63-.21h5.71l.63.21v1.76l-.63.21h-5.71l-.63-.21Z" style="fill: #10634b;"/>
        <path d="M282.71,66.59v-1.76l.63-.21h5.71l.63.21v1.76l-.63.21h-5.71l-.63-.21Z" style="fill: #10634b;"/>
        <path d="M287.95,66.59v-1.76l.63-.21h5.71l.63.21v1.76l-.63.21h-5.71l-.63-.21Z" style="fill: #10634b;"/>
        <path d="M293.19,66.59v-1.76l.63-.21h5.71l.63.21v1.76l-.63.21h-5.71l-.63-.21Z" style="fill: #10634b;"/>
        <path d="M301.23,64.63c-.41-.62-.62-1.34-.62-2.15s.17-1.58.52-2.24c.34-.66.82-1.17,1.44-1.54s1.31-.55,2.09-.55,1.49.18,2.11.55,1.1.91,1.44,1.62c.34.71.42,1.52.21,2.42l-.95,4.05h-8.17l-.47-.2v-1.77l.47-.2h1.93ZM305.55,64.63l.46-2.08c.16-.73.1-1.28-.18-1.66s-.67-.57-1.16-.57c-.32,0-.61.08-.85.25-.24.17-.43.41-.57.74-.14.33-.21.72-.21,1.18,0,.72.17,1.25.52,1.61.35.36.89.53,1.62.53h.38ZM304,57.01c-.24-.24-.37-.53-.37-.86s.12-.63.37-.87c.24-.24.53-.36.87-.36s.64.12.88.36c.24.24.37.53.37.87s-.12.63-.37.87-.54.36-.88.36-.63-.12-.87-.36Z" style="fill: #10634b;"/>
      </g>
      <g>
        <path d="M393.53,94l-6.69.81s-7.12-4.07-15.26-6.59c-8.13-2.52-14.25-2.22-14.25-2.22l-4.61-4s11.73,0,20.01,2.74c8.28,2.74,20.8,9.25,20.8,9.25" style="fill: url(#linear-gradient);"/>
        <path d="M411.73,85.64l-4.17,3.26s-5.28-.09-14.54-4c-5.73-2.42-11.95-5.74-21.81-9.25-11.48-4.09-25.33-1.7-25.33-1.7l-2.38-3.55s11.66-2.66,25.84.81c7.49,1.84,18.83,8.03,27.92,11.32,8.11,2.94,14.46,3.11,14.46,3.11" style="fill: url(#linear-gradient-2);"/>
        <path d="M424.69,71.43c-.16.5-10.26.66-19.93-.67-6.68-.91-14.2-4.99-20.8-8.36-19.93-10.18-45.48-5.18-45.48-5.18l1.08,3.92s13.43-3.2,27.99-.22c12.28,2.51,25.48,10.96,31.3,12.36,12.88,3.09,22.64,2.17,23.01,1.87.01-.01.01-.03.02-.05l2.81-3.68" style="fill: url(#linear-gradient-3);"/>
        <path d="M337.68,44.87s9.21-2.96,20.87-2.37c11.66.59,17.67,3.17,21.52,4.58,4.25,1.56,11.57,5.88,24.56,10.14,8.03,2.63,24.14.44,24.14.44l-2.56,4.17s-14.11,2.18-27.57-2.47c-11.8-4.07-17.06-10.06-31.45-12.28-15.18-2.34-29.51,1.26-29.51,1.26v-3.48Z" style="fill: url(#linear-gradient-4);"/>
        <path d="M341.76,47.49h-4.08c0-13.29,4.82-25.5,13.58-34.39C359.95,4.29,371.77,0,384.55,0v3.51c-24.4,0-42.8,18.91-42.8,43.98" style="fill: #10634b;"/>
        <path d="M429.93,46.35l-.91,1.75c-.13-6.95-1.81-13.42-4.1-18.97-3.87-8.32-9.84-14.37-16.65-18.97-6.99-4.72-15.32-6.65-24.09-6.65V0c9.58,0,18.13,2.74,25.8,7.92,7.47,5.05,14.02,13.7,16.19,19.54,2.49,6.05,3.41,11.01,3.75,18.89" style="fill: url(#linear-gradient-5);"/>
      </g>
    </g>
  </g>
</svg>