<?xml version="1.0" encoding="UTF-8"?>
<svg id="Layer_2" data-name="Layer 2" class="svgshadow" xmlns="http://www.w3.org/2000/svg" xmlns:xlink="http://www.w3.org/1999/xlink" viewBox="0 0 92.26 94.81">
  <defs>
    <linearGradient id="linear-gradient" x1="15.05" y1="88.41" x2="55.85" y2="88.41" gradientUnits="userSpaceOnUse">
      <stop offset="0" stop-color="#10634b"/>
      <stop offset="1" stop-color="#558d92"/>
    </linearGradient>
    <linearGradient id="linear-gradient-2" x1="5.83" y1="79.16" x2="74.06" y2="79.16" xlink:href="#linear-gradient"/>
    <linearGradient id="linear-gradient-3" x1=".8" y1="65.76" x2="87.01" y2="65.76" xlink:href="#linear-gradient"/>
    <linearGradient id="linear-gradient-4" x1="0" y1="52.39" x2="91.09" y2="52.39" xlink:href="#linear-gradient"/>
    <linearGradient id="linear-gradient-5" x1="46.51" y1="24.05" x2="92.26" y2="24.05" xlink:href="#linear-gradient"/>
  </defs>
  <g id="Layer_1-2" data-name="Layer 1">
    <g>
      <path d="M55.85,94l-6.69.81s-7.12-4.07-15.26-6.59c-8.13-2.52-14.25-2.22-14.25-2.22l-4.61-4s11.73,0,20.01,2.74c8.28,2.74,20.8,9.25,20.8,9.25" style="fill: url(#linear-gradient);"/>
      <path d="M74.06,85.64l-4.17,3.26s-5.28-.09-14.54-4c-5.73-2.42-11.95-5.74-21.81-9.25-11.48-4.09-25.33-1.7-25.33-1.7l-2.38-3.55s11.66-2.66,25.84.81c7.49,1.84,18.83,8.03,27.92,11.32,8.11,2.94,14.46,3.11,14.46,3.11" style="fill: url(#linear-gradient-2);"/>
      <path d="M87.01,71.43c-.16.5-10.26.66-19.93-.67-6.68-.91-14.2-4.99-20.8-8.36C26.34,52.23.8,57.23.8,57.23l1.08,3.92s13.43-3.2,27.99-.22c12.28,2.51,25.48,10.96,31.3,12.36,12.88,3.09,22.64,2.17,23.01,1.87.01-.01.01-.03.02-.05l2.81-3.68" style="fill: url(#linear-gradient-3);"/>
      <path d="M0,44.87s9.21-2.96,20.87-2.37c11.66.59,17.67,3.17,21.52,4.58,4.25,1.56,11.57,5.88,24.56,10.14,8.03,2.63,24.14.44,24.14.44l-2.56,4.17s-14.11,2.18-27.57-2.47c-11.8-4.07-17.06-10.06-31.45-12.28C14.33,44.74,0,48.35,0,48.35v-3.48Z" style="fill: url(#linear-gradient-4);"/>
      <path d="M4.08,47.49H0c0-13.29,4.82-25.5,13.58-34.39C22.27,4.29,34.09,0,46.88,0v3.51C22.48,3.51,4.08,22.42,4.08,47.49" style="fill: #10634b;"/>
      <path d="M92.26,46.35l-.91,1.75c-.13-6.95-1.81-13.42-4.1-18.97-3.87-8.32-9.84-14.37-16.65-18.97-6.99-4.72-15.32-6.65-24.09-6.65V0c9.58,0,18.13,2.74,25.8,7.92,7.47,5.05,14.02,13.7,16.19,19.54,2.49,6.05,3.41,11.01,3.75,18.89" style="fill: url(#linear-gradient-5);"/>
    </g>
  </g>
</svg>