<svg width="209" height="71" viewBox="0 0 209 71" fill="none" xmlns="http://www.w3.org/2000/svg">
<g clip-path="url(#clip0_2346_39290)">
<mask id="mask0_2346_39290" style="mask-type:luminance" maskUnits="userSpaceOnUse" x="1" y="10" width="208" height="51">
<path d="M208.274 10.1821H1.08774V60.8477H208.274V10.1821Z" fill="white"/>
</mask>
<g mask="url(#mask0_2346_39290)">
<mask id="mask1_2346_39290" style="mask-type:luminance" maskUnits="userSpaceOnUse" x="1" y="10" width="208" height="51">
<path d="M208.274 10.1821H1.08774V60.8477H208.274V10.1821Z" fill="white"/>
</mask>
<g mask="url(#mask1_2346_39290)">
<path d="M5.47984 25.8375C5.92861 25.8375 6.24325 25.4893 6.24325 25.0659C6.24325 24.6424 5.92861 24.2969 5.47984 24.2969C5.03108 24.2969 4.71643 24.645 4.71643 25.0659C4.71643 25.4868 5.03108 25.8375 5.47984 25.8375Z" fill="white"/>
<path d="M3.32137 25.8375C3.75723 25.8375 4.08478 25.4893 4.08478 25.0659C4.08478 24.6424 3.75466 24.2969 3.32137 24.2969C2.85712 24.2969 2.55795 24.645 2.55795 25.0659C2.55795 25.4868 2.85712 25.8375 3.32137 25.8375Z" fill="white"/>
<path d="M14.3856 28.8122C14.3856 29.2357 14.7002 29.5682 15.2418 29.5682C15.7835 29.5682 16.111 29.1448 16.111 28.677C16.111 27.6664 15.0768 26.9702 13.9523 26.9702C12.0929 26.9702 10.4602 28.4199 10.4602 30.428C10.4602 31.6829 11.0302 32.7091 11.9304 33.3119H7.88372C7.17962 33.2521 7.10483 32.5117 7.10483 32.1038V28.1912C7.10483 27.8743 7.12031 27.482 7.21057 27.0897H6.46006C6.35431 27.1962 6.38527 27.256 6.35431 27.3157C6.295 27.4976 6.2202 27.6925 6.18926 27.6925C6.18926 27.6925 6.09899 27.6327 5.93393 27.5262C5.58832 27.3002 5.01835 26.9209 4.16466 26.9209C2.27677 26.9209 1.09039 28.6277 1.09039 30.3658C1.09039 32.2389 2.27419 33.8704 3.85002 33.8704C5.12409 33.8704 5.79982 32.9481 6.02419 32.2986C6.02419 33.673 6.86498 33.8548 7.88372 33.8704H13.8208C14.7493 33.8704 15.4405 33.569 15.995 33.0235L15.621 32.7663C15.2316 33.1144 14.7363 33.3092 14.0915 33.3092C12.606 33.3092 11.9638 32.0103 11.9638 30.2592C11.9638 28.4017 12.668 27.4509 14.0039 27.4509C14.7673 27.4509 15.1877 27.7677 15.3991 28.1757C15.2935 28.1601 15.2032 28.1445 15.1 28.1445C14.6513 28.1445 14.396 28.3861 14.396 28.8095M5.66054 31.9999C5.42068 32.8001 4.77592 33.3586 4.04088 33.3586C3.41157 33.3586 2.45216 32.6806 2.45216 30.4593C2.45216 28.9031 2.99118 27.4534 4.16209 27.4534C5.66054 27.4534 5.8256 28.8874 5.8256 30.1709C5.8256 30.9711 5.79465 31.5452 5.66054 31.9973" fill="white"/>
<path d="M19.2421 33.8703V24.2188L17.2795 24.5955C17.9088 24.8059 17.9242 24.9125 17.9242 25.2606V33.8677H19.2448L19.2421 33.8703Z" fill="white"/>
<path d="M23.9357 27.1369L21.9421 27.5136C22.6023 27.7266 22.6179 27.8305 22.6179 28.1943V32.0315C22.4992 34.871 21.4186 35.9414 19.2445 36.5311C19.7989 36.5754 20.129 36.5909 20.325 36.5909C23.683 36.5909 23.9384 33.6006 23.9384 30.8961V27.1343L23.9357 27.1369Z" fill="white"/>
<path d="M27.4433 25.9442C27.8637 25.9442 28.2222 25.596 28.2222 25.1596C28.2222 24.7231 27.8637 24.375 27.4433 24.375C27.0229 24.375 26.6644 24.7076 26.6644 25.1596C26.6644 25.6117 27.0229 25.9442 27.4433 25.9442Z" fill="white"/>
<path d="M31.6397 25.2632V31.862C31.6397 32.7532 31.2942 33.3117 30.456 33.3117H28.2225C28.3438 32.5401 28.3721 31.7114 28.3721 30.8956V27.1337L26.394 27.5104C27.0387 27.7235 27.0542 27.8274 27.0542 28.1911V32.0283C26.9484 34.8678 25.8704 35.9408 23.6807 36.528C24.2352 36.5721 24.5808 36.5878 24.7613 36.5878C26.8608 36.5878 27.7454 35.4082 28.1039 33.8703H30.7733C32.0473 33.8703 32.9628 33.1766 32.9628 31.9062V24.2188L30.9847 24.5955C31.645 24.8059 31.645 24.9125 31.645 25.2606" fill="white"/>
<path d="M34.9535 25.2632V33.8703H36.274V24.2188L34.3088 24.5955C34.9381 24.8059 34.9535 24.9125 34.9535 25.2606" fill="white"/>
<path d="M37.9224 31.5162C37.9224 32.9659 39.212 33.8413 40.2178 33.8725H40.2926C41.3861 33.8725 41.8374 33.2984 42.1521 32.7996C41.8685 35.6236 40.1894 36.2289 38.9282 36.5147L38.5698 36.5745C39.1088 36.6186 39.5884 36.6498 39.7999 36.6498C41.4041 36.6498 43.4443 36.016 43.4443 30.8953V27.1958H42.3042C39.7562 27.1958 37.925 28.887 37.925 31.5136M42.1212 31.1369C42.1212 32.3112 41.4351 33.3945 40.5401 33.4023C39.689 33.366 39.2274 32.3138 39.2274 31.4253C39.2274 29.1754 40.6356 27.6635 41.956 27.6635H42.1212V31.1369Z" fill="white"/>
<path d="M50.6813 26.9233C48.6877 26.9233 47.5168 28.6302 47.5168 30.4124C47.5168 32.1946 48.6877 33.8703 50.6813 33.8703C52.675 33.8703 53.8459 32.1634 53.8459 30.4124C53.8459 28.6614 52.6621 26.9233 50.6813 26.9233ZM50.6813 33.3585C49.4821 33.3585 48.943 32.3012 48.943 30.4124C48.943 28.5237 49.4821 27.4508 50.6813 27.4508C51.8806 27.4508 52.4067 28.4925 52.4067 30.4124C52.4067 32.3323 51.8678 33.3585 50.6813 33.3585Z" fill="white"/>
<path d="M61.6084 35.2603C61.1597 35.2603 60.8449 35.5928 60.8449 36.0163C60.8449 36.4397 61.1597 36.7878 61.6084 36.7878C62.0572 36.7878 62.3718 36.4397 62.3718 36.0163C62.3718 35.5928 62.0572 35.2603 61.6084 35.2603Z" fill="white"/>
<path d="M59.4498 35.2603C58.9857 35.2603 58.6865 35.5928 58.6865 36.0163C58.6865 36.4397 58.9857 36.7878 59.4498 36.7878C59.8857 36.7878 60.2133 36.4397 60.2133 36.0163C60.2133 35.5928 59.8832 35.2603 59.4498 35.2603Z" fill="white"/>
<path d="M75.9406 25.2476V31.8621C75.9406 32.7376 75.5946 33.3117 74.8157 33.3117H73.6601C72.9845 33.3117 72.4612 32.6778 72.2058 31.9686C72.2367 31.8024 72.2496 31.6205 72.2496 31.4256C72.2496 30.0358 71.2747 28.1937 69.4616 28.1937C67.2565 28.1937 66.8825 29.5837 66.5214 30.9866C66.3255 31.7426 66.0856 32.6467 65.6369 33.0857C65.4563 33.2365 65.201 33.2832 65.0668 33.3117H63.883C62.8334 33.3117 62.204 31.9374 62.204 30.9866V27.1363L60.2259 27.5131C60.8269 27.7235 60.8862 27.7858 60.8862 28.1184V31.9089C60.8862 32.7844 60.556 33.3144 59.7617 33.3144H58.5933C57.964 33.2702 57.6029 32.8467 57.6029 32.0466V24.2526L55.2045 24.3591V24.8579C56.0581 24.8579 56.2851 24.9931 56.2851 25.3568V31.9868C56.2851 33.4209 57.229 33.8755 58.5031 33.8755H60.0325C60.9609 33.8755 61.892 33.6027 62.2504 32.6961C62.7147 33.4053 63.3595 33.8755 64.1255 33.8755H65.0539C65.8483 33.8755 66.2842 33.6183 66.6272 33.2415C67.076 33.8158 67.7053 34.525 69.0696 34.525C70.5242 34.525 71.4527 33.7846 71.8886 32.8649C72.3992 33.53 72.9695 33.8755 73.9571 33.8755H75.0506C76.3244 33.8755 77.24 33.1818 77.24 31.9114V24.2085L75.2464 24.5851C75.92 24.7982 75.9349 24.9021 75.9349 25.2502M69.1186 33.9924C68.1902 33.9924 67.5144 33.2234 67.125 32.7402C67.1095 32.709 67.0811 32.6649 67.0502 32.6493C67.3364 32.1063 67.4705 31.5477 67.6047 31.0333L67.6356 30.9424C67.9347 29.7629 68.2366 28.6769 69.196 28.6769H69.2553C70.3488 28.7212 70.875 30.0669 70.875 31.501C70.875 32.935 70.0651 33.9924 69.1212 33.9924" fill="white"/>
<path d="M79.2387 25.2632V33.8703H80.5594V24.2188L78.5943 24.5955C79.2237 24.8059 79.2387 24.9125 79.2387 25.2606" fill="white"/>
<path d="M82.2054 31.5162C82.2054 32.9659 83.4948 33.8413 84.5008 33.8725H84.5755C85.6692 33.8725 86.1198 33.2984 86.4345 32.7996C86.1511 35.6236 84.4695 36.2289 83.2107 36.5147L82.8525 36.5745C83.3916 36.6186 83.8713 36.6498 84.0829 36.6498C85.6869 36.6498 87.7267 36.016 87.7267 30.8953V27.1958H86.5868C84.0387 27.1958 82.2075 28.887 82.2075 31.5136M86.4039 31.1369C86.4039 32.3112 85.7176 33.3945 84.8226 33.4023C83.9718 33.366 83.5104 32.3138 83.5104 31.4253C83.5104 29.1754 84.918 27.6635 86.2387 27.6635H86.4039V31.1369Z" fill="white"/>
<path d="M94.051 25.8375C94.4862 25.8375 94.8146 25.4893 94.8146 25.0659C94.8146 24.6424 94.4844 24.2969 94.051 24.2969C93.5869 24.2969 93.2874 24.645 93.2874 25.0659C93.2874 25.4868 93.5869 25.8375 94.051 25.8375Z" fill="white"/>
<path d="M96.2097 25.8375C96.6576 25.8375 96.9724 25.4893 96.9724 25.0659C96.9724 24.6424 96.6576 24.2969 96.2097 24.2969C95.761 24.2969 95.4461 24.645 95.4461 25.0659C95.4461 25.4868 95.761 25.8375 96.2097 25.8375Z" fill="white"/>
<path d="M103.509 25.0526H102.805C102.251 25.0526 101.877 24.3589 101.877 23.9043C101.877 23.6029 102.057 23.2547 102.312 23.2547C102.387 23.2547 102.509 23.2703 102.567 23.3587C102.449 23.4651 102.343 23.6314 102.343 23.7224C102.343 23.9484 102.553 24.0991 102.839 24.0991C103.125 24.0991 103.334 24.0082 103.334 23.66C103.334 23.208 102.898 22.8599 102.343 22.8599C101.549 22.8599 101.098 23.4185 101.098 24.0835C101.098 24.4603 101.397 24.824 101.667 25.05H100.992L100.811 25.5332H103.509V25.05V25.0526Z" fill="white"/>
<path d="M107.512 35.2603C107.062 35.2603 106.747 35.5928 106.747 36.0163C106.747 36.4397 107.062 36.7878 107.512 36.7878C107.96 36.7878 108.274 36.4397 108.274 36.0163C108.274 35.5928 107.96 35.2603 107.512 35.2603Z" fill="white"/>
<path d="M105.353 35.2603C104.889 35.2603 104.589 35.5928 104.589 36.0163C104.589 36.4397 104.889 36.7878 105.353 36.7878C105.789 36.7878 106.117 36.4397 106.117 36.0163C106.117 35.5928 105.786 35.2603 105.353 35.2603Z" fill="white"/>
<path d="M112.37 35.0811C111.949 35.0811 111.591 35.4292 111.591 35.8656C111.591 36.3021 111.949 36.6502 112.37 36.6502C112.79 36.6502 113.149 36.3177 113.149 35.8656C113.149 35.4136 112.79 35.0811 112.37 35.0811Z" fill="white"/>
<path d="M116.837 25.2637V31.8625C116.837 32.7536 116.491 33.3122 115.654 33.3122H115.174C114.124 33.3122 113.495 31.9379 113.495 30.987V27.1368L111.516 27.5135C112.118 27.724 112.178 27.7863 112.178 28.1188V31.9093C112.178 32.7848 111.846 33.3147 111.052 33.3147H109.794C108.744 33.3147 108.114 31.9404 108.114 30.9896V27.1394L106.137 27.5162C106.737 27.7266 106.797 27.7888 106.797 28.1214V31.9118C106.797 32.7874 106.467 33.3174 105.672 33.3174H104.832C103.782 33.3174 103.153 31.9431 103.153 30.9923V27.142L101.174 27.5187C101.775 27.7291 101.835 27.7916 101.835 28.1241V31.9145C101.835 32.79 101.504 33.32 100.71 33.32H98.6109C97.907 33.2602 97.8319 32.5198 97.8319 32.112V28.1994C97.8319 27.8824 97.8473 27.4902 97.9378 27.0978H97.1868C97.081 27.2044 97.1126 27.2641 97.081 27.3239C97.0222 27.5057 96.9471 27.7005 96.9163 27.7005C96.9163 27.7005 96.8258 27.6408 96.6612 27.5342C96.3156 27.3082 95.7456 26.929 94.8915 26.929C93.0033 26.929 91.8172 28.6359 91.8172 30.3739C91.8172 32.2471 93.0015 33.8785 94.5766 33.8785C95.8514 33.8785 96.5273 32.9563 96.7516 32.3068C96.7516 33.6811 97.5921 33.863 98.6109 33.8785H100.979C101.907 33.8785 102.838 33.6057 103.196 32.6991C103.643 33.3797 104.256 33.8343 104.981 33.8707V33.8785H105.94C106.869 33.8785 107.799 33.6057 108.159 32.6991C108.623 33.4083 109.267 33.8785 110.033 33.8785H111.323C112.252 33.8785 113.183 33.6057 113.541 32.6991C113.987 33.3797 114.601 33.8343 115.325 33.8707V33.8785H115.97C117.245 33.8785 118.161 33.1849 118.161 31.9145V24.2271L116.182 24.6038C116.842 24.8142 116.842 24.9207 116.842 25.2689M96.3879 32.0002C96.1473 32.8003 95.5031 33.359 94.7675 33.359C94.1387 33.359 93.1797 32.6809 93.1797 30.4596C93.1797 28.9035 93.718 27.4537 94.8888 27.4537C96.3879 27.4537 96.5526 28.8878 96.5526 30.1712C96.5526 30.9714 96.5218 31.5455 96.3879 31.9976" fill="white"/>
<path d="M120.152 25.2632V33.8703H121.472V24.2188L119.507 24.5955C120.136 24.8059 120.152 24.9125 120.152 25.2606" fill="white"/>
<path d="M129.821 25.5357C130.256 25.5357 130.584 25.1877 130.584 24.7641C130.584 24.3406 130.253 23.9951 129.821 23.9951C129.388 23.9951 129.056 24.3277 129.056 24.7641C129.056 25.2006 129.371 25.5357 129.821 25.5357Z" fill="white"/>
<path d="M128.711 26.9233C126.718 26.9233 125.546 28.6302 125.546 30.4124C125.546 32.1946 126.715 33.8703 128.711 33.8703C130.708 33.8703 131.876 32.1634 131.876 30.4124C131.876 28.6614 130.692 26.9233 128.711 26.9233ZM128.711 33.3585C127.511 33.3585 126.973 32.3012 126.973 30.4124C126.973 28.5237 127.511 27.4508 128.711 27.4508C129.91 27.4508 130.436 28.4925 130.436 30.4124C130.436 32.3323 129.897 33.3585 128.711 33.3585Z" fill="white"/>
<path d="M127.646 25.5357C128.095 25.5357 128.409 25.1877 128.409 24.7641C128.409 24.3406 128.095 23.9951 127.646 23.9951C127.197 23.9951 126.896 24.3277 126.896 24.7641C126.896 25.2006 127.194 25.5357 127.646 25.5357Z" fill="white"/>
<path d="M135.247 28.1943V32.0315C135.128 34.871 134.048 35.944 131.874 36.5311C132.428 36.5754 132.758 36.5909 132.954 36.5909C136.312 36.5909 136.568 33.6006 136.568 30.8961V27.1343L134.574 27.5109C135.234 27.7241 135.249 27.8279 135.249 28.1916" fill="white"/>
<path d="M139.879 33.8703V24.2188L137.916 24.5955C138.545 24.8059 138.561 24.9125 138.561 25.2606V33.8677H139.881L139.879 33.8703Z" fill="white"/>
<path d="M143.253 28.1185V31.9557C143.133 34.7952 142.054 35.8656 139.879 36.4553C140.434 36.4995 140.764 36.5307 140.96 36.5307C144.318 36.5307 144.574 33.5249 144.574 30.8229V27.0767L142.58 27.4534C143.24 27.6509 143.255 27.7703 143.255 28.1185" fill="white"/>
<path d="M143.823 23.9951C143.402 23.9951 143.044 24.3277 143.044 24.7797C143.044 25.2318 143.402 25.5643 143.823 25.5643C144.243 25.5643 144.586 25.2162 144.586 24.7797C144.586 24.3433 144.228 23.9951 143.823 23.9951Z" fill="white"/>
<path d="M150.598 27.1964C148.05 27.1964 146.218 28.8877 146.218 31.5143C146.218 32.9639 147.508 33.8395 148.514 33.8707H148.589C149.683 33.8707 150.134 33.2965 150.448 32.7976C150.164 35.6217 148.483 36.227 147.225 36.5127L146.865 36.5725C147.405 36.6167 147.885 36.6479 148.096 36.6479C149.7 36.6479 151.74 36.0139 151.74 30.8933V27.1938H150.6L150.598 27.1964ZM150.417 31.1375C150.417 32.3119 149.732 33.3951 148.837 33.4029C147.985 33.3666 147.524 32.3144 147.524 31.4259C147.524 29.176 148.932 27.664 150.252 27.664H150.417V31.1375Z" fill="white"/>
<path d="M1.88468 42.02C1.88468 41.2666 1.7712 41.3003 1.08774 41.1627V40.9834H2.91374L4.50503 45.4545H4.5205L6.08086 40.9834H7.16666V46.434H6.36198V41.6147H6.3465L4.6572 46.434H4.08722L2.40566 41.664H2.39018V46.434H1.88468V42.02Z" fill="white"/>
<path d="M8.45872 43.7196C8.45872 43.1532 8.32978 43.0155 7.83972 43V42.8389L9.2634 42.5792V46.4345H8.45872V43.7221V43.7196ZM8.371 41.4282C8.371 41.1528 8.59542 40.9268 8.8765 40.9268C9.15767 40.9268 9.38977 41.145 9.38977 41.4282C9.38977 41.7114 9.14991 41.9374 8.86875 41.9374C8.58765 41.9374 8.371 41.7114 8.371 41.4282Z" fill="white"/>
<path d="M10.4937 43.7191C10.4937 43.1528 10.3571 43.0152 9.85153 42.9995V42.8385L11.2984 42.5786V43.6152H11.3139C11.4351 43.3321 11.8606 42.5786 12.6551 42.5786C13.3874 42.5786 13.6273 43.0983 13.6273 43.7191V46.4315H12.8226V44.3349C12.8226 43.6958 12.8226 43.1294 12.2836 43.1294C11.7445 43.1294 11.2958 43.8828 11.2958 44.457V46.4341H10.4911V43.7218L10.4937 43.7191Z" fill="white"/>
<path d="M14.8423 43.7196C14.8423 43.1532 14.7133 43.0155 14.2233 43V42.8389L15.6469 42.5792V46.4345H14.8423V43.7221V43.7196ZM14.7546 41.4282C14.7546 41.1528 14.979 40.9268 15.2601 40.9268C15.5413 40.9268 15.7733 41.145 15.7733 41.4282C15.7733 41.7114 15.5335 41.9374 15.2524 41.9374C14.9712 41.9374 14.7546 41.7114 14.7546 41.4282Z" fill="white"/>
<path d="M18.6769 43.3244C18.5557 43.2438 18.1714 42.9346 17.7201 42.9346C17.4622 42.9346 17.1579 43.0308 17.1579 43.3789C17.1579 44.1479 18.9193 44.1635 18.9193 45.4028C18.9193 46.1977 18.2694 46.5199 17.4724 46.5199C16.9824 46.5199 16.6291 46.4238 16.4434 46.3744V45.743C16.6755 45.9067 17.0546 46.1639 17.5034 46.1639C18.009 46.1639 18.1946 45.9041 18.1946 45.621C18.1946 44.826 16.4357 44.7792 16.4357 43.6621C16.4357 43.0801 16.8303 42.5762 17.7768 42.5762C18.1869 42.5762 18.5402 42.6827 18.6769 42.7138V43.3218V43.3244Z" fill="white"/>
<path d="M21.6839 46.4577C21.506 46.4915 21.3229 46.5226 21.1449 46.5226C20.3738 46.5226 19.9224 46.4005 19.9224 45.4783V42.9921H19.2957V42.6672H19.9224V42.0281L20.7271 41.3086V42.6699H21.7794V42.9946H20.7271V45.351C20.7271 45.9174 20.7683 46.1693 21.3874 46.1693C21.4827 46.1693 21.5886 46.1615 21.6839 46.1381V46.4629V46.4577Z" fill="white"/>
<path d="M22.4403 43.7191C22.4403 43.1528 22.3113 43.0152 21.8058 42.9995V42.8385L23.245 42.5786V43.6464H23.2605C23.374 43.2749 23.6215 42.5786 24.2663 42.5786C24.4108 42.5786 24.5629 42.5943 24.6996 42.6202V43.3892C24.5706 43.3476 24.4262 43.2931 24.2895 43.2931C23.4771 43.2931 23.245 43.9322 23.245 44.5011V46.4366H22.4403V43.7244V43.7191Z" fill="white"/>
<path d="M27.0054 46.7406C26.7552 47.3875 26.4741 48.0838 25.5998 48.0838C24.7255 48.0838 24.5141 47.4108 24.483 47.0471H25.4063C25.4063 47.2888 25.4477 47.6472 25.8319 47.6472C26.1852 47.6472 26.3632 47.2342 26.4741 46.9433L26.5799 46.6679L25.2852 43.5581C25.0917 43.0801 24.9808 42.854 24.4238 42.828V42.667H25.7907L26.9796 45.6469L28.1376 42.667H28.5967L27.0054 46.7406Z" fill="white"/>
<path d="M31.3224 44.5532C31.3224 43.1996 31.8846 42.5762 33.0582 42.5762C34.2316 42.5762 34.7938 43.3866 34.7938 44.5532C34.7938 45.873 34.2471 46.5199 33.0582 46.5199C31.7635 46.5199 31.3224 45.6859 31.3224 44.5532ZM33.0582 46.2471C33.8474 46.2471 33.9093 45.3638 33.9093 44.5557C33.9093 43.8102 33.8371 42.8541 33.0582 42.8541C32.2792 42.8541 32.207 43.8414 32.207 44.5557C32.207 45.2261 32.2638 46.2471 33.0582 46.2471Z" fill="white"/>
<path d="M35.8227 42.9918H35.1702V42.667H35.8227V42.1241C35.8227 41.4772 36.1038 40.7627 37.0685 40.7627C38.0975 40.7627 38.4508 41.1264 38.5385 41.7187H37.6385C37.6307 41.4278 37.525 41.0381 37.1252 41.0381C36.6584 41.0381 36.6274 41.5551 36.6274 41.937V42.667H37.6977V42.9918H36.6274V46.4341H35.8227V42.9918Z" fill="white"/>
<path d="M40.7259 42.0849C40.7259 41.2822 40.7027 41.2822 39.9626 41.1627V40.9834H43.8131L43.8363 42.1811H43.6119C43.6119 41.5342 43.2741 41.3627 42.7428 41.3627H42.116C41.7137 41.3627 41.6105 41.3939 41.6105 41.7836V43.3944H42.5829C43.1374 43.3944 43.1941 43.0383 43.2432 42.7708H43.4675V44.4725H43.2432C43.2432 44.036 43.0652 43.7763 42.5829 43.7763H41.6105V45.5818C41.6105 46.0364 41.7137 46.052 42.116 46.052H43.0085C43.4675 46.052 43.6841 45.891 43.7332 45.257H43.9575L43.9318 46.4313H40.7259V42.0824V42.0849Z" fill="white"/>
<path d="M44.9066 43.7191C44.9066 43.1528 44.77 43.0152 44.2645 42.9995V42.8385L45.7113 42.5786V43.6152H45.7268C45.848 43.3321 46.2735 42.5786 47.0705 42.5786C47.8029 42.5786 48.0428 43.0983 48.0428 43.7191V46.4315H47.2381V44.3349C47.2381 43.6958 47.2381 43.1294 46.6991 43.1294C46.16 43.1294 45.7113 43.8828 45.7113 44.457V46.4341H44.9066V43.7218V43.7191Z" fill="white"/>
<path d="M49.167 43.5581C48.9658 43.0151 48.8782 42.8774 48.3314 42.828V42.667H49.6751L50.7996 45.5169L51.8931 42.667H52.3522L50.913 46.4314H50.325L49.167 43.5554V43.5581Z" fill="white"/>
<path d="M53.1153 43.7196C53.1153 43.1532 52.9864 43.0155 52.4964 43V42.8389L53.92 42.5792V46.4345H53.1153V43.7221V43.7196ZM53.0251 41.4282C53.0251 41.1528 53.2494 40.9268 53.5306 40.9268C53.8117 40.9268 54.0438 41.145 54.0438 41.4282C54.0438 41.7114 53.8039 41.9374 53.5228 41.9374C53.2417 41.9374 53.0251 41.7114 53.0251 41.4282Z" fill="white"/>
<path d="M55.0993 43.7191C55.0993 43.1528 54.9704 43.0152 54.4649 42.9995V42.8385L55.904 42.5786V43.6464H55.9196C56.033 43.2749 56.2806 42.5786 56.9254 42.5786C57.0698 42.5786 57.222 42.5943 57.3587 42.6202V43.3892C57.2297 43.3476 57.0852 43.2931 56.9485 43.2931C56.1362 43.2931 55.904 43.9322 55.904 44.5011V46.4366H55.0993V43.7244V43.7191Z" fill="white"/>
<path d="M57.4486 44.5532C57.4486 43.1996 58.0109 42.5762 59.1844 42.5762C60.3578 42.5762 60.9201 43.3866 60.9201 44.5532C60.9201 45.873 60.3734 46.5199 59.1844 46.5199C57.8897 46.5199 57.4486 45.6859 57.4486 44.5532ZM59.1844 46.2471C59.9736 46.2471 60.0354 45.3638 60.0354 44.5557C60.0354 43.8102 59.9633 42.8541 59.1844 42.8541C58.4056 42.8541 58.3333 43.8414 58.3333 44.5557C58.3333 45.2261 58.39 46.2471 59.1844 46.2471Z" fill="white"/>
<path d="M61.83 43.7191C61.83 43.1528 61.6933 43.0152 61.1877 42.9995V42.8385L62.6347 42.5786V43.6152H62.6501C62.7714 43.3321 63.1969 42.5786 63.9938 42.5786C64.7263 42.5786 64.9661 43.0983 64.9661 43.7191V46.4315H64.1615V44.3349C64.1615 43.6958 64.1615 43.1294 63.6225 43.1294C63.0835 43.1294 62.6347 43.8828 62.6347 44.457V46.4341H61.83V43.7218V43.7191Z" fill="white"/>
<path d="M66.099 43.7191C66.099 43.1528 65.97 43.0152 65.48 42.9995V42.8385L66.9191 42.5786V43.5425H66.9347C67.0714 43.2593 67.4427 42.5786 68.1648 42.5786C68.8869 42.5786 69.0984 43.1216 69.1526 43.4853H69.1681C69.3358 43.1684 69.6426 42.5786 70.3673 42.5786C71.3887 42.5786 71.3887 43.5191 71.3887 44.0932V46.4341H70.584V44.2232C70.584 43.7218 70.584 43.1294 70.045 43.1294C69.4337 43.1294 69.1449 43.9789 69.1449 44.5609V46.4315H68.3403V44.3349C68.3403 43.6958 68.3403 43.1294 67.8012 43.1294C67.2622 43.1294 66.9011 43.8828 66.9011 44.457V46.4341H66.0964V43.7218L66.099 43.7191Z" fill="white"/>
<path d="M75.2288 46.3042C75.0764 46.3613 74.6507 46.5223 74.0961 46.5223C72.8665 46.5223 72.126 45.7689 72.126 44.418C72.126 43.1398 72.7369 42.5786 73.8156 42.5786C75.1897 42.5786 75.3036 43.5841 75.3036 44.1245H73.0132C73.0132 44.935 73.3435 46.0833 74.4756 46.0833C74.8131 46.0833 75.0943 46.0028 75.231 45.9456V46.3015L75.2288 46.3042ZM74.499 43.7997C74.499 43.6126 74.4834 42.8515 73.7842 42.8515C73.1805 42.8515 73.0132 43.4905 73.0132 43.7997H74.5012H74.499Z" fill="white"/>
<path d="M76.0983 43.7191C76.0983 43.1528 75.9616 43.0152 75.456 42.9995V42.8385L76.9028 42.5786V43.6152H76.9184C77.0395 43.3321 77.4653 42.5786 78.2591 42.5786C78.9917 42.5786 79.2317 43.0983 79.2317 43.7191V46.4315H78.4271V44.3349C78.4271 43.6958 78.4271 43.1294 77.8881 43.1294C77.3484 43.1294 76.9 43.8828 76.9 44.457V46.4341H76.0954V43.7218L76.0983 43.7191Z" fill="white"/>
<path d="M82.273 46.4577C82.095 46.4915 81.9121 46.5226 81.734 46.5226C80.963 46.5226 80.5116 46.4005 80.5116 45.4783V42.9921H79.8843V42.6672H80.5116V42.0281L81.3161 41.3086V42.6699H82.3684V42.9946H81.3161V45.351C81.3161 45.9174 81.3574 46.1693 81.9761 46.1693C82.0716 46.1693 82.1776 46.1615 82.273 46.1381V46.4629V46.4577Z" fill="white"/>
<path d="M85.9007 42.02C85.7334 41.2822 85.6586 41.29 84.993 41.1627V40.9834H86.4475L87.5105 45.3974H87.5254L88.7949 40.9834H89.3488L90.7962 45.3974H90.8112L91.6959 40.9834H92.2198L91.0875 46.434H90.3242L88.9259 42.1187H88.9109L87.6728 46.434H86.9245L85.9036 42.02H85.9007Z" fill="white"/>
<path d="M94.6391 45.9534C94.4943 46.1248 94.2211 46.5198 93.6023 46.5198C92.9834 46.5198 92.5238 46.0651 92.5238 45.5897C92.5238 44.4492 94.1234 44.3582 94.6391 44.3427V43.9296C94.6391 43.4204 94.6391 42.854 94.1315 42.854C93.6231 42.854 93.5688 43.3243 93.5688 43.6802H92.6116C92.6993 43.145 92.9653 42.5786 94.1234 42.5786C95.2815 42.5786 95.4416 43.171 95.4416 43.9712V46.4315H94.6364V45.9534H94.6391ZM94.6391 44.6336C94.3496 44.6414 93.4086 44.683 93.4086 45.452C93.4086 45.8235 93.5941 46.0833 93.8909 46.0833C94.3577 46.0833 94.6391 45.6547 94.6391 45.1038V44.6336Z" fill="white"/>
<path d="M98.4254 46.4577C98.2472 46.4915 98.0644 46.5226 97.8862 46.5226C97.1153 46.5226 96.6639 46.4005 96.6639 45.4783V42.9921H96.036V42.6672H96.6639V42.0281L97.4682 41.3086V42.6699H98.5204V42.9946H97.4682V45.351C97.4682 45.9174 97.5089 46.1693 98.1277 46.1693C98.2237 46.1693 98.3295 46.1615 98.4254 46.1381V46.4629V46.4577Z" fill="white"/>
<path d="M101.922 46.3042C101.77 46.3613 101.344 46.5223 100.79 46.5223C99.5599 46.5223 98.819 45.7689 98.819 44.418C98.819 43.1398 99.4306 42.5786 100.509 42.5786C101.883 42.5786 101.997 43.5841 101.997 44.1245H99.7065C99.7065 44.935 100.037 46.0833 101.169 46.0833C101.507 46.0833 101.787 46.0028 101.924 45.9456V46.3015L101.922 46.3042ZM101.189 43.7997C101.189 43.6126 101.174 42.8515 100.476 42.8515C99.8721 42.8515 99.7047 43.4905 99.7047 43.7997H101.192H101.189Z" fill="white"/>
<path d="M102.743 43.7191C102.743 43.1528 102.614 43.0152 102.109 42.9995V42.8385L103.548 42.5786V43.6464H103.563C103.677 43.2749 103.924 42.5786 104.57 42.5786C104.713 42.5786 104.865 42.5943 105.002 42.6202V43.3892C104.874 43.3476 104.729 43.2931 104.592 43.2931C103.78 43.2931 103.548 43.9322 103.548 44.5011V46.4366H102.743V43.7244V43.7191Z" fill="white"/>
<path d="M117.129 42.02C117.178 41.8823 117.266 41.5992 117.266 41.542C117.266 41.2172 116.969 41.2094 116.646 41.1627V40.9834H118.158L120.12 46.434H119.285L118.681 44.7505H116.632L116.027 46.434H115.53L117.129 42.02ZM116.768 44.3685H118.544L117.629 42.0044L116.77 44.3685H116.768Z" fill="white"/>
<path d="M123.648 46.5536C123.648 47.3876 123.496 48.1566 122.088 48.1566C121.1 48.1566 120.409 47.9279 120.409 47.0239H121.317C121.317 47.3642 121.419 47.8812 122.065 47.8812C122.844 47.8812 122.844 47.2577 122.844 46.8134V45.8652H122.828C122.683 46.1068 122.467 46.4316 121.815 46.4316C120.801 46.4316 120.402 45.582 120.402 44.6337C120.402 43.5893 120.716 42.5762 121.825 42.5762C122.403 42.5762 122.692 42.9164 122.831 43.1347H122.846V42.6645H124.286V42.8255C124.028 42.8255 123.651 42.8671 123.651 43.3997V46.5484L123.648 46.5536ZM122.844 44.0362C122.844 43.5244 122.586 43.0152 122.088 43.0152C121.355 43.0152 121.283 43.9297 121.283 44.522C121.283 45.1143 121.363 45.9951 122.024 45.9951C122.715 45.9951 122.844 45.2832 122.844 44.8363V44.0336V44.0362Z" fill="white"/>
<path d="M124.879 43.7191C124.879 43.1528 124.751 43.0152 124.245 42.9995V42.8385L125.684 42.5786V43.6464H125.7C125.813 43.2749 126.061 42.5786 126.706 42.5786C126.85 42.5786 127.002 42.5943 127.138 42.6202V43.3892C127.01 43.3476 126.865 43.2931 126.728 43.2931C125.916 43.2931 125.684 43.9322 125.684 44.5011V46.4366H124.879V43.7244V43.7191Z" fill="white"/>
<path d="M127.788 43.7196C127.788 43.1532 127.659 43.0155 127.169 43V42.8389L128.593 42.5792V46.4345H127.788V43.7221V43.7196ZM127.701 41.4282C127.701 41.1528 127.925 40.9268 128.206 40.9268C128.487 40.9268 128.72 41.145 128.72 41.4282C128.72 41.7114 128.479 41.9374 128.199 41.9374C127.917 41.9374 127.701 41.7114 127.701 41.4282Z" fill="white"/>
<path d="M132.347 46.3275C132.059 46.4315 131.873 46.5223 131.208 46.5223C130.083 46.5223 129.416 45.7196 129.416 44.4986C129.416 43.3892 129.864 42.5786 131.014 42.5786C131.906 42.5786 132.494 43.0332 132.494 43.688H131.545C131.545 43.3554 131.466 42.854 130.967 42.854C130.421 42.854 130.3 43.4541 130.3 44.2309C130.3 45.4286 130.847 46.0859 131.579 46.0859C131.829 46.0859 132.157 46.0365 132.351 45.9716V46.3275H132.347Z" fill="white"/>
<path d="M135.425 45.517H135.41C135.273 45.8729 134.943 46.5199 134.164 46.5199C133.086 46.5199 133.086 45.4676 133.086 44.8675V43.7166C133.086 43.1502 132.957 43.0126 132.466 42.997V42.8359L133.89 42.5762V45.013C133.89 45.7508 134.164 45.9691 134.55 45.9691C135.075 45.9691 135.428 45.2806 135.428 44.6078V43.7166C135.428 43.1502 135.291 43.0126 134.809 42.997V42.8359L136.232 42.5762V46.4316H135.428V45.517H135.425Z" fill="white"/>
<path d="M137.29 41.8643C137.29 41.2901 137.153 41.1524 136.678 41.1264V40.9654L138.092 40.7627V46.4315H137.287V41.8643H137.29Z" fill="white"/>
<path d="M141.189 46.4577C141.012 46.4915 140.828 46.5226 140.651 46.5226C139.879 46.5226 139.427 46.4005 139.427 45.4783V42.9921H138.801V42.6672H139.427V42.0281L140.233 41.3086V42.6699H141.285V42.9946H140.233V45.351C140.233 45.9174 140.273 46.1693 140.893 46.1693C140.988 46.1693 141.094 46.1615 141.189 46.1381V46.4629V46.4577Z" fill="white"/>
<path d="M144.333 45.517H144.318C144.181 45.8729 143.852 46.5199 143.073 46.5199C141.993 46.5199 141.993 45.4676 141.993 44.8675V43.7166C141.993 43.1502 141.865 43.0126 141.375 42.997V42.8359L142.799 42.5762V45.013C142.799 45.7508 143.073 45.9691 143.459 45.9691C143.982 45.9691 144.337 45.2806 144.337 44.6078V43.7166C144.337 43.1502 144.199 43.0126 143.717 42.997V42.8359L145.141 42.5762V46.4316H144.337V45.517H144.333Z" fill="white"/>
<path d="M146.252 43.7191C146.252 43.1528 146.123 43.0152 145.618 42.9995V42.8385L147.056 42.5786V43.6464H147.073C147.187 43.2749 147.433 42.5786 148.079 42.5786C148.222 42.5786 148.374 42.5943 148.511 42.6202V43.3892C148.383 43.3476 148.238 43.2931 148.101 43.2931C147.289 43.2931 147.056 43.9322 147.056 44.5011V46.4366H146.252V43.7244V43.7191Z" fill="white"/>
<path d="M151.665 46.3042C151.513 46.3613 151.087 46.5223 150.532 46.5223C149.303 46.5223 148.563 45.7689 148.563 44.418C148.563 43.1398 149.173 42.5786 150.252 42.5786C151.626 42.5786 151.74 43.5841 151.74 44.1245H149.449C149.449 44.935 149.78 46.0833 150.912 46.0833C151.25 46.0833 151.531 46.0028 151.668 45.9456V46.3015L151.665 46.3042ZM150.933 43.7997C150.933 43.6126 150.917 42.8515 150.218 42.8515C149.615 42.8515 149.447 43.4905 149.447 43.7997H150.935H150.933Z" fill="white"/>
<path d="M112.765 45.5252C112.765 45.5252 112.734 45.5302 112.654 45.616C112.535 45.7381 112.432 45.8264 112.339 45.881C112.203 45.9537 111.983 45.9408 111.753 45.7926C111.625 45.7095 111.485 45.5822 111.341 45.4186L111.237 45.3017C111.173 45.2393 111.137 45.1847 111.124 45.1328L111.117 45.0965L111.14 45.0678C111.467 44.6469 111.702 44.3612 111.839 44.221C112.061 43.9846 112.213 43.8364 112.306 43.7714C112.388 43.7143 112.518 43.6416 112.695 43.5558L112.7 43.5247C112.708 43.4883 112.713 43.4518 112.713 43.4155C112.713 43.4077 112.713 43.3974 112.713 43.3895C112.625 43.3974 112.567 43.4025 112.54 43.4025H112.341L112.055 43.4181C111.798 43.4337 111.586 43.4493 111.411 43.4701C111.392 43.4701 111.346 43.4779 111.237 43.5012L111.23 43.6363C111.323 43.6779 111.392 43.7247 111.438 43.7792C111.495 43.8494 111.524 43.9221 111.524 43.9923C111.524 44.0728 111.485 44.1845 111.403 44.3351C111.3 44.5222 111.168 44.6963 111.009 44.8548L110.952 44.9094L110.897 44.8522C110.857 44.8081 110.812 44.7535 110.763 44.6885L110.309 44.1299C110.206 44.0027 110.118 43.9039 110.054 43.839C109.87 43.6623 109.755 43.5377 109.7 43.4649L109.667 43.4181L109.704 43.3714C109.729 43.3376 109.767 43.3116 109.817 43.296C109.912 43.2623 110.041 43.1895 110.195 43.083C110.348 42.979 110.449 42.8803 110.492 42.792C110.549 42.67 110.58 42.5374 110.58 42.4023C110.58 42.1763 110.479 41.9762 110.276 41.7944C110.072 41.6125 109.788 41.519 109.435 41.519C109.175 41.519 109.082 41.5346 109.051 41.545C109.028 41.5528 108.988 41.5657 108.939 41.5788C108.656 41.6541 108.434 41.784 108.283 41.9684C108.13 42.1529 108.058 42.3529 108.058 42.579C108.058 42.6854 108.076 42.7895 108.113 42.8959C108.148 43.0025 108.192 43.0908 108.241 43.161C108.295 43.2362 108.417 43.3844 108.602 43.6L108.661 43.6701L108.584 43.7195C108.54 43.7454 108.474 43.7766 108.365 43.8208C108.192 43.8935 108.001 44.0027 107.799 44.1481C107.601 44.2885 107.449 44.4573 107.346 44.6522C107.243 44.8444 107.191 45.0522 107.191 45.2678C107.191 45.6212 107.317 45.9148 107.562 46.1408C107.812 46.3695 108.205 46.4864 108.728 46.4864C109.337 46.4864 109.908 46.2733 110.422 45.8498L110.475 45.8082L110.524 45.8524C110.79 46.0941 111.034 46.2681 111.256 46.3695C111.421 46.4447 111.604 46.4837 111.798 46.4837C112.014 46.4837 112.187 46.4499 112.311 46.3798C112.499 46.2759 112.643 46.1434 112.738 45.9927C112.832 45.842 112.881 45.7199 112.881 45.6316C112.881 45.6031 112.871 45.5796 112.85 45.5589C112.826 45.5355 112.801 45.5252 112.77 45.5252M108.945 41.8723C109.059 41.7788 109.193 41.7295 109.342 41.7295C109.484 41.7295 109.605 41.7607 109.708 41.8229C109.817 41.8879 109.884 41.958 109.908 42.036C109.958 42.2153 109.984 42.3504 109.984 42.4439C109.984 42.6335 109.954 42.7764 109.894 42.8777C109.807 43.018 109.675 43.1271 109.499 43.2051L109.456 43.2259L109.42 43.1947C109.157 42.9765 108.981 42.7945 108.883 42.6388C108.803 42.514 108.765 42.3919 108.765 42.2724C108.765 42.1035 108.824 41.9711 108.942 41.8723M110.231 45.642C109.969 45.8914 109.672 46.0187 109.347 46.0187C109.169 46.0187 108.999 45.9745 108.842 45.8861C108.687 45.8005 108.556 45.7018 108.455 45.59C108.351 45.4783 108.256 45.3225 108.169 45.125C108.12 45.0107 108.094 44.8886 108.094 44.7587C108.094 44.5586 108.159 44.3768 108.283 44.221C108.407 44.0702 108.571 43.9507 108.775 43.8676L108.824 43.8468L108.86 43.8884C109.11 44.1612 109.36 44.447 109.597 44.7378L110.067 45.3068C110.095 45.3458 110.124 45.3796 110.155 45.4133C110.193 45.4549 110.224 45.4991 110.248 45.5459L110.276 45.5978L110.231 45.6393V45.642Z" fill="white"/>
<path d="M206.463 35.5126C206.463 48.4972 196.013 59.0243 183.122 59.0243C170.232 59.0243 159.784 48.4972 159.784 35.5126C159.784 22.5279 170.235 12.001 183.126 12.001C196.016 12.001 206.466 22.5279 206.466 35.5126" fill="#008034"/>
<path d="M206.463 35.5126C206.463 48.4972 196.013 59.0243 183.122 59.0243C170.232 59.0243 159.784 48.4972 159.784 35.5126C159.784 22.5279 170.235 12.001 183.126 12.001C196.016 12.001 206.466 22.5279 206.466 35.5126" fill="url(#paint0_radial_2346_39290)"/>
<path d="M183.126 60.8477C169.258 60.8477 157.974 49.4842 157.974 35.5149C157.974 21.5456 169.258 10.1821 183.126 10.1821C196.994 10.1821 208.274 21.5456 208.274 35.5149C208.274 49.4842 196.994 60.8477 183.126 60.8477ZM183.126 11.6448C170.06 11.6448 159.434 22.3536 159.434 35.5149C159.434 48.6762 170.06 59.385 183.126 59.385C196.191 59.385 206.815 48.6762 206.815 35.5149C206.815 22.3536 196.188 11.6448 183.126 11.6448Z" fill="url(#paint1_linear_2346_39290)"/>
<path d="M197 45.5327C197.06 45.5664 197.168 45.6314 197.139 45.7353C197.122 45.8002 197.065 45.8341 196.966 45.8341C196.928 45.8341 196.892 45.8288 196.879 45.8262C196.324 45.6833 195.731 45.6132 195.114 45.6132C191.946 45.6132 187.849 48.0189 184.569 50.4142C185.222 50.9573 185.923 51.5782 186.599 52.2147C186.697 52.1289 186.73 52.1056 186.823 52.0277C187.115 51.7834 187.393 51.6146 187.672 51.5132C187.839 51.4509 188.007 51.4379 188.17 51.4717C188.484 51.5366 188.691 51.8483 188.657 52.2147C188.628 52.529 188.414 52.7706 188.157 52.781C187.952 52.7863 187.772 52.685 187.669 52.5056C187.543 52.6096 187.424 52.7082 187.315 52.8122C187.264 52.8616 187.215 52.9109 187.166 52.9603L187.37 53.1396C187.53 53.2798 187.685 53.4175 187.842 53.55C188.151 53.8098 188.489 54.0722 188.868 54.241C188.987 54.293 189.142 54.3554 189.289 54.3424C189.361 54.3372 189.439 54.3139 189.52 54.2904L189.577 54.2748C189.577 54.2748 189.594 54.2697 189.601 54.2645C189.647 54.2437 189.694 54.2203 189.75 54.2099C189.771 54.2073 189.794 54.2021 189.821 54.2021C189.938 54.2021 190.04 54.2618 190.098 54.3658C190.163 54.4749 190.182 54.6463 190.148 54.7867C190.119 54.9009 190.058 54.9815 189.998 55.0517C189.75 55.3322 189.452 55.4933 189.109 55.5296C189.046 55.5374 188.982 55.54 188.918 55.54C188.853 55.54 188.788 55.5374 188.721 55.5296C188.461 55.5037 188.188 55.4205 187.885 55.2803C187.435 55.0699 186.988 54.784 186.48 54.3788L186.064 54.0436C185.928 54.1761 185.786 54.3086 185.642 54.4385C185.472 54.5918 185.26 54.7632 184.995 54.8542C184.922 54.8801 184.845 54.8932 184.762 54.8932C184.732 54.8932 184.703 54.8932 184.672 54.8879C184.637 54.8854 184.6 54.8801 184.564 54.8698C184.337 54.8257 184.156 54.6152 184.113 54.3501C184.069 54.0696 184.172 53.7916 184.373 53.6566C184.569 53.5266 184.811 53.5526 184.995 53.7267C185.02 53.75 185.041 53.776 185.062 53.8019C185.169 53.6928 185.276 53.5787 185.381 53.459C184.695 52.8356 183.813 52.1939 183.013 51.5574C182.222 52.1939 181.389 52.8356 180.703 53.459C180.809 53.5787 180.914 53.6928 181.023 53.8019C181.044 53.7734 181.066 53.7475 181.09 53.7267C181.273 53.5552 181.518 53.5266 181.712 53.6566C181.911 53.789 182.015 54.067 181.972 54.3501C181.931 54.6152 181.747 54.823 181.521 54.8698C181.484 54.8776 181.448 54.8828 181.413 54.8879C181.381 54.8905 181.351 54.8932 181.322 54.8932C181.239 54.8932 181.165 54.8801 181.09 54.8542C180.825 54.7632 180.613 54.5944 180.443 54.4385C180.298 54.3086 180.156 54.1761 180.02 54.0436L179.604 54.3788C179.099 54.7814 178.65 55.0699 178.198 55.2803C177.894 55.4205 177.621 55.5037 177.362 55.5296C177.296 55.5374 177.232 55.54 177.167 55.54C177.102 55.54 177.039 55.5374 176.976 55.5296C176.633 55.4933 176.331 55.3322 176.087 55.0517C176.027 54.9815 175.965 54.9036 175.937 54.7867C175.9 54.6463 175.921 54.4774 175.983 54.3658C176.042 54.2593 176.143 54.2021 176.262 54.2021C176.288 54.2021 176.31 54.2047 176.331 54.2099C176.388 54.2203 176.437 54.2437 176.48 54.2645C176.488 54.2671 176.497 54.2722 176.504 54.2748L176.561 54.2904C176.644 54.3139 176.724 54.3346 176.793 54.3424C176.94 54.3554 177.097 54.293 177.213 54.241C177.593 54.0722 177.933 53.8098 178.24 53.55C178.397 53.4175 178.555 53.2798 178.712 53.1396L178.916 52.9603C178.867 52.9109 178.817 52.8616 178.767 52.8122C178.658 52.7082 178.539 52.607 178.413 52.5056C178.307 52.6875 178.129 52.7863 177.925 52.781C177.67 52.7706 177.453 52.529 177.425 52.2147C177.391 51.8483 177.598 51.5366 177.912 51.4717C178.074 51.4379 178.243 51.4509 178.41 51.5132C178.689 51.6172 178.967 51.7834 179.259 52.0277C179.351 52.1056 179.384 52.1289 179.483 52.2147C180.18 51.56 180.858 50.965 181.521 50.4195C178.24 48.0215 174.142 45.6132 170.969 45.6132C170.353 45.6132 169.76 45.6859 169.205 45.8262C169.193 45.8288 169.156 45.8341 169.117 45.8341C169.022 45.8341 168.963 45.8002 168.945 45.7353C168.917 45.6314 169.028 45.5664 169.084 45.5327C169.282 45.4158 170.384 44.9819 172.119 44.9819C174.565 44.9819 178.255 45.6911 182.944 49.1517L183.04 49.227L183.06 49.2114C187.749 45.7483 191.499 44.9819 193.945 44.9819C195.68 44.9819 196.782 45.4158 196.979 45.5327M184.425 44.0466C184.141 44.522 183.749 45.821 183.749 45.8392C184.164 45.5016 185.409 45.2469 185.944 45.1326C189.764 44.3038 190.001 40.8173 190.117 40.1341C190.016 40.329 189.746 40.7394 187.409 40.8459C186.186 40.9031 184.156 41.0538 183.101 43.0724C183.284 43.4439 183.429 43.8596 183.537 44.3168C184.848 41.1655 188.085 41.5968 188.634 41.4798C188.086 41.7188 185.743 41.8357 184.422 44.0466M182.985 47.7384L183.561 47.4525C183.421 41.272 180.097 40.9213 178.49 40.8459C176.153 40.7394 175.882 40.3263 175.785 40.1341C175.899 40.8173 176.138 44.3038 179.958 45.1326C180.502 45.2521 181.312 45.3638 181.701 45.712C181.256 41.6721 177.936 41.7734 177.267 41.4798C177.897 41.6123 182.627 40.6069 182.408 47.4525L182.985 47.7384ZM181.046 29.9345C180.942 28.1652 182.952 25.0217 182.952 25.0217C182.952 25.0217 184.878 28.2431 184.858 29.9345C184.842 31.1555 184.004 32.1454 182.952 32.1454C181.9 32.1454 181.119 31.1529 181.046 29.9345ZM183.78 31.3841C183.692 31.3997 183.599 31.4101 183.509 31.4101C182.511 31.4101 181.703 30.4722 181.703 29.3162C181.703 29.1499 181.742 28.9369 181.804 28.6926C181.608 29.2122 181.466 29.6877 181.466 29.9812C181.466 30.9243 182.127 31.6908 182.939 31.6908C183.25 31.6908 183.543 31.5764 183.78 31.3841ZM177.713 36.4683C177.713 39.9911 182.686 41.1161 182.686 41.1161V40.0224C182.686 36.367 177.713 35.3746 177.713 35.3746V36.4683ZM183.2 40.025V41.1187C183.2 41.1187 188.172 39.9939 188.172 36.471V35.3772C188.172 35.3772 183.2 36.3696 183.2 40.025ZM178.967 32.5038C178.967 35.3694 182.748 36.2839 182.748 36.2839V35.3954C182.748 32.4233 178.967 31.6154 178.967 31.6154V32.5038ZM183.137 35.3954V36.2839C183.137 36.2839 186.918 35.3694 186.918 32.5038V31.6154C186.918 31.6154 183.137 32.4207 183.137 35.3928M169.724 26.4038C173.007 23.081 175.117 22.4912 177.744 22.0756C175.054 23.7954 172.543 27.7938 173.325 30.6099C174.746 27.6223 177.224 24.7047 179.511 23.6396C178.219 25.466 178.175 27.7418 179.422 29.6824C179.71 27.1624 181.464 24.7412 182.929 23.1174C184.394 24.7385 186.147 27.1624 186.433 29.6824C187.679 27.7392 187.638 25.466 186.344 23.6396C188.631 24.7022 191.11 27.6223 192.53 30.6099C193.315 27.7938 190.8 23.7954 188.113 22.0756C190.738 22.4887 192.848 23.081 196.131 26.4038C195.047 21.9587 191.231 20.4181 188.18 19.8699C191.538 19.579 192.203 19.9245 195.17 21.1611C191.95 17.9734 189.694 17.3992 186.47 17.7084C187.021 17.2226 187.551 16.9602 188.363 16.7446C187.011 16.2094 184.894 16.49 184.071 17.285C184.071 17.285 183.909 15.8249 182.939 15.2352V15.2222C182.939 15.2222 182.931 15.2274 182.929 15.23C182.927 15.2274 182.921 15.2248 182.918 15.2222V15.2352C181.949 15.8249 181.787 17.285 181.787 17.285C180.963 16.49 178.846 16.2094 177.494 16.7446C178.307 16.9602 178.836 17.2226 179.388 17.7084C176.164 17.3992 173.907 17.9734 170.689 21.1611C173.654 19.9245 174.32 19.5816 177.677 19.8699C174.626 20.4181 170.812 21.9587 169.726 26.4038" fill="url(#paint2_linear_2346_39290)"/>
</g>
</g>
</g>
<defs>
<radialGradient id="paint0_radial_2346_39290" cx="0" cy="0" r="1" gradientUnits="userSpaceOnUse" gradientTransform="translate(181.912 34.1113) scale(25.5304 24.6886)">
<stop stop-opacity="0"/>
<stop offset="0.12" stop-opacity="0"/>
<stop offset="0.15" stop-opacity="0"/>
<stop offset="0.87" stop-opacity="0.2916"/>
<stop offset="1"/>
</radialGradient>
<linearGradient id="paint1_linear_2346_39290" x1="163.514" y1="46.0134" x2="208.066" y2="22.5086" gradientUnits="userSpaceOnUse">
<stop stop-color="#C68D00"/>
<stop offset="0.25" stop-color="#FFD740"/>
<stop offset="0.34" stop-color="#F4C833"/>
<stop offset="0.51" stop-color="#D7A313"/>
<stop offset="0.6" stop-color="#C68D00"/>
<stop offset="1" stop-color="#FFD740"/>
</linearGradient>
<linearGradient id="paint2_linear_2346_39290" x1="176.115" y1="16.7784" x2="190.293" y2="55.9237" gradientUnits="userSpaceOnUse">
<stop stop-color="#C68D00"/>
<stop offset="0.05" stop-color="#D2A32A"/>
<stop offset="0.1" stop-color="#DFB955"/>
<stop offset="0.16" stop-color="#EACC78"/>
<stop offset="0.22" stop-color="#F2DA94"/>
<stop offset="0.27" stop-color="#F8E4A8"/>
<stop offset="0.33" stop-color="#FBEAB4"/>
<stop offset="0.39" stop-color="#FDEDB8"/>
<stop offset="0.58" stop-color="#FDEDB8"/>
<stop offset="0.65" stop-color="#F5E09F"/>
<stop offset="0.79" stop-color="#E3C061"/>
<stop offset="1" stop-color="#C68D00"/>
</linearGradient>
<clipPath id="clip0_2346_39290">
<rect width="208.091" height="51.5703" fill="white" transform="translate(0.635376 9.72998)"/>
</clipPath>
</defs>
</svg>
