<?xml version="1.0" encoding="UTF-8"?>
<svg id="Layer_2" data-name="Layer 2" xmlns="http://www.w3.org/2000/svg" xmlns:xlink="http://www.w3.org/1999/xlink" viewBox="0 0 164.57 164.56">
  <defs>
    <style>
      .cls-1 {
        fill: url(#linear-gradient-2);
      }

      .cls-2 {
        fill: url(#radial-gradient);
      }

      .cls-3 {
        fill: #0b8041;
      }

      .cls-4 {
        fill: url(#linear-gradient);
      }
    </style>
    <radialGradient id="radial-gradient" cx="78.32" cy="77.92" fx="71.73" fy="77.92" r="83.53" gradientTransform="translate(0 2.92) scale(1 .96)" gradientUnits="userSpaceOnUse">
      <stop offset="0" stop-color="#000" stop-opacity="0"/>
      <stop offset=".12" stop-color="#000" stop-opacity="0"/>
      <stop offset=".15" stop-color="#000" stop-opacity="0"/>
      <stop offset=".87" stop-color="#000" stop-opacity=".54"/>
      <stop offset="1" stop-color="#000"/>
    </radialGradient>
    <linearGradient id="linear-gradient" x1="18.12" y1="116.38" x2="163.43" y2="39.16" gradientUnits="userSpaceOnUse">
      <stop offset="0" stop-color="#c18b2c"/>
      <stop offset=".25" stop-color="#ffd440"/>
      <stop offset=".34" stop-color="#f2c53c"/>
      <stop offset=".51" stop-color="#d3a031"/>
      <stop offset=".6" stop-color="#c18b2c"/>
      <stop offset="1" stop-color="#ffd440"/>
    </linearGradient>
    <linearGradient id="linear-gradient-2" x1="59.36" y1="21.42" x2="105.15" y2="148.78" gradientUnits="userSpaceOnUse">
      <stop offset="0" stop-color="#c18b2c"/>
      <stop offset=".06" stop-color="#d0a450"/>
      <stop offset=".12" stop-color="#debd73"/>
      <stop offset=".19" stop-color="#ead08f"/>
      <stop offset=".26" stop-color="#f2dea3"/>
      <stop offset=".32" stop-color="#f7e6af"/>
      <stop offset=".39" stop-color="#f9e9b3"/>
      <stop offset=".58" stop-color="#f9e9b3"/>
      <stop offset=".67" stop-color="#efd89a"/>
      <stop offset=".86" stop-color="#d5ad5d"/>
      <stop offset="1" stop-color="#c18b2c"/>
    </linearGradient>
  </defs>
  <g id="Layer_1-2" data-name="Layer 1">
    <g>
      <path class="cls-3" d="M158.65,82.27c0,42.18-34.19,76.36-76.36,76.36S5.92,124.45,5.92,82.27,40.11,5.91,82.29,5.91s76.36,34.19,76.36,76.36"/>
      <path class="cls-2" d="M158.65,82.27c0,42.18-34.19,76.36-76.36,76.36S5.92,124.45,5.92,82.27,40.11,5.91,82.29,5.91s76.36,34.19,76.36,76.36"/>
      <path class="cls-4" d="M82.29,164.56C36.92,164.56,0,127.65,0,82.28S36.92,0,82.29,0s82.28,36.91,82.28,82.28-36.91,82.28-82.28,82.28ZM82.29,4.75C39.54,4.75,4.77,39.53,4.77,82.28s34.77,77.53,77.52,77.53,77.51-34.78,77.51-77.53S125.03,4.75,82.29,4.75Z"/>
      <path class="cls-1" d="M127.69,114.82c.19.11.55.32.46.66-.06.21-.25.32-.56.32-.13,0-.25-.02-.29-.02-1.82-.46-3.76-.7-5.77-.7-10.37,0-23.77,7.81-34.5,15.6,2.14,1.76,4.43,3.78,6.64,5.84.32-.28.43-.35.74-.61.96-.79,1.87-1.34,2.78-1.67.55-.2,1.1-.24,1.63-.13,1.03.21,1.71,1.22,1.6,2.41-.09,1.02-.8,1.81-1.64,1.84-.67.02-1.25-.31-1.6-.9-.41.34-.8.66-1.16,1-.17.16-.33.32-.49.48l.67.58c.52.46,1.03.9,1.55,1.33,1.01.84,2.12,1.7,3.36,2.25.38.17.9.37,1.38.33.23-.02.49-.09.76-.17l.19-.05s.05-.02.07-.03c.15-.07.3-.15.49-.18.07-.01.15-.02.23-.02.39,0,.72.19.91.54.21.36.27.91.16,1.36-.1.37-.29.63-.49.86-.81.91-1.79,1.43-2.91,1.55-.21.02-.41.03-.62.03s-.42-.01-.64-.03c-.85-.09-1.75-.35-2.74-.81-1.48-.68-2.94-1.61-4.6-2.92l-1.36-1.09c-.45.43-.91.86-1.38,1.28-.56.5-1.25,1.05-2.12,1.35-.24.08-.49.12-.76.12-.1,0-.2,0-.3-.02-.12-.01-.23-.03-.35-.06-.74-.15-1.34-.83-1.47-1.69-.14-.91.2-1.82.85-2.25.64-.42,1.44-.33,2.04.23.08.07.15.16.22.25.36-.35.7-.73,1.04-1.11-2.24-2.02-5.13-4.11-7.75-6.17-2.59,2.06-5.32,4.15-7.56,6.17.35.38.69.76,1.04,1.11.07-.09.14-.17.22-.25.6-.56,1.4-.65,2.04-.23.65.43,1,1.34.85,2.25-.14.86-.73,1.54-1.47,1.69-.12.03-.23.04-.35.06-.1.01-.2.02-.3.02-.27,0-.52-.04-.76-.12-.87-.29-1.56-.85-2.12-1.35-.47-.42-.93-.85-1.38-1.28l-1.36,1.09c-1.66,1.31-3.12,2.24-4.6,2.92-.99.46-1.89.72-2.74.81-.22.02-.43.03-.64.03s-.42-.01-.63-.03c-1.13-.12-2.11-.64-2.91-1.55-.2-.23-.4-.49-.49-.86-.12-.46-.05-1.01.15-1.36.2-.35.52-.54.91-.54.08,0,.16,0,.23.02.19.03.35.11.49.18.02.01.05.03.07.03l.19.05c.27.07.53.14.76.17.48.04.99-.16,1.38-.33,1.24-.55,2.35-1.4,3.36-2.25.52-.43,1.03-.88,1.55-1.33l.67-.58c-.16-.16-.32-.32-.49-.48-.36-.34-.75-.66-1.16-1-.34.59-.93.91-1.6.9-.84-.03-1.54-.82-1.64-1.84-.11-1.19.56-2.2,1.6-2.41.53-.11,1.08-.07,1.63.13.91.33,1.82.88,2.78,1.67.3.25.41.33.73.61,2.28-2.13,4.5-4.05,6.67-5.83-10.73-7.79-24.15-15.61-34.53-15.61-2.02,0-3.96.23-5.77.7-.04,0-.16.02-.29.02-.32,0-.51-.11-.56-.32-.09-.34.27-.55.46-.66.65-.38,4.25-1.79,9.93-1.79,8,0,20.07,2.3,35.41,13.54l.32.24.07-.05c15.34-11.24,27.61-13.74,35.61-13.74,5.68,0,9.28,1.41,9.93,1.79M86.54,109.99c-.93,1.54-2.21,5.76-2.21,5.82,1.36-1.1,5.43-1.92,7.19-2.3,12.49-2.7,13.28-14.02,13.65-16.24-.33.63-1.21,1.96-8.86,2.31-4,.18-10.64.67-14.09,7.23.6,1.21,1.07,2.56,1.43,4.04,4.29-10.23,14.87-8.83,16.67-9.21-1.79.78-9.46,1.16-13.78,8.34M81.84,121.98l1.88-.93c-.46-20.07-11.33-21.22-16.59-21.46-7.65-.35-8.53-1.68-8.86-2.31.37,2.22,1.16,13.54,13.65,16.23,1.78.39,4.43.75,5.71,1.88-1.46-13.12-12.32-12.79-14.5-13.75,2.06.43,17.53-2.84,16.82,19.4l1.89.93ZM75.49,64.15c-.34-5.75,6.24-15.95,6.24-15.95,0,0,6.31,10.46,6.24,15.95-.05,3.97-2.79,7.18-6.24,7.18s-6-3.22-6.24-7.18M84.44,68.86c-.29.05-.59.09-.89.09-3.26,0-5.91-3.04-5.91-6.8,0-.54.12-1.23.33-2.02-.64,1.68-1.1,3.23-1.1,4.18,0,3.07,2.16,5.55,4.82,5.55,1.02,0,1.97-.37,2.75-1M64.59,85.38c0,11.45,16.27,15.1,16.27,15.1v-3.55c0-11.88-16.27-15.1-16.27-15.1v3.55ZM82.54,96.93v3.55s16.27-3.65,16.27-15.1v-3.55s-16.27,3.22-16.27,15.1M68.69,72.51c0,9.3,12.37,12.27,12.37,12.27v-2.89c0-9.65-12.37-12.27-12.37-12.27v2.89ZM82.33,81.89v2.89s12.37-2.97,12.37-12.27v-2.89s-12.37,2.62-12.37,12.27M38.44,52.69c10.75-10.79,17.65-12.71,26.24-14.06-8.8,5.59-17.02,18.58-14.46,27.72,4.65-9.7,12.76-19.18,20.24-22.64-4.23,5.93-4.37,13.32-.29,19.63.95-8.19,6.68-16.05,11.47-21.32,4.79,5.27,10.53,13.14,11.47,21.32,4.07-6.31,3.94-13.7-.29-19.63,7.48,3.46,15.59,12.93,20.24,22.64,2.56-9.14-5.66-22.13-14.46-27.72,8.59,1.35,15.49,3.26,26.24,14.06-3.54-14.44-16.03-19.44-26.01-21.22,10.98-.94,13.16.18,22.86,4.19-10.53-10.35-17.92-12.22-28.47-11.21,1.81-1.58,3.54-2.43,6.2-3.13-4.43-1.74-11.35-.83-14.04,1.75,0,0-.53-4.74-3.7-6.66v-.05s-.02.02-.03.02c-.01,0-.02-.02-.04-.02v.05c-3.18,1.91-3.7,6.66-3.7,6.66-2.69-2.58-9.62-3.49-14.04-1.75,2.66.7,4.39,1.55,6.2,3.13-10.55-1.01-17.93.86-28.47,11.21,9.7-4.01,11.88-5.13,22.86-4.19-9.98,1.78-22.47,6.79-26.01,21.22"/>
    </g>
  </g>
</svg>