<?xml version="1.0" encoding="UTF-8"?>
<svg id="Layer_2" data-name="Layer 2" xmlns="http://www.w3.org/2000/svg" xmlns:xlink="http://www.w3.org/1999/xlink" viewBox="0 0 731.17 177.5">
  <defs>
    <style>
      .cls-1 {
        fill: url(#linear-gradient-2);
      }

      .cls-2 {
        fill: #0e8140;
      }

      .cls-3 {
        fill: #055e46;
      }

      .cls-4 {
        fill: url(#radial-gradient);
      }

      .cls-5 {
        fill: url(#linear-gradient);
      }
    </style>
    <radialGradient id="radial-gradient" cx="638.14" cy="84.05" fx="631.03" fy="84.05" r="90.1" gradientTransform="translate(0 3.15) scale(1 .96)" gradientUnits="userSpaceOnUse">
      <stop offset="0" stop-color="#010101" stop-opacity="0"/>
      <stop offset=".12" stop-color="#010101" stop-opacity="0"/>
      <stop offset=".15" stop-color="#010101" stop-opacity="0"/>
      <stop offset="1" stop-color="#010101"/>
    </radialGradient>
    <linearGradient id="linear-gradient" x1="573.21" y1="125.53" x2="729.93" y2="42.24" gradientUnits="userSpaceOnUse">
      <stop offset="0" stop-color="#c58e2b"/>
      <stop offset=".25" stop-color="#ffd742"/>
      <stop offset=".34" stop-color="#f3c83d"/>
      <stop offset=".51" stop-color="#d6a331"/>
      <stop offset=".6" stop-color="#c58e2b"/>
      <stop offset="1" stop-color="#ffd742"/>
    </linearGradient>
    <linearGradient id="linear-gradient-2" x1="617.68" y1="23.1" x2="667.07" y2="160.48" gradientUnits="userSpaceOnUse">
      <stop offset="0" stop-color="#c58e2b"/>
      <stop offset=".06" stop-color="#d5aa54"/>
      <stop offset=".13" stop-color="#e3c177"/>
      <stop offset=".19" stop-color="#eed493"/>
      <stop offset=".26" stop-color="#f6e1a7"/>
      <stop offset=".32" stop-color="#fbe9b3"/>
      <stop offset=".39" stop-color="#fdecb7"/>
      <stop offset=".58" stop-color="#fdecb7"/>
      <stop offset=".67" stop-color="#f3db9e"/>
      <stop offset=".85" stop-color="#dab261"/>
      <stop offset="1" stop-color="#c58e2b"/>
    </linearGradient>
  </defs>
  <g id="Layer_1-2" data-name="Layer 1">
    <g>
      <path class="cls-3" d="M15.5,54.85c1.59,0,2.7-1.22,2.7-2.7s-1.11-2.7-2.7-2.7-2.7,1.22-2.7,2.7,1.11,2.7,2.7,2.7"/>
      <path class="cls-3" d="M7.88,54.85c1.53,0,2.7-1.22,2.7-2.7s-1.16-2.7-2.7-2.7c-1.64,0-2.7,1.22-2.7,2.7s1.06,2.7,2.7,2.7"/>
      <path class="cls-3" d="M46.93,65.27c0,1.48,1.11,2.64,3.02,2.64s3.07-1.48,3.07-3.12c0-3.54-3.65-5.98-7.62-5.98-6.56,0-12.33,5.08-12.33,12.12,0,4.39,2.01,7.99,5.19,10.11h-14.28c-2.49-.21-2.75-2.8-2.75-4.23v-13.7c0-1.11.05-2.49.37-3.86h-2.64c-.37.37-.27.58-.37.79-.21.63-.48,1.32-.58,1.32,0,0-.32-.21-.9-.58-1.22-.79-3.23-2.12-6.24-2.12-6.67,0-10.85,5.98-10.85,12.07,0,6.56,4.18,12.27,9.74,12.27,4.5,0,6.88-3.23,7.67-5.5,0,4.81,2.96,5.45,6.56,5.5h20.95c3.28,0,5.72-1.06,7.67-2.96l-1.32-.9c-1.38,1.22-3.12,1.9-5.4,1.9-5.24,0-7.51-4.55-7.51-10.69,0-6.51,2.49-9.84,7.2-9.84,2.7,0,4.18,1.11,4.92,2.54-.37-.05-.69-.11-1.06-.11-1.59,0-2.49.85-2.49,2.33M16.14,76.43c-.85,2.8-3.12,4.76-5.71,4.76-2.22,0-5.61-2.38-5.61-10.16,0-5.45,1.91-10.53,6.03-10.53,5.29,0,5.87,5.02,5.87,9.52,0,2.8-.11,4.82-.58,6.4"/>
      <path class="cls-3" d="M64.07,82.99v-33.81l-6.93,1.32c2.22.74,2.27,1.11,2.27,2.33v30.16h4.66Z"/>
      <path class="cls-3" d="M80.63,59.4l-7.04,1.32c2.33.74,2.38,1.11,2.38,2.38v13.44c-.42,9.95-4.23,13.7-11.9,15.76,1.96.16,3.12.21,3.81.21,11.85,0,12.75-10.48,12.75-19.95v-13.18Z"/>
      <path class="cls-3" d="M93.01,55.22c1.48,0,2.75-1.22,2.75-2.75s-1.27-2.75-2.75-2.75-2.75,1.17-2.75,2.75,1.27,2.75,2.75,2.75"/>
      <path class="cls-3" d="M107.82,52.84v23.12c0,3.12-1.22,5.08-4.18,5.08h-7.88c.42-2.7.53-5.61.53-8.47v-13.18l-6.98,1.32c2.28.74,2.33,1.11,2.33,2.38v13.44c-.37,9.95-4.18,13.7-11.9,15.77,1.96.16,3.17.21,3.81.21,7.41,0,10.53-4.13,11.8-9.52h9.42c4.5,0,7.73-2.43,7.73-6.88v-26.93l-6.98,1.32c2.33.74,2.33,1.11,2.33,2.33"/>
      <path class="cls-3" d="M119.51,52.84v30.16h4.66v-33.81l-6.93,1.32c2.22.74,2.28,1.11,2.28,2.33"/>
      <path class="cls-3" d="M129.99,74.74c0,5.08,4.55,8.15,8.1,8.25h.27c3.86,0,5.45-2.01,6.56-3.76-1,9.89-6.93,12.01-11.37,13.02l-1.27.21c1.9.16,3.6.27,4.34.27,5.66,0,12.86-2.22,12.86-20.16v-12.96h-4.02c-8.99,0-15.45,5.93-15.45,15.13M144.8,73.42c0,4.11-2.42,7.91-5.58,7.93-3-.12-4.63-3.82-4.63-6.93,0-7.89,4.97-13.18,9.63-13.18h.58v12.17Z"/>
      <path class="cls-3" d="M175.01,58.66c-7.04,0-11.16,5.98-11.16,12.22s4.13,12.12,11.16,12.12,11.16-5.98,11.16-12.12-4.18-12.22-11.16-12.22M175.01,81.2c-4.23,0-6.14-3.7-6.14-10.32s1.91-10.37,6.14-10.37,6.08,3.65,6.08,10.37-1.91,10.32-6.08,10.32"/>
      <path class="cls-3" d="M213.58,87.86c-1.59,0-2.7,1.16-2.7,2.65s1.11,2.7,2.7,2.7,2.7-1.22,2.7-2.7-1.11-2.65-2.7-2.65"/>
      <path class="cls-3" d="M205.96,87.86c-1.64,0-2.7,1.16-2.7,2.65s1.06,2.7,2.7,2.7c1.53,0,2.7-1.22,2.7-2.7s-1.16-2.65-2.7-2.65"/>
      <path class="cls-3" d="M264.16,52.78v23.18c0,3.07-1.22,5.08-3.97,5.08h-4.07c-2.38,0-4.23-2.22-5.13-4.71.11-.58.16-1.22.16-1.9,0-4.87-3.44-11.32-9.84-11.32-7.78,0-9.1,4.87-10.37,9.79-.69,2.64-1.53,5.82-3.12,7.35-.64.53-1.53.69-2.01.79h-4.18c-3.7,0-5.93-4.81-5.93-8.15v-13.49l-6.98,1.32c2.12.74,2.33.95,2.33,2.12v13.28c0,3.07-1.16,4.92-3.97,4.92h-4.13c-2.22-.16-3.49-1.64-3.49-4.44v-27.3l-8.47.37v1.75c3.02,0,3.81.48,3.81,1.75v23.23c0,5.03,3.33,6.61,7.83,6.61h5.4c3.28,0,6.56-.95,7.83-4.13,1.64,2.49,3.92,4.13,6.61,4.13h3.28c2.8,0,4.34-.9,5.55-2.22,1.59,2.01,3.81,4.5,8.62,4.5,5.13,0,8.41-2.59,9.95-5.82,1.8,2.33,3.81,3.54,7.3,3.54h3.86c4.5,0,7.72-2.43,7.72-6.88v-26.98l-7.04,1.32c2.38.74,2.43,1.11,2.43,2.33M240.09,83.42c-3.28,0-5.66-2.7-7.04-4.39-.05-.11-.16-.27-.27-.32,1.01-1.9,1.48-3.86,1.96-5.66l.11-.32c1.06-4.13,2.12-7.94,5.5-7.94h.21c3.86.16,5.72,4.87,5.72,9.89s-2.86,8.73-6.19,8.73"/>
      <path class="cls-3" d="M275.8,52.84v30.16h4.66v-33.81l-6.93,1.32c2.22.74,2.28,1.11,2.28,2.33"/>
      <path class="cls-3" d="M286.27,74.74c0,5.08,4.55,8.15,8.1,8.25h.27c3.86,0,5.45-2.01,6.56-3.76-1,9.89-6.93,12.01-11.38,13.02l-1.27.21c1.9.16,3.6.27,4.34.27,5.66,0,12.86-2.22,12.86-20.16v-12.96h-4.02c-8.99,0-15.45,5.93-15.45,15.13M301.09,73.42c0,4.11-2.42,7.91-5.58,7.93-3-.12-4.63-3.82-4.63-6.93,0-7.89,4.97-13.18,9.63-13.18h.58v12.17Z"/>
      <path class="cls-3" d="M328.07,54.85c1.53,0,2.7-1.22,2.7-2.7s-1.16-2.7-2.7-2.7c-1.64,0-2.7,1.22-2.7,2.7s1.06,2.7,2.7,2.7"/>
      <path class="cls-3" d="M335.69,54.85c1.59,0,2.7-1.22,2.7-2.7s-1.11-2.7-2.7-2.7-2.7,1.22-2.7,2.7,1.11,2.7,2.7,2.7"/>
      <path class="cls-3" d="M361.45,52.1h-2.49c-1.96,0-3.28-2.43-3.28-4.02,0-1.06.63-2.27,1.53-2.27.27,0,.69.05.9.37-.42.37-.79.95-.79,1.27,0,.79.74,1.32,1.75,1.32s1.75-.32,1.75-1.53c0-1.59-1.53-2.8-3.49-2.8-2.8,0-4.39,1.96-4.39,4.29,0,1.32,1.06,2.59,2.01,3.39h-2.38l-.63,1.69h9.52v-1.69Z"/>
      <path class="cls-3" d="M375.58,87.86c-1.59,0-2.7,1.16-2.7,2.65s1.11,2.7,2.7,2.7,2.7-1.22,2.7-2.7-1.11-2.65-2.7-2.65"/>
      <path class="cls-3" d="M367.96,87.86c-1.64,0-2.7,1.16-2.7,2.65s1.06,2.7,2.7,2.7c1.53,0,2.7-1.22,2.7-2.7s-1.16-2.65-2.7-2.65"/>
      <path class="cls-3" d="M392.72,87.23c-1.48,0-2.75,1.22-2.75,2.75s1.27,2.75,2.75,2.75,2.75-1.17,2.75-2.75-1.27-2.75-2.75-2.75"/>
      <path class="cls-3" d="M408.48,52.84v23.12c0,3.12-1.22,5.08-4.18,5.08h-1.69c-3.71,0-5.93-4.81-5.93-8.15v-13.49l-6.98,1.32c2.12.74,2.33.95,2.33,2.12v13.28c0,3.07-1.16,4.92-3.97,4.92h-4.44c-3.7,0-5.93-4.81-5.93-8.15v-13.49l-6.98,1.32c2.12.74,2.33.95,2.33,2.12v13.28c0,3.07-1.16,4.92-3.97,4.92h-2.96c-3.7,0-5.92-4.81-5.92-8.15v-13.49l-6.98,1.32c2.12.74,2.33.95,2.33,2.12v13.28c0,3.07-1.16,4.92-3.97,4.92h-7.4c-2.49-.21-2.75-2.8-2.75-4.23v-13.7c0-1.11.05-2.49.37-3.86h-2.64c-.37.37-.27.58-.37.79-.21.63-.48,1.32-.58,1.32,0,0-.32-.21-.9-.58-1.22-.79-3.23-2.12-6.24-2.12-6.67,0-10.85,5.98-10.85,12.07,0,6.56,4.18,12.27,9.74,12.27,4.5,0,6.88-3.23,7.67-5.5,0,4.81,2.96,5.45,6.56,5.5h8.36c3.28,0,6.56-.95,7.83-4.13,1.58,2.39,3.74,3.98,6.3,4.1v.02h3.39c3.28,0,6.56-.95,7.83-4.13,1.64,2.49,3.92,4.13,6.61,4.13h4.55c3.28,0,6.56-.95,7.83-4.13,1.58,2.39,3.74,3.98,6.29,4.1v.02h2.28c4.5,0,7.72-2.43,7.72-6.88v-26.93l-6.98,1.32c2.33.74,2.33,1.11,2.33,2.33M336.32,76.43c-.85,2.8-3.12,4.76-5.71,4.76-2.22,0-5.61-2.38-5.61-10.16,0-5.45,1.91-10.53,6.03-10.53,5.29,0,5.87,5.02,5.87,9.52,0,2.8-.11,4.82-.58,6.4"/>
      <path class="cls-3" d="M420.18,52.84v30.16h4.66v-33.81l-6.93,1.32c2.22.74,2.28,1.11,2.28,2.33"/>
      <path class="cls-3" d="M454.3,53.79c1.53,0,2.7-1.22,2.7-2.7s-1.16-2.7-2.7-2.7-2.7,1.16-2.7,2.7,1.11,2.7,2.7,2.7"/>
      <path class="cls-3" d="M450.39,58.66c-7.04,0-11.16,5.98-11.16,12.22s4.13,12.12,11.16,12.12,11.16-5.98,11.16-12.12-4.18-12.22-11.16-12.22M450.39,81.2c-4.23,0-6.14-3.7-6.14-10.32s1.91-10.37,6.14-10.37,6.08,3.65,6.08,10.37-1.91,10.32-6.08,10.32"/>
      <path class="cls-3" d="M446.63,53.79c1.59,0,2.7-1.22,2.7-2.7s-1.11-2.7-2.7-2.7-2.65,1.16-2.65,2.7,1.06,2.7,2.65,2.7"/>
      <path class="cls-3" d="M473.45,63.1v13.44c-.42,9.95-4.23,13.7-11.9,15.77,1.96.16,3.12.21,3.81.21,11.85,0,12.75-10.48,12.75-19.95v-13.18l-7.04,1.32c2.33.74,2.38,1.11,2.38,2.38"/>
      <path class="cls-3" d="M489.8,82.99v-33.81l-6.93,1.32c2.22.74,2.27,1.11,2.27,2.33v30.16h4.66Z"/>
      <path class="cls-3" d="M501.7,62.84v13.44c-.42,9.95-4.23,13.7-11.9,15.76,1.96.16,3.12.26,3.81.26,11.85,0,12.75-10.53,12.75-20v-13.12l-7.04,1.32c2.33.69,2.38,1.11,2.38,2.33"/>
      <path class="cls-3" d="M503.71,48.39c-1.48,0-2.75,1.16-2.75,2.75s1.27,2.75,2.75,2.75,2.7-1.22,2.7-2.75-1.27-2.75-2.7-2.75"/>
      <path class="cls-3" d="M527.63,59.61c-8.99,0-15.45,5.93-15.45,15.13,0,5.08,4.55,8.15,8.1,8.25h.27c3.86,0,5.45-2.01,6.56-3.76-1,9.89-6.93,12.01-11.38,13.02l-1.27.21c1.9.16,3.6.27,4.34.27,5.66,0,12.86-2.22,12.86-20.16v-12.96h-4.02ZM526.99,73.42c0,4.11-2.42,7.91-5.58,7.93-3-.12-4.63-3.82-4.63-6.93,0-7.89,4.97-13.18,9.63-13.18h.58v12.17Z"/>
      <path class="cls-3" d="M2.81,111.54c0-2.64-.4-2.52-2.81-3.01v-.62h6.44l5.62,15.66h.06l5.5-15.66h3.83v19.09h-2.84v-16.88h-.06l-5.96,16.88h-2.01l-5.93-16.71h-.06v16.71h-1.79v-15.46Z"/>
      <path class="cls-3" d="M26.01,117.5c0-1.99-.45-2.47-2.19-2.52v-.57l5.02-.91v13.5h-2.84v-9.5ZM25.7,109.47c0-.96.8-1.76,1.79-1.76s1.81.77,1.81,1.76-.85,1.79-1.84,1.79-1.76-.8-1.76-1.79"/>
      <path class="cls-3" d="M33.19,117.5c0-1.99-.48-2.47-2.27-2.52v-.57l5.11-.91v3.63h.06c.43-.99,1.93-3.63,4.74-3.63,2.58,0,3.43,1.82,3.43,4v9.5h-2.84v-7.35c0-2.24,0-4.23-1.9-4.23s-3.49,2.64-3.49,4.65v6.92h-2.84v-9.5Z"/>
      <path class="cls-3" d="M48.54,117.5c0-1.99-.45-2.47-2.19-2.52v-.57l5.02-.91v13.5h-2.84v-9.5ZM48.23,109.47c0-.96.8-1.76,1.79-1.76s1.81.77,1.81,1.76-.85,1.79-1.84,1.79-1.76-.8-1.76-1.79"/>
      <path class="cls-3" d="M62.08,116.11c-.43-.28-1.79-1.36-3.38-1.36-.91,0-1.99.34-1.99,1.56,0,2.7,6.21,2.75,6.21,7.09,0,2.78-2.3,3.92-5.11,3.92-1.73,0-2.98-.34-3.63-.51v-2.21c.82.57,2.16,1.48,3.74,1.48,1.79,0,2.44-.91,2.44-1.9,0-2.78-6.21-2.95-6.21-6.87,0-2.04,1.39-3.8,4.74-3.8,1.45,0,2.7.37,3.18.48v2.13Z"/>
      <path class="cls-3" d="M72.69,127.09c-.62.11-1.28.23-1.9.23-2.72,0-4.31-.43-4.31-3.66v-8.71h-2.21v-1.13h2.21v-2.24l2.84-2.52v4.77h3.72v1.13h-3.72v8.26c0,1.99.14,2.86,2.33,2.86.34,0,.71-.03,1.05-.11v1.13Z"/>
      <path class="cls-3" d="M75.35,117.5c0-1.99-.45-2.47-2.24-2.52v-.57l5.08-.91v3.74h.06c.4-1.3,1.28-3.74,3.55-3.74.51,0,1.05.06,1.53.14v2.69c-.46-.14-.97-.34-1.45-.34-2.87,0-3.69,2.24-3.69,4.23v6.78h-2.84v-9.5Z"/>
      <path class="cls-3" d="M91.47,128.08c-.88,2.27-1.87,4.71-4.96,4.71s-3.83-2.36-3.94-3.63h3.26c0,.85.14,2.1,1.5,2.1,1.25,0,1.87-1.45,2.27-2.47l.37-.97-4.57-10.89c-.68-1.67-1.08-2.47-3.04-2.55v-.57h4.82l4.2,10.44,4.09-10.44h1.62l-5.62,14.27Z"/>
      <path class="cls-3" d="M106.7,120.42c0-4.74,1.99-6.92,6.13-6.92s6.13,2.84,6.13,6.92c0,4.62-1.93,6.89-6.13,6.89-4.57,0-6.13-2.92-6.13-6.89M112.83,126.35c2.78,0,3.01-3.09,3.01-5.93,0-2.61-.25-5.96-3.01-5.96s-3.01,3.46-3.01,5.96c0,2.35.2,5.93,3.01,5.93"/>
      <path class="cls-3" d="M122.58,114.94h-2.3v-1.13h2.3v-1.9c0-2.27.99-4.77,4.4-4.77,3.63,0,4.88,1.28,5.19,3.35h-3.18c-.03-1.02-.4-2.38-1.81-2.38-1.65,0-1.76,1.81-1.76,3.15v2.55h3.77v1.13h-3.77v12.06h-2.84v-12.06Z"/>
      <path class="cls-3" d="M139.89,111.77c0-2.81-.09-2.81-2.7-3.23v-.62h13.59l.09,4.2h-.8c0-2.27-1.19-2.87-3.06-2.87h-2.21c-1.42,0-1.79.11-1.79,1.47v5.65h3.43c1.96,0,2.16-1.25,2.33-2.18h.79v5.96h-.79c0-1.53-.63-2.44-2.33-2.44h-3.43v6.33c0,1.59.37,1.65,1.79,1.65h3.15c1.62,0,2.38-.57,2.56-2.78h.79l-.09,4.11h-11.32v-15.23Z"/>
      <path class="cls-3" d="M154.64,117.5c0-1.99-.48-2.47-2.27-2.52v-.57l5.11-.91v3.63h.06c.43-.99,1.93-3.63,4.74-3.63,2.58,0,3.43,1.82,3.43,4v9.5h-2.84v-7.35c0-2.24,0-4.23-1.9-4.23s-3.49,2.64-3.49,4.65v6.92h-2.84v-9.5Z"/>
      <path class="cls-3" d="M169.68,116.93c-.71-1.9-1.02-2.38-2.95-2.55v-.57h4.74l3.97,9.99,3.86-9.99h1.62l-5.08,13.19h-2.07l-4.08-10.07Z"/>
      <path class="cls-3" d="M183.6,117.5c0-1.99-.45-2.47-2.19-2.52v-.57l5.02-.91v13.5h-2.84v-9.5ZM183.29,109.47c0-.96.8-1.76,1.79-1.76s1.81.77,1.81,1.76-.85,1.79-1.84,1.79-1.76-.8-1.76-1.79"/>
      <path class="cls-3" d="M190.61,117.5c0-1.99-.45-2.47-2.24-2.52v-.57l5.08-.91v3.74h.06c.4-1.3,1.28-3.74,3.55-3.74.51,0,1.05.06,1.53.14v2.69c-.46-.14-.97-.34-1.45-.34-2.87,0-3.69,2.24-3.69,4.23v6.78h-2.84v-9.5Z"/>
      <path class="cls-3" d="M198.9,120.42c0-4.74,1.99-6.92,6.13-6.92s6.13,2.84,6.13,6.92c0,4.62-1.93,6.89-6.13,6.89-4.57,0-6.13-2.92-6.13-6.89M205.03,126.35c2.78,0,3.01-3.09,3.01-5.93,0-2.61-.25-5.96-3.01-5.96s-3.01,3.46-3.01,5.96c0,2.35.2,5.93,3.01,5.93"/>
      <path class="cls-3" d="M214.36,117.5c0-1.99-.48-2.47-2.27-2.52v-.57l5.11-.91v3.63h.06c.43-.99,1.93-3.63,4.74-3.63,2.58,0,3.43,1.82,3.43,4v9.5h-2.84v-7.35c0-2.24,0-4.23-1.9-4.23s-3.49,2.64-3.49,4.65v6.92h-2.84v-9.5Z"/>
      <path class="cls-3" d="M229.42,117.5c0-1.99-.45-2.47-2.18-2.52v-.57l5.08-.91v3.38h.06c.48-.99,1.79-3.38,4.34-3.38s3.29,1.9,3.49,3.18h.06c.6-1.11,1.67-3.18,4.23-3.18,3.6,0,3.6,3.29,3.6,5.3v8.2h-2.84v-7.75c0-1.76,0-3.83-1.9-3.83-2.16,0-3.18,2.98-3.18,5.02v6.56h-2.84v-7.35c0-2.24,0-4.23-1.9-4.23s-3.18,2.64-3.18,4.65v6.92h-2.84v-9.5Z"/>
      <path class="cls-3" d="M261.65,126.55c-.54.2-2.04.77-4,.77-4.34,0-6.95-2.64-6.95-7.38,0-4.48,2.16-6.44,5.96-6.44,4.85,0,5.25,3.52,5.25,5.42h-8.09c0,2.84,1.16,6.87,5.16,6.87,1.19,0,2.19-.28,2.67-.48v1.25ZM259.07,117.78c0-.65-.06-3.32-2.52-3.32-2.13,0-2.73,2.24-2.73,3.32h5.25Z"/>
      <path class="cls-3" d="M264.71,117.5c0-1.99-.48-2.47-2.27-2.52v-.57l5.11-.91v3.63h.06c.43-.99,1.93-3.63,4.74-3.63,2.58,0,3.43,1.82,3.43,4v9.5h-2.84v-7.35c0-2.24,0-4.23-1.9-4.23s-3.49,2.64-3.49,4.65v6.92h-2.84v-9.5Z"/>
      <path class="cls-3" d="M286.5,127.09c-.62.11-1.28.23-1.9.23-2.72,0-4.31-.43-4.31-3.66v-8.71h-2.21v-1.13h2.21v-2.24l2.84-2.52v4.77h3.72v1.13h-3.72v8.26c0,1.99.14,2.86,2.33,2.86.34,0,.71-.03,1.05-.11v1.13Z"/>
      <path class="cls-3" d="M299.31,111.54c-.6-2.58-.85-2.55-3.21-3.01v-.62h5.13l3.75,15.46h.06l4.48-15.46h1.96l5.11,15.46h.06l3.12-15.46h1.84l-4,19.09h-2.7l-4.94-15.12h-.06l-4.37,15.12h-2.64l-3.6-15.46Z"/>
      <path class="cls-3" d="M330.15,125.33c-.51.6-1.48,1.99-3.66,1.99s-3.8-1.59-3.8-3.26c0-4,5.64-4.31,7.46-4.37v-1.45c0-1.79,0-3.77-1.79-3.77s-1.98,1.64-1.98,2.89h-3.38c.31-1.87,1.25-3.86,5.33-3.86s4.65,2.07,4.65,4.88v8.62h-2.84v-1.67ZM330.15,120.7c-1.02.03-4.34.17-4.34,2.87,0,1.3.65,2.21,1.7,2.21,1.65,0,2.64-1.5,2.64-3.43v-1.65Z"/>
      <path class="cls-3" d="M343.51,127.09c-.62.11-1.28.23-1.9.23-2.72,0-4.31-.43-4.31-3.66v-8.71h-2.21v-1.13h2.21v-2.24l2.84-2.52v4.77h3.72v1.13h-3.72v8.26c0,1.99.14,2.86,2.33,2.86.34,0,.71-.03,1.05-.11v1.13Z"/>
      <path class="cls-3" d="M355.85,126.55c-.54.2-2.04.77-4,.77-4.34,0-6.95-2.64-6.95-7.38,0-4.48,2.16-6.44,5.96-6.44,4.85,0,5.25,3.52,5.25,5.42h-8.09c0,2.84,1.16,6.87,5.16,6.87,1.19,0,2.19-.28,2.67-.48v1.25ZM353.27,117.78c0-.65-.06-3.32-2.52-3.32-2.13,0-2.73,2.24-2.73,3.32h5.25Z"/>
      <path class="cls-3" d="M358.74,117.5c0-1.99-.45-2.47-2.24-2.52v-.57l5.08-.91v3.74h.06c.4-1.3,1.28-3.74,3.55-3.74.51,0,1.05.06,1.53.14v2.69c-.46-.14-.97-.34-1.45-.34-2.87,0-3.69,2.24-3.69,4.23v6.78h-2.84v-9.5Z"/>
      <path class="cls-3" d="M409.52,111.54c.17-.48.48-1.48.48-1.67,0-1.14-1.05-1.16-2.19-1.33v-.62h5.33l6.92,19.09h-2.95l-2.13-5.9h-7.23l-2.13,5.9h-1.76l5.64-15.46ZM408.24,119.77h6.27l-3.23-8.28-3.03,8.28Z"/>
      <path class="cls-3" d="M432.52,127.43c0,2.92-.54,5.62-5.5,5.62-3.49,0-5.93-.8-5.93-3.97h3.2c0,1.19.37,3.01,2.64,3.01,2.75,0,2.75-2.18,2.75-3.74v-3.32h-.06c-.51.85-1.28,1.99-3.58,1.99-3.57,0-4.99-2.98-4.99-6.3,0-3.66,1.11-7.2,5.02-7.2,2.04,0,3.06,1.19,3.55,1.96h.06v-1.65h5.08v.57c-.91,0-2.24.14-2.24,2.02v11.03ZM429.69,118.6c0-1.79-.91-3.57-2.67-3.57-2.58,0-2.84,3.21-2.84,5.28s.28,5.16,2.61,5.16c2.44,0,2.89-2.5,2.89-4.06v-2.81Z"/>
      <path class="cls-3" d="M436.87,117.5c0-1.99-.45-2.47-2.24-2.52v-.57l5.08-.91v3.74h.06c.4-1.3,1.28-3.74,3.55-3.74.51,0,1.05.06,1.53.14v2.69c-.46-.14-.97-.34-1.45-.34-2.87,0-3.69,2.24-3.69,4.23v6.78h-2.84v-9.5Z"/>
      <path class="cls-3" d="M447.13,117.5c0-1.99-.45-2.47-2.18-2.52v-.57l5.02-.91v13.5h-2.84v-9.5ZM446.82,109.47c0-.96.8-1.76,1.79-1.76s1.81.77,1.81,1.76-.85,1.79-1.84,1.79-1.76-.8-1.76-1.79"/>
      <path class="cls-3" d="M463.22,126.63c-1.02.37-1.67.68-4.03.68-3.97,0-6.33-2.81-6.33-7.09,0-3.89,1.59-6.72,5.64-6.72,3.15,0,5.22,1.59,5.22,3.89h-3.35c0-1.16-.28-2.92-2.04-2.92-1.93,0-2.36,2.1-2.36,4.82,0,4.2,1.93,6.5,4.51,6.5.88,0,2.04-.17,2.72-.4v1.25Z"/>
      <path class="cls-3" d="M474.08,123.79h-.06c-.48,1.25-1.65,3.52-4.4,3.52-3.8,0-3.8-3.69-3.8-5.79v-4.03c0-1.99-.45-2.47-2.18-2.52v-.57l5.02-.91v8.54c0,2.58.96,3.35,2.33,3.35,1.84,0,3.09-2.41,3.09-4.77v-3.12c0-1.99-.48-2.47-2.18-2.52v-.57l5.02-.91v13.5h-2.84v-3.21Z"/>
      <path class="cls-3" d="M480.67,111c0-2.01-.48-2.5-2.16-2.58v-.57l4.99-.71v19.86h-2.84v-16Z"/>
      <path class="cls-3" d="M494.42,127.09c-.62.11-1.28.23-1.9.23-2.72,0-4.31-.43-4.31-3.66v-8.71h-2.21v-1.13h2.21v-2.24l2.84-2.52v4.77h3.72v1.13h-3.72v8.26c0,1.99.14,2.86,2.33,2.86.34,0,.71-.03,1.05-.11v1.13Z"/>
      <path class="cls-3" d="M505.52,123.79h-.06c-.48,1.25-1.65,3.52-4.4,3.52-3.8,0-3.8-3.69-3.8-5.79v-4.03c0-1.99-.45-2.47-2.18-2.52v-.57l5.02-.91v8.54c0,2.58.96,3.35,2.33,3.35,1.84,0,3.09-2.41,3.09-4.77v-3.12c0-1.99-.48-2.47-2.18-2.52v-.57l5.02-.91v13.5h-2.84v-3.21Z"/>
      <path class="cls-3" d="M512.3,117.5c0-1.99-.45-2.47-2.24-2.52v-.57l5.08-.91v3.74h.06c.4-1.3,1.28-3.74,3.55-3.74.51,0,1.05.06,1.53.14v2.69c-.46-.14-.97-.34-1.45-.34-2.87,0-3.69,2.24-3.69,4.23v6.78h-2.84v-9.5Z"/>
      <path class="cls-3" d="M531.39,126.55c-.54.2-2.04.77-4,.77-4.34,0-6.95-2.64-6.95-7.38,0-4.48,2.16-6.44,5.96-6.44,4.85,0,5.25,3.52,5.25,5.42h-8.09c0,2.84,1.16,6.87,5.16,6.87,1.19,0,2.19-.28,2.67-.48v1.25ZM528.81,117.78c0-.65-.06-3.32-2.52-3.32-2.13,0-2.73,2.24-2.73,3.32h5.25Z"/>
      <path class="cls-3" d="M394.11,123.82s-.11.02-.39.32c-.42.43-.78.73-1.11.93-.48.26-1.26.21-2.07-.31-.45-.29-.94-.74-1.45-1.31l-.36-.41c-.23-.22-.36-.41-.4-.59l-.03-.13.08-.1c1.16-1.47,1.99-2.47,2.46-2.97.78-.83,1.32-1.35,1.65-1.57.29-.2.74-.45,1.38-.75l.02-.11c.03-.13.04-.25.04-.38,0-.03,0-.06,0-.09-.31.03-.52.05-.61.05h-.7l-1.01.05c-.91.05-1.65.11-2.27.18-.07,0-.22.03-.61.11l-.03.48c.33.14.58.31.74.5.2.24.3.5.3.75,0,.28-.14.68-.43,1.2-.36.65-.83,1.27-1.39,1.82l-.2.19-.19-.2c-.15-.15-.3-.34-.47-.57l-1.6-1.96c-.37-.45-.67-.79-.9-1.02-.65-.62-1.06-1.05-1.25-1.31l-.12-.16.12-.16c.09-.12.23-.21.4-.27.33-.12.79-.38,1.34-.75.54-.36.89-.71,1.04-1.02.2-.43.31-.89.31-1.37,0-.79-.35-1.49-1.07-2.13-.72-.64-1.72-.96-2.97-.96-.92,0-1.24.06-1.35.09-.08.03-.22.07-.39.12-1,.26-1.79.72-2.32,1.37-.53.65-.79,1.35-.79,2.14,0,.38.06.74.19,1.11.13.37.28.68.46.93.19.27.62.78,1.28,1.54l.21.24-.28.17c-.15.09-.4.2-.77.36-.61.26-1.28.64-1.99,1.14-.7.49-1.23,1.09-1.6,1.77-.36.68-.55,1.4-.55,2.16,0,1.24.44,2.26,1.31,3.05.88.8,2.26,1.21,4.11,1.21,2.15,0,4.16-.75,5.98-2.23l.18-.15.17.16c.94.85,1.8,1.45,2.58,1.81.58.27,1.22.4,1.91.4.76,0,1.37-.12,1.81-.36.67-.37,1.17-.82,1.51-1.36.33-.53.5-.96.5-1.27,0-.1-.03-.18-.11-.26-.08-.08-.17-.11-.29-.11M380.63,111.02c.4-.33.88-.5,1.41-.5.5,0,.93.11,1.3.33.38.23.61.47.7.75.19.63.28,1.1.28,1.43,0,.66-.1,1.16-.32,1.52-.31.49-.78.87-1.39,1.15l-.16.07-.13-.11c-.93-.77-1.55-1.4-1.89-1.95-.28-.44-.42-.87-.42-1.29,0-.59.21-1.06.63-1.4M385.17,124.23c-.93.88-1.98,1.32-3.12,1.32-.62,0-1.22-.16-1.79-.46-.55-.3-1.01-.65-1.37-1.04-.36-.39-.7-.94-1.01-1.63-.18-.4-.26-.83-.26-1.28,0-.71.22-1.34.66-1.88.43-.53,1.02-.94,1.73-1.24l.18-.07.13.14c.88.95,1.76,1.95,2.6,2.98l1.66,1.99c.1.14.2.26.31.38.14.15.24.3.33.46l.1.18-.15.14Z"/>
    </g>
    <g>
      <path class="cls-2" d="M724.78,88.74c0,45.49-36.88,82.37-82.37,82.37s-82.37-36.88-82.37-82.37S596.92,6.37,642.41,6.37s82.37,36.88,82.37,82.37"/>
      <path class="cls-4" d="M724.78,88.74c0,45.49-36.88,82.37-82.37,82.37s-82.37-36.88-82.37-82.37S596.92,6.37,642.41,6.37s82.37,36.88,82.37,82.37"/>
      <path class="cls-5" d="M642.42,177.5c-48.94,0-88.76-39.81-88.76-88.75S593.48,0,642.42,0s88.75,39.81,88.75,88.75-39.81,88.75-88.75,88.75ZM642.42,5.12c-46.11,0-83.61,37.52-83.61,83.62s37.5,83.62,83.61,83.62,83.6-37.52,83.6-83.62S688.52,5.12,642.42,5.12Z"/>
      <path class="cls-1" d="M691.38,123.85c.21.12.59.34.49.71-.06.23-.27.35-.61.35-.14,0-.27-.02-.31-.03-1.96-.5-4.05-.75-6.23-.75-11.19,0-25.64,8.43-37.22,16.82,2.31,1.9,4.78,4.08,7.17,6.3.35-.3.46-.38.79-.65,1.03-.85,2.01-1.44,3-1.8.59-.21,1.18-.26,1.76-.14,1.11.23,1.84,1.32,1.72,2.6-.1,1.1-.86,1.95-1.76,1.98-.72.02-1.35-.33-1.72-.97-.44.36-.86.71-1.25,1.08-.18.17-.35.35-.53.52l.72.63c.56.49,1.11.97,1.67,1.44,1.09.91,2.28,1.83,3.62,2.42.41.18.97.4,1.49.36.25-.02.53-.1.82-.18l.2-.06s.05-.02.08-.04c.16-.08.33-.16.53-.19.07-.01.16-.02.25-.02.42,0,.77.21.99.58.23.39.29.98.17,1.47-.1.4-.32.68-.53.92-.87.98-1.93,1.54-3.14,1.67-.22.02-.45.03-.67.03s-.46-.01-.69-.03c-.92-.1-1.88-.38-2.95-.87-1.59-.74-3.17-1.74-4.96-3.15l-1.47-1.17c-.48.46-.98.93-1.49,1.38-.6.54-1.35,1.14-2.29,1.45-.26.09-.53.13-.82.13-.1,0-.21,0-.32-.02-.13-.01-.25-.03-.38-.06-.8-.16-1.44-.89-1.59-1.82-.16-.98.21-1.96.92-2.43.69-.46,1.55-.36,2.2.24.09.08.17.17.24.27.38-.38.75-.78,1.13-1.2-2.42-2.18-5.53-4.43-8.35-6.66-2.79,2.23-5.73,4.48-8.15,6.66.37.41.74.82,1.13,1.2.07-.1.15-.19.24-.27.65-.6,1.51-.7,2.2-.24.71.47,1.07,1.44.92,2.43-.15.93-.79,1.66-1.59,1.82-.13.03-.25.05-.38.06-.11.01-.22.02-.32.02-.29,0-.56-.04-.82-.13-.94-.32-1.68-.91-2.29-1.45-.51-.45-1.01-.92-1.49-1.38l-1.47,1.17c-1.79,1.41-3.36,2.42-4.96,3.15-1.07.49-2.04.78-2.95.87-.23.02-.46.03-.69.03s-.45-.01-.67-.03c-1.22-.13-2.27-.69-3.14-1.67-.21-.24-.43-.52-.53-.92-.13-.49-.06-1.09.17-1.47.21-.37.56-.58.99-.58.09,0,.17,0,.25.02.2.03.37.12.53.19.03.01.05.03.08.04l.2.06c.29.08.57.16.82.18.52.04,1.07-.17,1.49-.36,1.34-.59,2.53-1.51,3.62-2.42.56-.46,1.11-.95,1.67-1.44l.72-.63c-.18-.17-.35-.35-.53-.52-.38-.37-.8-.71-1.25-1.08-.37.63-1,.99-1.72.97-.91-.03-1.66-.89-1.76-1.98-.12-1.28.61-2.37,1.72-2.6.57-.12,1.16-.07,1.75.14.98.36,1.96.95,3,1.8.33.27.45.35.79.65,2.46-2.29,4.85-4.37,7.19-6.29-11.58-8.4-26.04-16.84-37.24-16.84-2.17,0-4.27.25-6.23.75-.04,0-.17.03-.31.03-.34,0-.55-.12-.61-.35-.1-.37.29-.59.49-.71.71-.41,4.59-1.93,10.72-1.93,8.63,0,21.65,2.48,38.2,14.61l.34.26.07-.05c16.55-12.13,29.78-14.82,38.41-14.82,6.13,0,10.01,1.52,10.72,1.93M647,118.64c-1,1.66-2.39,6.21-2.38,6.28,1.46-1.19,5.86-2.07,7.75-2.48,13.48-2.91,14.32-15.12,14.72-17.51-.35.68-1.31,2.12-9.55,2.5-4.32.2-11.48.73-15.2,7.8.65,1.3,1.16,2.76,1.54,4.36,4.63-11.04,16.04-9.53,17.98-9.94-1.93.84-10.2,1.25-14.86,9M641.93,131.57l2.03-1c-.49-21.65-12.22-22.89-17.89-23.14-8.25-.38-9.2-1.82-9.55-2.5.4,2.39,1.25,14.61,14.72,17.51,1.92.42,4.78.81,6.15,2.03-1.58-14.15-13.29-13.8-15.65-14.83,2.22.47,18.91-3.06,18.14,20.93l2.04,1ZM635.08,69.2c-.36-6.2,6.73-17.21,6.73-17.21,0,0,6.8,11.29,6.73,17.21-.05,4.28-3.01,7.74-6.73,7.74s-6.48-3.48-6.73-7.74M644.73,74.27c-.31.06-.63.09-.96.09-3.52,0-6.37-3.28-6.37-7.33,0-.58.13-1.33.36-2.18-.69,1.82-1.19,3.49-1.19,4.51,0,3.31,2.33,5.99,5.2,5.99,1.1,0,2.13-.4,2.97-1.08M623.32,92.09c0,12.35,17.55,16.29,17.55,16.29v-3.83c0-12.81-17.55-16.29-17.55-16.29v3.83ZM642.68,104.55v3.83s17.55-3.94,17.55-16.29v-3.83s-17.55,3.48-17.55,16.29M627.75,78.21c0,10.04,13.34,13.24,13.34,13.24v-3.12c0-10.41-13.34-13.24-13.34-13.24v3.12ZM642.47,88.33v3.12s13.34-3.2,13.34-13.24v-3.11s-13.34,2.83-13.34,13.24M595.12,56.83c11.59-11.64,19.03-13.71,28.3-15.16-9.49,6.03-18.36,20.04-15.6,29.9,5.01-10.46,13.76-20.69,21.83-24.42-4.56,6.4-4.71,14.37-.32,21.17,1.02-8.83,7.2-17.32,12.38-23,5.17,5.68,11.36,14.17,12.37,23,4.39-6.81,4.25-14.78-.32-21.17,8.07,3.73,16.82,13.95,21.83,24.42,2.76-9.86-6.1-23.87-15.59-29.9,9.27,1.45,16.71,3.52,28.3,15.16-3.82-15.57-17.29-20.97-28.06-22.89,11.85-1.02,14.2.19,24.66,4.52-11.36-11.17-19.33-13.18-30.7-12.09,1.95-1.7,3.82-2.62,6.68-3.38-4.77-1.88-12.24-.89-15.15,1.89,0,0-.57-5.12-4-7.18v-.05s-.02.02-.04.03c-.01,0-.02-.02-.04-.03v.05c-3.43,2.06-4,7.18-4,7.18-2.91-2.78-10.37-3.77-15.15-1.89,2.87.75,4.73,1.67,6.68,3.38-11.38-1.09-19.34.93-30.7,12.09,10.46-4.33,12.81-5.53,24.66-4.52-10.77,1.92-24.23,7.32-28.06,22.89"/>
    </g>
  </g>
</svg>