<?xml version="1.0" encoding="UTF-8"?>
<svg class="svgshadow" id="Layer_2" data-name="Layer 2" xmlns="http://www.w3.org/2000/svg" viewBox="0 0 308.85 46.6">
  <g id="Layer_1-2" data-name="Layer 1">
    <g>
      <path d="M5.08,18.77c-.94,0-1.76-.21-2.45-.64-.69-.43-1.22-1.04-1.58-1.82-.36-.79-.54-1.7-.54-2.74v-2.69h2.44v2.68c0,.63.09,1.17.27,1.6.18.43.43.75.75.96.32.21.69.32,1.1.32s.77-.11,1.09-.32c.32-.21.57-.54.75-.97.18-.43.27-1.08.27-1.94V2.75h2.41v11.74c-.07.9-.29,1.67-.68,2.31-.39.64-.9,1.13-1.54,1.47s-1.41.51-2.29.51Z" style="fill: #10634b;"/>
      <path d="M17.79,7.39c.62.37,1.1.9,1.43,1.6s.5,1.5.5,2.4v2.31c0,1.85-.47,3.24-1.4,4.16-.93.92-2.34,1.38-4.23,1.38h-2.36v-2.25h2.39c.96,0,1.68-.17,2.16-.5.48-.33.76-.67.83-1.01h-.91c-1.5,0-2.63-.37-3.4-1.1-.77-.73-1.16-1.82-1.16-3.25,0-.82.17-1.56.52-2.21.34-.65.82-1.17,1.44-1.53s1.31-.55,2.09-.55,1.49.18,2.11.55ZM17.31,13.32v-1.63c0-1-.15-1.7-.43-2.09-.28-.39-.68-.59-1.2-.59-.31,0-.58.08-.82.25-.24.17-.44.42-.58.74-.15.32-.22.7-.22,1.14,0,.76.17,1.31.51,1.66.34.35.88.52,1.63.52h1.12Z" style="fill: #10634b;"/>
      <path d="M26.88,15.49h-5.25v-2.21h2.04V4.57h2.44v8.75h.5c.65-.02,1.1-.16,1.36-.43.28-.3.42-.82.42-1.56V2.75h2.5v8.6c-.05,1.35-.42,2.37-1.09,3.08-.67.71-1.65,1.06-2.92,1.06ZM25.69,2.22v1.17h-3.45v-1.17h1.16c-.19.41-.37.44-.55.07-.18-.36-.27-.64-.27-.83,0-.29.08-.55.23-.77s.36-.39.62-.52c.26-.12.56-.18.88-.18s.64.05.99.15v1.17c-.36-.09-.66-.14-.91-.14-.17,0-.31.04-.41.13s-.15.2-.15.34c0,.17.07.31.21.42.14.11.33.16.56.16h1.09Z" style="fill: #10634b;"/>
      <path d="M33.23,2.75h2.39v3.5l.02,9.24h-2.42l.02-9.24v-3.5Z" style="fill: #10634b;"/>
      <path d="M50.69,16.55c-.26-.26-.59-.39-.96-.39s-.7.13-.96.39c-.27.26-.41.58-.41.96s.14.69.41.95c.26.27.58.4.96.4s.69-.13.96-.39.41-.58.41-.96-.14-.7-.41-.96ZM47.64,16.55c-.27-.26-.59-.39-.97-.39s-.69.13-.96.39c-.26.26-.4.58-.4.96s.14.69.4.95.59.4.96.4.7-.13.97-.39.4-.58.4-.96-.13-.7-.4-.96Z" style="fill: #10634b;"/>
      <path d="M85.86,16.63c-.25-.25-.54-.37-.89-.37-.33,0-.63.12-.87.37-.24.24-.36.53-.36.86s.12.63.36.87.54.36.87.36.64-.12.88-.36c.25-.24.37-.53.37-.87s-.12-.62-.36-.86Z" style="fill: #10634b;"/>
      <path d="M87.72,7.07v4.28c-.05,1.34-.42,2.36-1.09,3.07-.67.71-1.64,1.07-2.92,1.07h-24.47c-.77,0-1.43-.17-1.98-.5-.24-.14-.42-.35-.55-.63l-3.09-6.43c-.11.01-.29.05-.54.12-.63.17-1.07.4-1.32.67-.25.28-.32.59-.22.93.04.18.14.4.3.65.15.25.4.59.72,1.03l.34.43c.38.49.7.97.96,1.42.25.46.51,1.23.76,2.31h-9.01c-1.64,0-2.85-.42-3.64-1.24-.75-.77-1.12-1.88-1.12-3.33v-2.36h2.39v2.36c0,.54.07.99.23,1.33.15.36.4.63.74.81.33.17.8.26,1.4.26h5.3l-.44-.55c-.38-.5-.69-.95-.93-1.35-.24-.39-.41-.8-.53-1.22-.27-1.01-.08-1.88.56-2.61.65-.74,1.64-1.28,2.97-1.64.74-.19,1.68-.38,2.83-.55l.55,1.32,2.71,6.04c.17.37.54.56,1.13.56h18.38c-.15-.26-.31-.61-.49-1.05l-.53-1.22c-.26-.62-.5-1.07-.72-1.36-.21-.29-.43-.49-.66-.58-.22-.09-.53-.14-.93-.14h-2.47v-2.17h2.47c.81,0,1.48.09,2.01.27.52.19.99.51,1.38.99.4.47.77,1.15,1.12,2.03l.51,1.24c.23.54.43.95.61,1.22.18.28.35.47.5.56.16.1.42.17.78.21h.93c1.17,0,1.89-.15,2.16-.44s.41-.8.41-1.54v-4.27h2.5Z" style="fill: #10634b;"/>
      <path d="M100.08,2.75v3.4l-.04,5.18c0,1.36-.34,2.38-1.01,3.09-.68.71-1.65,1.07-2.92,1.07h-2.07c-.04,1.15-.39,2.05-1.04,2.69-.71.71-1.76,1.11-3.14,1.22h-1.69v-2.28h1.59c.64,0,1.12-.17,1.42-.49.3-.33.46-.87.46-1.62v-7.94h2.47v6.25h1.8c.6-.01,1.03-.16,1.3-.44.27-.29.41-.81.41-1.55l-.04-5.17v-3.41h2.5Z" style="fill: #10634b;"/>
      <path d="M102.26,2.75h2.39v3.5l.02,9.24h-2.42l.02-9.24v-3.5Z" style="fill: #10634b;"/>
      <path d="M147.16,16.63c-.24-.24-.54-.36-.88-.36s-.63.12-.88.36c-.24.24-.36.53-.36.87s.12.62.36.86.54.37.88.37.63-.12.88-.36c.24-.24.37-.53.37-.87s-.13-.63-.37-.87ZM144.2,16.63c-.24-.24-.54-.36-.88-.36s-.63.12-.88.36c-.24.24-.36.53-.36.87s.12.62.36.86.54.37.88.37.63-.12.87-.36c.25-.24.37-.53.37-.87s-.12-.63-.36-.87Z" style="fill: #10634b;"/>
      <path d="M154.93,3.23c-.24-.24-.54-.36-.88-.36s-.63.12-.88.36c-.24.24-.36.53-.36.87s.12.62.36.86c.25.24.54.36.88.36s.63-.12.87-.36c.25-.23.37-.52.37-.86s-.12-.63-.36-.87Z" style="fill: #10634b;"/>
      <path d="M158.09,13.32v2.17h-10.56c-.58,0-1.16-.18-1.74-.53-.32-.2-.61-.46-.87-.81-.19.33-.43.6-.71.8-.5.36-1.21.54-2.15.54h-28.12c-.04,1.15-.39,2.05-1.04,2.69-.71.71-1.76,1.11-3.13,1.22h-1.7v-2.28h1.59c.65,0,1.12-.17,1.42-.49.31-.33.46-.87.46-1.62v-7.94h2.48v6.25h28.04c.57,0,1-.15,1.28-.45.28-.3.4-.78.36-1.44v-3.54h2.56v3.54c-.04.66.09,1.14.37,1.44.28.3.7.45,1.27.45h2.24c-.09-.15-.15-.25-.16-.28-.38-.75-.57-1.49-.57-2.2,0-.86.21-1.63.63-2.31.41-.69.99-1.22,1.73-1.6.74-.39,1.58-.57,2.51-.57.58,0,1.35.11,2.3.34l-.28,2.52c-.83-.3-1.46-.45-1.88-.45-.55,0-1.01.07-1.38.23-.36.15-.65.38-.88.7-.22.32-.33.7-.33,1.14s.16.9.49,1.34c.32.44.78.74,1.38.9s1.31.24,2.12.24h2.27Z" style="fill: #10634b;"/>
      <path d="M165.61,14.92c-.33.38-.52.82-.59,1.34-.05.45,0,.87.15,1.23.15.37.41.68.77.93.36.25.81.44,1.35.57h3.8l-1.08,2.04h-3.13c-.92-.13-1.73-.43-2.42-.9-.69-.47-1.19-1.07-1.51-1.8-.32-.74-.43-1.53-.32-2.38.11-.83.41-1.54.88-2.13.08-.1.18-.21.29-.31-.1-.14-.2-.29-.29-.46-.38-.75-.57-1.48-.57-2.2,0-.86.21-1.63.63-2.31s1-1.22,1.74-1.6c.74-.38,1.57-.57,2.5-.57.59,0,1.35.12,2.31.35l-.28,2.5c-.84-.29-1.46-.44-1.88-.44-.56,0-1.02.08-1.38.23-.36.15-.66.39-.88.71-.22.32-.33.7-.33,1.14s.16.9.48,1.34.79.74,1.39.9c.6.16,1.31.24,2.12.24h1.44v2.11h-2.34c-1.09-.03-2.03-.2-2.83-.51Z" style="fill: #10634b;"/>
      <path d="M230.97,3.97c-.24-.24-.53-.36-.88-.36s-.63.12-.87.36c-.25.24-.37.53-.37.87s.12.62.37.86c.24.24.53.36.87.36s.63-.12.88-.36.37-.52.37-.86-.12-.63-.37-.87ZM228.01,3.97c-.24-.24-.54-.36-.88-.36s-.63.12-.87.36c-.25.24-.37.53-.37.87s.12.62.37.86c.24.24.53.36.87.36s.63-.12.88-.36c.24-.24.37-.52.37-.86s-.13-.63-.37-.87Z" style="fill: #10634b;"/>
      <path d="M235.73,2.75v3.41l.04,5.17c0,.74-.14,1.26-.41,1.55-.28.29-.71.43-1.32.44h-2.29l.42-1.9c.21-.9.14-1.7-.21-2.41-.34-.71-.82-1.25-1.44-1.62-.62-.37-1.32-.55-2.11-.55s-1.47.18-2.09.55c-.61.37-1.09.89-1.44,1.55-.34.65-.51,1.4-.51,2.23s.2,1.53.61,2.15h-2.15c-.54,0-.88-.07-1.01-.2.14-.31.21-.79.21-1.44,0-1.18-.37-2.16-1.1-2.96s-1.77-1.07-3.11-.82l-5.46,1.33V2.64h-2.42v10.68h-32.87c-.62,0-1.07-.15-1.34-.44-.27-.29-.41-.81-.41-1.55l.03-5.18v-3.4h-2.49v3.4l.04,5.18c0,1.36.33,2.38,1,3.09s1.65,1.07,2.93,1.07h41.01c1.18,0,2.08-.26,2.72-.78.52.52,1.16.78,1.92.78h11.78c1.27,0,2.25-.36,2.92-1.07s1.01-1.73,1.01-3.09l.04-5.18v-3.4h-2.5ZM219.2,12.91c-.28.27-.73.41-1.36.41h-5.48v-1.72l5.62-1.34c.56-.12.97-.05,1.23.22.27.26.4.66.4,1.2s-.14.95-.41,1.23ZM229.76,11.24l-.46,2.08h-.37c-.74,0-1.28-.18-1.62-.53-.35-.36-.52-.89-.52-1.61,0-.46.07-.85.2-1.18.14-.33.34-.58.58-.75.24-.16.53-.25.85-.25.49,0,.88.2,1.16.58.28.37.34.93.18,1.66Z" style="fill: #10634b;"/>
      <path d="M240.41,2.75h2.39v3.5l.02,9.24h-2.42l.02-9.24v-3.5Z" style="fill: #10634b;"/>
      <path d="M287.64,3.87c-.24-.24-.54-.36-.88-.36s-.63.12-.87.36c-.25.24-.37.53-.37.87s.12.62.37.86c.24.24.53.36.87.36s.63-.12.88-.36c.24-.23.37-.52.37-.86s-.13-.63-.37-.87ZM284.68,3.87c-.24-.24-.54-.36-.88-.36s-.63.12-.88.36c-.24.24-.36.53-.36.87s.12.62.36.86c.25.24.54.36.88.36s.63-.12.88-.36c.24-.23.37-.52.37-.86s-.13-.63-.37-.87Z" style="fill: #10634b;"/>
      <path d="M284.36,7.07v4.27c0,.74-.13,1.25-.41,1.54-.27.29-.99.44-2.16.44h-.31c-.57,0-1-.15-1.27-.44-.09-.1-.2-.24-.34-.42.01-.03.02-.06.02-.09.18-.77.16-1.5-.07-2.18-.22-.69-.64-1.28-1.25-1.77-.61-.5-1.38-.74-2.32-.74l-4.17.03c-.59,3.15-.99,4.85-1.2,5.09-.25.29-.67.46-1.28.52h-17.43v-6.25h-2.48v7.94c0,.75-.15,1.29-.46,1.62-.3.32-.77.49-1.42.49h-1.59v2.28h1.7c1.38-.11,2.42-.51,3.13-1.22.65-.64,1-1.54,1.04-2.69h17.58s.5-.01.5-.01c.49,0,.95-.1,1.37-.3.39-.18.74-.58,1.05-1.21.64.73,1.37,1.18,2.19,1.37.8.19,1.57.19,2.29,0,.58-.16,1.08-.42,1.52-.78.17.17.36.31.54.43.56.33,1.22.5,1.99.5h1.74c1.27,0,2.24-.36,2.92-1.07.67-.71,1.03-1.73,1.09-3.07v-4.28h-2.51ZM277.79,11.88c-.08.31-.23.57-.44.77-.21.19-.49.33-.85.39-.35.07-.75.05-1.19-.06-.7-.15-1.19-.44-1.45-.86-.27-.43-.32-.99-.16-1.7l.08-.37h2.14c.73.02,1.26.21,1.57.56.32.36.42.78.3,1.27Z" style="fill: #10634b;"/>
      <path d="M293.17,4.3c-.24,0-.43-.05-.57-.16-.13-.11-.2-.25-.2-.42,0-.13.05-.25.15-.33.1-.09.23-.14.4-.14.25,0,.55.05.91.14v-1.16c-.35-.1-.68-.15-.99-.15s-.61.06-.88.19c-.26.12-.47.29-.62.51-.15.22-.22.48-.22.77,0,.17.08.43.23.75h-.58v1.17h3.46v-1.17h-1.09Z" style="fill: #10634b;"/>
      <path d="M308.66,10.19c-.23-.69-.65-1.28-1.26-1.77-.61-.5-1.38-.74-2.31-.74l-4.18.03c-.58,3.15-.98,4.85-1.2,5.09-.24.29-.67.46-1.28.52h-1.53v-1.93c0-.91-.17-1.71-.51-2.4-.33-.7-.81-1.23-1.43-1.6-.61-.37-1.32-.55-2.1-.55s-1.48.18-2.09.55c-.62.37-1.1.88-1.44,1.54-.35.65-.52,1.39-.52,2.21,0,1.43.39,2.51,1.16,3.25.77.73,1.9,1.1,3.4,1.1h.91c-.07.33-.34.67-.83,1-.48.34-1.2.5-2.15.5h-2.39v2.25h2.36c1.89,0,3.3-.46,4.23-1.38.61-.6,1.01-1.39,1.23-2.37h1.77s.5-.01.5-.01c.5,0,.96-.1,1.38-.3.39-.18.73-.58,1.04-1.21.64.73,1.37,1.18,2.19,1.37.81.19,1.57.19,2.29,0,.72-.19,1.33-.55,1.83-1.06.5-.52.83-1.16,1-1.91.18-.77.16-1.5-.07-2.18ZM293.37,13.32c-.75,0-1.29-.17-1.63-.52-.34-.35-.51-.9-.51-1.66,0-.44.07-.82.22-1.14.14-.33.34-.57.58-.74.24-.17.52-.26.83-.26.51,0,.91.2,1.19.6.29.39.43,1.09.43,2.09v1.63s-1.11,0-1.11,0ZM306.62,11.88c-.08.31-.22.57-.43.77-.22.19-.5.33-.85.39-.36.07-.75.05-1.2-.06-.7-.15-1.18-.44-1.45-.86-.27-.43-.32-.99-.16-1.7l.09-.37h2.13c.74.02,1.26.21,1.58.56.31.36.41.78.29,1.27Z" style="fill: #10634b;"/>
      <path d="M7.15,30.58c-.25-.24-.54-.36-.89-.36-.33,0-.63.12-.87.36-.24.24-.36.53-.36.87s.12.62.36.86.54.36.87.36.64-.12.88-.36c.25-.23.37-.52.37-.86s-.12-.63-.36-.87ZM4.19,30.58c-.25-.24-.54-.36-.89-.36s-.63.12-.87.36c-.24.24-.37.53-.37.87s.13.62.37.86.53.36.87.36.63-.12.88-.36c.25-.23.37-.52.37-.86s-.12-.63-.36-.87Z" style="fill: #10634b;"/>
      <path d="M18.2,40.52c-.81,0-1.51-.08-2.12-.24-.6-.16-1.06-.46-1.38-.9-.33-.44-.49-.88-.49-1.34s.11-.82.34-1.14c.22-.32.51-.55.87-.7.37-.16.83-.23,1.39-.23.41,0,1.04.15,1.87.45l.28-2.52c-.95-.23-1.72-.34-2.3-.34-.93,0-1.77.18-2.51.57-.74.38-1.32.91-1.73,1.6-.42.68-.63,1.45-.63,2.31,0,.71.19,1.45.57,2.2.02.03.07.13.16.28h-2.2c-.55,0-.98-.15-1.27-.46-.29-.31-.44-.79-.44-1.44v-5.03h-2.23v.78l-2.12-.28c-.91-.13-1.7.01-2.38.42-.67.41-1.17.94-1.48,1.58-.32.65-.45,1.37-.39,2.15.08.78.33,1.46.75,2.04.42.57.97,1,1.66,1.29.69.28,1.44.39,2.26.33.78-.07,1.49-.34,2.12-.81.22.41.58.77,1.08,1.07.58.35,1.27.53,2.07.53h10.52v-2.17h-2.27ZM6.05,38.83c-.33.38-.85.59-1.56.65-.46.05-.86.01-1.2-.1-.33-.12-.6-.28-.79-.51-.19-.22-.29-.49-.32-.81-.04-.51.11-.92.47-1.22.35-.31.9-.42,1.63-.32l2.16.26v.37c.06.74-.07,1.3-.39,1.68Z" style="fill: #10634b;"/>
      <path d="M22.64,29.95h2.39v3.5l.02,9.24h-2.42l.02-9.24v-3.5Z" style="fill: #10634b;"/>
      <path d="M25.69,44.32h1.59c.65,0,1.12-.16,1.42-.49s.46-.87.46-1.62v-7.94h2.42v7.98c0,1.38-.35,2.43-1.06,3.13-.71.71-1.75,1.11-3.13,1.21h-1.7v-2.28Z" style="fill: #10634b;"/>
      <path d="M37.54,31.4c-.24-.24-.54-.36-.88-.36s-.63.12-.88.36c-.24.24-.36.53-.36.87s.12.62.36.86c.25.24.54.36.88.36s.63-.12.87-.36c.25-.23.37-.52.37-.86s-.12-.63-.36-.87Z" style="fill: #10634b;"/>
      <path d="M49.25,29.95v3.4l-.04,5.18c0,1.36-.34,2.38-1.01,3.09-.67.71-1.65,1.07-2.92,1.07h-7.31c-.04,1.15-.39,2.05-1.04,2.69-.71.71-1.76,1.11-3.14,1.22h-1.69v-2.28h1.59c.64,0,1.12-.16,1.42-.49s.46-.87.46-1.62v-7.94h2.47v6.25h6.99c.63,0,1.07-.15,1.35-.44.27-.29.41-.81.41-1.55l-.04-5.17v-3.41h2.5Z" style="fill: #10634b;"/>
      <path d="M51.43,29.95h2.39v3.5l.02,9.24h-2.42l.02-9.24v-3.5Z" style="fill: #10634b;"/>
      <path d="M62.13,34.59c.62.37,1.1.9,1.43,1.6s.5,1.5.5,2.4v2.31c0,1.85-.47,3.24-1.4,4.16-.93.92-2.34,1.38-4.23,1.38h-2.36v-2.25h2.39c.96,0,1.68-.17,2.16-.5.48-.33.76-.67.83-1.01h-.91c-1.5,0-2.63-.37-3.4-1.1-.77-.73-1.16-1.82-1.16-3.25,0-.82.17-1.56.52-2.21.34-.65.82-1.17,1.44-1.53s1.31-.55,2.09-.55,1.49.18,2.11.55ZM61.66,40.52v-1.63c0-1-.15-1.7-.43-2.09-.28-.39-.68-.59-1.2-.59-.31,0-.58.08-.82.25-.24.17-.44.42-.58.74-.15.32-.22.7-.22,1.14,0,.76.17,1.31.51,1.66.34.35.88.52,1.63.52h1.12Z" style="fill: #10634b;"/>
      <path d="M73.74,42.7c-1.72-.32-2.67-1.61-2.86-3.87-.08-.82.02-1.57.3-2.26.28-.69.71-1.25,1.29-1.68.58-.43,1.26-.68,2.03-.75.79-.07,1.5.05,2.15.36.65.31,1.17.8,1.59,1.47.41.67.56,1.47.44,2.39l-.57,4.33h-4.36ZM76,40.51l.25-2.12c.09-.73-.02-1.28-.34-1.63-.31-.35-.72-.51-1.21-.46-.33.03-.6.14-.82.33s-.39.46-.5.8c-.11.34-.14.74-.09,1.2.07.71.29,1.22.67,1.54.38.32.94.45,1.67.38l.38-.04Z" style="fill: #10634b;"/>
      <path d="M136.74,29.95v3.41l.04,5.17c0,.74-.14,1.26-.41,1.55-.27.28-.7.43-1.3.44h-.35c-.54-.01-.93-.16-1.2-.44-.09-.1-.2-.24-.34-.42.01-.03.02-.06.03-.09.18-.77.15-1.5-.07-2.18-.23-.69-.65-1.28-1.26-1.77-.61-.5-1.38-.74-2.31-.74l-4.18.03c-.59,3.15-.98,4.85-1.2,5.09-.24.29-.67.46-1.28.52h-.28c-.56,0-.99-.15-1.27-.45s-.41-.78-.37-1.44v-3.54h-2.56v3.54c.04.66-.08,1.14-.36,1.44s-.71.45-1.28.45h-31.89c-.62,0-1.07-.15-1.35-.44-.27-.29-.41-.81-.41-1.55l.04-5.18v-3.4h-2.5v3.4l.04,5.18c0,1.36.34,2.38,1.01,3.09.67.71,1.64,1.07,2.92,1.07h32.14c.94,0,1.65-.18,2.15-.54.27-.2.51-.46.72-.79.25.34.54.61.86.8.58.35,1.16.53,1.74.53h.69s.53-.01.53-.01c.5,0,.96-.1,1.38-.3.38-.18.73-.58,1.04-1.21.64.73,1.37,1.18,2.19,1.37.81.19,1.57.19,2.3,0,.57-.16,1.08-.42,1.51-.78.18.17.36.31.54.43.56.33,1.23.5,2,.5h.83c1.27,0,2.24-.36,2.92-1.07.67-.71,1.01-1.73,1.01-3.09l.04-5.18v-3.4h-2.5ZM131.1,39.08c-.08.31-.22.57-.44.77-.21.19-.49.33-.84.39-.36.07-.76.05-1.2-.06-.7-.15-1.18-.44-1.45-.86-.27-.43-.32-.99-.16-1.7l.09-.37h2.13c.74.02,1.26.21,1.58.56.31.36.41.78.29,1.27Z" style="fill: #10634b;"/>
      <path d="M121.89,43.83c-.24-.24-.54-.36-.88-.36s-.63.12-.87.36c-.25.24-.37.53-.37.87s.12.62.37.86c.24.25.53.37.87.37s.63-.12.88-.36c.24-.24.37-.53.37-.87s-.13-.63-.37-.87ZM118.93,43.83c-.24-.24-.54-.36-.88-.36s-.63.12-.88.36c-.24.24-.36.53-.36.87s.12.62.36.86.54.37.88.37.63-.12.88-.36c.24-.24.36-.53.36-.87s-.12-.63-.36-.87Z" style="fill: #10634b;"/>
      <path d="M141.42,29.95h2.39v3.5l.02,9.24h-2.42l.02-9.24v-3.5Z" style="fill: #10634b;"/>
      <path d="M152.12,34.59c.62.37,1.1.9,1.43,1.6s.5,1.5.5,2.4v2.31c0,1.85-.47,3.24-1.4,4.16-.93.92-2.34,1.38-4.23,1.38h-2.36v-2.25h2.39c.96,0,1.68-.17,2.16-.5.48-.33.76-.67.83-1.01h-.91c-1.5,0-2.63-.37-3.4-1.1-.77-.73-1.16-1.82-1.16-3.25,0-.82.17-1.56.52-2.21.34-.65.82-1.17,1.44-1.53s1.31-.55,2.09-.55,1.49.18,2.11.55ZM151.64,40.52v-1.63c0-1-.15-1.7-.43-2.09-.28-.39-.68-.59-1.2-.59-.31,0-.58.08-.82.25-.24.17-.44.42-.58.74-.15.32-.22.7-.22,1.14,0,.76.17,1.31.51,1.66.34.35.88.52,1.63.52h1.12Z" style="fill: #10634b;"/>
      <path d="M167.7,30.58c-.24-.24-.53-.36-.88-.36s-.63.12-.87.36c-.24.24-.37.53-.37.87s.13.62.37.86.53.36.87.36.63-.12.88-.36c.25-.23.37-.52.37-.86s-.12-.63-.37-.87ZM164.74,30.58c-.24-.24-.53-.36-.88-.36s-.63.12-.87.36c-.25.24-.37.53-.37.87s.12.62.37.86c.24.24.53.36.87.36s.63-.12.88-.36c.25-.23.37-.52.37-.86s-.12-.63-.37-.87Z" style="fill: #10634b;"/>
      <path d="M196.88,29.95v3.41l.03,5.17c0,.74-.13,1.26-.41,1.55-.27.29-.72.44-1.34.44h-.32c-.57,0-1-.15-1.28-.45-.28-.3-.4-.78-.36-1.44v-3.54h-2.56v3.54c.03.66-.09,1.14-.37,1.44-.28.3-.7.45-1.27.45h-.41c-.57,0-1-.15-1.28-.45-.28-.3-.4-.78-.36-1.44v-3.54h-2.56v3.54c.03.66-.09,1.14-.37,1.44-.28.3-.71.45-1.27.45h-.41c-.57,0-1-.15-1.28-.45-.28-.3-.4-.78-.37-1.44v-3.54h-2.55v3.54c.03.66-.09,1.14-.37,1.44-.28.3-.71.45-1.28.45h-5.61c-.55,0-.98-.15-1.27-.46s-.44-.79-.44-1.44v-5.03h-2.23v.78l-2.12-.28c-.91-.13-1.7.01-2.38.42-.67.41-1.17.94-1.49,1.58-.32.65-.44,1.37-.38,2.15.08.78.33,1.46.75,2.04.42.57.97,1,1.66,1.29.69.28,1.44.39,2.26.33.78-.07,1.49-.34,2.12-.81.21.41.58.77,1.08,1.07.58.35,1.27.53,2.07.53h5.98c.94,0,1.66-.18,2.15-.54.27-.2.51-.46.72-.79.25.34.54.61.86.8.58.35,1.16.53,1.74.53h.79c.93,0,1.65-.18,2.14-.54.27-.2.51-.46.72-.79.25.34.54.61.86.8.58.35,1.16.53,1.74.53h.79c.93,0,1.65-.18,2.15-.54.27-.2.5-.46.71-.79.25.34.54.61.86.8.58.35,1.16.53,1.74.53h.94c1.28,0,2.25-.36,2.92-1.07.68-.71,1.01-1.73,1.01-3.09l.04-5.18v-3.4h-2.49ZM166.61,38.83c-.33.38-.85.59-1.56.65-.46.05-.86.01-1.2-.1-.34-.12-.6-.28-.79-.51-.19-.22-.29-.49-.32-.81-.05-.51.11-.92.47-1.22.35-.31.9-.42,1.63-.32l2.16.26v.37c.06.74-.07,1.3-.39,1.68Z" style="fill: #10634b;"/>
      <path d="M180.03,32.56c-.24,0-.42-.05-.56-.16-.14-.11-.21-.25-.21-.42,0-.14.05-.25.15-.34.1-.08.24-.13.41-.13.24,0,.55.05.91.14v-1.16c-.35-.1-.68-.15-1-.15s-.61.06-.87.18c-.27.13-.47.3-.62.52-.15.22-.23.48-.23.77,0,.17.08.43.23.75h-.57v1.17h3.45v-1.17h-1.09Z" style="fill: #10634b;"/>
      <path d="M187.84,43.83c-.24-.24-.53-.36-.88-.36s-.63.12-.87.36c-.25.24-.37.53-.37.87s.12.62.37.86c.24.25.53.37.87.37s.63-.12.88-.36.37-.53.37-.87-.12-.63-.37-.87ZM184.88,43.83c-.24-.24-.54-.36-.88-.36s-.63.12-.87.36c-.25.24-.37.53-.37.87s.12.62.37.86c.24.25.53.37.87.37s.63-.12.88-.36c.24-.24.37-.53.37-.87s-.12-.63-.37-.87Z" style="fill: #10634b;"/>
      <path d="M192.99,43.83c-.25-.25-.54-.37-.88-.37s-.64.12-.88.37c-.24.24-.36.53-.36.87s.12.62.36.86.54.36.88.36.63-.12.87-.36c.25-.24.37-.53.37-.86s-.12-.63-.36-.87Z" style="fill: #10634b;"/>
      <path d="M201.56,29.95h2.39v3.5l.02,9.24h-2.42l.02-9.24v-3.5Z" style="fill: #10634b;"/>
      <path d="M213.92,42.7c-1.72-.32-2.67-1.61-2.86-3.87-.08-.82.02-1.57.3-2.26.28-.69.71-1.25,1.29-1.68.58-.43,1.26-.68,2.03-.75.79-.07,1.5.05,2.15.36.65.31,1.17.8,1.59,1.47.41.67.56,1.47.44,2.39l-.57,4.33h-4.36ZM212.69,32.97c-.24-.24-.36-.53-.36-.86s.12-.63.36-.87c.24-.24.53-.36.87-.36s.64.12.88.36c.24.24.36.53.36.87s-.12.63-.37.87c-.25.24-.54.36-.88.36s-.63-.12-.87-.36ZM216.18,40.51l.25-2.12c.09-.73-.02-1.28-.34-1.63-.31-.35-.72-.51-1.21-.46-.33.03-.6.14-.82.33s-.39.46-.5.8c-.11.34-.14.74-.09,1.2.07.71.29,1.22.67,1.54.38.32.94.45,1.67.38l.38-.04ZM215.66,32.97c-.24-.24-.36-.53-.36-.86s.12-.63.36-.87c.24-.24.53-.36.87-.36s.64.12.88.36c.24.24.37.53.37.87s-.12.63-.37.87c-.25.24-.54.36-.88.36s-.63-.12-.87-.36Z" style="fill: #10634b;"/>
      <path d="M219.35,44.32h1.59c.65,0,1.12-.16,1.42-.49s.46-.87.46-1.62v-7.94h2.42v7.98c0,1.38-.35,2.43-1.06,3.13-.71.71-1.75,1.11-3.13,1.21h-1.7v-2.28Z" style="fill: #10634b;"/>
      <path d="M227.73,29.95h2.39v3.5l.02,9.24h-2.42l.02-9.24v-3.5Z" style="fill: #10634b;"/>
      <path d="M230.77,44.32h1.59c.65,0,1.12-.16,1.42-.49s.46-.87.46-1.62v-7.94h2.42v7.98c0,1.38-.35,2.43-1.06,3.13-.71.71-1.75,1.11-3.13,1.21h-1.7v-2.28ZM234.45,33.13c-.24-.24-.37-.53-.37-.86s.12-.63.37-.87c.24-.24.53-.36.87-.36s.64.12.88.36c.24.24.37.53.37.87s-.12.63-.37.87c-.25.24-.54.36-.88.36s-.63-.12-.87-.36Z" style="fill: #10634b;"/>
      <path d="M244.84,34.59c.62.37,1.1.9,1.43,1.6s.5,1.5.5,2.4v2.31c0,1.85-.47,3.24-1.4,4.16-.93.92-2.34,1.38-4.23,1.38h-2.36v-2.25h2.39c.96,0,1.68-.17,2.16-.5.48-.33.76-.67.83-1.01h-.91c-1.5,0-2.63-.37-3.4-1.1-.77-.73-1.16-1.82-1.16-3.25,0-.82.17-1.56.52-2.21.34-.65.82-1.17,1.44-1.53s1.31-.55,2.09-.55,1.49.18,2.11.55ZM244.36,40.52v-1.63c0-1-.15-1.7-.43-2.09-.28-.39-.68-.59-1.2-.59-.31,0-.58.08-.82.25-.24.17-.44.42-.58.74-.15.32-.22.7-.22,1.14,0,.76.17,1.31.51,1.66.34.35.88.52,1.63.52h1.12Z" style="fill: #10634b;"/>
      <path d="M263.96,43.75c-.27-.26-.6-.39-.97-.39s-.69.13-.96.39-.4.58-.4.96.13.69.4.95c.27.27.59.4.96.4s.69-.13.96-.39.41-.58.41-.96-.14-.7-.4-.96ZM260.9,43.75c-.26-.26-.59-.39-.96-.39s-.7.13-.96.39c-.27.26-.41.58-.41.96s.14.69.41.95c.26.27.58.4.96.4s.69-.13.96-.39.41-.58.41-.96-.14-.7-.41-.96Z" style="fill: #10634b;"/>
      <path d="M308.2,36.21c-.34-.71-.82-1.25-1.44-1.62-.62-.37-1.32-.55-2.11-.55s-1.47.18-2.09.55c-.61.37-1.09.89-1.44,1.55-.34.65-.51,1.4-.51,2.23s.2,1.53.61,2.15h-28.2c-.59,0-.96-.19-1.12-.56l-2.72-6.04-.55-1.32c-1.15.17-2.09.36-2.83.55-1.33.36-2.32.9-2.96,1.64-.65.73-.84,1.6-.57,2.61.12.42.3.83.53,1.22.24.4.55.85.93,1.35l.44.55h-5.3c-.6,0-1.06-.09-1.4-.26-.34-.18-.59-.45-.74-.81-.15-.34-.23-.79-.23-1.33v-2.36h-2.39v2.36c0,1.45.37,2.56,1.12,3.33.79.82,2,1.24,3.64,1.24h9.01c-.25-1.08-.51-1.85-.76-2.31-.26-.45-.58-.93-.96-1.42l-.33-.43c-.33-.44-.57-.78-.73-1.03-.16-.25-.26-.47-.3-.65-.1-.34-.02-.65.22-.93.25-.27.69-.5,1.32-.67.25-.07.43-.11.54-.12l3.09,6.43c.13.28.31.49.55.63.55.33,1.21.5,1.98.5h34.96l.96-4.06c.2-.9.13-1.71-.22-2.42ZM306,38.44l-.45,2.08h-.38c-.73,0-1.27-.18-1.62-.53-.35-.36-.52-.89-.52-1.61,0-.46.07-.85.21-1.18.14-.33.33-.58.57-.75.24-.16.53-.25.85-.25.49,0,.88.2,1.16.58.28.38.34.93.18,1.66Z" style="fill: #10634b;"/>
      <path d="M305.75,31.17c-.24-.24-.53-.36-.88-.36s-.63.12-.87.36c-.24.24-.37.53-.37.87s.13.62.37.86c.24.24.53.36.87.36s.63-.12.88-.36.37-.52.37-.86-.12-.63-.37-.87Z" style="fill: #10634b;"/>
    </g>
  </g>
</svg>