<?xml version="1.0" encoding="UTF-8"?>
<svg id="Layer_2" data-name="Layer 2" xmlns="http://www.w3.org/2000/svg" viewBox="0 0 936.92 142.67">
  <defs>
    <style>
      .cls-1 {
        fill: #2c6855;
      }
    </style>
  </defs>
  <g id="Layer_1-2" data-name="Layer 1">
    <g>
      <g>
        <path class="cls-1" d="M522.37,74.8s.37.47.81-.05c0,0,.41-1.31,1.38.19.59.9,1.25,1.99,1.84,3.41.3,1.26.74,2.18.96,3.28l.1.23s-1.33-.42-2.59,4.07c0,0,.14.56,1.01.05,0,0,.82-2.1,2.55-.47,0,0-3.46.84-3.87,2.02,0,0-.81,1.3-.81,2.1,0,0-.51,1.08.37,3.8,0,0,2.34,11.13,2.28,11.7-.05.56.3,4.82.3,4.82,0,0,.61.56,1.17-1.45s-1.33-11.19-1.33-11.19c0,0-1.43-6.36-1.63-6.93l-.05-.33s1.68-1.54,6.97-2.2l1.32-2.2s0-1.87-4.52-3.74l.9-3.75.97-5.25s1.27-2.99,2.5-1.02c0,0,1.11,1.68,1.83.46,0,0,.72-1.91.51-2.44,0,0-1.83-3.13-3.82-1.5-1.99,1.64-2.39,4.36-2.39,4.36,0,0-.72,3.28-.77,4.44l-.05.19s-.4-1.36-.97-2.67c-.47-1.08-1.07-2.13-1.32-2.38-.56-.56-3.06-3.65-5.3-2.48-.35.41-.87.7-.82,3.18.1.13.37.46,2.45,1.73"/>
        <path class="cls-1" d="M548.84,54.26s4.86-7.48,5.35-8.04c.49-.55,9.24-1.12,11.54-.89,2.31.23,6.45.44,5.59,4.36-.72,2.35-5.71,9.61-7.28,10.95-1.58,1.35-7.42,2.8-11.18,3.23-3.77.45-4.49.12-3.52-.33.97-.44,13.13-6.37,14.22-7.26l1.09-.89s0-1.01-.97-1.01-9.6-.11-11.78.34c-2.19.45-3.29,0-3.04-.45"/>
        <path class="cls-1" d="M631.86,63.47s.44-.35.78-.11c.34.26,2.39,3.18,2.57,6.16.06,1.04,0,1.95.73.62.73-1.34,1.28-5.7,1.61-7.75.34-2.04.96-3.94,1.85-4.3.89-.36,1.73,1.48,1.73,1.48,0,0,.22.67.78-.93.56-1.58.27-1.12.27-1.12,0,0-.94-1.75-2.23-1.95-.74-.12-1.67.71-2.35,2.2-.3.69-.78,2.27-.94,3.85-.28,2.72-.5,3.94-.67,4.42,0,0-1.17-2.67-1.34-3.24-.17-.55-1.79-3.53-3.85-4.25-2.07-.71-2.01.41-1.95,1.13.06.73.11,1.8.11,1.8l1.16,1.02,1.46,1.08.29-.1h-.01Z"/>
        <path class="cls-1" d="M660.29,110.31s.44-.35.78-.1c.33.25,2.41,3.18,2.56,6.15.06,1.04,0,1.95.73.62.73-1.34,1.28-5.69,1.61-7.75.33-2.04.96-3.94,1.85-4.3.89-.36,1.72,1.48,1.72,1.48,0,0,.23.67.78-.93.56-1.58.28-1.13.28-1.13,0,0-.95-1.75-2.23-1.95-.75-.11-1.68.7-2.35,2.21-.3.69-.78,2.26-.94,3.85-.28,2.72-.5,3.94-.67,4.41,0,0-1.17-2.67-1.34-3.23-.17-.56-1.79-3.53-3.85-4.25-2.07-.72-2.01.4-1.96,1.13.06.72.11,1.8.11,1.8l1.17,1.02,1.45,1.08.28-.1h.02Z"/>
        <path class="cls-1" d="M595.65,37.28s.44-.37.77-.11c.35.26,2.41,3.18,2.57,6.15.05,1.03,0,1.95.73.62.73-1.34,1.28-5.7,1.62-7.74.33-2.06.94-3.95,1.84-4.31.9-.37,1.74,1.49,1.74,1.49,0,0,.21.66.78-.93.56-1.58.28-1.12.28-1.12,0,0-.95-1.76-2.23-1.96-.74-.12-1.68.72-2.35,2.21-.3.69-.79,2.26-.94,3.85-.28,2.72-.52,3.96-.68,4.42,0,0-1.17-2.67-1.34-3.24-.17-.56-1.78-3.53-3.84-4.25-2.07-.72-2.03.4-1.96,1.13.05.71.12,1.79.12,1.79l1.16,1.03,1.46,1.08.28-.1h-.01Z"/>
        <path class="cls-1" d="M553.21,30.62s.44-.36.78-.1c.35.26,2.41,3.18,2.56,6.15.06,1.02,0,1.95.73.62.74-1.33,1.29-5.7,1.63-7.75.33-2.06.95-3.96,1.84-4.31.9-.37,1.73,1.48,1.73,1.48,0,0,.21.67.78-.93.56-1.57.28-1.12.28-1.12,0,0-.95-1.75-2.23-1.95-.73-.12-1.68.7-2.34,2.2-.31.68-.79,2.27-.94,3.85-.28,2.72-.51,3.95-.67,4.42,0,0-1.17-2.67-1.34-3.24-.17-.56-1.78-3.53-3.85-4.26-2.06-.71-2.02.41-1.95,1.14.05.71.11,1.79.11,1.79l1.16,1.02,1.46,1.08.27-.1h-.01Z"/>
        <path class="cls-1" d="M544.88,75.86s.44-.36.78-.11,2.4,3.19,2.57,6.15c.05,1.02,0,1.95.72.62.73-1.34,1.28-5.7,1.63-7.75.33-2.06.95-3.95,1.83-4.31.91-.36,1.74,1.49,1.74,1.49,0,0,.22.66.79-.93.56-1.59.28-1.13.28-1.13,0,0-.95-1.75-2.24-1.95-.74-.12-1.67.71-2.34,2.2-.3.68-.79,2.26-.94,3.85-.28,2.73-.51,3.96-.68,4.41,0,0-1.17-2.67-1.34-3.23-.16-.57-1.78-3.53-3.85-4.26-2.05-.71-2.01.41-1.94,1.13.05.72.11,1.8.11,1.8l1.17,1.03,1.45,1.08.28-.1h-.02Z"/>
        <path class="cls-1" d="M654.54,10.22s.5-.4.87-.12c.38.3,2.7,3.58,2.88,6.93.06,1.15,0,2.19.82.7.82-1.5,1.45-6.41,1.82-8.71.38-2.31,1.08-4.45,2.08-4.85,1.01-.4,1.95,1.67,1.95,1.67,0,0,.24.75.88-1.04.62-1.78.31-1.26.31-1.26,0,0-1.07-1.96-2.52-2.19-.83-.14-1.88.8-2.64,2.48-.34.77-.87,2.54-1.07,4.33-.32,3.06-.56,4.44-.75,4.96,0,0-1.32-3.01-1.5-3.64-.18-.64-2.02-3.97-4.33-4.8-2.32-.8-2.26.47-2.2,1.28.06.81.12,2.02.12,2.02l1.31,1.14,1.63,1.22.32-.12h.02Z"/>
        <path class="cls-1" d="M500.05,41.07s.68-.55,1.21-.16c.52.4,3.72,4.92,3.96,9.52.09,1.58,0,3,1.13.95,1.13-2.06,1.99-8.82,2.51-11.98.52-3.18,1.47-6.11,2.83-6.66,1.4-.56,2.69,2.3,2.69,2.3,0,0,.34,1.04,1.22-1.43.85-2.46.42-1.75.42-1.75,0,0-1.47-2.7-3.46-3.01-1.14-.18-2.59,1.1-3.62,3.41-.47,1.05-1.22,3.5-1.47,5.96-.43,4.19-.78,6.11-1.04,6.82,0,0-1.81-4.13-2.07-5.01-.24-.87-2.76-5.47-5.95-6.58-3.19-1.11-3.11.63-3.02,1.75.08,1.1.17,2.77.17,2.77l1.82,1.59,2.24,1.66.43-.16h0Z"/>
      </g>
      <polygon class="cls-1" points="541.41 97.99 546.76 91.25 554.02 96.53 549.21 103.27 541.41 97.99"/>
      <g>
        <path class="cls-1" d="M535.31,24.63s-.64,4.17-2.48,8.71c-1.83,4.54-3.34,7.48-2.62,12.46.71,4.98,3.97,4.98,4.53,4.83.57-.15.96-.29,1.2-.81.24-.51.33-.87.72-1.54.4-.66,1.43-2.19,1.43-2.19,0,0,.88-.88.64.65-.24,1.54-.56,3.52-2.79,7.47,0,0-3.5,6.59-7.09,3.73-3.59-2.85-2.3-9.87-2.07-11.27.23-1.39,2.23-7.84,3.27-10.61,1.04-2.79,3.03-7.18,3.26-7.69.24-.51,1.36-3.08,1.36-3.08,0,0,.64-1.32.64-.66"/>
        <path class="cls-1" d="M486.46,21.58s-.64,4.17-2.48,8.71c-1.82,4.55-3.34,7.47-2.62,12.46.71,4.98,3.98,4.98,4.54,4.84.56-.15.96-.29,1.2-.8.24-.52.32-.88.71-1.54.4-.66,1.44-2.19,1.44-2.19,0,0,.88-.88.64.65-.24,1.54-.56,3.52-2.78,7.47,0,0-3.51,6.58-7.09,3.73-3.58-2.86-2.3-9.89-2.07-11.27.23-1.4,2.22-7.84,3.26-10.62,1.04-2.78,3.03-7.17,3.27-7.69.24-.51,1.35-3.08,1.35-3.08,0,0,.64-1.32.64-.65"/>
        <path class="cls-1" d="M632.55,9.52s-.37,2.4-1.43,5.01c-1.05,2.61-1.92,4.29-1.5,7.15.41,2.86,2.29,2.86,2.6,2.77.32-.09.55-.17.7-.46.12-.29.18-.51.41-.88.22-.38.82-1.25.82-1.25,0,0,.51-.51.37.37-.13.88-.31,2.02-1.59,4.29,0,0-2.03,3.79-4.09,2.15-2.06-1.64-1.32-5.68-1.18-6.48.13-.81,1.28-4.51,1.87-6.1.59-1.59,1.74-4.12,1.87-4.42.14-.29.78-1.77.78-1.77,0,0,.37-.76.37-.38"/>
        <path class="cls-1" d="M599.13,64.2s-.38,2.4-1.43,5.01c-1.04,2.62-1.91,4.29-1.51,7.15.42,2.86,2.3,2.86,2.61,2.79.33-.09.55-.18.69-.47.13-.3.18-.51.41-.88.23-.38.82-1.26.82-1.26,0,0,.51-.52.37.37s-.31,2.02-1.59,4.29c0,0-2.03,3.79-4.08,2.14-2.06-1.64-1.32-5.68-1.19-6.47.14-.8,1.29-4.5,1.88-6.1.6-1.6,1.74-4.13,1.87-4.42.14-.29.78-1.77.78-1.77,0,0,.38-.76.38-.38"/>
        <path class="cls-1" d="M579.51,112.26s-.38,2.39-1.44,5c-1.04,2.61-1.91,4.29-1.5,7.16.41,2.86,2.29,2.86,2.6,2.78.34-.09.55-.17.7-.46.13-.3.17-.52.4-.89.23-.38.83-1.26.83-1.26,0,0,.5-.51.36.38-.14.88-.31,2.01-1.58,4.29,0,0-2.03,3.78-4.08,2.14s-1.33-5.68-1.19-6.48c.12-.79,1.28-4.51,1.88-6.1.59-1.6,1.74-4.13,1.87-4.42s.76-1.77.76-1.77c0,0,.38-.76.38-.37"/>
        <path class="cls-1" d="M658.83,46.16s-.37,2.4-1.42,5.01c-1.06,2.62-1.93,4.28-1.52,7.16.41,2.85,2.3,2.85,2.61,2.77.32-.08.56-.17.69-.46.14-.3.18-.52.41-.89.23-.38.82-1.26.82-1.26,0,0,.51-.52.37.37-.14.88-.31,2.02-1.6,4.29,0,0-2.02,3.79-4.07,2.14-2.06-1.64-1.33-5.68-1.19-6.47.13-.8,1.28-4.51,1.87-6.11.59-1.6,1.74-4.12,1.87-4.42.14-.29.78-1.76.78-1.76,0,0,.37-.77.37-.38"/>
        <path class="cls-1" d="M545.7,19.58s-.17-2.15,1.39-3.07c0,0,31.59-10.13,52.97-16.51l-.95,2.75-53.41,16.82h0Z"/>
        <path class="cls-1" d="M686.3,22.7s-46.76,11.73-66.32,21.58c-1.65,3.22-2.06,4.17-2.06,4.17,0,0,9.27-7.21,65.91-22.36,1.85-2.26,2.47-3.4,2.47-3.4"/>
        <path class="cls-1" d="M616.44,92.23c-.27-2.55-.26-6.02-.13-6.02,2.44,12.61,10.06,13.19,14.19,13.07,4.14-.13,9.06-4.9,10.27-6.16,1.2-1.25,1.47-.5,1.6,0-.4,2.52,2.92,5.63,8.13,5.15,4.14-.38,6.15-3.62,7.74-5.52.85-1.03,1.47-1.39,1.47-1.39,0,.48,1.09,2.95,3.73,4.65,2.86,1.85,7.89,1.85,9.74-.76,5.32-7.54,1.46-19.21,1.46-19.21-.26,0-.6,1.25-.6,1.25,0,0-1.47,4.65-1.86,5.72-.4,1.07-.2,1.89-.2,1.89,0,0,2.14,3.39,1.6,3.94-5.54,1.96-9.26-1.69-9.87-2.88-.6-1.19.06-3.45.93-5.03.87-1.57.67-2.19.34-2.19s-1.66,1.26-1.93,1.57c-.18.2-1.37,2.28-2.66,4.45-.74,1.22-1.14,2.32-2.93,3.84-6.95,3.82-10.61.75-11.54-.19s-.34-3.58.33-4.51c.67-.95-.2-1.39-.99-.89-.81.49-1.67,2.13-4.34,4.71-2.66,2.57-6.33,4.46-12.06,3.71-7.53-.81-9.13-7.41-10.07-11.24-.93-3.82-1.79-19.84-1.79-19.84,0,0-1.79-21.41-2.67-32.33-.87-10.92-2.63-19.35-3.17-20.86-.53-1.51-1.51,1.5-1.51,1.5,0,0-1.47,3.89-1.72,4.71-.27.82-.55,2.2-.55,2.89s1.14,8.94,1.14,8.94c0,0,2.12,25.36,2.26,27,.13,1.64,1.67,28.68,1.67,32.09l.96,12.99c.24,5.02,1.57,10.09,1.57,10.09-6.76,4-9.56,4.26-9.56,4.26-4.25,1.5-7.33.62-9.12-.32-1.05-.64-2.21-1.62-3.29-3.1-3-4.08-3.81-24.61-4.37-35.74s-1.58-21.62-2.74-34.21c-1.92-20.64-5.12-27.5-5.12-27.5l-3.37,6.79s.17.58.89,3.5c2.4,9.53,5.06,39.85,5.39,45.1.12,1.96.3,4.05.46,5.87.29,3.04.59,7.92.74,11.62.29,7.25,1.02,19.02,2.73,25.08,2.28,8.07,6.2,10.37,9.93,10.78,3.17.56,7.01-.58,7.01-.58,4.46-1.51,12.95-6.49,12.95-6.49,3.19,4.45,8.7,6.67,8.7,6.67,5.31,2.22,7.25-2.85,7.25-2.85,2.12-4.97.29-9.76.29-9.76-1.36-4.44-7.73-3.74-7.73-3.74-.68-.08-7.35,2.22-7.35,2.22-1.48-1.89-2.21-12.71-2.21-12.71M631.65,111.98s-.52,1.07-3.67.29c0,0-3.87-1.18-4.06-2.24,0,0,5.22-1.72,7.73,1.95"/>
        <path class="cls-1" d="M567.85,73.7s7.16,9.22,7.71,11.78c.27.6-.18,1.11-1.11.43-.93-.67-1.68-1.02-2.24-1.45s-1.29-.18-.56,1.53c.75,1.71,3.36,8.29,3.91,10.25s1.31,5.8-.74,12.55c-1.58,3.75-9.46,9.49-9.46,9.49,0,0-18.72,11.77-40.45,12.62-12.17.6-23.41-6.33-23.49-20.24-.09-13.92,7.06-24.43,7.06-24.43,0,0,2.22-2.81,1.11-.09-1.11,2.74-4.92,10.51-5.1,16.92-.2,6.4,2.12,15.37,13.28,18.79,11.15,3.42,36.62-3.5,47.39-10.5l7.25-4.95s-.94-4.78-3.07-9.14-3.43-13.4-3.43-13.4c0,0-.66-2.06-1.21-2.48.28-.94,2.32-6.4,2.32-6.4,0,0,.37-1.46.84-1.28"/>
      </g>
      <polygon class="cls-1" points="404.02 127.77 413.94 132.33 409.88 140.61 399.74 136.47 404.02 127.77"/>
      <polygon class="cls-1" points="489.23 125.23 499.14 129.78 495.1 138.07 484.96 133.92 489.23 125.23"/>
      <polygon class="cls-1" points="467.45 59.73 477.36 64.29 473.31 72.58 463.17 68.44 467.45 59.73"/>
      <g>
        <path class="cls-1" d="M418.77,110.42c1.71,1.43,5.18,3.83,15.73.31,1.18-.49,2.31-.6,3.77-1.16l2.47-1.01,12.45-4.43,18.55-5.97,4.31-7.45-2.2.81.05-.09"/>
        <path class="cls-1" d="M473.91,91.42s-2.32.69-6.09,2.06c-3.48,1.27-13.12,4.49-17.69,5.59-1.83.28-4.35.24-8.46-1.24-5.97-2.17-11.21-8.18-13-12.23-1.26-3.23-1.19-5.23-1.19-5.23,0,0,7.66-5.06,19.08-5.23,8.39-.2,11.22.71,13.33,1.44,2.12.73,3.41,1.06,3.41,1.06,0,0-2.94-4.7-11.53-7.42-6.01-1.83-14.03-1.81-18.64.7-3.91,2.13-9.67,5.89-10.01,15.57,0,7.36,8.21,13.84,12.61,17.22-2.03.65-5.89,1.97-8.74,2.25-6.06,1.12-9.45-5.8-9.45-6.54s0-2.43-.2-3.37c-.2-.93-2.44.19-4.07,2.99-1.62,2.8-5.28,5.04-9.14,7.1-3.86,2.06-8.74.19-11.18-1.87-2.44-2.05-4.26-13.82-5.68-26.7-1.84-13.26-9.15-26.16-9.15-26.16l-2.64,8.6s.81,1.12,1.42,3.17c.61,2.05,7.32,23.35,7.72,28.58-13.61,14-22.96,18.68-27.02,20.54-4.06,1.87-9.14,1.87-11.78-.38-2.64-2.62-.81-10.45-.41-12.69.41-2.24-.61-2.06-1.22-.75-6.91,25.02,3.65,25.77,15.64,20.54,11.99-5.79,23.36-19.99,23.36-19.99l2.85-5.79s.2,12.32,3.46,17.55c3.24,5.24,10.76,5.05,13.41,3.93,2.63-1.12,6.65-4.7,8.94-7.85,2.03-2.8,3.66-3.17,3.66-3.17,0,0-.41,3.37,3.25,6.73"/>
        <path class="cls-1" d="M288.62,127.39s.02-2.28.9-3.03c0,0,17.32-5.91,29.02-9.39l-.65,2.75-29.27,9.67h0Z"/>
        <path class="cls-1" d="M303.58,75.19s.02-2.28.9-3.03c14.48-4.94,13.61-4.81,29.02-9.39l-.64,2.76-29.27,9.66h0Z"/>
        <path class="cls-1" d="M257,39.53c4.37-10.99-4.44-17.51-4.44-17.51l-.86,3.16c7.52,5.99,4.23,13.69,4.23,13.69l-1.79,4.16c-1.93,6.32,1.93,5.85,1.93,5.85,2,.2,4.23-2.7,4.58-5.59-.43-2.43-3.65-3.75-3.65-3.75M258.65,45.12s-2.22,2.04-3.51.4c0,0-.64.26.86-3.09,0,0,3.5,1.24,2.65,2.7"/>
        <path class="cls-1" d="M324.99,127.66s-.71-2.5-1.64-.79c0,0-2.5,1.78.43,2.37,0,0,1.29.99,2.79-.4s2.44-1.58,2.44-1.58c0,0,.57.53-.65,2.57,0,0-5.08,3.36-6.15,6.39-1.08,3.02,2.43,3.42,5.44,3.15,0,0,3.08.13,4.87-.72,0,0,1.28-.26.43.93,0,0-4.87,3.62-10.03,2.63,0,0-6.08-1.05-.28-9.8,0,0-3.36-.93-2.51-3.23.86-2.3,3.44-5.4,4.94-5.4s2.01,2.57,1.14,3.43c-.86.85-.65.72-1.22.46"/>
        <path class="cls-1" d="M141.35,112.72s-.72-2.5-1.64-.79c0,0-2.5,1.78.43,2.37,0,0,1.29.99,2.79-.4,1.51-1.38,2.44-1.58,2.44-1.58,0,0,.56.53-.65,2.57,0,0-5.08,3.35-6.15,6.38-1.08,3.03,2.44,3.43,5.44,3.16,0,0,3.08.13,4.87-.72,0,0,1.28-.26.43.92,0,0-4.87,3.62-10.02,2.63,0,0-6.09-1.05-.28-9.81,0,0-3.37-.93-2.51-3.23.85-2.3,3.43-5.39,4.94-5.39s2,2.57,1.14,3.43c-.86.84-.65.72-1.22.46"/>
        <path class="cls-1" d="M308.23,30.61s.37.49.86-.05c0,0,.43-1.39,1.45.2.61.95,1.32,2.1,1.93,3.6.33,1.32.79,2.3,1.02,3.45l.11.24s-1.4-.44-2.74,4.3c0,0,.16.6,1.08.05,0,0,.86-2.22,2.68-.49,0,0-3.65.89-4.08,2.12,0,0-.86,1.39-.86,2.22,0,0-.54,1.14.38,4.01,0,0,2.47,11.74,2.41,12.34-.06.59.32,5.09.32,5.09,0,0,.64.59,1.23-1.53.59-2.13-1.4-11.8-1.4-11.8,0,0-1.5-6.72-1.72-7.31l-.05-.34s1.77-1.63,7.36-2.32l1.4-2.32s0-1.99-4.78-3.96l.97-3.95,1.02-5.53s1.34-3.16,2.63-1.09c0,0,1.18,1.78,1.93.49,0,0,.75-2.02.53-2.57,0,0-1.94-3.31-4.02-1.58-2.09,1.72-2.53,4.59-2.53,4.59,0,0-.75,3.45-.8,4.69l-.06.2s-.43-1.43-1.02-2.82c-.49-1.14-1.13-2.25-1.4-2.52-.59-.59-3.22-3.85-5.59-2.61-.37.44-.91.74-.85,3.35.11.15.38.49,2.58,1.83"/>
        <path class="cls-1" d="M130.34,20.53s.37.5.86-.05c0,0,.43-1.38,1.45.2.62.96,1.33,2.1,1.94,3.59.33,1.33.79,2.31,1.01,3.47l.11.25s-1.4-.45-2.74,4.29c0,0,.15.59,1.07.05,0,0,.86-2.22,2.68-.5,0,0-3.66.89-4.08,2.12,0,0-.85,1.38-.85,2.22,0,0-.54,1.14.38,3.99,0,0,2.47,11.75,2.41,12.34s.32,5.1.32,5.1c0,0,.64.58,1.23-1.54s-1.4-11.8-1.4-11.8c0,0-1.5-6.72-1.72-7.3l-.05-.35s1.77-1.63,7.36-2.32l1.39-2.32s0-1.98-4.78-3.95l.97-3.95,1.02-5.53s1.34-3.15,2.63-1.08c0,0,1.19,1.78,1.93.5,0,0,.75-2.03.54-2.57,0,0-1.94-3.31-4.03-1.58-2.09,1.74-2.53,4.59-2.53,4.59,0,0-.75,3.46-.8,4.69l-.06.2s-.43-1.43-1.02-2.82c-.49-1.14-1.13-2.24-1.4-2.51-.59-.6-3.22-3.85-5.59-2.62-.37.44-.91.74-.86,3.35.11.15.38.5,2.58,1.83"/>
        <path class="cls-1" d="M403.53,64.79s-4.12-1.75-4.06-2.96c0,0,.24-4.06,2.93-3.4,0,0,6.2,2.79,6.91,8.67l.18.06s.9-4.61,1.14-5.21c.24-.61.9-5.21,3.04-5.82,0,0,2.27-1.48,4.3,1.98,0,0,.12,3.07-1.14,3.5,0,0-2.02-2.03-2.38-1.91-.36.11-1.37-.88-2.39,3.73-1.02,4.6-1.19,7.83-2.39,9.49,0,0-.96,1.04-1.37-.05,0,0-.77-6.92-3.7-8.4-.66-.38-1.07.32-1.07.32"/>
        <path class="cls-1" d="M177.91,24.33s-4.12-1.97-4.06-3.32c0,0,.24-4.55,2.92-3.81,0,0,6.2,3.14,6.92,9.72l.18.06s.9-5.17,1.14-5.85c.24-.67.89-5.85,3.04-6.52,0,0,2.26-1.67,4.29,2.21,0,0,.12,3.46-1.13,3.94,0,0-2.03-2.28-2.39-2.16-.36.12-1.37-.99-2.39,4.19-1.02,5.16-1.19,8.79-2.39,10.65,0,0-.96,1.17-1.37-.06,0,0-.78-7.76-3.7-9.42-.66-.43-1.08.37-1.08.37"/>
        <path class="cls-1" d="M469.65,100.22s-2.17,6.62-2.4,9.18c0,0-.57,3.05,1.66,3.68,0,0,1.14-.11,2.34-2.47,0,0,1.08-.9.8,1.05,0,0-1.72,4.09-2.97,4.62,0,0-3.14,1.11-3.94-3.57,0,0,.4-6.4,3.37-12.39,0,0,.8-1.15,1.14-.11"/>
        <path class="cls-1" d="M447.63,76.83s-2.17,6.62-2.4,9.19c0,0-.57,3.05,1.65,3.67,0,0,1.14-.1,2.34-2.47,0,0,1.08-.89.8,1.05,0,0-1.71,4.09-2.97,4.62,0,0-3.14,1.1-3.94-3.57,0,0,.4-6.41,3.37-12.39,0,0,.8-1.16,1.14-.1"/>
        <path class="cls-1" d="M487.97,66.07c.05-2.67-3.81-3.99-3.81-3.99l.72-2.68c-.53-2.33-1.57,1.01-1.57,1.01-2.48,6.8-1.91,9.17-1.91,9.17.76,2.5,3.24,1.54,3.24,1.54,3.67-1.93,3.34-5.05,3.34-5.05M483.1,68.3s-.58-1.36.43-3.25c0,0,2.48.88,2.77,2.12,0,0-.95,1.66-3.2,1.14"/>
        <path class="cls-1" d="M406.01,87.21c.05-2.68-3.82-3.99-3.82-3.99l.72-2.68c-.53-2.33-1.58,1.02-1.58,1.02-2.48,6.79-1.91,9.17-1.91,9.17.76,2.5,3.25,1.54,3.25,1.54,3.67-1.93,3.34-5.05,3.34-5.05M401.14,89.45s-.57-1.37.43-3.25c0,0,2.48.88,2.77,2.11,0,0-.95,1.66-3.2,1.14"/>
        <path class="cls-1" d="M334.38,8.8s-46.54,11.38-66.17,21.39c-1.73,3.4-2.16,4.39-2.16,4.39,0,0,9.38-7.45,65.79-22.21,1.9-2.38,2.55-3.57,2.55-3.57"/>
        <path class="cls-1" d="M523.99,7.46s-93.63,23.52-132.81,43.23c-3.3,6.46-4.13,8.35-4.13,8.35,0,0,18.56-14.42,131.99-44.75,3.71-4.55,4.95-6.83,4.95-6.83"/>
        <path class="cls-1" d="M143.58,125.68s-1.52,1.54-5.4,2.47c-1.92.5-6.59,1.17-8.45,1.7-1.6.5-2.83,1.6-2.94,2.2-.11.6-.29,2.63,2.24,2.7,1.75.03,4.07.1,4.68,1.43.11.3-.29.63-.29.63,0,0-.46-.91-1.63-1.17-.21.41-.76,1.37-.47,1.84.29.3.8.64,1.52.26.72-.37,1.7-1.1,1.93-1.49-.04-.2-.26-.81-.58-1.3.29-.64.35-.73.35-.73,0,0,.23.96.84,1.16.47.17.51.3,3.62-.53,1.56-.44,2.94-.63,2.94-.63,0,0,.14-.61-1.27-.87-.22.03-2.61.57-3.44.67s-1.81.1-1.74-.43c.07-.54.8-1.6,1.6-2.2.79-.6,1.96-.67,1.88-.07-.03.4-.36.73-.36.73,0,0-.17-.65-.69-.43-.66.26-1.13.36-1.85,1.46.29.23.43.23.87.2,0,0,2-.2,3.41-.56,1.41-.37,1.96.66,2.21.96.07.13-.22.89-.43,1.16-.18.03-1.99.33-2.79.6-.8.27-2.83.7-2.83.7,0,0-.5,1-.07,1.36.43.3,1.12.14,1.45-.08.38-.26,1.09-1.04,1.09-1.04,0,0-.03.46.15.62.18.17.69.34,1.05-.17.35-.49.62-.9.62-.9,0,0,.17-.2.07.37,0,0,.02.28.3.3.29.02.39-.03.51-.17.13-.15.2-.43.26-.54s.18-.28.18-.18c0,.09.02.21.06.35.04.13.3.32.62.32s.72-.16.72-.16c0,0-.59-.61-.59-1.08s.09-.9.3-1.08c.22-.18.66-.34,1.22-.37.56-.03,1.48-.11,1.87-.51.38-.42.44-.65.44-.65,0,0,.09-.18.11-.12.02.07,0,.1-.04.2-.03.1-.26.49-.49.76-.23.27-.49.55-.94.77-.46.21-1.92.26-2.04.35-.11.08.14.74.31.92.17.19.56.51,1.12.43s2.14-.64,2.39-.68c-.2.44-.37.8-.37.8,0,0-2.4.56-2.71.71,0,0-1.68.78-2.23-.05-.21.45-.74,1.05-1.32.33,0,0-.43.87-.9.95-.49.09-.85-.06-.94-.7,0,0-.55.68-.83.93-.34.28-1.74.86-1.98-.55,0,0-.04-.55.4-1.43-.34.06-1.03.06-1.25-.16.03.32-.07.56-.07.56,0,0-.15.5-.71,1.02-.37.34-1.49,1.25-2.38,1.07-.6-.14-1.1-.52-.79-1.74.25-.95.56-1.25.56-1.25,0,0-1-.25-1.69-.22s-2.48-.17-2.99-.75c-.5-.59-.85-1.83-.06-3.4.62-.97,2.15-1.83,4.04-2.18,1.88-.35,6.34-1.08,7.92-1.53,1.57-.46,2.78-.81,4.35-1.8.27-.18.49-.33.37-.12"/>
        <path class="cls-1" d="M347.07,28.01c-1.14-4.1-5.83-17.07-5.83-17.07l-3.7,7.68s.71,2.12.85,2.92c.14.79.43,5.28.71,10.45.28,5.16,5.83,65.16,5.83,65.16l-1.28,1.06c-1.28,1.06-10.38,3.05-12.8,2.91-2.41-.13-4.97-3.17-4.97-3.17l9.39-2.52,4.69-7.54s-.57-.66-3.27-1.98c-6.54-3.97-20.62-3.7-24.17-3.44-3.56.27-9.53,1.99-10.39,3.18-.85,1.19-1.71,7.54-1.71,7.54,0,0,4.13-1.32,5.68-1.86,1.71-.12,7.68,4.63,7.68,4.63,0,0-.43.27-4.13,1.6-9.81,3.7-19.05,13.76-20.19,15.75-1.14,1.98-9.11,14.82-14.36,19.33-5.26,4.49-7.83,3.44-10.81,1.46-2.98-1.99-1.99-9.8-1.85-10.6.15-.79,1.28-4.23,1.28-4.23l-1.42.79s-2.42,6.22-.85,12.7c1.56,6.49,8.1,6.88,11.38,7.54,3.27.67,7.39-2.91,11.23-9.27,7.54-14.69,14.36-19.58,16.49-21.43s14.51-7.94,18.35-8.99c7.4,8.6,11.23,8.59,12.23,8.59s6.54-.52,9.81-2.51c2.51-1.52,4.41-4.5,6.4-10.85,2.14-6.88.29-18.92.14-19.46-.14-.53-4.69-49.02-4.69-49.02l4.69,4.1s.85-.26-.43-3.44M321.47,93.18l-3.84-3.18-.28-.52s8.67.79,9.81,1.19l-5.69,2.52h0Z"/>
      </g>
      <polygon class="cls-1" points="265.94 61.33 273.89 66.29 269.92 72.58 261.67 68.13 265.94 61.33"/>
      <polygon class="cls-1" points="293.51 58.22 301.48 63.18 297.49 69.46 289.25 65.02 293.51 58.22"/>
      <polygon class="cls-1" points="306.52 130.39 302.54 135.62 294.86 130.91 290.6 137.45 297.99 142.67 301.97 136.66 309.08 141.63 313.63 135.1 306.52 130.39"/>
      <g>
        <path class="cls-1" d="M269.6,84.64s1.49,2.35,1.92,3.24c0,0,1.92,3.04,6.4,1.07,0,0,2.99-.88,4.9-5.29,0,0,2.99-5.49,4.81-5.3,0,0,2.13.4,2.24,4.12,0,0-.11,7.16-.64,8.04,0,0-.96,1.57-1.28-.1,0,0-.54-3.92-1.07-4.31,0,0-1.71-.1-2.67,2.84,0,0-2.34,6.48-8.21,8.44l-.43.49s1.18,5.58.32,8.43c0,0-1.17,4.61-2.24,6.28,0,0-3.52,5.39-9.07,8.43,0,0-16.42,11.18-28.8,14.31,0,0-2.03.98-10.66,1.77-.32,0-13.65.98-16.53,1.76,0,0-1.6-.19.75-.98l18.77-6.47s20.9-7.66,30.29-13.73c0,0,12.79-6.86,14.93-10.49,0,0,1.6,1.08-2.67-10.69l-2.77-4.21s.32-5.98,1.71-7.65"/>
        <path class="cls-1" d="M217.78,22.04s7,16.29,8.21,20.42c.17.95.09,2.22-.61,1.75-.69-.48-3.11-3.5-3.11-3.5,0,0-1.04-.88-.95.63,0,0,.52,4.61,1.21,9.69.69,5.09,3.81,27.72,4.15,30.03.35,2.31,1.64,16.92,1.47,22.32-.17,5.41-.69,8.58-2.94,14.86-.6.71-5.88,6.43-15.9,12.47s-20.48,10.41-32.15,9.93c-4.83-.32-23.07-4.53-16.51-33.44,1.99-7.78,4.75-12.48,4.75-12.48,0,0,2.25-3.02.87.32-1.39,3.34-5.71,14.38-4.49,21.93.68,4.25,2.7,8.9,6.48,11.99,2.94,2.42,7.01,3.82,11.92,3.82,11.67,0,26.45-5.01,43.9-18.75-.09.08.26-5-.52-13.18s-4.14-34.87-4.58-38.29c-.43-3.41-2.42-22.72-2.59-24.07-.17-1.35-.43-5.8-.69-6.43s-1.12-2.38-1.12-2.38l2.5-6.84s.43-.79.69-.79"/>
        <path class="cls-1" d="M78.01,51.15l-.43-8.25s11.92,4.37,13.69,4.88c.97.44,1.28,1.22.85,1.26-.43.03-3.43.52-3.43.52,0,0-.49.15.58.99,1.07.84,7.4,4.63,14.83,6.69.88.24,2.68.89,3.84,1.32,5.97,1.94,9.31,4.04,11.24,6.87,0,0,1.44,2.42,1.47,6.58-.12,2.3-1.32,6.55-1.32,6.55,0,0-.37.76-1.07,1.38-.26.24-3.1,3.12-8.28,6.51-3.51,2.29-9.8,6.69-15.44,10.14-6.21,3.81-11.64,6.58-11.64,6.58,0,0-4.43,2.02-7.03,1.28-2.61-.72-5.54-3.09-5.93-10.14s2.76-15.6,5.43-20.19c.09-.4,1.68-2.28.46.99-1.22,3.29-3.42,9.09-3.53,11.44-.12,2.35-.35,8.7,2.1,9.74,2.44,1.02,3.99,1.66,12.65-2.54,6.99-3.39,31.37-18.9,31.7-20.07.12-.02.12-.86-.57-1.67s-3.81-4.02-8.6-5.57c-4.78-1.55-14.22-4.61-17.74-6.7-3.53-2.1-9.14-6.16-9.41-6.43s-2.3-1.55-2.68-1.69c-.4-.14-1.72-.46-1.72-.46"/>
        <path class="cls-1" d="M208.68,95.46c-.37-2.19-1.83-3.71-1.83-3.71l-2.44,7.74s2.32,2.47,1.96,3.7c-1.59.34-7.45.12-9.4-2.91-.97-1.46.49-4.49.49-4.49,0,0,.62-1.68.12-1.68s-1.46.73-3.29,4.43c-1.47,2.8-3.18,6.06-6.54,6.89-3.17.85-6.4-.21-7.56-2.07-1.04-1.46-.12-3.03.24-3.36.37-.35.68-1.8.37-1.96-.31-.17-1.58.44-2.44,1.23-.8.73-3.41,3.53-5.4,4.95,0,0-3.06,2.16-6.56,3.29-3.04.87-6.35,1.12-8.82-.49-5.15-3.36-5.83-5.26-5.83-5.26,0,0,12.24-4.74,14.99-4.84,1.15.21,1.26-.31,1.84-1.16.56-.84,2.06-5.15,2.06-5.15,0,0,.57-.94-2.29-1.89-2.86-.96-8.01-4.95-23.92-4.53-10.98.2-18.3,5.16-17.95,5.16s-.81.11-1.03,7.36c.23-.11.91.11,2.97-1.05,2.07-1.14,3.55-1.91,4.23-1.79,1.83.31,2.86,2,7.67,5.79-3.66,1.9-13.84,5.37-15.22,5.57-1.37.21-2.28.31-2.28.31,0,0-1.04-2.42-2.5-4.86-.53-.91-2.73-3.66-4.71-4.55-2.21-1-4.75-1.55-7.02-.33-.64.34-2.3,1.17-3.9,3.64-1.55,2.38-2.68,4.44-3.04,7.73-.12,1.19-.05,2.58.23,3.53.23,1.58,3.43,3.04,7.67,3.25,4.23.22,9.84-.53,9.84-.53,0,0,.8,1.48.11,2.42-.69.95-10.64,10.1-20.36,14.42-9.73,4.29-20.48,6.61-25.17,1.04-4.69-5.58-.23-18.3,1.83-21.99,1.38-2.31,2.63-5.04,1.38-3.99-1.26,1.05-4.24,3.58-7.78,15.66-2.97,10.73.35,20.51,8.93,21.35,8.57.84,23.21-5.99,26.99-8.63,3.78-2.63,14.19-10.2,16.71-16.3l1.48-4.52s16.02-5.15,21.97-8.41c2.52,2.42,5.26,8.93,12.58,10.31,3.29.61,5.73.51,7.68.04.57-.14,1.14-.3,1.75-.53.83-.3,2.39-1.28,2.39-1.28,3.5-2.21,5.63-5.17,5.63-5.17l.85-.78s.61-.4.61.56.67,4.65,4.76,5.15c3.54.51,6.22-.33,8.54-3.02,2.07-2.41,2.68-4.44,2.68-4.44,0,0,.61-1.01.91-.39.31.62,1.59,3.37,3.11,4.2,1.53.85,4.09,1.57,6.65.91,1.47-.46,3.73-2.53,4.58-5.56.85-3.02,1.04-5.94.49-9.02M105.92,104.97s.92-1.95,3.09-2.37c3.93-.76,7.26,4.21,7.26,4.21-8.58.63-10.36-1.84-10.36-1.84M146.94,96.71s-1.61-2-5.38-5.26c9.95-.62,15.56,1.48,15.56,1.48l-10.18,3.79h0Z"/>
        <path class="cls-1" d="M206.36,48.22s1.21-5.23,1.02-7.98c-.18-2.74-2.7-2.31-4.66-1.29-1.95,1.02-4.19,3.86-4.57,6.26-.37,2.4,4.11,5.48,4.11,5.48-1.3,2.49-14.37,11.58-14.37,11.58l-2.7,1.71c-2.71,1.72-17.73,10.38-20.9,12.35-3.16,1.96-.78,1.63-.75,1.63,0-.01.39-.23,11.76-5.67,18.09-8.57,26.21-18.34,27.34-19.97,1.11-1.64,1.11-.69,1.11-.69l3.46,2.14,1.58-3.69-2.43-1.89v.03ZM205.05,46.94c-.37.42-2.14-.86-3.08-1.8-.93-.94-2.05-1.55-1.12-2.4.93-.85,3.36-.94,4.01-.17.65.78.19,4.37.19,4.37"/>
        <path class="cls-1" d="M173.4,46.9s1.61-6.98,1.37-10.65c-.24-3.64-3.6-3.08-6.23-1.71-2.61,1.38-5.59,5.15-6.09,8.35-.5,3.2,5.47,7.32,5.47,7.32-1.74,3.32-19.16,15.44-19.16,15.44l-3.6,2.28c-3.61,2.29-23.64,13.83-27.86,16.46-4.21,2.62-1.03,2.18-1,2.18,0-.01.52-.31,15.67-7.55,24.13-11.43,34.94-24.47,36.44-26.63,1.49-2.18,1.49-.91,1.49-.91l4.61,2.86,2.11-4.92-3.23-2.51h0ZM171.66,45.18c-.49.57-2.86-1.15-4.1-2.41-1.24-1.25-2.73-2.05-1.5-3.2,1.25-1.14,4.49-1.26,5.35-.23.87,1.02.25,5.83.25,5.83"/>
        <path class="cls-1" d="M90.23,28.67s5.12-7.9,5.64-8.49c.51-.59,9.75-1.18,12.18-.94,2.44.24,6.8.47,5.9,4.6-.77,2.47-6.03,10.13-7.69,11.54-1.67,1.41-7.82,2.94-11.8,3.41-3.97.48-4.74.12-3.72-.35,1.03-.47,13.84-6.71,15-7.66l1.16-.94s0-1.05-1.03-1.05-10.13-.12-12.44.35-3.46,0-3.2-.47"/>
        <path class="cls-1" d="M370.55,24.51s5.12-7.89,5.63-8.49c.52-.59,9.75-1.17,12.17-.94,2.44.24,6.8.47,5.9,4.6-.77,2.48-6.02,10.14-7.69,11.55-1.67,1.42-7.82,2.95-11.8,3.41-3.97.48-4.74.12-3.72-.35,1.03-.47,13.85-6.71,15-7.66l1.16-.94s0-1.05-1.02-1.05-10.13-.12-12.43.35c-2.31.47-3.46,0-3.2-.47"/>
        <path class="cls-1" d="M258.98,22.21s1.57-3.09,5.95-6.23l2.61-2.01s.47-1.07-1.51-.75-10.75,2.89-14.31,3.72c-3.56.81-9.93,2.7-21.7,1.82-6.16-.88-10.14-2.52-10.14-2.52,0,0,.49,2.21-.48,4.6-.06-.06-.41-5.09-4.18-8.06.21-1.7.41-2.26.41-2.26,0,0-.07-1.07,1.23.12,1.31,1.2,1.72,3.96,12.26,5.22,10.55,1.26,22.18-.88,30.06-3.27,5.13-1.19,7.93-2.52,9.37-1.83.28.26.68,1.71-.07,3.21-.75,1.51-8.07,6.67-8.49,7.61-.55.56-1.16.94-1.02.63"/>
        <path class="cls-1" d="M85.17,60.69s-.48,3.17-1.88,6.62c-1.39,3.46-2.54,5.69-2,9.47.55,3.79,3.03,3.79,3.46,3.67.43-.1.73-.22.91-.62.18-.38.24-.66.55-1.16.3-.5,1.09-1.67,1.09-1.67,0,0,.67-.67.48.51-.18,1.16-.42,2.67-2.12,5.68,0,0-2.66,5.01-5.39,2.84s-1.76-7.52-1.58-8.58,1.7-5.96,2.49-8.08c.79-2.12,2.3-5.46,2.48-5.85.18-.39,1.04-2.34,1.04-2.34,0,0,.48-1.01.48-.5"/>
        <path class="cls-1" d="M287.72,32.01s-.48,3.17-1.88,6.62c-1.4,3.46-2.55,5.69-2.01,9.48.55,3.78,3.03,3.78,3.46,3.67.43-.11.73-.22.91-.61.18-.4.24-.67.54-1.16.3-.5,1.1-1.68,1.1-1.68,0,0,.67-.66.49.51-.18,1.17-.42,2.67-2.12,5.68,0,0-2.66,5.02-5.39,2.84-2.73-2.17-1.76-7.52-1.58-8.57.18-1.06,1.69-5.96,2.48-8.09.79-2.11,2.3-5.45,2.48-5.84.18-.4,1.04-2.35,1.04-2.35,0,0,.48-1,.48-.5"/>
        <path class="cls-1" d="M382.4,112.2s-.37,2.41-1.43,5.04c-1.06,2.62-1.93,4.32-1.52,7.2.41,2.87,2.3,2.87,2.62,2.79.33-.09.55-.17.69-.46.14-.3.19-.52.42-.9s.83-1.27.83-1.27c0,0,.5-.51.37.39-.13.88-.32,2.03-1.61,4.31,0,0-2.03,3.81-4.1,2.16s-1.33-5.71-1.2-6.52c.14-.81,1.29-4.53,1.89-6.14s1.75-4.14,1.89-4.45c.14-.29.78-1.78.78-1.78,0,0,.37-.76.37-.38"/>
        <path class="cls-1" d="M93.2,104.09s-.37,2.41-1.43,5.03c-1.06,2.63-1.93,4.33-1.52,7.2.41,2.88,2.3,2.88,2.62,2.8.32-.09.55-.17.7-.47.14-.29.18-.5.41-.89.23-.38.83-1.28.83-1.28,0,0,.51-.5.37.39-.13.89-.32,2.03-1.61,4.32,0,0-2.04,3.81-4.1,2.16-2.08-1.65-1.34-5.71-1.2-6.52s1.29-4.54,1.89-6.14c.6-1.61,1.75-4.15,1.89-4.45s.78-1.78.78-1.78c0,0,.37-.76.37-.38"/>
        <path class="cls-1" d="M196.39,63.18s-.48,3.17-1.88,6.63c-1.39,3.46-2.55,5.69-2,9.47.54,3.79,3.03,3.79,3.45,3.67.43-.11.73-.22.91-.61s.24-.67.54-1.17c.3-.5,1.1-1.68,1.1-1.68,0,0,.67-.66.49.52-.18,1.16-.42,2.67-2.12,5.67,0,0-2.67,5.01-5.39,2.85-2.73-2.18-1.76-7.53-1.58-8.58.18-1.06,1.69-5.96,2.48-8.07.79-2.13,2.3-5.46,2.49-5.85.18-.39,1.04-2.35,1.04-2.35,0,0,.48-1,.48-.5"/>
        <path class="cls-1" d="M450.49,37.42s-.49,3.18-1.88,6.62c-1.4,3.46-2.55,5.68-2,9.48.55,3.79,3.03,3.79,3.45,3.67.43-.11.72-.22.91-.62.18-.39.24-.66.54-1.17.3-.49,1.09-1.66,1.09-1.66,0,0,.67-.67.48.5-.17,1.16-.41,2.68-2.12,5.68,0,0-2.67,5.01-5.39,2.83-2.73-2.17-1.76-7.52-1.58-8.58.18-1.06,1.7-5.95,2.48-8.07.79-2.12,2.3-5.46,2.48-5.85.18-.4,1.04-2.35,1.04-2.35,0,0,.49-1.01.49-.5"/>
        <path class="cls-1" d="M428.34,7.49s-.48,3.18-1.88,6.63c-1.4,3.46-2.54,5.68-2,9.47.55,3.79,3.03,3.79,3.45,3.67.43-.11.73-.22.91-.61s.24-.67.55-1.17c.3-.5,1.09-1.68,1.09-1.68,0,0,.67-.67.48.5-.18,1.17-.42,2.67-2.12,5.68,0,0-2.67,5.01-5.39,2.84-2.74-2.17-1.76-7.52-1.58-8.58.18-1.06,1.69-5.95,2.48-8.07.78-2.12,2.3-5.45,2.48-5.85s1.04-2.34,1.04-2.34c0,0,.48-1,.48-.5"/>
        <path class="cls-1" d="M356.78,12.58s6.86,15.62,6.93,17.33c0,.32-.27.97-.95.05-.68-.9-2.78-2.74-2.78-2.74,0,0-.81-.21-.47,2.04.33,2.25,3.66,25.81,3.66,25.81,0,0,2.52,27.2,2.59,28.33s.88,12.61-.61,18.41c-.75,2.52-1.63,3.64-1.63,3.64,0,0-1.56,2.63-1.22.43.34-2.19.2-12.44-.55-18.99-.75-6.54-2.37-24.68-2.37-24.68l-2.18-18.35-1.9-17.01s-.61-6.7-.75-7.3c-.14-.59-.68-1.66-.68-1.66,0,0-.14,0,.33-.8.48-.81,2.04-3.86,2.04-3.86,0,0,.27-.76.54-.65"/>
        <path class="cls-1" d="M237.58,21.31s7.24,16.95,7.31,18.81c0,.35-.28,1.06-1,.06-.72-.99-2.94-2.97-2.94-2.97,0,0-.86-.23-.5,2.21.36,2.45,3.87,28.01,3.87,28.01,0,0,2.65,29.53,2.72,30.75.08,1.23.93,13.69-.64,19.98-.79,2.74-1.72,3.96-1.72,3.96,0,0-1.65,2.86-1.29.47s.21-13.52-.57-20.62c-.79-7.1-2.51-26.79-2.51-26.79l-2.29-19.92-2.01-18.47s-.65-7.28-.79-7.92c-.14-.64-.72-1.81-.72-1.81,0,0-.14,0,.37-.87.5-.87,2.15-4.19,2.15-4.19,0,0,.28-.82.57-.7"/>
        <path class="cls-1" d="M504.9,85.68c.03-1.22.05-2.91-.24-4.22-.3-1.29-1.66-2.3-4.06-.86-.14.09-.6.38-.94.76-.54.63-1.55,2.03-2.96,5.02,0,0-2.96,6.66-9.03,5.71,0,0-4.06-.2-7.03-5.71,0,0-1.31,2.29-1.66,7.48,0,0,6.55,9.14,6.31,15.69l-.07.46c-5.68,5.25-8.14,7.27-17.85,12.47-2.16,1.17-3.74,2.22-8.24,4.06-.14.05-2.7,1.01-2.83,1.07-6.79,2.44-12.95,3.5-18.43,3.5-4.96,0-12.66-2.39-15.63-4.69-3.82-2.98-5.31-6.59-5.99-10.65-1.22-7.23.23-10.81.56-14.03.36-3.43-1.32-.4-1.32-.4,0,0,.46-3.89-1.28,3.62-7.05,30.5,15.73,33.38,20.61,33.69,11.04.43,20.71-2.03,30.75-7.39,12-6.56,17.78-12.14,18.85-13.59l1.11-1.26s4.52-6.43,2.73-16.62c0,0,2.86.42,6.18-2.7,0,0,1.87-1.44,3.18-5.42.09-.29.47-1.27.79-1.73.77-1.1,2.26-2.8,3.43-1.44.14.33.3.65.47,1.03.16.69.43,2,.66,3.7,0,0,1.58,1.56,1.92-7.55"/>
        <path class="cls-1" d="M36.93,108.72s-.53.63-.8,4.32c-.33,4.58-.31,7.46-2.38,10.92,0,0-.44.5-.4.19.05-.3.28-2.24.38-2.89s.42-6.38.37-6.96c-.03-.44.07-1.25.38-1.86.22-.43,1.41-2.55,1.69-2.98.29-.43.71-.91.75-.73"/>
        <path class="cls-1" d="M37.03,107.77s1.88-1.95,2.82-2.3,1.83.09,1.23,1.01c-.61.9-1.93,2.07-2.73,2.29-.8.21-1.65.09-1.65.09,0,0-1.55-.48-1.94-.48s-1.45.74-1.69,1.13c-.14.13-.28-.45.28-1,.57-.56,1.65-1.16,2.27-1.07.61.08,1.41.34,1.41.34M37.41,107.85s1.17-1.55,2.68-1.68c.52,0-.05.86-.24.99-.19.13-1.36,1.04-2.44.69"/>
        <path class="cls-1" d="M30.44,115.65s-.38.56-.47,1.25c-.1.69-.43,3.55-1.27,5.19-.85,1.65-2.44,4.76-4.66,5.24-1.56.13-3.15.08-3.82-1.77,0,0-1.27,3.16-3.48,3.77-2.21.6-5.03-.09-4.56-3.42-1.5,1.6-5.46,3.55-6.44,3.67-.66.17-.75-.13-.14-.6.61-.48,5.88-4.28,7.01-5.37,1.13-1.09,1.74-1.82,1.93-1.69.19.14,0,.43-.24.95-.23.52.14,1.86.8,2.42.66.57,2.64.99,5.04-.78,0-1.08.09-1.3.33-1.69.24-.39,1.51-2.29,1.6-2.51.09-.22.47-.3.42-.04-.04.26-.28.74-.33,1.04s.19,1.64.94,2c.75.34,3.34.3,4.37-1,.15-1.25.1-2.9.29-3.37.19-.48,2.03-3.16,2.64-3.38.61-.22.05.09.05.09"/>
        <path class="cls-1" d="M25.88,113.51s-1.09,4.23-2.78,2.68c-.42.56-1.23,2.03-2.25,1.82-1.04-.22-1.13-1.34-.85-1.9.29-.57.52-.84.52-.17,0,.9.89.86,1.23.77.52-.13,1.09-.99,1.23-1.3.14-.3.23-.73.37-.56.15.18.9,1,1.51.09.24-.69.85-1.73,1.04-1.42"/>
        <path class="cls-1" d="M41.27,122.75l-1.1,1.62s-.14.21.13.33c.28.12,1.49.86,1.49,1.09.02.17.22.23.36.03.13-.21,1.13-1.55,1.13-1.55,0,0,.16-.36-.16-.59-.34-.22-1.57-1.04-1.57-1.04,0,0-.17-.07-.28.1"/>
        <path class="cls-1" d="M34.55,124.71l-1.1,1.62s-.14.21.14.33c.27.13,1.49.86,1.49,1.09.03.18.22.23.36.02.14-.21,1.13-1.55,1.13-1.55,0,0,.16-.35-.16-.58-.34-.22-1.57-1.04-1.57-1.04,0,0-.16-.08-.27.1"/>
        <path class="cls-1" d="M50.18,135.8l.99-1.41s.25-.41.55-.23,1.63.97,1.6,1.22c-.03.24-.83,1.22-.99,1.47-.17.24-.35.55-.46.45s-.19-.24-.34-.36c-.14-.12-1.27-.91-1.41-.91-.08.23-.77,1.12-.88,1.29-.11.18-.31.48-.42.48s-.17-.13-.36-.3c-.19-.18-1.26-.73-1.26-.73,0,0-.36-.18-.28-.35s1.08-1.67,1.08-1.67c0,0,.11-.26.41-.06s1.57,1.07,1.57,1.07c0,0,.16.12.19.05"/>
        <path class="cls-1" d="M32.41,135.82c.64-.06,2.43-.42,3.12-.64.67-.2,3.7-1.13,4.93-1.63,2.12.74,5.81-1.56,5.81-1.56.34-.17,3.39-2.23,3.69-2.58.31-.36.04-.39.04-.39,0,0-1.15-.14-3.66-.6,2.61-2.41,6.31-2.91,6.89-3.11,1.12-1.25,1.19-1.56,1.19-1.56,0,0-5.89.99-9.58,5.41,0,0,.42.11.65.08.24-.03,3.24.49,3.24.49,0,0-1,.64-1.42.89,0,0-3.39,2.16-5.43,2.09.54-.64,1-1.73,1.04-2.09.04-.35,0-1.15-.42-1.41-.5-.33-1.62-.26-2.51.7s-1.15,2.03-1.19,2.3c-.04.29.3.82.3.82l-1.42.49-1.7.43-2.35.45s1.39-.91,1.96-1.44c.83-.77,2.08-2.02,2.23-2.3.15-.28.5-.99.08-1.24s-1.36-.62-2.01-.59c-.58.03-.83,0-1.42.38,0,0-2.85,2.19-4.04,3.29-1.2,1.09-1.38,1.23-1.38,1.23,0,0,.88-1.58,1.07-2.04.19-.46.96-3.43,1.08-5.17.11-1.74.38-5.46.38-5.78s.11-.85.23-1.16c.12-.32.31-.71.31-.89,0-.17-.16-.13-.39.32-.23.45-1.31,2.3-1.42,3.05-.11.74-.65,8.7-.89,9.63-.23.92-.61,2.37-.96,2.65-.24.2-1.12.89-1.31,1.1-.19.21-.77.28-1.01.38-.22.11-7.12,1.78-14.98.28-5.04-1.05-6.81-2.4-7.39-2.48-.58-.07-1.04.71-1.23,1.07-.19.35-2.39,3.71-2.39,3.71,0,0-.39.88.08.42.46-.45,2.15-2.83,2.15-2.83,0,0,.27-.67.77-.35s4.66,2.69,10.59,2.91c5.93.21,12.91-1.24,15.75-2.12l1.24-.46s.92-.07,1.65-.14M40.53,132.61s1.27-.5,1.5-.81c.24-.32.04-1.06-.3-1.42-.35-.36-1.77.11-2.16.52-.38.43.26,1.26.42,1.35.19.11.35.4.54.36M28.02,135.37s3.89-3.43,4.35-3.68c.47-.25,1.7-1.2,2.74-.93,1.04.29,1.27.43,1.15.64-.11.22-2.5,1.98-5.12,2.94-2.31.89-3.12,1.03-3.12,1.03"/>
        <path class="cls-1" d="M21.69,128.03s-.91,2.55-1.01,3.53c0,0-.24,1.18.7,1.42,0,0,.48-.04.98-.95,0,0,.46-.35.34.4,0,0-.72,1.57-1.25,1.78,0,0-1.32.41-1.65-1.38,0,0,.16-2.46,1.41-4.77,0,0,.34-.45.48-.04"/>
        <path class="cls-1" d="M41.78,117.87s.04-.88.3-1.15c0,0,4.98-2,8.34-3.15l-.22,1.05-8.42,3.26h0Z"/>
        <path class="cls-1" d="M20.25,112.47s.03-.79.26-1.03c0,0,4.41-1.76,7.38-2.78l-.2.93-7.44,2.88h0Z"/>
        <path class="cls-1" d="M25.29,105.77s-.44,1.44-1.07.93c0,0-.82-.36.26-2.07,0,0,.96-1.26.86-3.35,0,0-.28-2.86-2.19-3.98l-.47,1.09s1.91,1.61,1.93,3.51c0,0,.26.93-.64,2.31-.82,1.84-.99,3.37-.03,3.77,0,0,.75.58,1.43-.95,0,0,.3-.73.2-1.25,0,0-.14-.24-.26-.02"/>
        <path class="cls-1" d="M17.58,111.66c-1.33-1.34-1.93-.76-1.93-.76-.47.35-.08.64-.08.64l-.13.19-.2.62c-.04.27-.06.12.04.51.1.38.67.36.67.36v.06c-.71.84-2.32,1.42-3.41,2.12-1.09.7-1,.63-.89.63s1.23-.34,1.47-.39c.23-.06,1.82-.78,2.57-1.45s.87-.88.87-.88h.48c.39.06.6.03.6.03,0,0,.92-.79-.05-1.68M16.37,112.48c-.38.06-.72-.1-.72-.1.1-.54.49-.55.49-.55.34.25.23.65.23.65M16.74,112.58s0-.4.1-.48c.1-.09.38.21.45.28.06.07.24.17.25.33,0,.07-.63-.14-.79-.12"/>
        <path class="cls-1" d="M873.08,25.69s-3.53-1.51-3.49-2.55c0,0,.2-3.5,2.52-2.92,0,0,5.33,2.41,5.95,7.46l.16.05s.76-3.96.98-4.49c.2-.51.77-4.48,2.61-5,0,0,1.95-1.27,3.7,1.7,0,0,.1,2.64-.98,3.02,0,0-1.75-1.75-2.06-1.66-.31.1-1.18-.75-2.05,3.21-.88,3.96-1.02,6.75-2.06,8.16,0,0-.82.9-1.18-.05,0,0-.66-5.95-3.18-7.23-.56-.32-.93.28-.93.28"/>
        <path class="cls-1" d="M827.05,78.74s-3.53-1.51-3.49-2.55c0,0,.2-3.49,2.51-2.92,0,0,5.34,2.41,5.96,7.45l.15.05s.77-3.96.97-4.48c.21-.52.77-4.49,2.62-5.01,0,0,1.96-1.27,3.7,1.71,0,0,.11,2.64-.97,3.02,0,0-1.75-1.74-2.05-1.65-.31.09-1.18-.76-2.06,3.21-.88,3.97-1.03,6.75-2.06,8.17,0,0-.82.89-1.18-.05,0,0-.67-5.95-3.17-7.22-.57-.33-.93.28-.93.28"/>
        <path class="cls-1" d="M892.99,38.34s-.46,2.99-1.78,6.26c-1.32,3.26-2.4,5.36-1.89,8.93.52,3.57,2.85,3.57,3.26,3.47.41-.11.69-.21.86-.58s.23-.62.52-1.1c.28-.47,1.03-1.58,1.03-1.58,0,0,.63-.64.46.47-.18,1.1-.4,2.52-2,5.36,0,0-2.52,4.72-5.09,2.68-2.58-2.05-1.66-7.1-1.49-8.09.17-1.01,1.6-5.62,2.35-7.62.75-1.99,2.17-5.15,2.35-5.52.17-.36.97-2.21.97-2.21,0,0,.46-.94.46-.47"/>
        <path class="cls-1" d="M772.01,54.65s-.45,3-1.77,6.26c-1.33,3.24-2.41,5.35-1.89,8.92.52,3.57,2.85,3.57,3.26,3.46.41-.11.69-.2.86-.58.17-.36.23-.62.51-1.1.29-.47,1.03-1.58,1.03-1.58,0,0,.62-.63.46.49-.17,1.1-.4,2.51-2,5.35,0,0-2.52,4.72-5.09,2.68-2.57-2.05-1.67-7.09-1.5-8.09.18-.99,1.61-5.62,2.35-7.62.75-1.99,2.17-5.15,2.35-5.51.17-.37.98-2.21.98-2.21,0,0,.45-.95.45-.48"/>
        <path class="cls-1" d="M737.65,49.48s-.46,3-1.77,6.26c-1.32,3.26-2.41,5.37-1.88,8.93.5,3.58,2.85,3.58,3.25,3.47.4-.1.69-.21.86-.58s.22-.63.51-1.11c.29-.47,1.03-1.58,1.03-1.58,0,0,.62-.63.46.48-.17,1.1-.4,2.52-2,5.36,0,0-2.52,4.72-5.09,2.67s-1.66-7.08-1.48-8.09c.17-1,1.6-5.62,2.35-7.62.74-1.99,2.17-5.15,2.35-5.52.17-.37.96-2.2.96-2.2,0,0,.46-.94.46-.48"/>
        <path class="cls-1" d="M880.33,38.52s-.24-.69-.84-.74c-.59-.03-3.14.3-3.38.92-.2.29-.12.47.68,1.2.79.74,2.86,1.87,3.7,1.53.84-.32,3.33-1.49,3.93-1.82.6-.32.96-.59.96-.59,0,0,.51-.29.32.37s-.83,2.23-.83,2.23c0,0-5.6,2.7-6.88,3.33-1.28.62-3.18,1.32-3.38,1.46-.2.15-.95.45-.88.12.08-.33,1.16-2.82,2.3-3.18,0,0-1.71-.7-2.03-2.2-.32-1.49.12-1.83.36-2.27.24-.43,1.86-2.52,3.3-3.17,1.43-.66,3.42-1.43,4.21-.34.24.45.27.84.08,1.22-.2.36-1.08,1.9-1.08,1.9,0,0-.55.54-.55.03"/>
        <path class="cls-1" d="M848.28,61.55s.3.39.67-.04c0,0,.34-1.08,1.13.17.49.74,1.04,1.64,1.51,2.8.25,1.04.62,1.79.79,2.7l.08.19s-1.08-.35-2.13,3.35c0,0,.13.45.84.04,0,0,.67-1.74,2.1-.39,0,0-2.85.69-3.18,1.66,0,0-.67,1.08-.67,1.73,0,0-.41.88.3,3.12,0,0,1.93,9.18,1.89,9.64-.03.46.25,3.97.25,3.97,0,0,.5.46.97-1.19.46-1.66-1.1-9.21-1.1-9.21,0,0-1.17-5.24-1.34-5.7l-.04-.27s1.38-1.27,5.74-1.81l1.08-1.81s0-1.54-3.73-3.08l.76-3.08.79-4.31s1.05-2.47,2.06-.86c0,0,.91,1.39,1.5.4,0,0,.59-1.59.43-2.01,0,0-1.51-2.58-3.15-1.23-1.63,1.34-1.96,3.58-1.96,3.58,0,0-.59,2.69-.64,3.66l-.05.15s-.33-1.12-.79-2.2c-.38-.89-.88-1.75-1.08-1.95-.46-.47-2.52-3.01-4.36-2.05-.3.35-.72.58-.67,2.62.09.12.29.39,2.01,1.42"/>
        <path class="cls-1" d="M879.17,6.9s-38.94,9.78-55.24,17.97c-1.36,2.68-1.71,3.47-1.71,3.47,0,0,7.71-5.99,54.88-18.6,1.55-1.9,2.07-2.84,2.07-2.84"/>
        <path class="cls-1" d="M876.39,118.7s-38.93,9.77-55.22,17.97c-1.38,2.69-1.72,3.47-1.72,3.47,0,0,7.72-6,54.89-18.61,1.54-1.89,2.05-2.83,2.05-2.83"/>
        <path class="cls-1" d="M813.02,55.33s4-6.16,4.4-6.62,7.59-.91,9.49-.73c1.9.19,5.31.37,4.6,3.58-.59,1.93-4.69,7.91-6,9.02-1.3,1.1-6.1,2.29-9.2,2.66-3.11.37-3.7.09-2.91-.27.79-.37,10.8-5.24,11.7-5.98l.91-.73s-.01-.84-.81-.84-7.9-.09-9.7.29c-1.8.36-2.69,0-2.5-.37"/>
        <path class="cls-1" d="M914.5,69.39c-.34-2.28-3.38-24.58-4.04-29.59-.68-5.01-1.19-9.55-1.19-9.55-.08-1.48.92-.62.92-.62,0,0,2.36,2.97,3.05,3.44.67.47.75-.78.58-1.72-1.19-4.08-8-20.12-8-20.12-.26,0-.68.79-.68.79l-2.44,6.73s.85,1.73,1.1,2.35c.25.64.5,5.01.67,6.34.17,1.34,2.11,20.36,2.53,23.71.42,3.37,3.72,29.67,4.46,37.73,0,.06.02.12.02.18-.03,5.09-.7,8.39-.7,8.39-4.17,13.76-15.41,21.38-15.41,21.38-1.86,2.13-22.3,14.97-22.3,14.97-2.16,2.01-.58,2.13-.58,2.13l18.86-7.34c10.65-4.27,15.11-12.16,15.11-12.16,1.84-1.84,3.93-7.21,5.38-12.42,0,0,2.92-9,3.11-17.48.11-5.32-.11-14.86-.44-17.13"/>
        <path class="cls-1" d="M888.25,78.72c11.63,10.06,12,13.52,13.58,15.8,1.59,2.27,1.96,8.3,1.96,8.3-.15,1.74.73,3.39.73,3.39,1.1.51,1.47-9.67,1.47-9.67-.73-10.02-7.13-15.95-7.13-15.95-.86-2.01-19.02-17.31-19.02-17.31-5.48-3.91-17.73-15.95-17.73-15.95-4.32-3.47-6.6-7.72-6.6-7.72l2.59.53c3.74.41,2.45-1.47,2.45-1.47-2.1-2.03-9.65-6.8-9.65-6.8l-6.48-5.21-.3,8.68c.71.27,3.89,3.73,3.89,3.73.57,1.48,4.23,6.05,4.23,6.05.45.9,4.26,5.5,8.78,10.01,4.19,4.18,9.47,8.52,10.97,9.84,3.65,3.23,5.12,4.1,16.27,13.75"/>
        <path class="cls-1" d="M925.45,11.7s8.5,19.25,8.58,21.37c0,.4-.34,1.19-1.17.06-.85-1.12-3.46-3.37-3.46-3.37,0,0-1-.27-.59,2.52.43,2.77,4.55,31.83,4.55,31.83,0,0,3.12,33.55,3.2,34.94.09,1.39,1.1,15.55-.76,22.7-.91,3.11-2.01,4.5-2.01,4.5,0,0-1.95,3.24-1.52.52.43-2.71.26-15.35-.67-23.42s-2.94-30.44-2.94-30.44l-2.7-22.63-2.36-20.98s-.76-8.27-.92-9c-.17-.73-.84-2.05-.84-2.05,0,0-.17,0,.41-1,.6-.99,2.53-4.76,2.53-4.76,0,0,.34-.93.68-.79"/>
        <path class="cls-1" d="M890.31,101.72s-.3,1.96-1.16,4.12c-.87,2.15-1.58,3.53-1.25,5.88.34,2.36,1.89,2.36,2.14,2.29.27-.07.46-.14.57-.38s.15-.41.33-.73c.2-.31.69-1.04.69-1.04,0,0,.41-.42.3.32-.12.72-.26,1.66-1.32,3.53,0,0-1.66,3.11-3.35,1.76-1.69-1.34-1.1-4.68-.98-5.33.11-.66,1.05-3.71,1.55-5.03.49-1.32,1.42-3.39,1.54-3.63.11-.24.64-1.46.64-1.46,0,0,.3-.62.3-.31"/>
        <path class="cls-1" d="M674.84,41.94s.35.46.8-.04c0,0,.41-1.3,1.36.18.56.88,1.24,1.96,1.81,3.36.3,1.24.73,2.14.94,3.23l.1.24s-1.3-.42-2.56,4c0,0,.15.56,1,.05,0,0,.81-2.08,2.51-.46,0,0-3.41.83-3.81,1.98,0,0-.81,1.29-.81,2.08,0,0-.5,1.06.35,3.73,0,0,2.3,10.97,2.26,11.53-.06.55.3,4.75.3,4.75,0,0,.6.55,1.16-1.43.55-1.98-1.31-11.02-1.31-11.02,0,0-1.4-6.27-1.6-6.82l-.05-.32s1.65-1.52,6.87-2.16l1.31-2.18s0-1.84-4.48-3.69l.91-3.69.96-5.17s1.26-2.94,2.45-1.01c0,0,1.11,1.66,1.8.46,0,0,.71-1.89.5-2.4,0,0-1.81-3.09-3.76-1.48-1.96,1.61-2.36,4.29-2.36,4.29,0,0-.7,3.22-.75,4.38l-.05.18s-.4-1.34-.96-2.62c-.45-1.07-1.05-2.11-1.31-2.36-.54-.55-3.01-3.59-5.2-2.45-.36.42-.87.69-.81,3.14.1.14.35.47,2.41,1.71"/>
      </g>
      <polygon class="cls-1" points="680.05 6.57 652.09 19.3 651.51 22.02 679.52 9 680.05 6.57"/>
      <polygon class="cls-1" points="849.3 110.74 843.9 117.56 851.78 122.9 856.65 116.09 849.3 110.74"/>
      <polygon class="cls-1" points="836.65 111.89 831.25 118.71 839.13 124.04 844.01 117.23 836.65 111.89"/>
      <g>
        <path class="cls-1" d="M826.74,11.27s-86.23,21.65-122.32,39.81c-3.04,5.94-3.8,7.69-3.8,7.69,0,0,17.1-13.27,121.55-41.21,3.42-4.19,4.57-6.29,4.57-6.29"/>
        <path class="cls-1" d="M734.91,19.73s4.72-7.27,5.19-7.81c.47-.54,8.97-1.08,11.21-.86,2.24.21,6.26.43,5.45,4.23-.72,2.28-5.56,9.33-7.09,10.63-1.54,1.3-7.2,2.71-10.86,3.15-3.65.44-4.36.1-3.43-.32.95-.43,12.75-6.18,13.81-7.05l1.06-.87s0-.98-.94-.98-9.33-.11-11.45.33c-2.13.44-3.19,0-2.95-.44"/>
      </g>
      <polygon class="cls-1" points="727.83 99.81 736.96 104 733.22 111.63 723.89 107.82 727.83 99.81"/>
      <polygon class="cls-1" points="688.67 93.27 697.8 97.46 694.07 105.1 684.73 101.28 688.67 93.27"/>
      <g>
        <path class="cls-1" d="M713.15,21.33s-3.78-1.62-3.73-2.73c0,0,.23-3.73,2.69-3.13,0,0,5.72,2.57,6.37,7.98l.16.05s.84-4.24,1.05-4.8c.22-.55.82-4.8,2.8-5.35,0,0,2.09-1.37,3.96,1.81,0,0,.11,2.83-1.05,3.23,0,0-1.87-1.87-2.19-1.77-.33.1-1.26-.81-2.2,3.44-.93,4.25-1.1,7.22-2.19,8.74,0,0-.87.96-1.27-.05,0,0-.7-6.37-3.4-7.73-.61-.35-1,.3-1,.3"/>
        <path class="cls-1" d="M712.82,66.98c.04-2.46-3.51-3.67-3.51-3.67l.65-2.47c-.48-2.14-1.45.93-1.45.93-2.29,6.26-1.76,8.44-1.76,8.44.69,2.3,2.98,1.42,2.98,1.42,3.39-1.78,3.08-4.65,3.08-4.65M708.33,69.04s-.53-1.25.38-2.99c0,0,2.3.82,2.55,1.94,0,0-.87,1.54-2.93,1.05"/>
        <path class="cls-1" d="M681.67,112.92c.05-2.47-3.51-3.68-3.51-3.68l.65-2.47c-.49-2.14-1.45.94-1.45.94-2.28,6.26-1.75,8.44-1.75,8.44.69,2.3,2.98,1.42,2.98,1.42,3.38-1.78,3.08-4.65,3.08-4.65M677.19,114.98s-.52-1.26.39-3c0,0,2.29.81,2.55,1.94,0,0-.87,1.53-2.94,1.06"/>
        <path class="cls-1" d="M777.85,15.32c.05-2.47-3.51-3.68-3.51-3.68l.66-2.46c-.49-2.14-1.45.93-1.45.93-2.28,6.27-1.76,8.44-1.76,8.44.71,2.3,2.99,1.42,2.99,1.42,3.38-1.78,3.08-4.64,3.08-4.64M773.37,17.38s-.53-1.25.4-2.99c0,0,2.28.81,2.55,1.94,0,0-.88,1.54-2.95,1.05"/>
        <path class="cls-1" d="M730.88,85.04c.05-1.13.06-2.68-.21-3.88-.26-1.19-1.53-2.13-3.74-.79-.13.08-.55.35-.86.7-.49.59-1.42,1.87-2.72,4.63,0,0-2.73,6.12-8.33,5.26,0,0-3.73-.2-6.46-5.26,0,0-1.21,2.1-1.54,6.89,0,0,6.03,8.42,5.81,14.45l-.06.43c-5.22,4.84-7.49,6.69-16.42,11.49-2,1.08-3.45,2.05-7.6,3.74-.13.05-2.48.93-2.6.98-6.25,2.25-11.93,3.22-16.98,3.22-4.57,0-11.66-2.2-14.38-4.33-3.52-2.74-4.89-6.05-5.53-9.81-1.12-6.66.21-9.95.52-12.92.33-3.15-1.22-.37-1.22-.37,0,0,.43-3.58-1.17,3.34-6.49,28.08,14.47,30.74,18.98,31.02,10.17.4,19.08-1.87,28.31-6.8,11.06-6.03,16.38-11.18,17.36-12.52l1.01-1.17s4.16-5.92,2.52-15.3c0,0,2.63.38,5.7-2.49,0,0,1.72-1.33,2.93-5,.08-.26.43-1.17.72-1.58.7-1.02,2.08-2.59,3.16-1.34.13.3.28.6.44.96.14.64.4,1.85.61,3.4,0,0,1.45,1.45,1.75-6.94"/>
        <path class="cls-1" d="M748.57,126.18s-3.17-1.35-3.12-2.27c0,0,.18-3.12,2.25-2.62,0,0,4.76,2.15,5.32,6.66l.14.04s.69-3.54.87-4,.68-4.01,2.34-4.46c0,0,1.74-1.13,3.29,1.51,0,0,.09,2.36-.87,2.7,0,0-1.56-1.57-1.83-1.48-.29.08-1.06-.67-1.84,2.86-.78,3.54-.91,6.03-1.82,7.29,0,0-.74.79-1.05-.05,0,0-.61-5.3-2.85-6.44-.5-.29-.82.25-.82.25"/>
        <path class="cls-1" d="M768.43,46.51s1.02-.36.6-2.39c-.43-2.04-.6-2.44-.6-2.44,0,0,.09-.82.78-1.92l.21-.2s.59.43,1.02,3.96c0,0,.04,2.94,1.8,2.94,0,0,1.49.47.93-1.09,0,0-1.24-2.28-1.57-3.34,0,0,.04-1.37.94-2.51,0,0,.33-.55.41.24.09.78.9,3.1,1.2,3.45.3.35,1.03,2.75-.38,4.83-1.41,2.07-3.33.67-3.93-.74-.12-.59-.17-.17-.29-.05,0,0-.72,2.36-2.56,2.51-1.83.15-2.44-2.55-2.39-3.46.03-.9.08-2.51,0-2.91-.09-.38-.3.35-.3.35,0,0-.69.36-.73-.15-.05-.51.17-1.77,1.41-2.67,1.02-.51.98.86.98.86,0,0-.31,3.46-.13,4.04.17.59.73,2.28,2.65.79"/>
        <path class="cls-1" d="M789.68,79.2c3.32-1.49,10.38-3.35,10.38-3.35,0,0-4.92-3.52-8.17-3.46-3.72.07-1.75,1.62-1.75,1.62,0,0-.15-.64,2.86,3.06,3.02,3.7,2.48,7.27,2.48,7.27-.08,3.41-1.16,1.85-1.16,1.85-1.03-3.71-4.61-6.95-4.61-6.95,0,0-2.13-2.65-2.13-3.28s-1.12-2.68,2.8-8.17c2.33-3.27,5.34-1.69,5.34-1.69,0,0,5.92,1.63,12.77,7.93l-2.36,6.68s-10.74,2.04-13.08,3.46l-.07.03s-15.15,4.97-19.69,10.4h49.83l-3.3,6.38s-34.17,7.18-44.01,13.49c0,0-3.47,1.2.29,3.01,3.66,1.77,2.9,1.43,12.26,4l-.29,7.73s-7.63-.63-9.96-1.16c-2.3-.53-17.18-3.38-19.22-28.66l-.48-.09s-1.34,5.94-2.11,6.93c-.78.96-18.06,19.69-30.8,19.95-8.5.19-8.12-11.35-8.12-11.35,0,0,.97-11.71,7.72-19.08l-.67,1.78s-4.83,7.01-4.83,15.26,11.28,4.8,11.28,4.8c0,0,7.05,0,27.33-20.76,0,0-5.8-18.81-6.95-20.86-1.15-2.04-4.25-8.7-4.25-8.7l1.84-7.02s1.72.73,7.34,12.53c5.59,11.79,6.17,22.98,6.17,22.98,0,0-.33,11.04,4.26,16.34,3.08,3.55,4.33,4.43,4.33,4.43,0,0,1.64.97,1.46-1.69-.2-2.66,3.57-6.42,6.26-7.71,2.75-1.34,11.78-5.07,17.57-6.05l-32.82.26,1.63-7.18s5.25-6.73,24.18-14.71"/>
        <path class="cls-1" d="M810.74,35.06c-.17-.29-1.94-1.93-1.94-1.93,0,0,1.08-3.18,1.19-4.67-.06-2.39-1.35-3.53-3.04-3.08-1.66.44-3.18,2.68-3.55,3.38-.38.69-1.08,1.24-.71,2.62.38,1.39,3.62,3.53,3.62,3.53-.21.54-2.54,3.13-5.29,5.07-2.76,1.94-11.08,7.31-14.44,9.49-3.34,2.19-11.39,6.96-12.48,7.66-1.08.69.65.2.65.2,0,0,.32.05,2.38-.94,11.13-5.16,20.15-11.53,23.19-13.66,3.02-2.14,6.96-6.96,6.96-6.96,0,0,.5.15.86.45.38.29,1.63,1.59,1.63,1.59,0,0,.91-1.14.96-1.64.06-.5.17-.8,0-1.11M807.66,32.29s-2.76-1.94-3.19-2.78.43-1.1.87-1.34c.43-.25,1.89-.3,2.38.15.48.46.91,2.69-.06,3.98"/>
        <path class="cls-1" d="M885.74,87.26c-.17-2.63-1.74-6.05-3.1-7.71-1.88-2.18-3.29-2.39-5.33-.94-2.51,2.14-4.07,5.92-5.4,9.7-1.14,3.21-.89,8.44-.85,9.35-2.84.16-4.64-.15-6.08-.97-1.06-.61-3.04-2.65-3.04-2.65-1.54-1.86-4.1-3.11-7.39-3.46-.58-.06-1.19-.1-1.79-.1-8.39,0-15.59,6.24-19.88,9.97l-1.02.88c-3.1,2.65-9.05,8.92-13.42,13.51-2.08,2.19-3.74,3.92-4.43,4.6-1.26,1.2-5.73,5.12-10.26,5.12-.77,0-1.52-.11-2.19-.34-7.19-3.08-5.06-11.42-2.83-17.43,2.31-6.2,4.43-8.44,5.42-9.43.6-.59.86-1.09.73-1.37-.05-.09-.13-.3-.65-.16-1.38.59-1.18-.29-5.44,6.87-4.25,7.16-6.82,19.68.76,25.14,2.56,1.84,4.83,2.74,6.92,2.74,3.59,0,6.49-2.54,10.15-5.77,2.42-2.15,3.99-3.85,5.95-6.02,2.6-2.88,5.84-6.44,12.61-12.59,5.91-5.37,11.05-7.96,15.7-7.96,1.62,0,2.86.3,3.85.55.33.08.63.15.89.2,2.65.5,6.55,4.57,6.61,4.51,2.08,1.51,4.32,1.96,6.25,1.96,1.15,0,2.11-.15,2.67-.25.09-.02.17-.03.23-.04.49,2.77.62,3.36,1.13,3.36l.15-.02c.46-.1.72-1.07.98-3.68,3.93-1.69,7.98-4.72,9.18-6.41,1.48-2.26,3.08-8.4,2.91-11.12M882.18,92.66l-.22.2c-.67.61-5.65,4.27-8.13,4.27-.17,0-.32-.02-.46-.05,0-.78.05-5.92,1.22-8.13,1.31-2.48,2.72-3.93,3.73-3.78,1.06.16,3.42,2.96,4.12,7.11.03.07-.06.19-.27.37"/>
      </g>
    </g>
  </g>
</svg>