<?xml version="1.0" encoding="UTF-8"?>
<svg id="Layer_2" data-name="Layer 2" xmlns="http://www.w3.org/2000/svg" viewBox="0 0 138.13 35.38">
  <defs>
    <style>
      .cls-1 {
        fill: #0e5e46;
      }

      .cls-2 {
        fill: none;
        stroke: #fdc029;
        stroke-miterlimit: 10;
        stroke-width: .5px;
      }

      .cls-3 {
        fill: #fdc029;
      }
    </style>
  </defs>
  <g id="Layer_1-2" data-name="Layer 1">
    <g>
      <path class="cls-1" d="M15.68,14.1v.3c0,.07-.06.13-.13.13h-1.18v-2.37c-.09-.05-.33-.13-.66-.13-.53,0-.78.24-.78.73v.56c0,.38.18.66.58.66h.17v.56h-2.86c-.91,0-1.33-.48-1.33-1.29v-1.14h.7v1.2c0,.47.23.67.72.67h1.61c-.19-.21-.28-.5-.28-.87v-.28c0-.88.46-1.38,1.45-1.38.55,0,1.04.16,1.39.33v2.2h.48c.07,0,.13.06.13.13ZM10.8,15.85v-.62h.66v.62h-.66ZM11.66,15.85v-.62h.66v.62h-.66Z"/>
      <path class="cls-1" d="M19.28,14.1v.3c0,.07-.06.13-.13.13h-3.6c-.07,0-.13-.06-.13-.13v-.3c0-.07.06-.13.13-.13h2.54c-.1-.19-.15-.43-.15-.71v-.58c0-.46-.21-.66-.67-.66-.43,0-.74.1-.99.23l-.17-.56c.21-.08.61-.26,1.25-.26.89,0,1.29.46,1.29,1.28v.62c0,.36.17.65.5.65.07,0,.13.06.13.13Z"/>
      <path class="cls-1" d="M20.81,11.54v2.99h-1.66c-.07,0-.13-.06-.13-.13v-.3c0-.07.06-.13.13-.13h.96v-2.43h.7ZM19.39,15.85v-.62h.72v.62h-.72Z"/>
      <path class="cls-1" d="M20.97,15.52c.71.05.92-.26.92-.82v-3.16h.7v3.12c0,.97-.49,1.47-1.62,1.42v-.56Z"/>
      <path class="cls-1" d="M28.19,14.1v.3c0,.07-.06.13-.13.13-.8,0-1.19-.11-1.19-.89v-1.54h-.61c-.38,0-.59.06-.7.12v2.44c0,.97-.49,1.47-1.62,1.42v-.56c.7.05.91-.26.91-.82v-2.85c.21-.11.66-.3,1.39-.3h1.34v2.13c0,.27.1.3.49.3.07,0,.13.06.13.13ZM25.97,15.85v-.62h.66v.62h-.66ZM26.84,15.85v-.62h.66v.62h-.66Z"/>
      <path class="cls-1" d="M31.62,13.97v.56h-3.56c-.07,0-.13-.06-.13-.13v-.3c0-.07.06-.13.13-.13h1.03c-.18-.19-.26-.46-.26-.82v-.38c0-.87.48-1.35,1.46-1.34.59,0,.97.11,1.22.22l-.17.56c-.31-.11-.59-.18-.98-.19-.5,0-.82.21-.82.72v.41c0,.57.2.82.75.82h1.33ZM30.61,10.3v.62h-.71v-.62h.71Z"/>
      <path class="cls-1" d="M34.73,14.53c-.9,0-.93.23-.93.61,0,.44.14.59.95.59.42,0,.78-.05,1.03-.08v.58c-.31.03-.61.07-1.02.07-1.05,0-1.67-.22-1.67-1.17,0-.62.25-.88.74-.98-.33-.18-.49-.52-.49-1.01v-.38c0-.87.48-1.35,1.46-1.34.59,0,.97.12,1.22.22l-.17.57c-.31-.11-.59-.19-.98-.19-.5,0-.82.2-.82.72v.41c0,.57.2.82.75.82h1.33v.56h-1.42Z"/>
      <path class="cls-1" d="M38.05,14.1v.3c0,.07-.06.13-.13.13h-1.18v-4.43h.7v3.87h.48c.07,0,.13.06.13.13Z"/>
      <path class="cls-1" d="M38.85,14.1v.3c0,.07-.06.13-.13.13h-.8c-.07,0-.13-.06-.13-.13v-.3c0-.07.06-.13.13-.13h.8c.07,0,.13.06.13.13Z"/>
      <path class="cls-1" d="M39.65,14.1v.3c0,.07-.06.13-.13.13h-.8c-.07,0-.13-.06-.13-.13v-.3c0-.07.06-.13.13-.13h.8c.07,0,.13.06.13.13Z"/>
      <path class="cls-1" d="M40.45,14.1v.3c0,.07-.06.13-.13.13h-.8c-.07,0-.13-.06-.13-.13v-.3c0-.07.06-.13.13-.13h.8c.07,0,.13.06.13.13Z"/>
      <path class="cls-1" d="M41.25,14.1v.3c0,.07-.06.13-.13.13h-.8c-.07,0-.13-.06-.13-.13v-.3c0-.07.06-.13.13-.13h.8c.07,0,.13.06.13.13Z"/>
      <path class="cls-1" d="M42.05,14.1v.3c0,.07-.06.13-.13.13h-.8c-.07,0-.13-.06-.13-.13v-.3c0-.07.06-.13.13-.13h.8c.07,0,.13.06.13.13Z"/>
      <path class="cls-1" d="M42.85,14.1v.3c0,.07-.06.13-.13.13h-.8c-.07,0-.13-.06-.13-.13v-.3c0-.07.06-.13.13-.13h.8c.07,0,.13.06.13.13Z"/>
      <path class="cls-1" d="M43.65,14.1v.3c0,.07-.06.13-.13.13h-.8c-.07,0-.13-.06-.13-.13v-.3c0-.07.06-.13.13-.13h.8c.07,0,.13.06.13.13Z"/>
      <path class="cls-1" d="M44.45,14.1v.3c0,.07-.06.13-.13.13h-.8c-.07,0-.13-.06-.13-.13v-.3c0-.07.06-.13.13-.13h.8c.07,0,.13.06.13.13Z"/>
      <path class="cls-1" d="M45.25,14.1v.3c0,.07-.06.13-.13.13h-.8c-.07,0-.13-.06-.13-.13v-.3c0-.07.06-.13.13-.13h.8c.07,0,.13.06.13.13Z"/>
      <path class="cls-1" d="M46.05,14.1v.3c0,.07-.06.13-.13.13h-.8c-.07,0-.13-.06-.13-.13v-.3c0-.07.06-.13.13-.13h.8c.07,0,.13.06.13.13Z"/>
      <path class="cls-1" d="M46.85,14.1v.3c0,.07-.06.13-.13.13h-.8c-.07,0-.13-.06-.13-.13v-.3c0-.07.06-.13.13-.13h.8c.07,0,.13.06.13.13Z"/>
      <path class="cls-1" d="M47.65,14.1v.3c0,.07-.06.13-.13.13h-.8c-.07,0-.13-.06-.13-.13v-.3c0-.07.06-.13.13-.13h.8c.07,0,.13.06.13.13Z"/>
      <path class="cls-1" d="M48.45,14.1v.3c0,.07-.06.13-.13.13h-.8c-.07,0-.13-.06-.13-.13v-.3c0-.07.06-.13.13-.13h.8c.07,0,.13.06.13.13Z"/>
      <path class="cls-1" d="M49.25,14.1v.3c0,.07-.06.13-.13.13h-.8c-.07,0-.13-.06-.13-.13v-.3c0-.07.06-.13.13-.13h.8c.07,0,.13.06.13.13Z"/>
      <path class="cls-1" d="M54.23,14.1v.3c0,.07-.06.13-.13.13-.23,0-.45-.06-.6-.19-.19.16-.5.19-.94.19h-3.44c-.07,0-.13-.06-.13-.13v-.3c0-.07.06-.13.13-.13h.96v-3.87h.7v1.99c.34-.22,1.07-.69,1.78-.67.71.02,1.18.4,1.18,1.29v1.03c0,.18.13.23.36.23.07,0,.13.06.13.13ZM53.03,12.69c0-.5-.23-.69-.65-.68-.53,0-1.23.5-1.6.78v1.18h1.78c.39,0,.47-.03.47-.3v-.98Z"/>
      <path class="cls-1" d="M57.73,11.77v2.77h-3.62c-.07,0-.13-.06-.13-.13v-.3c0-.07.06-.13.13-.13h1.05c-.18-.19-.26-.46-.26-.82v-.38c0-.86.46-1.34,1.42-1.34.58,0,1.06.16,1.42.33ZM56.19,10.3v.63h-.66v-.63h.66ZM57.02,13.97v-1.82c-.11-.04-.35-.13-.68-.13-.51,0-.74.24-.74.71v.57c0,.42.26.67.75.67h.67ZM57.05,10.3v.63h-.66v-.63h.66Z"/>
      <path class="cls-1" d="M65.89,14.1v.3c0,.07-.06.13-.13.13h-1.18v-2.37c-.09-.05-.33-.13-.66-.13-.53,0-.78.24-.78.73v.56c0,.38.18.66.58.66h.17v.56h-2.86c-.91,0-1.33-.48-1.33-1.29v-1.14h.7v1.2c0,.47.23.67.72.67h1.61c-.19-.21-.28-.5-.28-.87v-.28c0-.88.46-1.38,1.45-1.38.55,0,1.04.16,1.39.33v2.2h.48c.07,0,.13.06.13.13Z"/>
      <path class="cls-1" d="M67.38,10.1v4.43h-1.62c-.07,0-.13-.06-.13-.13v-.3c0-.07.06-.13.13-.13h.91v-3.87h.7Z"/>
      <path class="cls-1" d="M69.26,15.69v.29h-1.14v-.29h.2c-.04-.06-.06-.14-.06-.26v-.02c0-.52.47-.62.93-.43l-.09.27c-.28-.14-.5-.08-.5.14v.12c0,.11.07.17.2.17h.46ZM69.05,10.1v4.43h-.7v-4.43h.7Z"/>
      <path class="cls-1" d="M70.96,14.25v-1.44h.7v1.54c0,.49.27.72.85.72.34,0,.6-.07.76-.13v-4.84h.7v5.17c-.22.12-.69.37-1.57.37-.99,0-1.45-.5-1.45-1.39Z"/>
      <path class="cls-1" d="M78.14,14.1v.3c0,.07-.06.13-.13.13h-.48v.13c0,.91-.42,1.42-1.44,1.42h-.74v-.57h.74c.56,0,.74-.3.74-.81v-.17h-.72c-.96,0-1.41-.48-1.41-1.34v-.4c0-.88.46-1.36,1.44-1.36.56,0,1.04.15,1.39.32v2.21h.48c.07,0,.13.06.13.13ZM76.83,13.97v-1.82c-.08-.05-.32-.13-.65-.13-.54,0-.78.24-.78.73v.5c0,.47.23.72.75.72h.68Z"/>
      <path class="cls-1" d="M78.94,14.1v.3c0,.07-.06.13-.13.13h-.8c-.07,0-.13-.06-.13-.13v-.3c0-.07.06-.13.13-.13h.8c.07,0,.13.06.13.13Z"/>
      <path class="cls-1" d="M79.74,14.1v.3c0,.07-.06.13-.13.13h-.8c-.07,0-.13-.06-.13-.13v-.3c0-.07.06-.13.13-.13h.8c.07,0,.13.06.13.13Z"/>
      <path class="cls-1" d="M80.54,14.1v.3c0,.07-.06.13-.13.13h-.8c-.07,0-.13-.06-.13-.13v-.3c0-.07.06-.13.13-.13h.8c.07,0,.13.06.13.13Z"/>
      <path class="cls-1" d="M81.34,14.1v.3c0,.07-.06.13-.13.13h-.8c-.07,0-.13-.06-.13-.13v-.3c0-.07.06-.13.13-.13h.8c.07,0,.13.06.13.13Z"/>
      <path class="cls-1" d="M82.14,14.1v.3c0,.07-.06.13-.13.13h-.8c-.07,0-.13-.06-.13-.13v-.3c0-.07.06-.13.13-.13h.8c.07,0,.13.06.13.13Z"/>
      <path class="cls-1" d="M82.94,14.1v.3c0,.07-.06.13-.13.13h-.8c-.07,0-.13-.06-.13-.13v-.3c0-.07.06-.13.13-.13h.8c.07,0,.13.06.13.13Z"/>
      <path class="cls-1" d="M83.74,14.1v.3c0,.07-.06.13-.13.13h-.8c-.07,0-.13-.06-.13-.13v-.3c0-.07.06-.13.13-.13h.8c.07,0,.13.06.13.13Z"/>
      <path class="cls-1" d="M84.54,14.1v.3c0,.07-.06.13-.13.13h-.8c-.07,0-.13-.06-.13-.13v-.3c0-.07.06-.13.13-.13h.8c.07,0,.13.06.13.13Z"/>
      <path class="cls-1" d="M85.34,14.1v.3c0,.07-.06.13-.13.13h-.8c-.07,0-.13-.06-.13-.13v-.3c0-.07.06-.13.13-.13h.8c.07,0,.13.06.13.13Z"/>
      <path class="cls-1" d="M86.14,14.1v.3c0,.07-.06.13-.13.13h-.8c-.07,0-.13-.06-.13-.13v-.3c0-.07.06-.13.13-.13h.8c.07,0,.13.06.13.13Z"/>
      <path class="cls-1" d="M86.94,14.1v.3c0,.07-.06.13-.13.13h-.8c-.07,0-.13-.06-.13-.13v-.3c0-.07.06-.13.13-.13h.8c.07,0,.13.06.13.13Z"/>
      <path class="cls-1" d="M87.74,14.1v.3c0,.07-.06.13-.13.13h-.8c-.07,0-.13-.06-.13-.13v-.3c0-.07.06-.13.13-.13h.8c.07,0,.13.06.13.13Z"/>
      <path class="cls-1" d="M88.54,14.1v.3c0,.07-.06.13-.13.13h-.8c-.07,0-.13-.06-.13-.13v-.3c0-.07.06-.13.13-.13h.8c.07,0,.13.06.13.13Z"/>
      <path class="cls-1" d="M89.34,14.1v.3c0,.07-.06.13-.13.13h-.8c-.07,0-.13-.06-.13-.13v-.3c0-.07.06-.13.13-.13h.8c.07,0,.13.06.13.13Z"/>
      <path class="cls-1" d="M90.14,14.1v.3c0,.07-.06.13-.13.13h-.8c-.07,0-.13-.06-.13-.13v-.3c0-.07.06-.13.13-.13h.8c.07,0,.13.06.13.13Z"/>
      <path class="cls-1" d="M90.94,14.1v.3c0,.07-.06.13-.13.13h-.8c-.07,0-.13-.06-.13-.13v-.3c0-.07.06-.13.13-.13h.8c.07,0,.13.06.13.13Z"/>
      <path class="cls-1" d="M95.44,12.71v1.82h-4.62c-.07,0-.13-.06-.13-.13v-.3c0-.07.06-.13.13-.13h.96v-2.43h.7v.55c.34-.22,1.07-.69,1.78-.67.71.02,1.18.4,1.18,1.29ZM94.73,12.69c0-.5-.23-.69-.65-.68-.53,0-1.23.5-1.6.78v1.18h2.25v-1.29Z"/>
      <path class="cls-1" d="M99.48,14.1v.3c0,.07-.06.13-.13.13h-.48v.13c0,.91-.42,1.42-1.44,1.42h-.74v-.57h.74c.56,0,.74-.3.74-.81v-.17h-.72c-.96,0-1.41-.48-1.41-1.34v-.4c0-.88.46-1.36,1.44-1.36.56,0,1.04.15,1.39.32v2.21h.48c.07,0,.13.06.13.13ZM98.17,13.97v-1.82c-.08-.05-.32-.13-.65-.13-.54,0-.78.24-.78.73v.5c0,.47.23.72.75.72h.68Z"/>
      <path class="cls-1" d="M100.97,10.1v4.43h-1.62c-.07,0-.13-.06-.13-.13v-.3c0-.07.06-.13.13-.13h.91v-3.87h.7Z"/>
      <path class="cls-1" d="M101.94,14.53v-4.43h.7v4.43h-.7Z"/>
      <path class="cls-1" d="M110.28,11.77v2.77h-4.29c-.91,0-1.32-.48-1.32-1.29v-1.06h.7v1.12c0,.47.22.67.71.67h1.62c-.18-.19-.26-.46-.26-.82v-.38c0-.86.46-1.34,1.42-1.34.57,0,1.05.16,1.42.33ZM109.57,13.97v-1.82c-.11-.04-.35-.13-.68-.13-.52,0-.74.24-.74.71v.57c0,.42.26.67.74.67h.68ZM109.22,10.3v.62h-.71v-.62h.71Z"/>
      <path class="cls-1" d="M113.85,14.1v.3c0,.07-.06.13-.13.13-.23,0-.45-.06-.6-.19-.2.16-.51.19-.94.19h-1.34v-.56h1.34c.39,0,.48-.03.48-.3v-.91c0-.49-.24-.73-.78-.73-.29,0-.55.06-.76.14l-.12-.58c.16-.05.58-.14.92-.14.98,0,1.44.47,1.44,1.36v.93c0,.18.13.23.36.23.07,0,.13.06.13.13Z"/>
      <path class="cls-1" d="M117.59,14.1v.3c0,.07-.06.13-.13.13h-.38v.19c0,.82-.4,1.3-1.28,1.3s-1.29-.48-1.29-1.3v-.19h-.78c-.07,0-.13-.06-.13-.13v-.3c0-.07.06-.13.13-.13h.78v-1.46c0-.85.49-1.3,1.3-1.29.81,0,1.29.45,1.29,1.29v.58c0,.36-.12.68-.34.93.07-.03.16-.05.25-.05h.45c.07,0,.13.06.13.13ZM115.22,13.97h.46c.49,0,.73-.23.73-.66v-.83c0-.46-.25-.66-.59-.66-.35,0-.59.2-.59.66v1.5ZM116.37,14.62c0-.13.03-.25.1-.34-.26.16-.58.26-.94.26h-.3v.26c0,.36.14.66.58.66s.58-.3.58-.66v-.18Z"/>
      <path class="cls-1" d="M119.73,14.1v.3c0,.07-.06.13-.13.13-.26,0-.52-.06-.7-.2-.19.17-.51.2-.96.2h-.48c-.07,0-.13-.06-.13-.13v-.3c0-.07.06-.13.13-.13h.48c.39,0,.48-.03.48-.3v-2.13h.7v2.2c0,.2.22.23.48.23.07,0,.13.06.13.13ZM118.24,10.3v.63h-.66v-.63h.66ZM119.1,10.3v.63h-.66v-.63h.66Z"/>
      <path class="cls-1" d="M125.36,14.1v.3c0,.07-.06.13-.13.13-.34,0-.62-.1-.85-.27-.2.18-.46.27-.76.27-.35,0-.69-.13-.91-.34-.19.22-.5.34-.93.34h-2.18c-.07,0-.13-.06-.13-.13v-.3c0-.07.06-.13.13-.13h.96v-2.13h.7v2.13h.43c.41,0,.58-.21.58-.62v-1.5h.7v1.44c0,.15-.02.3-.05.43.15.15.33.25.58.25.33,0,.54-.18.54-.54v-1.89h.7v1.66c0,.24-.03.45-.1.62.15.1.36.15.57.15.07,0,.13.06.13.13Z"/>
      <path class="cls-1" d="M126.9,11.54v2.99h-1.66c-.07,0-.13-.06-.13-.13v-.3c0-.07.06-.13.13-.13h.96v-2.43h.7ZM126.71,10.3v.62h-.71v-.62h.71Z"/>
      <path class="cls-1" d="M128.01,13.74l-.46-.43.97-.98-.97-1.01.44-.42,1.37,1.43-1.35,1.41ZM129.46,13.74l-.46-.43.97-.98-.97-1.01.44-.42,1.37,1.43-1.35,1.41Z"/>
      <path class="cls-1" d="M9.03,23.74l-1.35-1.41,1.37-1.43.44.42-.97,1.01.97.98-.46.43ZM10.48,23.74l-1.35-1.41,1.37-1.43.44.42-.97,1.01.97.98-.46.43Z"/>
      <path class="cls-1" d="M13.02,24.1v.3c0,.07-.06.13-.13.13h-.48v.13c0,.97-.49,1.47-1.62,1.42v-.56c.71.05.92-.26.92-.82v-3.16h.7v2.43h.48c.07,0,.13.06.13.13Z"/>
      <path class="cls-1" d="M14.56,21.54v2.99h-1.66c-.07,0-.13-.06-.13-.13v-.3c0-.07.06-.13.13-.13h.96v-2.43h.7ZM13.76,20.3v.63h-.66v-.63h.66ZM14.19,19.49v.62h-.66v-.62h.66ZM13.96,20.3h.66v.63h-.66v-.63Z"/>
      <path class="cls-1" d="M18.72,24.1v.3c0,.07-.06.13-.13.13h-.48v.13c0,.91-.42,1.42-1.44,1.42h-.74v-.57h.74c.56,0,.74-.3.74-.81v-.17h-.72c-.96,0-1.41-.48-1.41-1.34v-.4c0-.88.46-1.36,1.44-1.36.56,0,1.04.15,1.39.32v2.21h.48c.07,0,.13.06.13.13ZM16.97,20.7v.29h-1.13v-.29h.21c-.04-.06-.06-.14-.06-.26v-.02c0-.52.46-.62.92-.43l-.08.27c-.28-.14-.51-.08-.51.14v.12c0,.11.08.17.21.17h.45ZM17.41,23.97v-1.82c-.08-.05-.32-.13-.65-.13-.54,0-.78.24-.78.73v.5c0,.47.23.72.75.72h.68Z"/>
      <path class="cls-1" d="M19.53,24.1v.3c0,.07-.06.13-.13.13h-.8c-.07,0-.13-.06-.13-.13v-.3c0-.07.06-.13.13-.13h.8c.07,0,.13.06.13.13Z"/>
      <path class="cls-1" d="M20.33,24.1v.3c0,.07-.06.13-.13.13h-.8c-.07,0-.13-.06-.13-.13v-.3c0-.07.06-.13.13-.13h.8c.07,0,.13.06.13.13Z"/>
      <path class="cls-1" d="M21.13,24.1v.3c0,.07-.06.13-.13.13h-.8c-.07,0-.13-.06-.13-.13v-.3c0-.07.06-.13.13-.13h.8c.07,0,.13.06.13.13Z"/>
      <path class="cls-1" d="M21.93,24.1v.3c0,.07-.06.13-.13.13h-.8c-.07,0-.13-.06-.13-.13v-.3c0-.07.06-.13.13-.13h.8c.07,0,.13.06.13.13Z"/>
      <path class="cls-1" d="M22.73,24.1v.3c0,.07-.06.13-.13.13h-.8c-.07,0-.13-.06-.13-.13v-.3c0-.07.06-.13.13-.13h.8c.07,0,.13.06.13.13Z"/>
      <path class="cls-1" d="M23.53,24.1v.3c0,.07-.06.13-.13.13h-.8c-.07,0-.13-.06-.13-.13v-.3c0-.07.06-.13.13-.13h.8c.07,0,.13.06.13.13Z"/>
      <path class="cls-1" d="M24.33,24.1v.3c0,.07-.06.13-.13.13h-.8c-.07,0-.13-.06-.13-.13v-.3c0-.07.06-.13.13-.13h.8c.07,0,.13.06.13.13Z"/>
      <path class="cls-1" d="M25.13,24.1v.3c0,.07-.06.13-.13.13h-.8c-.07,0-.13-.06-.13-.13v-.3c0-.07.06-.13.13-.13h.8c.07,0,.13.06.13.13Z"/>
      <path class="cls-1" d="M25.93,24.1v.3c0,.07-.06.13-.13.13h-.8c-.07,0-.13-.06-.13-.13v-.3c0-.07.06-.13.13-.13h.8c.07,0,.13.06.13.13Z"/>
      <path class="cls-1" d="M26.73,24.1v.3c0,.07-.06.13-.13.13h-.8c-.07,0-.13-.06-.13-.13v-.3c0-.07.06-.13.13-.13h.8c.07,0,.13.06.13.13Z"/>
      <path class="cls-1" d="M27.53,24.1v.3c0,.07-.06.13-.13.13h-.8c-.07,0-.13-.06-.13-.13v-.3c0-.07.06-.13.13-.13h.8c.07,0,.13.06.13.13Z"/>
      <path class="cls-1" d="M28.33,24.1v.3c0,.07-.06.13-.13.13h-.8c-.07,0-.13-.06-.13-.13v-.3c0-.07.06-.13.13-.13h.8c.07,0,.13.06.13.13Z"/>
      <path class="cls-1" d="M29.13,24.1v.3c0,.07-.06.13-.13.13h-.8c-.07,0-.13-.06-.13-.13v-.3c0-.07.06-.13.13-.13h.8c.07,0,.13.06.13.13Z"/>
      <path class="cls-1" d="M29.93,24.1v.3c0,.07-.06.13-.13.13h-.8c-.07,0-.13-.06-.13-.13v-.3c0-.07.06-.13.13-.13h.8c.07,0,.13.06.13.13Z"/>
      <path class="cls-1" d="M30.73,24.1v.3c0,.07-.06.13-.13.13h-.8c-.07,0-.13-.06-.13-.13v-.3c0-.07.06-.13.13-.13h.8c.07,0,.13.06.13.13Z"/>
      <path class="cls-1" d="M31.53,24.1v.3c0,.07-.06.13-.13.13h-.8c-.07,0-.13-.06-.13-.13v-.3c0-.07.06-.13.13-.13h.8c.07,0,.13.06.13.13Z"/>
      <path class="cls-1" d="M32.33,24.1v.3c0,.07-.06.13-.13.13h-.8c-.07,0-.13-.06-.13-.13v-.3c0-.07.06-.13.13-.13h.8c.07,0,.13.06.13.13Z"/>
      <path class="cls-1" d="M36,22.82v.39c0,.86-.45,1.33-1.41,1.33h-.06c-.38,0-.66-.09-.89-.21-.19.17-.51.2-.96.2h-.48c-.07,0-.13-.06-.13-.13v-.3c0-.07.06-.13.13-.13h.48c.38,0,.48-.03.48-.3v-1.88c.35-.18.84-.34,1.39-.34.98,0,1.45.48,1.45,1.36ZM35.29,22.77c0-.49-.25-.73-.78-.73-.33,0-.57.08-.66.13v1.68c.14.07.37.14.66.14h.02c.51,0,.74-.24.74-.71v-.5Z"/>
      <path class="cls-1" d="M39.44,21.76v2.9c0,.91-.42,1.42-1.44,1.42h-.74v-.57h.74c.56,0,.74-.3.74-.81v-.17h-.72c-.96,0-1.41-.48-1.41-1.34v-.4c0-.88.46-1.36,1.44-1.36.56,0,1.04.15,1.39.32ZM38.73,22.15c-.08-.05-.32-.13-.65-.13-.54,0-.78.24-.78.73v.5c0,.47.23.72.75.72h.68v-1.82Z"/>
      <path class="cls-1" d="M45.68,24.1v.3c0,.07-.06.13-.13.13-.32,0-.59-.1-.82-.25-.22.17-.54.26-.95.26h-.06c-.37,0-.65-.09-.87-.21l-.04.02c-.19.07-.42.12-.59.24-.22.15-.29.48-.29,1.02h-.71c0-.6.13-1.06.48-1.38.26-.26.6-.32.66-.36v-2.08c.34-.18.83-.34,1.39-.34.98,0,1.45.48,1.45,1.36v.39c0,.26-.04.48-.12.67.14.06.31.1.48.1.07,0,.13.06.13.13ZM44.49,22.76c0-.49-.25-.73-.78-.73-.32,0-.57.09-.65.13v1.69c.14.06.37.13.66.13h.02c.51,0,.74-.24.74-.7v-.51Z"/>
      <path class="cls-1" d="M46.49,24.1v.3c0,.07-.06.13-.13.13h-.8c-.07,0-.13-.06-.13-.13v-.3c0-.07.06-.13.13-.13h.8c.07,0,.13.06.13.13Z"/>
      <path class="cls-1" d="M47.29,24.1v.3c0,.07-.06.13-.13.13h-.8c-.07,0-.13-.06-.13-.13v-.3c0-.07.06-.13.13-.13h.8c.07,0,.13.06.13.13Z"/>
      <path class="cls-1" d="M48.09,24.1v.3c0,.07-.06.13-.13.13h-.8c-.07,0-.13-.06-.13-.13v-.3c0-.07.06-.13.13-.13h.8c.07,0,.13.06.13.13Z"/>
      <path class="cls-1" d="M48.89,24.1v.3c0,.07-.06.13-.13.13h-.8c-.07,0-.13-.06-.13-.13v-.3c0-.07.06-.13.13-.13h.8c.07,0,.13.06.13.13Z"/>
      <path class="cls-1" d="M49.69,24.1v.3c0,.07-.06.13-.13.13h-.8c-.07,0-.13-.06-.13-.13v-.3c0-.07.06-.13.13-.13h.8c.07,0,.13.06.13.13Z"/>
      <path class="cls-1" d="M50.49,24.1v.3c0,.07-.06.13-.13.13h-.8c-.07,0-.13-.06-.13-.13v-.3c0-.07.06-.13.13-.13h.8c.07,0,.13.06.13.13Z"/>
      <path class="cls-1" d="M51.29,24.1v.3c0,.07-.06.13-.13.13h-.8c-.07,0-.13-.06-.13-.13v-.3c0-.07.06-.13.13-.13h.8c.07,0,.13.06.13.13Z"/>
      <path class="cls-1" d="M52.09,24.1v.3c0,.07-.06.13-.13.13h-.8c-.07,0-.13-.06-.13-.13v-.3c0-.07.06-.13.13-.13h.8c.07,0,.13.06.13.13Z"/>
      <path class="cls-1" d="M52.89,24.1v.3c0,.07-.06.13-.13.13h-.8c-.07,0-.13-.06-.13-.13v-.3c0-.07.06-.13.13-.13h.8c.07,0,.13.06.13.13Z"/>
      <path class="cls-1" d="M53.69,24.1v.3c0,.07-.06.13-.13.13h-.8c-.07,0-.13-.06-.13-.13v-.3c0-.07.06-.13.13-.13h.8c.07,0,.13.06.13.13Z"/>
      <path class="cls-1" d="M54.49,24.1v.3c0,.07-.06.13-.13.13h-.8c-.07,0-.13-.06-.13-.13v-.3c0-.07.06-.13.13-.13h.8c.07,0,.13.06.13.13Z"/>
      <path class="cls-1" d="M55.29,24.1v.3c0,.07-.06.13-.13.13h-.8c-.07,0-.13-.06-.13-.13v-.3c0-.07.06-.13.13-.13h.8c.07,0,.13.06.13.13Z"/>
      <path class="cls-1" d="M56.09,24.1v.3c0,.07-.06.13-.13.13h-.8c-.07,0-.13-.06-.13-.13v-.3c0-.07.06-.13.13-.13h.8c.07,0,.13.06.13.13Z"/>
      <path class="cls-1" d="M56.89,24.1v.3c0,.07-.06.13-.13.13h-.8c-.07,0-.13-.06-.13-.13v-.3c0-.07.06-.13.13-.13h.8c.07,0,.13.06.13.13Z"/>
      <path class="cls-1" d="M57.69,24.1v.3c0,.07-.06.13-.13.13h-.8c-.07,0-.13-.06-.13-.13v-.3c0-.07.06-.13.13-.13h.8c.07,0,.13.06.13.13Z"/>
      <path class="cls-1" d="M58.49,24.1v.3c0,.07-.06.13-.13.13h-.8c-.07,0-.13-.06-.13-.13v-.3c0-.07.06-.13.13-.13h.8c.07,0,.13.06.13.13Z"/>
      <path class="cls-1" d="M59.29,24.1v.3c0,.07-.06.13-.13.13h-.8c-.07,0-.13-.06-.13-.13v-.3c0-.07.06-.13.13-.13h.8c.07,0,.13.06.13.13Z"/>
      <path class="cls-1" d="M60.09,24.1v.3c0,.07-.06.13-.13.13h-.8c-.07,0-.13-.06-.13-.13v-.3c0-.07.06-.13.13-.13h.8c.07,0,.13.06.13.13Z"/>
      <path class="cls-1" d="M60.89,24.1v.3c0,.07-.06.13-.13.13h-.8c-.07,0-.13-.06-.13-.13v-.3c0-.07.06-.13.13-.13h.8c.07,0,.13.06.13.13Z"/>
      <path class="cls-1" d="M64.32,23.97v.56h-3.56c-.07,0-.13-.06-.13-.13v-.3c0-.07.06-.13.13-.13h1.03c-.18-.19-.26-.46-.26-.82v-.38c0-.87.48-1.35,1.46-1.34.59,0,.97.11,1.22.22l-.17.56c-.31-.11-.59-.18-.98-.19-.5,0-.82.21-.82.72v.41c0,.57.2.82.75.82h1.33Z"/>
      <path class="cls-1" d="M64.92,24.53v-4.43h.7v4.43h-.7Z"/>
      <path class="cls-1" d="M68.71,22.82v1.72h-2.53v-.56h1.82v-1.22c0-.49-.24-.73-.78-.73-.3,0-.55.06-.76.14l-.12-.58c.16-.05.58-.14.92-.14.98,0,1.44.47,1.44,1.36Z"/>
      <path class="cls-1" d="M72.15,21.76v2.9c0,.91-.42,1.42-1.44,1.42h-.74v-.57h.74c.56,0,.74-.3.74-.81v-.17h-.72c-.96,0-1.41-.48-1.41-1.34v-.4c0-.88.46-1.36,1.44-1.36.56,0,1.04.15,1.39.32ZM71.44,22.15c-.08-.05-.32-.13-.65-.13-.54,0-.78.24-.78.73v.5c0,.47.23.72.75.72h.68v-1.82Z"/>
      <path class="cls-1" d="M73.49,25.52c.71.05.92-.26.92-.82v-3.16h.7v3.12c0,.97-.49,1.47-1.62,1.42v-.56Z"/>
      <path class="cls-1" d="M78.2,22.82v1.72h-2.53v-.56h1.82v-1.22c0-.49-.24-.73-.78-.73-.3,0-.55.06-.76.14l-.12-.58c.16-.05.58-.14.92-.14.98,0,1.44.47,1.44,1.36Z"/>
      <path class="cls-1" d="M80.35,24.1v.3c0,.07-.06.13-.13.13h-1.18v-4.43h.7v3.87h.48c.07,0,.13.06.13.13Z"/>
      <path class="cls-1" d="M81.15,24.1v.3c0,.07-.06.13-.13.13h-.8c-.07,0-.13-.06-.13-.13v-.3c0-.07.06-.13.13-.13h.8c.07,0,.13.06.13.13Z"/>
      <path class="cls-1" d="M81.95,24.1v.3c0,.07-.06.13-.13.13h-.8c-.07,0-.13-.06-.13-.13v-.3c0-.07.06-.13.13-.13h.8c.07,0,.13.06.13.13Z"/>
      <path class="cls-1" d="M82.75,24.1v.3c0,.07-.06.13-.13.13h-.8c-.07,0-.13-.06-.13-.13v-.3c0-.07.06-.13.13-.13h.8c.07,0,.13.06.13.13Z"/>
      <path class="cls-1" d="M83.55,24.1v.3c0,.07-.06.13-.13.13h-.8c-.07,0-.13-.06-.13-.13v-.3c0-.07.06-.13.13-.13h.8c.07,0,.13.06.13.13Z"/>
      <path class="cls-1" d="M84.35,24.1v.3c0,.07-.06.13-.13.13h-.8c-.07,0-.13-.06-.13-.13v-.3c0-.07.06-.13.13-.13h.8c.07,0,.13.06.13.13Z"/>
      <path class="cls-1" d="M85.15,24.1v.3c0,.07-.06.13-.13.13h-.8c-.07,0-.13-.06-.13-.13v-.3c0-.07.06-.13.13-.13h.8c.07,0,.13.06.13.13Z"/>
      <path class="cls-1" d="M85.95,24.1v.3c0,.07-.06.13-.13.13h-.8c-.07,0-.13-.06-.13-.13v-.3c0-.07.06-.13.13-.13h.8c.07,0,.13.06.13.13Z"/>
      <path class="cls-1" d="M86.75,24.1v.3c0,.07-.06.13-.13.13h-.8c-.07,0-.13-.06-.13-.13v-.3c0-.07.06-.13.13-.13h.8c.07,0,.13.06.13.13Z"/>
      <path class="cls-1" d="M87.55,24.1v.3c0,.07-.06.13-.13.13h-.8c-.07,0-.13-.06-.13-.13v-.3c0-.07.06-.13.13-.13h.8c.07,0,.13.06.13.13Z"/>
      <path class="cls-1" d="M88.35,24.1v.3c0,.07-.06.13-.13.13h-.8c-.07,0-.13-.06-.13-.13v-.3c0-.07.06-.13.13-.13h.8c.07,0,.13.06.13.13Z"/>
      <path class="cls-1" d="M89.15,24.1v.3c0,.07-.06.13-.13.13h-.8c-.07,0-.13-.06-.13-.13v-.3c0-.07.06-.13.13-.13h.8c.07,0,.13.06.13.13Z"/>
      <path class="cls-1" d="M89.95,24.1v.3c0,.07-.06.13-.13.13h-.8c-.07,0-.13-.06-.13-.13v-.3c0-.07.06-.13.13-.13h.8c.07,0,.13.06.13.13Z"/>
      <path class="cls-1" d="M90.75,24.1v.3c0,.07-.06.13-.13.13h-.8c-.07,0-.13-.06-.13-.13v-.3c0-.07.06-.13.13-.13h.8c.07,0,.13.06.13.13Z"/>
      <path class="cls-1" d="M91.55,24.1v.3c0,.07-.06.13-.13.13h-.8c-.07,0-.13-.06-.13-.13v-.3c0-.07.06-.13.13-.13h.8c.07,0,.13.06.13.13Z"/>
      <path class="cls-1" d="M92.35,24.1v.3c0,.07-.06.13-.13.13h-.8c-.07,0-.13-.06-.13-.13v-.3c0-.07.06-.13.13-.13h.8c.07,0,.13.06.13.13Z"/>
      <path class="cls-1" d="M93.15,24.1v.3c0,.07-.06.13-.13.13h-.8c-.07,0-.13-.06-.13-.13v-.3c0-.07.06-.13.13-.13h.8c.07,0,.13.06.13.13Z"/>
      <path class="cls-1" d="M93.95,24.1v.3c0,.07-.06.13-.13.13h-.8c-.07,0-.13-.06-.13-.13v-.3c0-.07.06-.13.13-.13h.8c.07,0,.13.06.13.13Z"/>
      <path class="cls-1" d="M94.75,24.1v.3c0,.07-.06.13-.13.13h-.8c-.07,0-.13-.06-.13-.13v-.3c0-.07.06-.13.13-.13h.8c.07,0,.13.06.13.13Z"/>
      <path class="cls-1" d="M95.55,24.1v.3c0,.07-.06.13-.13.13h-.8c-.07,0-.13-.06-.13-.13v-.3c0-.07.06-.13.13-.13h.8c.07,0,.13.06.13.13Z"/>
      <path class="cls-1" d="M96.35,24.1v.3c0,.07-.06.13-.13.13h-.8c-.07,0-.13-.06-.13-.13v-.3c0-.07.06-.13.13-.13h.8c.07,0,.13.06.13.13Z"/>
      <path class="cls-1" d="M98.49,24.1v.3c0,.07-.06.13-.13.13-.26,0-.52-.06-.7-.2-.19.17-.51.2-.96.2h-.48c-.07,0-.13-.06-.13-.13v-.3c0-.07.06-.13.13-.13h.48c.39,0,.48-.03.48-.3v-2.13h.7v2.2c0,.2.22.23.48.23.07,0,.13.06.13.13ZM96.41,25.85v-.62h.71v.62h-.71Z"/>
      <path class="cls-1" d="M102.16,22.82v.39c0,.86-.45,1.33-1.41,1.33h-.06c-.38,0-.66-.09-.89-.21-.19.17-.51.2-.96.2h-.48c-.07,0-.13-.06-.13-.13v-.3c0-.07.06-.13.13-.13h.48c.38,0,.48-.03.48-.3v-1.88c.35-.18.84-.34,1.39-.34.98,0,1.45.48,1.45,1.36ZM101.46,22.77c0-.49-.25-.73-.78-.73-.33,0-.57.08-.66.13v1.68c.14.07.37.14.66.14h.02c.51,0,.74-.24.74-.71v-.5Z"/>
      <path class="cls-1" d="M105.6,21.76v2.9c0,.91-.42,1.42-1.44,1.42h-.74v-.57h.74c.56,0,.74-.3.74-.81v-.17h-.72c-.96,0-1.41-.48-1.41-1.34v-.4c0-.88.46-1.36,1.44-1.36.56,0,1.04.15,1.39.32ZM104.9,22.15c-.08-.05-.32-.13-.65-.13-.54,0-.78.24-.78.73v.5c0,.47.23.72.75.72h.68v-1.82Z"/>
      <path class="cls-1" d="M111.31,22.78c.85,0,1.37.23,1.37,1.02,0,.71-.3,1.23-1.36,1.23h-2.43c-.91,0-1.33-.47-1.33-1.29v-1.05h.7v1.1c0,.47.22.67.72.67h2.3c.59,0,.68-.34.68-.67,0-.31-.22-.47-.62-.47h-1.78v-1.03c0-.83.62-1.17,1.34-1.17.54,0,1.14.19,1.35.77l-.54.22c-.14-.26-.4-.43-.78-.43s-.68.15-.68.62v.47h1.05ZM109.21,26.05v-.62h.66v.62h-.66ZM110.08,26.05v-.62h.66v.62h-.66Z"/>
      <path class="cls-1" d="M116.6,24.1v.3c0,.07-.06.13-.13.13h-.48v.13c0,.91-.42,1.42-1.44,1.42h-.74v-.57h.74c.56,0,.74-.3.74-.81v-.17h-.72c-.96,0-1.41-.48-1.41-1.34v-.4c0-.88.46-1.36,1.44-1.36.56,0,1.04.15,1.39.32v2.21h.48c.07,0,.13.06.13.13ZM115.29,23.97v-1.82c-.08-.05-.32-.13-.65-.13-.54,0-.78.24-.78.73v.5c0,.47.23.72.75.72h.68Z"/>
      <path class="cls-1" d="M117.41,24.1v.3c0,.07-.06.13-.13.13h-.8c-.07,0-.13-.06-.13-.13v-.3c0-.07.06-.13.13-.13h.8c.07,0,.13.06.13.13Z"/>
      <path class="cls-1" d="M118.21,24.1v.3c0,.07-.06.13-.13.13h-.8c-.07,0-.13-.06-.13-.13v-.3c0-.07.06-.13.13-.13h.8c.07,0,.13.06.13.13Z"/>
      <path class="cls-1" d="M119.01,24.1v.3c0,.07-.06.13-.13.13h-.8c-.07,0-.13-.06-.13-.13v-.3c0-.07.06-.13.13-.13h.8c.07,0,.13.06.13.13Z"/>
      <path class="cls-1" d="M119.81,24.1v.3c0,.07-.06.13-.13.13h-.8c-.07,0-.13-.06-.13-.13v-.3c0-.07.06-.13.13-.13h.8c.07,0,.13.06.13.13Z"/>
      <path class="cls-1" d="M120.61,24.1v.3c0,.07-.06.13-.13.13h-.8c-.07,0-.13-.06-.13-.13v-.3c0-.07.06-.13.13-.13h.8c.07,0,.13.06.13.13Z"/>
      <path class="cls-1" d="M121.41,24.1v.3c0,.07-.06.13-.13.13h-.8c-.07,0-.13-.06-.13-.13v-.3c0-.07.06-.13.13-.13h.8c.07,0,.13.06.13.13Z"/>
      <path class="cls-1" d="M122.21,24.1v.3c0,.07-.06.13-.13.13h-.8c-.07,0-.13-.06-.13-.13v-.3c0-.07.06-.13.13-.13h.8c.07,0,.13.06.13.13Z"/>
      <path class="cls-1" d="M123.01,24.1v.3c0,.07-.06.13-.13.13h-.8c-.07,0-.13-.06-.13-.13v-.3c0-.07.06-.13.13-.13h.8c.07,0,.13.06.13.13Z"/>
      <path class="cls-1" d="M123.81,24.1v.3c0,.07-.06.13-.13.13h-.8c-.07,0-.13-.06-.13-.13v-.3c0-.07.06-.13.13-.13h.8c.07,0,.13.06.13.13Z"/>
      <path class="cls-1" d="M124.61,24.1v.3c0,.07-.06.13-.13.13h-.8c-.07,0-.13-.06-.13-.13v-.3c0-.07.06-.13.13-.13h.8c.07,0,.13.06.13.13Z"/>
      <path class="cls-1" d="M125.41,24.1v.3c0,.07-.06.13-.13.13h-.8c-.07,0-.13-.06-.13-.13v-.3c0-.07.06-.13.13-.13h.8c.07,0,.13.06.13.13Z"/>
      <path class="cls-1" d="M126.21,24.1v.3c0,.07-.06.13-.13.13h-.8c-.07,0-.13-.06-.13-.13v-.3c0-.07.06-.13.13-.13h.8c.07,0,.13.06.13.13Z"/>
      <path class="cls-1" d="M127.01,24.1v.3c0,.07-.06.13-.13.13h-.8c-.07,0-.13-.06-.13-.13v-.3c0-.07.06-.13.13-.13h.8c.07,0,.13.06.13.13Z"/>
      <path class="cls-1" d="M130.5,21.77v2.77h-3.62c-.07,0-.13-.06-.13-.13v-.3c0-.07.06-.13.13-.13h1.05c-.18-.19-.26-.46-.26-.82v-.38c0-.86.46-1.34,1.42-1.34.58,0,1.06.16,1.42.33ZM128.97,20.3v.63h-.66v-.63h.66ZM129.8,23.97v-1.82c-.11-.04-.35-.13-.68-.13-.51,0-.74.24-.74.71v.57c0,.42.26.67.75.67h.67ZM129.83,20.3v.63h-.66v-.63h.66Z"/>
    </g>
    <path class="cls-3" d="M129.02,3.45V0h3.75v3.45c0,1.27-.24,2.29-.73,3.08-.49.78-1.26,1.38-2.32,1.81l-.91-1.3c.7-.28,1.21-.69,1.54-1.24.33-.54.51-1.33.55-2.35h-1.87Z"/>
    <path class="cls-3" d="M134.38,3.45V0h3.75v3.45c0,1.27-.24,2.29-.73,3.08-.49.78-1.26,1.38-2.32,1.81l-.91-1.3c.7-.28,1.21-.69,1.54-1.24.33-.54.51-1.33.55-2.35h-1.87Z"/>
    <line class="cls-2" x1="126.05" y1="3.55" x2="9.71" y2="3.55"/>
    <line class="cls-2" x1="131.09" y1="31.86" x2="12.75" y2="31.86"/>
    <path class="cls-3" d="M9.17,31.93l-.06,3.45-3.75-.06.06-3.45c.02-1.27.28-2.29.78-3.06.5-.77,1.29-1.36,2.35-1.77l.89,1.31c-.7.27-1.22.67-1.56,1.21-.34.54-.54,1.32-.59,2.34l1.87.03Z"/>
    <path class="cls-3" d="M3.81,31.83l-.06,3.45-3.75-.06.06-3.45c.02-1.27.28-2.29.78-3.06.5-.77,1.29-1.36,2.35-1.77l.89,1.31c-.7.27-1.22.67-1.56,1.21-.34.54-.54,1.32-.59,2.34l1.87.03Z"/>
  </g>
</svg>