<?xml version="1.0" encoding="UTF-8"?>
<svg id="Layer_2" data-name="Layer 2" xmlns="http://www.w3.org/2000/svg" xmlns:xlink="http://www.w3.org/1999/xlink" viewBox="0 0 224.32 174.49">
  <defs>
    <linearGradient id="linear-gradient" x1="76.85" y1="96.85" x2="121.55" y2="96.85" gradientUnits="userSpaceOnUse">
      <stop offset="0" stop-color="#10634b"/>
      <stop offset="1" stop-color="#558d92"/>
    </linearGradient>
    <linearGradient id="linear-gradient-2" x1="66.76" y1="86.71" x2="141.5" y2="86.71" xlink:href="#linear-gradient"/>
    <linearGradient id="linear-gradient-3" x1="61.24" y1="72.04" x2="155.69" y2="72.04" xlink:href="#linear-gradient"/>
    <linearGradient id="linear-gradient-4" x1="60.38" y1="57.39" x2="160.16" y2="57.39" xlink:href="#linear-gradient"/>
    <linearGradient id="linear-gradient-5" x1="111.32" y1="26.35" x2="161.43" y2="26.35" xlink:href="#linear-gradient"/>
  </defs>
  <g id="Layer_1-2" data-name="Layer 1">
    <g>
      <g>
        <g>
          <path d="M3.69,133.62c-.68,0-1.28-.16-1.78-.47-.5-.31-.88-.75-1.14-1.32-.26-.57-.39-1.23-.39-1.99v-1.95h1.77v1.95c0,.46.07.85.2,1.16.13.31.31.54.55.7s.5.23.8.23.56-.08.79-.23.41-.39.54-.7.19-.78.19-1.41v-7.6h1.75v8.53c-.05.65-.21,1.21-.49,1.67-.28.46-.65.82-1.12,1.07-.47.25-1.02.37-1.67.37Z" style="fill: #10634b;"/>
          <path d="M12.92,125.36c.45.27.8.65,1.04,1.16.24.5.37,1.09.37,1.75v1.67c0,1.35-.34,2.35-1.02,3.02-.68.67-1.7,1-3.07,1h-1.72v-1.63h1.73c.7,0,1.22-.12,1.57-.36.35-.24.55-.49.6-.73h-.66c-1.09,0-1.91-.27-2.47-.8-.56-.53-.84-1.32-.84-2.36,0-.6.13-1.13.38-1.61s.6-.85,1.04-1.11c.45-.27.95-.4,1.52-.4s1.08.13,1.53.4ZM12.57,129.67v-1.19c0-.73-.11-1.23-.32-1.52-.21-.29-.5-.43-.87-.43-.22,0-.42.06-.6.18s-.32.3-.42.54-.16.51-.16.83c0,.55.12.95.37,1.21.25.25.64.38,1.19.38h.81Z" style="fill: #10634b;"/>
          <path d="M19.52,131.24h-3.81v-1.6h1.48v-6.33h1.77v6.36h.36c.47-.02.8-.12.99-.31.2-.22.3-.6.3-1.13v-6.24h1.82v6.24c-.04.98-.3,1.72-.79,2.24-.49.51-1.2.77-2.12.77ZM18.66,121.61v.85h-2.51v-.85h.84c-.14.3-.27.32-.4.05-.13-.26-.19-.46-.19-.6,0-.21.05-.4.16-.56.11-.16.26-.29.45-.38.19-.09.4-.13.64-.13s.47.04.72.11v.85c-.26-.07-.48-.1-.66-.1-.12,0-.22.03-.29.1s-.11.14-.11.24c0,.12.05.22.15.3.1.08.24.12.41.12h.79Z" style="fill: #10634b;"/>
          <path d="M24.14,121.99h1.73v9.25s-1.75,0-1.75,0v-6.71s.01-2.54.01-2.54Z" style="fill: #10634b;"/>
          <path d="M38.95,125.75c-.08,0-.21.04-.39.09-.46.12-.78.29-.96.49-.18.2-.23.43-.16.68.03.13.1.29.22.47.11.18.29.43.53.75l.24.31c.28.36.51.7.69,1.03s.37.89.56,1.67h-6.55c-1.19,0-2.07-.3-2.65-.9-.54-.56-.81-1.36-.81-2.41v-1.72h1.73v1.71c0,.4.05.72.17.97.11.26.29.46.54.58.25.13.59.19,1.02.19h3.85l-.32-.4c-.28-.36-.5-.69-.68-.98-.17-.29-.3-.59-.38-.89-.2-.73-.06-1.37.41-1.9.47-.53,1.19-.93,2.15-1.19.54-.14,1.22-.28,2.06-.41l.4.96,1.97,4.39c.12.27.39.41.82.41h.2l.44.18v1.25l-.45.15h-.57c-.56,0-1.04-.12-1.44-.36-.17-.1-.3-.25-.4-.45l-2.24-4.67ZM32.91,132.71c0-.27.1-.51.29-.7.19-.19.43-.29.7-.29s.51.09.7.29c.19.19.29.42.29.7s-.1.51-.29.69c-.2.19-.43.28-.7.28s-.5-.1-.7-.29-.29-.42-.29-.69ZM35.13,132.71c0-.27.1-.51.29-.7.19-.19.43-.29.7-.29s.51.09.7.29c.19.19.29.42.29.7s-.1.51-.29.69c-.2.19-.43.28-.7.28s-.5-.1-.7-.29c-.2-.19-.29-.42-.29-.69Z" style="fill: #10634b;"/>
          <path d="M42.83,131.09v-1.28l.46-.15h4.15l.46.15v1.28l-.46.15h-4.15l-.46-.15Z" style="fill: #10634b;"/>
          <path d="M46.63,131.09v-1.28l.46-.15h4.15l.46.15v1.28l-.46.15h-4.15l-.46-.15Z" style="fill: #10634b;"/>
          <path d="M50.98,131.24l.06-1.57h6.38v.79c-.3-.29-.51-.53-.63-.72-.12-.19-.25-.47-.39-.83l-.38-.89c-.19-.45-.37-.78-.52-.99-.15-.21-.31-.35-.48-.42s-.39-.1-.68-.1h-1.79v-1.58h1.79c.59,0,1.07.07,1.46.2.38.13.72.37,1.01.71.29.34.56.83.81,1.47l.37.91c.16.39.31.68.44.88.13.2.25.34.37.41s.3.12.56.15h.64l.35.14v1.33l-.36.1h-9.01Z" style="fill: #10634b;"/>
          <path d="M62.92,130.47c-.49.51-1.2.77-2.12.77h-1l-.34-.14v-1.29l.34-.14h.22c.85,0,1.38-.11,1.57-.32.2-.21.3-.58.3-1.12v-3.1h1.82v3.11c-.04.97-.3,1.72-.79,2.23ZM61.08,133.32c-.18-.17-.26-.38-.26-.63s.09-.46.26-.63.39-.26.63-.26.46.09.64.26.26.39.26.63-.09.46-.27.63-.39.26-.64.26-.46-.09-.63-.26Z" style="fill: #10634b;"/>
          <path d="M68.3,131.24c-.03.84-.28,1.49-.76,1.96-.52.51-1.27.81-2.28.88h-1.23v-1.66h1.16c.47,0,.81-.12,1.03-.35s.33-.63.33-1.18v-5.77h1.8v4.54h1.3l.34.14v1.29l-.34.14h-1.36Z" style="fill: #10634b;"/>
          <path d="M71.92,130.47c-.49.51-1.2.77-2.12.77h-.4l-.34-.14v-1.29l.34-.14h.22c.45,0,.78-.11.98-.32.2-.21.3-.59.3-1.12l-.02-3.76v-2.48h1.81v2.47l-.03,3.76c0,.98-.24,1.73-.73,2.24Z" style="fill: #10634b;"/>
          <path d="M74.27,121.99h1.73v9.25s-1.75,0-1.75,0v-6.71s.01-2.54.01-2.54Z" style="fill: #10634b;"/>
          <path d="M82.76,131.24c-.03.84-.28,1.49-.76,1.96-.52.51-1.27.81-2.28.88h-1.23v-1.66h1.16c.47,0,.81-.12,1.03-.35s.33-.63.33-1.18v-5.77h1.8v4.54h1.3l.34.14v1.29l-.34.14h-1.36Z" style="fill: #10634b;"/>
          <path d="M83.28,131.09v-1.28l.46-.15h4.15l.46.15v1.28l-.46.15h-4.15l-.46-.15Z" style="fill: #10634b;"/>
          <path d="M87.09,131.09v-1.28l.46-.15h4.15l.46.15v1.28l-.46.15h-4.15l-.46-.15Z" style="fill: #10634b;"/>
          <path d="M90.9,131.09v-1.28l.46-.15h4.15l.46.15v1.28l-.46.15h-4.15l-.46-.15Z" style="fill: #10634b;"/>
          <path d="M94.7,131.09v-1.28l.46-.15h4.15l.46.15v1.28l-.46.15h-4.15l-.46-.15Z" style="fill: #10634b;"/>
          <path d="M98.51,131.09v-1.28l.46-.15h4.15l.46.15v1.28l-.46.15h-4.15l-.46-.15Z" style="fill: #10634b;"/>
          <path d="M107.98,129.84v1.26l-.34.14h-.49c-.42,0-.84-.13-1.26-.38s-.76-.68-1.01-1.28h.71c-.2.58-.48,1.01-.84,1.27-.36.26-.88.39-1.56.39h-.21l-.34-.14v-1.29l.34-.14h.21c.41,0,.72-.11.93-.33.21-.22.29-.57.27-1.04v-2.57h1.86v2.57c-.03.48.06.82.27,1.04.2.22.51.33.93.33h.23l.33.17ZM103.46,133.33c-.18-.17-.26-.38-.26-.63s.09-.46.26-.63.39-.26.63-.26.46.09.64.26.26.39.26.63-.09.46-.27.63-.39.26-.64.26-.46-.09-.63-.26ZM105.61,133.33c-.18-.17-.27-.38-.27-.63s.09-.46.27-.63.39-.26.63-.26.46.09.64.26.27.39.27.63-.09.46-.27.63-.39.26-.64.26-.46-.09-.63-.26Z" style="fill: #10634b;"/>
          <path d="M109.05,129.67c-.07-.11-.11-.18-.12-.2-.27-.55-.41-1.08-.41-1.6,0-.62.15-1.18.45-1.68.3-.5.72-.89,1.26-1.16s1.14-.41,1.82-.41c.42,0,.98.08,1.67.25l-.2,1.83c-.61-.22-1.06-.33-1.36-.33-.41,0-.74.06-1,.17-.26.11-.48.28-.64.51s-.24.51-.24.83.12.65.35.97c.23.32.57.54,1.01.65.44.12.95.18,1.54.18h1.65v1.57h-7.37l-.34-.14v-1.29l.34-.14h1.6ZM111.25,123.6c-.18-.17-.26-.38-.26-.63s.09-.46.26-.63.39-.26.63-.26.46.09.64.26.26.38.26.63-.09.46-.27.63-.39.26-.64.26-.46-.09-.63-.26Z" style="fill: #10634b;"/>
          <path d="M120.28,130.83c-.24.27-.38.6-.43.97-.04.33,0,.63.11.9.11.27.3.49.56.68.26.18.59.32.98.41h2.76l-.79,1.48h-2.28c-.67-.09-1.26-.31-1.75-.65-.5-.34-.87-.78-1.1-1.31s-.31-1.11-.23-1.73c.08-.6.3-1.12.64-1.55.06-.08.13-.15.21-.23-.08-.1-.14-.21-.21-.33-.28-.54-.42-1.08-.42-1.6,0-.62.15-1.18.46-1.68.3-.5.73-.88,1.26-1.16s1.14-.42,1.81-.42c.42,0,.98.09,1.67.26l-.2,1.82c-.61-.21-1.06-.32-1.36-.32-.41,0-.74.06-1,.17-.26.11-.48.28-.64.51-.16.23-.24.51-.24.83s.12.65.35.97c.23.32.57.54,1.01.65.44.12.95.18,1.54.18h1.05v1.53h-1.7c-.79-.02-1.48-.14-2.06-.37Z" style="fill: #10634b;"/>
          <path d="M126.31,130.47c-.49-.51-.73-1.26-.73-2.24l-.03-3.76v-2.47h1.81v2.47l-.02,3.76c0,.54.1.91.3,1.12.2.21.52.32.98.32h.28l.4.15v1.28l-.4.15h-.46c-.93,0-1.64-.26-2.12-.77Z" style="fill: #10634b;"/>
          <path d="M128.07,131.09v-1.28l.46-.15h4.15l.46.15v1.28l-.46.15h-4.15l-.46-.15Z" style="fill: #10634b;"/>
          <path d="M131.88,131.09v-1.28l.46-.15h4.15l.46.15v1.28l-.46.15h-4.15l-.46-.15Z" style="fill: #10634b;"/>
          <path d="M135.68,131.09v-1.28l.46-.15h4.15l.46.15v1.28l-.46.15h-4.15l-.46-.15Z" style="fill: #10634b;"/>
          <path d="M139.49,131.09v-1.28l.46-.15h4.15l.46.15v1.28l-.46.15h-4.15l-.46-.15Z" style="fill: #10634b;"/>
          <path d="M143.3,131.09v-1.28l.46-.15h4.15l.46.15v1.28l-.46.15h-4.15l-.46-.15Z" style="fill: #10634b;"/>
          <path d="M147.1,131.09v-1.28l.46-.15h4.15l.46.15v1.28l-.46.15h-4.15l-.46-.15Z" style="fill: #10634b;"/>
          <path d="M161.11,129.52c.09.1.34.14.73.14h.38l.27.17v1.26l-.29.14h-.61c-.55,0-1.02-.19-1.39-.56-.46.37-1.12.56-1.97.56h-6.73l-.29-.14v-1.29l.29-.14h.99v-7.76h1.76v4.79l3.96-.97c.98-.18,1.73.02,2.26.6s.79,1.3.79,2.15c0,.47-.05.82-.15,1.05ZM159.5,128.47c0-.39-.09-.68-.29-.87-.19-.19-.49-.25-.89-.16l-4.08.97v1.25h3.98c.46,0,.78-.1.98-.3.2-.2.3-.5.3-.89Z" style="fill: #10634b;"/>
          <path d="M163.4,129.67c-.3-.45-.45-.97-.45-1.56s.12-1.14.38-1.62c.25-.48.6-.85,1.04-1.12.45-.27.95-.4,1.52-.4s1.08.13,1.53.4c.45.27.8.66,1.05,1.17.25.51.3,1.1.15,1.75l-.31,1.38h1.66l.34.14v1.29l-.34.14h-7.98l-.34-.14v-1.29l.34-.14h1.4ZM164.33,124.13c-.18-.17-.27-.38-.27-.63s.09-.46.27-.63.39-.26.63-.26.46.09.64.26.27.38.27.63-.09.46-.27.63-.39.26-.64.26-.46-.09-.63-.26ZM166.54,129.67l.33-1.51c.12-.53.07-.93-.13-1.21-.2-.28-.49-.41-.84-.41-.23,0-.44.06-.62.18s-.32.3-.42.54c-.1.24-.15.52-.15.86,0,.52.13.91.38,1.17.25.26.64.39,1.18.39h.27ZM166.48,124.13c-.18-.17-.27-.38-.27-.63s.09-.46.27-.63.39-.26.63-.26.46.09.64.26c.18.17.26.38.26.63s-.09.46-.27.63c-.18.17-.39.26-.64.26s-.46-.09-.63-.26Z" style="fill: #10634b;"/>
          <path d="M172.26,130.47c-.49.51-1.2.77-2.12.77h-.4l-.34-.14v-1.29l.34-.14h.22c.45,0,.78-.11.98-.32.2-.21.3-.59.3-1.12l-.02-3.76v-2.48h1.81v2.47l-.03,3.76c0,.98-.24,1.73-.73,2.24Z" style="fill: #10634b;"/>
          <path d="M174.61,121.99h1.73v9.25s-1.75,0-1.75,0v-6.71s.01-2.54.01-2.54Z" style="fill: #10634b;"/>
          <path d="M183.1,131.24c-.03.84-.28,1.49-.76,1.96-.52.51-1.27.81-2.28.88h-1.23v-1.66h1.16c.47,0,.81-.12,1.03-.35s.33-.63.33-1.18v-5.77h1.8v4.54h1.3l.34.14v1.29l-.34.14h-1.36Z" style="fill: #10634b;"/>
          <path d="M183.62,131.09v-1.28l.46-.15h4.15l.46.15v1.28l-.46.15h-4.15l-.46-.15Z" style="fill: #10634b;"/>
          <path d="M187.43,131.09v-1.28l.46-.15h4.15l.46.15v1.28l-.46.15h-4.15l-.46-.15Z" style="fill: #10634b;"/>
          <path d="M191.24,131.09v-1.28l.46-.15h4.15l.46.15v1.28l-.46.15h-4.15l-.46-.15Z" style="fill: #10634b;"/>
          <path d="M202.34,130.57c-.32.27-.68.46-1.1.57-.52.14-1.08.14-1.67,0-.6-.13-1.13-.47-1.59-.99-.22.46-.47.75-.76.88-.31.15-.64.22-1,.21h-.61l-.28-.14v-1.43h.48c.44-.04.75-.17.93-.38.15-.17.44-1.41.87-3.7l3.03-.02c.68,0,1.24.18,1.68.54.44.36.75.79.91,1.28.16.5.18,1.02.05,1.58,0,.02,0,.05-.02.07.1.13.18.24.24.3.2.21.51.32.92.32h.2l.44.18v1.25l-.46.15h-.44c-.56,0-1.04-.12-1.45-.36-.13-.08-.27-.19-.39-.31ZM198.85,127.3l-.06.26c-.12.52-.08.93.11,1.24s.55.52,1.05.63c.32.08.61.09.87.04.26-.05.46-.14.62-.29.16-.14.26-.33.32-.56.09-.35.02-.66-.21-.92-.23-.26-.61-.39-1.15-.4h-1.55Z" style="fill: #10634b;"/>
          <path d="M207.56,130.47c-.49.51-1.2.77-2.12.77h-1l-.34-.14v-1.29l.34-.14h.22c.85,0,1.38-.11,1.57-.32.2-.21.3-.58.3-1.12v-3.1h1.82v3.11c-.04.97-.3,1.72-.79,2.23ZM205.49,124.06c-.18-.17-.26-.38-.26-.63s.09-.46.26-.63c.18-.17.39-.26.63-.26s.46.09.64.26c.18.17.26.39.26.63s-.09.46-.27.63-.39.26-.64.26-.46-.09-.63-.26ZM207.64,124.06c-.18-.17-.27-.38-.27-.63s.09-.46.27-.63c.18-.17.39-.26.63-.26s.46.09.64.26c.18.17.27.39.27.63s-.09.46-.27.63-.39.26-.64.26-.46-.09-.63-.26Z" style="fill: #10634b;"/>
          <path d="M215.51,131.24c-.16.71-.45,1.29-.89,1.72-.68.67-1.7,1.01-3.07,1.01h-1.72v-1.63h1.73c.7,0,1.22-.12,1.57-.36.35-.24.55-.49.6-.73h-.66c-1.09,0-1.91-.27-2.47-.8-.56-.53-.84-1.32-.84-2.36,0-.6.13-1.13.38-1.61s.6-.85,1.04-1.11c.45-.27.95-.4,1.52-.4s1.08.13,1.53.4c.45.27.8.65,1.04,1.16.24.5.37,1.09.37,1.75v1.4h1.15l.34.14v1.29l-.34.14h-1.27ZM213.72,123.12v.85h-2.51v-.85h.84c-.13.3-.27.32-.4.05-.13-.26-.19-.46-.19-.6,0-.21.05-.4.16-.56s.26-.29.45-.38c.19-.09.4-.13.64-.13s.47.04.72.11v.85c-.26-.07-.48-.1-.66-.1-.12,0-.22.03-.29.1-.07.06-.11.14-.11.24,0,.12.05.22.15.3.1.08.24.12.41.12h.79ZM213.89,129.67v-1.19c0-.73-.11-1.23-.32-1.52-.21-.29-.5-.43-.87-.43-.22,0-.42.06-.6.18s-.32.3-.42.54-.16.51-.16.83c0,.55.12.95.37,1.21.25.25.64.38,1.19.38h.81Z" style="fill: #10634b;"/>
          <path d="M218.55,125.59l3.03-.02c.68,0,1.24.18,1.68.54.44.36.75.79.91,1.28.16.5.18,1.02.05,1.58-.12.55-.37,1.01-.73,1.38-.36.38-.8.63-1.33.77-.52.14-1.08.14-1.67,0-.6-.13-1.13-.47-1.59-.99-.22.46-.47.75-.76.88-.31.15-.64.22-1,.21h-.61l-.28-.14v-1.43h.48c.44-.04.75-.17.93-.38.15-.17.44-1.41.87-3.7ZM219.79,127.3l-.06.26c-.12.52-.08.93.11,1.24s.55.52,1.05.63c.32.08.61.09.87.04.26-.05.46-.14.62-.29.16-.14.26-.33.32-.56.09-.35.02-.66-.21-.92-.23-.26-.61-.39-1.15-.4h-1.55Z" style="fill: #10634b;"/>
          <path d="M4.94,149.84c-.46.34-.97.53-1.54.58-.6.05-1.14-.03-1.64-.24-.5-.21-.9-.52-1.21-.94s-.49-.91-.54-1.48c-.05-.57.04-1.09.28-1.56s.59-.85,1.08-1.15,1.06-.4,1.73-.31l1.54.2v-.57h1.62v3.65c0,.48.11.83.32,1.05.21.22.52.33.93.33h.23l.33.17v1.26l-.33.14h-.5c-.58,0-1.08-.13-1.5-.38-.37-.22-.63-.48-.79-.77ZM1.77,143.46c-.18-.17-.27-.38-.27-.63s.09-.46.27-.63.39-.26.63-.26.46.09.64.26.27.39.27.63-.09.46-.27.63-.39.26-.64.26-.46-.09-.63-.26ZM4.68,146.7l-1.57-.19c-.53-.07-.93.01-1.19.23-.26.22-.37.52-.34.89.02.23.1.43.24.59.14.16.33.29.57.37.25.08.54.11.87.07.52-.04.89-.2,1.13-.47s.33-.68.29-1.22v-.27ZM3.92,143.46c-.18-.17-.26-.38-.26-.63s.09-.46.26-.63.39-.26.63-.26.46.09.64.26.26.39.26.63-.09.46-.27.63-.39.26-.64.26-.46-.09-.63-.26Z" style="fill: #10634b;"/>
          <path d="M9.1,149.42c-.07-.11-.11-.18-.12-.2-.27-.55-.41-1.08-.41-1.6,0-.62.15-1.18.45-1.68.3-.5.72-.89,1.26-1.16s1.14-.41,1.82-.41c.42,0,.98.08,1.67.25l-.2,1.83c-.61-.22-1.06-.33-1.36-.33-.41,0-.74.06-1,.17-.26.11-.48.28-.64.51s-.24.51-.24.83.12.65.35.97c.23.32.57.54,1.01.65.44.12.95.18,1.54.18h1.65v1.57h-7.37l-.34-.14v-1.29l.34-.14h1.6Z" style="fill: #10634b;"/>
          <path d="M16.44,141.74h1.73v9.25s-1.75,0-1.75,0v-6.71s.01-2.54.01-2.54Z" style="fill: #10634b;"/>
          <path d="M18.65,152.18h1.16c.47,0,.81-.12,1.03-.35s.33-.63.33-1.18v-5.77h1.76v5.8c0,1-.26,1.76-.77,2.28-.51.51-1.27.81-2.27.88h-1.23v-1.66Z" style="fill: #10634b;"/>
          <path d="M27.58,150.99c-.03.84-.28,1.49-.76,1.96-.52.51-1.27.81-2.28.88h-1.23v-1.66h1.16c.47,0,.81-.12,1.03-.35s.33-.63.33-1.18v-5.77h1.8v4.54h1.3l.34.14v1.29l-.34.14h-1.36ZM25.99,144.05c-.18-.17-.26-.38-.26-.63s.09-.46.26-.63.39-.26.63-.26.46.09.64.26.26.38.26.63-.09.46-.27.63-.39.26-.64.26-.46-.09-.63-.26Z" style="fill: #10634b;"/>
          <path d="M28.1,150.85v-1.28l.46-.15h4.15l.46.15v1.28l-.46.15h-4.15l-.46-.15Z" style="fill: #10634b;"/>
          <path d="M35.01,150.22c-.49.51-1.2.77-2.12.77h-.4l-.34-.14v-1.29l.34-.14h.22c.45,0,.78-.11.98-.32.2-.21.3-.59.3-1.12l-.02-3.76v-2.48h1.81v2.47l-.03,3.76c0,.98-.24,1.73-.73,2.24Z" style="fill: #10634b;"/>
          <path d="M37.36,141.74h1.73v9.25s-1.75,0-1.75,0v-6.71s.01-2.54.01-2.54Z" style="fill: #10634b;"/>
          <path d="M45.13,145.12c.45.27.8.65,1.04,1.16.24.5.37,1.09.37,1.75v1.67c0,1.35-.34,2.35-1.02,3.02-.68.67-1.7,1-3.07,1h-1.72v-1.63h1.73c.7,0,1.22-.12,1.57-.36.35-.24.55-.49.6-.73h-.66c-1.09,0-1.91-.27-2.47-.8-.56-.53-.84-1.32-.84-2.36,0-.6.13-1.13.38-1.61s.6-.85,1.04-1.11c.45-.27.95-.4,1.52-.4s1.08.13,1.53.4ZM44.78,149.42v-1.19c0-.73-.11-1.23-.32-1.52-.21-.29-.5-.43-.87-.43-.22,0-.42.06-.6.18s-.32.3-.42.54-.16.51-.16.83c0,.55.12.95.37,1.21.25.25.64.38,1.19.38h.81Z" style="fill: #10634b;"/>
          <path d="M53.56,151c-1.25-.23-1.94-1.17-2.08-2.81-.06-.59.02-1.14.22-1.64.2-.5.52-.91.94-1.22.42-.31.92-.49,1.47-.54.57-.05,1.09.04,1.56.26.47.23.85.58,1.15,1.07s.41,1.07.32,1.74l-.42,3.15h-3.17ZM55.2,149.41l.18-1.54c.06-.53-.02-.93-.24-1.18-.23-.26-.52-.37-.88-.34-.24.02-.44.1-.6.24-.16.14-.28.33-.36.58-.08.25-.1.54-.07.87.05.51.21.88.49,1.12.28.23.68.33,1.21.28l.27-.03Z" style="fill: #10634b;"/>
          <path d="M59.36,150.22c-.49-.51-.73-1.26-.73-2.24l-.03-3.76v-2.47h1.81v2.47l-.02,3.76c0,.54.1.91.3,1.12.2.21.52.32.98.32h.28l.4.15v1.28l-.4.15h-.46c-.93,0-1.64-.26-2.12-.77Z" style="fill: #10634b;"/>
          <path d="M61.12,150.85v-1.28l.46-.15h4.15l.46.15v1.28l-.46.15h-4.15l-.46-.15Z" style="fill: #10634b;"/>
          <path d="M64.93,150.85v-1.28l.46-.15h4.15l.46.15v1.28l-.46.15h-4.15l-.46-.15Z" style="fill: #10634b;"/>
          <path d="M68.74,150.85v-1.28l.46-.15h4.15l.46.15v1.28l-.46.15h-4.15l-.46-.15Z" style="fill: #10634b;"/>
          <path d="M72.54,150.85v-1.28l.46-.15h4.15l.46.15v1.28l-.46.15h-4.15l-.46-.15Z" style="fill: #10634b;"/>
          <path d="M76.35,150.85v-1.28l.46-.15h4.15l.46.15v1.28l-.46.15h-4.15l-.46-.15Z" style="fill: #10634b;"/>
          <path d="M80.16,150.85v-1.28l.46-.15h4.15l.46.15v1.28l-.46.15h-4.15l-.46-.15Z" style="fill: #10634b;"/>
          <path d="M89.62,149.59v1.26l-.34.14h-.49c-.42,0-.84-.13-1.26-.38s-.76-.68-1.01-1.28h.71c-.2.58-.48,1.01-.84,1.27-.36.26-.88.39-1.56.39h-.21l-.34-.14v-1.29l.34-.14h.21c.41,0,.72-.11.93-.33.21-.22.29-.57.27-1.04v-2.57h1.86v2.57c-.03.48.06.82.27,1.04.2.22.51.33.93.33h.23l.33.17ZM85.1,153.09c-.18-.17-.26-.38-.26-.63s.09-.46.26-.63.39-.26.63-.26.46.09.64.26.26.39.26.63-.09.46-.27.63-.39.26-.64.26-.46-.09-.63-.26ZM87.26,153.09c-.18-.17-.27-.38-.27-.63s.09-.46.27-.63.39-.26.63-.26.46.09.64.26.27.39.27.63-.09.46-.27.63-.39.26-.64.26-.46-.09-.63-.26Z" style="fill: #10634b;"/>
          <path d="M95.8,150.32c-.32.27-.68.46-1.1.57-.52.14-1.08.14-1.67,0-.6-.13-1.13-.47-1.59-.99-.22.46-.47.75-.76.88-.31.15-.64.22-1,.21h-.61l-.28-.14v-1.43h.48c.44-.04.75-.17.93-.38.15-.17.44-1.41.87-3.7l3.03-.02c.68,0,1.24.18,1.68.54.44.36.75.79.91,1.28.16.5.18,1.02.05,1.58,0,.02,0,.05-.02.07.1.13.18.24.24.3.2.21.51.32.92.32h.2l.44.18v1.25l-.46.15h-.44c-.56,0-1.04-.12-1.45-.36-.13-.08-.27-.19-.39-.31ZM92.31,147.05l-.06.26c-.12.52-.08.93.11,1.24s.55.52,1.05.63c.32.08.61.09.87.04.26-.05.46-.14.62-.29.16-.14.26-.33.32-.56.09-.35.02-.66-.21-.92-.23-.26-.61-.39-1.15-.4h-1.55Z" style="fill: #10634b;"/>
          <path d="M100.37,150.22c-.49.51-1.2.77-2.12.77h-.4l-.34-.14v-1.29l.34-.14h.22c.45,0,.78-.11.98-.32.2-.21.3-.59.3-1.12l-.02-3.76v-2.48h1.81v2.47l-.03,3.76c0,.98-.24,1.73-.73,2.24Z" style="fill: #10634b;"/>
          <path d="M102.71,141.74h1.73v9.25s-1.75,0-1.75,0v-6.71s.01-2.54.01-2.54Z" style="fill: #10634b;"/>
          <path d="M110.48,145.12c.45.27.8.65,1.04,1.16.24.5.37,1.09.37,1.75v1.67c0,1.35-.34,2.35-1.02,3.02-.68.67-1.7,1-3.07,1h-1.72v-1.63h1.73c.7,0,1.22-.12,1.57-.36.35-.24.55-.49.6-.73h-.66c-1.09,0-1.91-.27-2.47-.8-.56-.53-.84-1.32-.84-2.36,0-.6.13-1.13.38-1.61s.6-.85,1.04-1.11c.45-.27.95-.4,1.52-.4s1.08.13,1.53.4ZM110.14,149.42v-1.19c0-.73-.11-1.23-.32-1.52-.21-.29-.5-.43-.87-.43-.22,0-.42.06-.6.18s-.32.3-.42.54-.16.51-.16.83c0,.55.12.95.37,1.21.25.25.64.38,1.19.38h.81Z" style="fill: #10634b;"/>
          <path d="M121.55,149.84c-.46.34-.97.53-1.54.58-.6.05-1.14-.03-1.64-.24-.5-.21-.9-.52-1.21-.94s-.49-.91-.54-1.48c-.05-.57.04-1.09.28-1.56s.59-.85,1.08-1.15,1.06-.4,1.73-.31l1.54.2v-.57h1.62v3.65c0,.48.11.83.32,1.05.21.22.52.33.93.33h.23l.33.17v1.26l-.33.14h-.5c-.58,0-1.08-.13-1.5-.38-.37-.22-.63-.48-.79-.77ZM118.38,143.46c-.18-.17-.27-.38-.27-.63s.09-.46.27-.63.39-.26.63-.26.46.09.64.26.27.39.27.63-.09.46-.27.63-.39.26-.64.26-.46-.09-.63-.26ZM121.3,146.7l-1.57-.19c-.53-.07-.93.01-1.19.23-.26.22-.37.52-.34.89.02.23.1.43.24.59.14.16.33.29.57.37.25.08.54.11.87.07.52-.04.89-.2,1.13-.47s.33-.68.29-1.22v-.27ZM120.53,143.46c-.18-.17-.26-.38-.26-.63s.09-.46.26-.63.39-.26.63-.26.46.09.64.26.26.39.26.63-.09.46-.27.63-.39.26-.64.26-.46-.09-.63-.26Z" style="fill: #10634b;"/>
          <path d="M123.52,150.85v-1.28l.46-.15h4.15l.46.15v1.28l-.46.15h-4.15l-.46-.15Z" style="fill: #10634b;"/>
          <path d="M132.99,149.59v1.26l-.34.14h-.49c-.42,0-.84-.13-1.26-.38s-.76-.68-1.01-1.28h.71c-.2.58-.48,1.01-.84,1.27-.36.26-.88.39-1.56.39h-.21l-.34-.14v-1.29l.34-.14h.21c.41,0,.72-.11.93-.33.21-.22.29-.57.27-1.04v-2.57h1.86v2.57c-.03.48.06.82.27,1.04.2.22.51.33.93.33h.23l.33.17ZM131.55,143.64v.85h-2.51v-.85h.84c-.13.3-.27.32-.4.05-.13-.26-.19-.46-.19-.6,0-.21.05-.4.16-.56s.26-.29.45-.38c.19-.09.4-.13.64-.13s.47.04.72.11v.85c-.26-.07-.48-.1-.66-.1-.12,0-.22.03-.29.1-.07.06-.11.14-.11.24,0,.12.05.22.15.3s.24.12.41.12h.79Z" style="fill: #10634b;"/>
          <path d="M137.53,149.59v1.26l-.34.14h-.49c-.42,0-.84-.13-1.26-.38s-.76-.68-1.01-1.28h.71c-.2.58-.48,1.01-.84,1.27-.36.26-.88.39-1.56.39h-.21l-.34-.14v-1.29l.34-.14h.21c.41,0,.72-.11.93-.33.21-.22.29-.57.27-1.04v-2.57h1.86v2.57c-.03.48.06.82.27,1.04.2.22.51.33.93.33h.23l.33.17ZM133.01,153.09c-.18-.17-.26-.38-.26-.63s.09-.46.26-.63.39-.26.63-.26.46.09.64.26.26.39.26.63-.09.46-.27.63-.39.26-.64.26-.46-.09-.63-.26ZM135.16,153.09c-.18-.17-.27-.38-.27-.63s.09-.46.27-.63.39-.26.63-.26.46.09.64.26.27.39.27.63-.09.46-.27.63-.39.26-.64.26-.46-.09-.63-.26Z" style="fill: #10634b;"/>
          <path d="M142.07,149.59v1.26l-.34.14h-.49c-.42,0-.84-.13-1.26-.38s-.76-.68-1.01-1.28h.71c-.2.58-.48,1.01-.84,1.27-.36.26-.88.39-1.56.39h-.21l-.34-.14v-1.29l.34-.14h.21c.41,0,.72-.11.93-.33.21-.22.29-.57.27-1.04v-2.57h1.86v2.57c-.03.48.06.82.27,1.04.2.22.51.33.93.33h.23l.33.17ZM138.89,153.08c-.18-.17-.26-.38-.26-.63s.09-.46.26-.63.39-.26.63-.26.46.09.64.26.26.39.26.63-.09.46-.27.63-.39.26-.64.26-.46-.09-.63-.26Z" style="fill: #10634b;"/>
          <path d="M144.04,150.22c-.49.51-1.2.77-2.12.77h-.4l-.34-.14v-1.29l.34-.14h.22c.45,0,.78-.11.98-.32.2-.21.3-.59.3-1.12l-.02-3.76v-2.48h1.81v2.47l-.03,3.76c0,.98-.24,1.73-.73,2.24Z" style="fill: #10634b;"/>
          <path d="M146.39,141.74h1.73v9.25s-1.75,0-1.75,0v-6.71s.01-2.54.01-2.54Z" style="fill: #10634b;"/>
          <path d="M155.37,151c-1.25-.23-1.94-1.17-2.08-2.81-.06-.59.02-1.14.22-1.64.2-.5.52-.91.94-1.22.42-.31.92-.49,1.47-.54.57-.05,1.09.04,1.56.26.47.23.85.58,1.15,1.07s.41,1.07.32,1.74l-.42,3.15h-3.17ZM154.48,143.93c-.18-.17-.27-.38-.27-.63s.09-.46.27-.63c.18-.17.39-.26.63-.26s.46.09.64.26c.18.18.27.39.27.63s-.09.46-.27.63-.39.26-.64.26-.46-.09-.63-.26ZM157.01,149.41l.18-1.54c.06-.53-.02-.93-.24-1.18-.23-.26-.52-.37-.88-.34-.24.02-.44.1-.6.24-.16.14-.28.33-.36.58-.08.25-.1.54-.07.87.05.51.21.88.49,1.12.28.23.68.33,1.21.28l.27-.03ZM156.63,143.93c-.18-.17-.26-.38-.26-.63s.09-.46.26-.63c.18-.17.39-.26.63-.26s.46.09.64.26c.18.18.26.39.26.63s-.09.46-.27.63-.39.26-.64.26-.46-.09-.63-.26Z" style="fill: #10634b;"/>
          <path d="M159.31,152.18h1.16c.47,0,.81-.12,1.03-.35s.33-.63.33-1.18v-5.77h1.76v5.8c0,1-.26,1.76-.77,2.28-.51.51-1.27.81-2.27.88h-1.23v-1.66Z" style="fill: #10634b;"/>
          <path d="M165.4,141.74h1.73v9.25s-1.75,0-1.75,0v-6.71s.01-2.54.01-2.54Z" style="fill: #10634b;"/>
          <path d="M167.61,152.18h1.16c.47,0,.81-.12,1.03-.35s.33-.63.33-1.18v-5.77h1.76v5.8c0,1-.26,1.76-.77,2.28-.51.51-1.27.81-2.27.88h-1.23v-1.66ZM170.28,144.05c-.18-.17-.26-.38-.26-.63s.09-.46.26-.63.39-.26.63-.26.46.09.64.26.26.38.26.63-.09.46-.27.63-.39.26-.64.26-.46-.09-.63-.26Z" style="fill: #10634b;"/>
          <path d="M177.82,145.12c.45.27.8.65,1.04,1.16.24.5.37,1.09.37,1.75v1.67c0,1.35-.34,2.35-1.02,3.02-.68.67-1.7,1-3.07,1h-1.72v-1.63h1.73c.7,0,1.22-.12,1.57-.36.35-.24.55-.49.6-.73h-.66c-1.09,0-1.91-.27-2.47-.8-.56-.53-.84-1.32-.84-2.36,0-.6.13-1.13.38-1.61s.6-.85,1.04-1.11c.45-.27.95-.4,1.52-.4s1.08.13,1.53.4ZM177.48,149.42v-1.19c0-.73-.11-1.23-.32-1.52-.21-.29-.5-.43-.87-.43-.22,0-.42.06-.6.18s-.32.3-.42.54-.16.51-.16.83c0,.55.12.95.37,1.21.25.25.64.38,1.19.38h.81Z" style="fill: #10634b;"/>
          <path d="M193.84,145.51c-.08,0-.21.04-.39.09-.46.12-.78.29-.96.49-.18.2-.23.43-.16.68.03.13.1.29.22.47.11.18.29.43.53.75l.24.31c.28.36.51.7.69,1.03s.37.89.56,1.67h-6.55c-1.19,0-2.07-.3-2.65-.9-.54-.56-.81-1.36-.81-2.41v-1.72h1.73v1.71c0,.4.05.72.17.97.11.26.29.46.54.58.25.13.59.19,1.02.19h3.85l-.32-.4c-.28-.36-.5-.69-.68-.98-.17-.29-.3-.59-.38-.89-.2-.73-.06-1.37.41-1.9.47-.53,1.19-.93,2.15-1.19.54-.14,1.22-.28,2.06-.41l.4.96,1.97,4.39c.12.27.39.41.82.41h.2l.44.18v1.25l-.45.15h-.57c-.56,0-1.04-.12-1.44-.36-.17-.1-.3-.25-.4-.45l-2.24-4.67ZM187.8,152.47c0-.27.1-.51.29-.7.19-.19.43-.29.7-.29s.51.09.7.29c.19.19.29.42.29.7s-.1.51-.29.69c-.2.19-.43.28-.7.28s-.5-.1-.7-.29-.29-.42-.29-.69ZM190.02,152.47c0-.27.1-.51.29-.7.19-.19.43-.29.7-.29s.51.09.7.29c.19.19.29.42.29.7s-.1.51-.29.69c-.2.19-.43.28-.7.28s-.5-.1-.7-.29c-.2-.19-.29-.42-.29-.69Z" style="fill: #10634b;"/>
          <path d="M197.72,150.85v-1.28l.46-.15h4.15l.46.15v1.28l-.46.15h-4.15l-.46-.15Z" style="fill: #10634b;"/>
          <path d="M201.52,150.85v-1.28l.46-.15h4.15l.46.15v1.28l-.46.15h-4.15l-.46-.15Z" style="fill: #10634b;"/>
          <path d="M205.33,150.85v-1.28l.46-.15h4.15l.46.15v1.28l-.46.15h-4.15l-.46-.15Z" style="fill: #10634b;"/>
          <path d="M209.14,150.85v-1.28l.46-.15h4.15l.46.15v1.28l-.46.15h-4.15l-.46-.15Z" style="fill: #10634b;"/>
          <path d="M212.95,150.85v-1.28l.46-.15h4.15l.46.15v1.28l-.46.15h-4.15l-.46-.15Z" style="fill: #10634b;"/>
          <path d="M218.78,149.42c-.3-.45-.45-.97-.45-1.56s.12-1.14.38-1.62.6-.85,1.05-1.12c.45-.27.95-.4,1.52-.4s1.08.13,1.53.4c.45.27.8.66,1.05,1.17.25.51.3,1.1.16,1.76l-.69,2.94h-5.93l-.34-.14v-1.29l.34-.14h1.4ZM221.92,149.42l.33-1.51c.12-.53.07-.93-.13-1.21-.21-.28-.49-.41-.84-.41-.23,0-.44.06-.62.18s-.32.3-.42.54-.15.52-.15.86c0,.52.13.91.38,1.17.25.26.64.39,1.18.39h.27ZM220.8,143.89c-.18-.17-.26-.38-.26-.63s.09-.46.26-.63.39-.26.63-.26.46.09.64.26.26.38.26.63-.09.46-.27.63-.39.26-.64.26-.46-.09-.63-.26Z" style="fill: #10634b;"/>
        </g>
        <g>
          <path d="M104.5,163.85c-.07,0-.1-.03-.1-.1v-.15c0-.07.04-.1.1-.1h2.66c.07,0,.1.04.1.1v.15c0,.07-.04.1-.1.1h-2.66ZM104.5,164.56c-.07,0-.1-.04-.1-.11v-.15c0-.07.04-.1.1-.1h2.66c.07,0,.1.04.1.1v.15c0,.07-.04.11-.1.11h-2.66Z" style="fill: #558d92;"/>
          <path d="M105.44,165.4c0-.07.03-.1.1-.1h.67c.07,0,.1.04.1.1v5.64c0,.21.04.35.12.43s.21.12.38.12h.46c.28,0,.42.14.42.42,0,.17-.03.28-.1.33-.07.05-.17.07-.32.07h-.62c-.44,0-.75-.11-.94-.32s-.28-.54-.28-1v-5.69Z" style="fill: #558d92;"/>
          <path d="M110.44,172.48c-.33,0-.62-.05-.87-.14-.25-.09-.46-.24-.64-.44-.15.22-.33.36-.56.42-.23.06-.44.09-.64.09h-.45c-.28,0-.42-.14-.42-.42,0-.17.03-.28.1-.33.07-.04.17-.07.32-.07h.52c.08,0,.15-.02.23-.05s.15-.08.21-.16c.06-.07.11-.17.15-.29.04-.12.06-.27.06-.46,0-.07,0-.14,0-.2v-.21c0-.8.18-1.38.53-1.74.36-.36.84-.54,1.46-.54s1.11.18,1.46.54c.36.36.53.94.53,1.74,0,.4-.05.74-.14,1.03-.09.29-.23.52-.4.7-.17.18-.38.32-.63.4-.25.09-.53.13-.83.13ZM110.44,168.75c-.39,0-.67.13-.85.39-.18.26-.27.62-.27,1.08,0,.5.09.87.27,1.1.18.23.46.34.85.34s.67-.11.85-.34.27-.6.27-1.1c0-.46-.09-.82-.27-1.08-.18-.26-.46-.39-.85-.39Z" style="fill: #558d92;"/>
          <path d="M114.63,172.3c0,.07-.04.1-.1.1h-.67c-.07,0-.1-.04-.1-.1v-6.9c0-.07.03-.1.1-.1h.67c.07,0,.1.04.1.1v6.9Z" style="fill: #558d92;"/>
          <path d="M119.9,170.88c0,.24.08.42.26.53.17.12.4.18.69.18h.12c.14,0,.24.03.31.09.07.06.1.16.1.3,0,.18-.03.3-.1.35-.07.05-.17.08-.32.08h-.22c-.24,0-.45-.05-.64-.15-.19-.1-.32-.25-.4-.45-.12.23-.29.39-.5.48-.21.09-.48.13-.82.13h-2.32c-.07,0-.11-.04-.11-.1v-.61c0-.07.04-.1.11-.1h2c.2,0,.35-.02.47-.05s.21-.08.27-.16c.06-.07.11-.17.13-.29.02-.12.03-.27.03-.45v-.84c0-.7-.4-1.06-1.19-1.06h-1.21c-.07,0-.1-.04-.1-.1v-.61c0-.07.03-.1.1-.1h1.54c.53,0,.96.15,1.3.45.34.3.51.77.51,1.41v1.08Z" style="fill: #558d92;"/>
          <path d="M120.96,172.41c-.14,0-.23-.03-.28-.09-.05-.06-.07-.16-.07-.31,0-.17.02-.29.07-.34.05-.05.14-.08.29-.08h1.15c.14,0,.24.03.31.08s.1.16.1.3c0,.17-.03.29-.1.34s-.17.08-.32.08h-1.15Z" style="fill: #558d92;"/>
          <path d="M122.12,172.41c-.14,0-.23-.03-.28-.09-.05-.06-.07-.16-.07-.31,0-.17.02-.29.07-.34.05-.05.14-.08.29-.08h1.15c.14,0,.24.03.31.08s.1.16.1.3c0,.17-.03.29-.1.34s-.17.08-.32.08h-1.15Z" style="fill: #558d92;"/>
          <path d="M123.28,172.41c-.14,0-.23-.03-.28-.09-.05-.06-.07-.16-.07-.31,0-.17.02-.29.07-.34.05-.05.14-.08.29-.08h1.15c.14,0,.24.03.31.08s.1.16.1.3c0,.17-.03.29-.1.34s-.17.08-.32.08h-1.15Z" style="fill: #558d92;"/>
          <path d="M124.5,172.41c-.14,0-.24-.02-.31-.07-.07-.05-.1-.15-.1-.29,0-.17.03-.29.1-.36.07-.06.17-.09.32-.09h.71c.17,0,.3-.04.38-.12s.12-.22.12-.43v-2.8c0-.07.04-.1.1-.1h.67c.07,0,.1.03.1.1v2.65c0,.24.08.42.26.53.17.12.4.18.69.18h.12c.14,0,.24.03.31.09.07.06.1.16.1.3,0,.18-.03.3-.1.35-.07.05-.17.08-.32.08h-.23c-.22,0-.42-.05-.59-.14-.17-.09-.3-.23-.39-.41-.17.36-.54.54-1.09.54h-.87ZM125.14,167.09c-.07,0-.1-.03-.1-.1v-.76c0-.07.04-.1.1-.1h.71c.07,0,.1.04.1.1v.76c0,.07-.04.1-.1.1h-.71ZM126.41,167.09c-.07,0-.1-.03-.1-.1v-.76c0-.07.03-.1.1-.1h.71c.07,0,.1.04.1.1v.76c0,.07-.04.1-.1.1h-.71Z" style="fill: #558d92;"/>
          <path d="M130.85,172.41c-.22,0-.42-.05-.58-.14-.17-.09-.3-.23-.39-.41-.17.36-.54.54-1.09.54h-1.13c-.14,0-.24-.02-.31-.07-.07-.05-.1-.15-.1-.29,0-.17.03-.29.1-.36.07-.06.17-.09.32-.09h.97c.17,0,.3-.04.38-.12s.12-.22.12-.43v-1.9c0-.07.04-.1.1-.1h.67c.07,0,.1.03.1.1v1.75c0,.24.08.42.25.53.17.12.39.18.67.18h.26c.17,0,.3-.04.38-.12s.12-.22.12-.43v-1.9c0-.07.04-.1.1-.1h.67c.07,0,.11.03.11.1v1.79c0,.22.09.39.26.5.17.11.4.17.68.17h.24c.17,0,.3-.04.38-.12.08-.08.12-.22.12-.43v-2.8c0-.07.03-.1.1-.1h.67c.07,0,.1.03.1.1v2.65c0,.24.09.42.26.53.17.12.4.18.68.18h.12c.14,0,.24.03.31.09.07.06.1.16.1.3,0,.18-.03.3-.1.35-.07.05-.17.08-.32.08h-.22c-.22,0-.42-.05-.59-.14-.17-.09-.3-.23-.39-.41-.17.36-.54.54-1.09.54h-.5c-.22,0-.42-.05-.58-.14-.17-.09-.3-.23-.39-.41-.17.36-.54.54-1.09.54h-.5Z" style="fill: #558d92;"/>
          <path d="M139.35,172.48c-.33,0-.62-.05-.87-.14-.25-.09-.46-.24-.64-.44-.15.22-.33.36-.56.42-.23.06-.44.09-.64.09h-.45c-.28,0-.42-.14-.42-.42,0-.17.03-.28.1-.33.07-.04.17-.07.32-.07h.52c.08,0,.15-.02.23-.05s.15-.08.21-.16c.06-.07.11-.17.15-.29.04-.12.06-.27.06-.46,0-.07,0-.14,0-.2v-.21c0-.8.18-1.38.53-1.74.36-.36.84-.54,1.46-.54s1.11.18,1.46.54c.36.36.53.94.53,1.74,0,.4-.05.74-.14,1.03-.09.29-.23.52-.4.7-.17.18-.38.32-.63.4-.25.09-.53.13-.83.13ZM139.35,168.75c-.39,0-.67.13-.85.39-.18.26-.27.62-.27,1.08,0,.5.09.87.27,1.1.18.23.46.34.85.34s.67-.11.85-.34.27-.6.27-1.1c0-.46-.09-.82-.27-1.08-.18-.26-.46-.39-.85-.39Z" style="fill: #558d92;"/>
          <path d="M144.23,163.85c-.07,0-.1-.03-.1-.1v-.15c0-.07.04-.1.1-.1h2.66c.07,0,.1.04.1.1v.15c0,.07-.04.1-.1.1h-2.66ZM144.23,164.56c-.07,0-.1-.04-.1-.11v-.15c0-.07.04-.1.1-.1h2.66c.07,0,.1.04.1.1v.15c0,.07-.04.11-.1.11h-2.66Z" style="fill: #558d92;"/>
          <path d="M146.04,172.3c0,.07-.04.1-.1.1h-.67c-.07,0-.1-.04-.1-.1v-6.9c0-.07.03-.1.1-.1h.67c.07,0,.1.04.1.1v6.9Z" style="fill: #558d92;"/>
          <path d="M146.88,174.49c-.07,0-.1-.04-.1-.1v-.61c0-.07.04-.1.1-.1h.24c.57,0,.85-.3.85-.89v-4.55c0-.07.04-.1.1-.1h.67c.07,0,.11.03.11.1v2.65c0,.24.08.42.26.53.17.12.4.18.68.18h.12c.14,0,.24.03.31.09.07.06.11.16.11.3,0,.18-.03.3-.1.35-.07.05-.17.08-.32.08h-.22c-.36,0-.64-.11-.84-.33v.69c0,.56-.14.99-.43,1.29-.29.29-.7.44-1.25.44h-.28Z" style="fill: #558d92;"/>
          <path d="M149.92,172.41c-.14,0-.23-.03-.28-.09-.05-.06-.07-.16-.07-.31,0-.17.02-.29.07-.34.05-.05.14-.08.29-.08h1.15c.14,0,.24.03.31.08s.1.16.1.3c0,.17-.03.29-.1.34s-.17.08-.32.08h-1.15Z" style="fill: #558d92;"/>
          <path d="M151.08,172.41c-.14,0-.23-.03-.28-.09-.05-.06-.07-.16-.07-.31,0-.17.02-.29.07-.34.05-.05.14-.08.29-.08h1.15c.14,0,.24.03.31.08s.1.16.1.3c0,.17-.03.29-.1.34s-.17.08-.32.08h-1.15Z" style="fill: #558d92;"/>
          <path d="M152.24,172.41c-.14,0-.23-.03-.28-.09-.05-.06-.07-.16-.07-.31,0-.17.02-.29.07-.34.05-.05.14-.08.29-.08h1.15c.14,0,.24.03.31.08s.1.16.1.3c0,.17-.03.29-.1.34s-.17.08-.32.08h-1.15Z" style="fill: #558d92;"/>
          <path d="M153.39,172.41c-.14,0-.24-.02-.31-.07-.07-.05-.1-.15-.1-.29,0-.17.03-.29.1-.36.07-.06.17-.09.32-.09h.72c.17,0,.3-.04.38-.12s.12-.22.12-.43v-2.8c0-.07.04-.1.1-.1h.67c.07,0,.1.03.1.1v2.85c0,.45-.09.79-.28,1-.19.21-.5.32-.94.32h-.88ZM154.04,167.09c-.07,0-.1-.03-.1-.1v-.76c0-.07.04-.1.1-.1h.71c.07,0,.1.04.1.1v.76c0,.07-.03.1-.1.1h-.71ZM154.68,165.87c-.07,0-.1-.03-.1-.1v-.76c0-.07.04-.1.1-.1h.71c.07,0,.1.04.1.1v.76c0,.07-.03.1-.1.1h-.71ZM155.31,167.09c-.07,0-.11-.03-.11-.1v-.76c0-.07.04-.1.11-.1h.71c.07,0,.1.04.1.1v.76c0,.07-.04.1-.1.1h-.71Z" style="fill: #558d92;"/>
          <path d="M156.78,164.33c-.06-.08-.1-.17-.14-.28-.04-.11-.05-.23-.05-.37,0-.11.02-.23.05-.35.03-.12.09-.23.18-.33.08-.1.19-.18.33-.25.14-.07.31-.1.51-.1.18,0,.34.03.49.09.14.06.26.15.34.27.02.05.02.08,0,.1l-.22.18s-.09.05-.12.02c-.06-.07-.14-.13-.22-.17-.08-.04-.18-.07-.28-.07-.2,0-.34.06-.43.18-.09.12-.14.26-.14.42s.04.29.12.4c.08.11.16.2.24.26h1.08s.06.02.06.07v.29s-.02.07-.06.07h-2.12s-.06-.02-.06-.07v-.29s.02-.07.06-.07h.4ZM157.88,172.3c0,.07-.04.1-.1.1h-.67c-.07,0-.1-.04-.1-.1v-6.9c0-.07.03-.1.1-.1h.67c.07,0,.1.04.1.1v6.9Z" style="fill: #558d92;"/>
          <path d="M164.1,167.94c.75,0,1.3.15,1.65.44.36.29.53.69.53,1.19,0,.22-.04.43-.1.63-.07.2-.16.38-.27.54-.11.17-.23.32-.37.46-.14.14-.28.25-.41.34.08.01.15.03.23.04.08.01.15.02.22.02h1.53c.14,0,.24.02.31.07s.1.15.1.29c0,.17-.03.29-.1.36-.07.06-.17.09-.32.09h-1.56c-.2,0-.42-.02-.65-.07-.23-.05-.44-.13-.62-.25-.2.08-.42.14-.64.2-.22.06-.43.12-.61.19-.18.07-.33.16-.45.26-.12.11-.18.24-.18.42s.06.29.19.38c.13.09.36.13.71.13h1c.07,0,.11.03.11.1v.61c0,.07-.04.1-.11.1h-1.08c-.56,0-.99-.1-1.29-.3s-.44-.54-.44-1.02c0-.3.06-.55.19-.74.13-.19.29-.35.49-.47.2-.12.41-.21.64-.28.23-.07.45-.12.66-.16-.05-.28-.12-.52-.22-.72s-.21-.38-.33-.53c-.13-.15-.26-.28-.41-.4-.15-.12-.3-.23-.46-.34-.06-.04-.1-.08-.12-.11-.02-.03-.03-.06-.03-.1v-.63c0-.1.04-.17.1-.21.08-.05.19-.1.33-.17.14-.06.29-.12.47-.18.18-.06.38-.1.59-.14.22-.03.44-.05.68-.05ZM164.1,168.75c-.31,0-.59.03-.83.1-.24.07-.39.12-.47.17.36.2.67.48.94.85s.46.79.58,1.3c.11-.07.23-.16.36-.27.12-.11.24-.23.34-.36.1-.13.18-.27.25-.43.07-.16.1-.32.1-.49s-.03-.32-.1-.43c-.07-.11-.16-.2-.27-.27-.11-.07-.25-.11-.4-.14-.16-.03-.32-.04-.5-.04Z" style="fill: #558d92;"/>
          <path d="M167.13,172.41c-.14,0-.23-.03-.28-.09-.05-.06-.07-.16-.07-.31,0-.17.02-.29.07-.34.05-.05.14-.08.29-.08h1.15c.14,0,.24.03.31.08s.1.16.1.3c0,.17-.03.29-.1.34s-.17.08-.32.08h-1.15Z" style="fill: #558d92;"/>
          <path d="M168.29,172.41c-.14,0-.23-.03-.28-.09-.05-.06-.07-.16-.07-.31,0-.17.02-.29.07-.34.05-.05.14-.08.29-.08h1.15c.14,0,.24.03.31.08s.1.16.1.3c0,.17-.03.29-.1.34s-.17.08-.32.08h-1.15Z" style="fill: #558d92;"/>
          <path d="M169.45,172.41c-.14,0-.23-.03-.28-.09-.05-.06-.07-.16-.07-.31,0-.17.02-.29.07-.34.05-.05.14-.08.29-.08h1.15c.14,0,.24.03.31.08s.1.16.1.3c0,.17-.03.29-.1.34s-.17.08-.32.08h-1.15Z" style="fill: #558d92;"/>
          <path d="M170.61,172.41c-.14,0-.23-.03-.28-.09-.05-.06-.07-.16-.07-.31,0-.17.02-.29.07-.34.05-.05.14-.08.29-.08h1.15c.14,0,.24.03.31.08s.1.16.1.3c0,.17-.03.29-.1.34s-.17.08-.32.08h-1.15Z" style="fill: #558d92;"/>
          <path d="M171.84,172.41c-.14,0-.24-.02-.31-.07-.07-.05-.1-.15-.1-.29,0-.17.03-.29.1-.36.07-.06.17-.09.32-.09h.66c.17,0,.3-.04.38-.12.08-.08.12-.22.12-.43v-2.8c0-.07.03-.1.1-.1h.67c.07,0,.1.03.1.1v2.65c0,.24.09.42.26.53.17.12.4.18.68.18h.13c.14,0,.24.03.31.09.07.06.1.16.1.3,0,.18-.03.3-.1.35-.07.05-.17.08-.32.08h-.23c-.22,0-.42-.05-.59-.14-.17-.09-.3-.23-.39-.41-.17.36-.54.54-1.09.54h-.82ZM173.08,167.09c-.07,0-.1-.03-.1-.1v-.76c0-.07.04-.1.1-.1h.71c.07,0,.1.04.1.1v.76c0,.07-.04.1-.1.1h-.71Z" style="fill: #558d92;"/>
          <path d="M174.86,172.41c-.14,0-.24-.02-.31-.07-.07-.05-.1-.15-.1-.29,0-.17.03-.29.1-.36.07-.06.17-.09.32-.09h.66c.17,0,.3-.04.38-.12.08-.08.12-.22.12-.43v-2.8c0-.07.03-.1.1-.1h.67c.07,0,.1.03.1.1v.36c.34-.18.72-.33,1.14-.46.42-.13.85-.19,1.29-.19.49,0,.89.07,1.22.2.32.13.58.31.77.54s.33.49.4.79c.08.3.12.62.12.95,0,.09,0,.18,0,.26,0,.08,0,.15,0,.2,0,.24.08.42.26.53.17.12.4.18.68.18h.12c.14,0,.24.03.31.09.07.06.1.16.1.3,0,.18-.03.3-.1.35-.07.05-.17.08-.32.08h-.22c-.24,0-.46-.06-.65-.17-.19-.11-.33-.27-.4-.48-.12.24-.29.4-.51.5s-.5.15-.84.15h-3.52c-.17,0-.29-.05-.36-.14-.17.09-.41.14-.7.14h-.82ZM179.26,168.75c-.21,0-.42.02-.64.06-.22.04-.43.09-.63.15-.21.06-.4.13-.59.21-.18.08-.35.15-.51.23v1.68c0,.17-.02.34-.05.5h3.1c.2,0,.36-.02.48-.05.12-.04.22-.1.29-.18.07-.09.12-.21.14-.37.02-.16.04-.36.04-.6,0-.26-.03-.49-.08-.69-.05-.2-.14-.37-.27-.51-.12-.14-.29-.25-.5-.32s-.47-.11-.78-.11Z" style="fill: #558d92;"/>
          <path d="M182.94,172.41c-.14,0-.24-.02-.31-.07-.07-.05-.1-.15-.1-.29,0-.17.03-.29.1-.36.07-.06.17-.09.32-.09h.66c.17,0,.3-.04.38-.12.08-.08.12-.22.12-.43v-2.8c0-.07.03-.1.1-.1h.67c.07,0,.1.03.1.1v2.85c0,.45-.09.79-.28,1s-.5.32-.94.32h-.82ZM184.19,167.09c-.07,0-.1-.03-.1-.1v-.76c0-.07.04-.1.1-.1h.71c.07,0,.1.04.1.1v.76c0,.07-.04.1-.1.1h-.71Z" style="fill: #558d92;"/>
          <path d="M189.17,170.05s.08-.05.15-.01l.58.31c.06.03.07.08.03.14-.12.2-.25.44-.36.72-.12.29-.17.59-.17.9s.05.55.15.75c.1.2.23.36.39.47.16.11.33.2.52.25.19.05.37.07.55.07.45,0,.81-.12,1.1-.34.29-.23.43-.6.43-1.12v-6.79c0-.07.03-.1.1-.1h.67c.07,0,.1.04.1.1v5.48c0,.24.09.42.26.53.17.12.4.18.68.18h.12c.14,0,.24.03.31.09.07.06.1.16.1.3,0,.18-.03.3-.1.35-.07.05-.17.08-.32.08h-.22c-.36,0-.64-.11-.84-.33v.13c0,.72-.21,1.28-.63,1.68s-1.03.61-1.83.61c-.38,0-.72-.05-1.02-.15-.3-.1-.56-.25-.77-.44-.21-.2-.38-.43-.5-.72s-.18-.61-.18-.98c0-.41.07-.81.2-1.19s.29-.7.48-.96Z" style="fill: #558d92;"/>
          <path d="M194.48,172.41c-.14,0-.23-.03-.28-.09-.05-.06-.07-.16-.07-.31,0-.17.02-.29.07-.34.05-.05.14-.08.29-.08h1.15c.14,0,.24.03.31.08s.1.16.1.3c0,.17-.03.29-.1.34s-.17.08-.32.08h-1.15Z" style="fill: #558d92;"/>
          <path d="M195.64,172.41c-.14,0-.23-.03-.28-.09-.05-.06-.07-.16-.07-.31,0-.17.02-.29.07-.34.05-.05.14-.08.29-.08h1.15c.14,0,.24.03.31.08s.1.16.1.3c0,.17-.03.29-.1.34s-.17.08-.32.08h-1.15Z" style="fill: #558d92;"/>
          <path d="M196.8,172.41c-.14,0-.23-.03-.28-.09-.05-.06-.07-.16-.07-.31,0-.17.02-.29.07-.34.05-.05.14-.08.29-.08h1.15c.14,0,.24.03.31.08s.1.16.1.3c0,.17-.03.29-.1.34s-.17.08-.32.08h-1.15Z" style="fill: #558d92;"/>
          <path d="M201.11,172.48c-.33,0-.62-.05-.87-.14-.25-.09-.46-.24-.64-.44-.15.22-.33.36-.56.42-.23.06-.44.09-.64.09h-.45c-.28,0-.42-.14-.42-.42,0-.17.03-.28.1-.33.07-.04.17-.07.32-.07h.52c.08,0,.15-.02.23-.05s.15-.08.21-.16c.06-.07.11-.17.15-.29.04-.12.06-.27.06-.46,0-.07,0-.14,0-.2v-.21c0-.8.18-1.38.53-1.74.36-.36.84-.54,1.46-.54s1.11.18,1.46.54c.36.36.53.94.53,1.74,0,.4-.05.74-.14,1.03-.09.29-.23.52-.4.7-.17.18-.38.32-.63.4-.25.09-.53.13-.83.13ZM201.11,168.75c-.39,0-.67.13-.85.39-.18.26-.27.62-.27,1.08,0,.5.09.87.27,1.1.18.23.46.34.85.34s.67-.11.85-.34.27-.6.27-1.1c0-.46-.09-.82-.27-1.08-.18-.26-.46-.39-.85-.39Z" style="fill: #558d92;"/>
          <path d="M204.41,165.4c0-.07.03-.1.1-.1h.67c.07,0,.1.04.1.1v5.64c0,.21.04.35.12.43s.21.12.38.12h.46c.28,0,.42.14.42.42,0,.17-.03.28-.1.33-.07.05-.17.07-.32.07h-.62c-.44,0-.75-.11-.94-.32s-.28-.54-.28-1v-5.69Z" style="fill: #558d92;"/>
          <path d="M208.11,168.13h.93c.53,0,.96.15,1.3.45s.51.77.51,1.41v.63c0,.06,0,.11,0,.17s0,.11,0,.17c.01.22.11.38.28.48.17.1.39.16.66.16h.11c.14,0,.24.03.31.09.07.06.1.16.1.3,0,.18-.03.3-.1.35-.07.05-.17.08-.32.08h-.22c-.23,0-.44-.05-.63-.15-.19-.1-.33-.25-.4-.44-.12.22-.29.38-.5.47-.21.09-.48.13-.81.13h-3.08c-.28,0-.42-.14-.42-.42,0-.17.03-.28.1-.33.07-.04.17-.07.32-.07h2.75c.19,0,.35-.02.47-.05.12-.03.21-.08.27-.16s.1-.17.13-.29c.02-.12.03-.27.03-.45v-.65c0-.71-.4-1.06-1.19-1.06h-1.68c-.07,0-.11-.04-.11-.1v-.59s.01-.07.04-.1.04-.05.06-.07l2.29-2.7s.09-.06.14-.03l.5.42c.06.04.07.09.04.15l-1.88,2.21Z" style="fill: #558d92;"/>
          <path d="M211.96,172.41c-.14,0-.24-.02-.31-.07-.07-.05-.1-.15-.1-.29,0-.17.03-.29.1-.36.07-.06.17-.09.32-.09h.71c.17,0,.3-.04.38-.12s.12-.22.12-.43v-2.8c0-.07.04-.1.1-.1h.67c.07,0,.1.03.1.1v2.65c0,.24.08.42.26.53.17.12.4.18.69.18h.12c.14,0,.24.03.31.09.07.06.1.16.1.3,0,.18-.03.3-.1.35-.07.05-.17.08-.32.08h-.23c-.22,0-.42-.05-.59-.14-.17-.09-.3-.23-.39-.41-.17.36-.54.54-1.09.54h-.87ZM212.59,167.09c-.07,0-.1-.03-.1-.1v-.76c0-.07.04-.1.1-.1h.71c.07,0,.1.04.1.1v.76c0,.07-.04.1-.1.1h-.71ZM213.87,167.09c-.07,0-.1-.03-.1-.1v-.76c0-.07.03-.1.1-.1h.71c.07,0,.1.04.1.1v.76c0,.07-.04.1-.1.1h-.71Z" style="fill: #558d92;"/>
          <path d="M215.11,172.41c-.14,0-.24-.02-.31-.07-.07-.05-.1-.15-.1-.29,0-.17.03-.29.1-.36.07-.06.17-.09.32-.09h.66c.17,0,.3-.04.38-.12.08-.08.12-.22.12-.43v-5.64c0-.07.03-.1.1-.1h.67c.07,0,.1.04.1.1v5.69c0,.45-.09.79-.28,1s-.5.32-.94.32h-.82Z" style="fill: #558d92;"/>
          <path d="M218.62,165.4c0-.07.03-.1.1-.1h.67c.07,0,.1.04.1.1v5.64c0,.21.04.35.12.43s.21.12.38.12h.46c.28,0,.42.14.42.42,0,.17-.03.28-.1.33-.07.05-.17.07-.32.07h-.62c-.44,0-.75-.11-.94-.32s-.28-.54-.28-1v-5.69Z" style="fill: #558d92;"/>
          <path d="M220.46,172.41c-.14,0-.24-.02-.31-.07-.07-.05-.1-.15-.1-.29,0-.17.03-.29.1-.36.07-.06.17-.09.32-.09h.66c.17,0,.3-.04.38-.12.08-.08.12-.22.12-.43v-2.8c0-.07.03-.1.1-.1h.67c.07,0,.1.03.1.1v2.85c0,.45-.09.79-.28,1s-.5.32-.94.32h-.82ZM221.46,174.32c-.07,0-.1-.04-.1-.1v-.76c0-.07.04-.1.1-.1h.71c.07,0,.1.03.1.1v.76c0,.07-.03.1-.1.1h-.71Z" style="fill: #558d92;"/>
        </g>
        <g>
          <path d="M3.24,167.41c0-.44.1-.77.3-.99.2-.22.52-.33.96-.33h1.81c.07,0,.11.04.11.11v.61c0,.07-.04.1-.11.1h-1.55c-.26,0-.43.06-.51.17-.08.11-.13.29-.13.52v4.72c0,.07-.04.1-.1.1h-.67c-.07,0-.1-.04-.1-.1v-4.89Z" style="fill: #558d92;"/>
          <path d="M9.49,170.99c-.1.1-.19.15-.27.15-.08,0-.18-.05-.3-.15l-.47-.48c-.11-.1-.16-.2-.17-.28s.05-.18.17-.29l.47-.47c.09-.09.18-.14.26-.16s.17.03.28.13l.51.5c.1.1.15.19.16.28s-.04.19-.16.3l-.47.47Z" style="fill: #558d92;"/>
          <path d="M12.65,167.41c0-.44.1-.77.3-.99.2-.22.52-.33.96-.33h1.81c.07,0,.11.04.11.11v.61c0,.07-.04.1-.11.1h-1.55c-.26,0-.43.06-.51.17-.08.11-.13.29-.13.52v4.72c0,.07-.04.1-.1.1h-.67c-.07,0-.1-.04-.1-.1v-4.89Z" style="fill: #558d92;"/>
          <path d="M18.59,172.41c-.22,0-.44-.02-.66-.07-.22-.04-.42-.14-.59-.28s-.31-.35-.42-.62c-.11-.27-.16-.64-.16-1.1v-1.34c0-.56.05-1.04.14-1.42.09-.38.22-.68.39-.9.17-.22.36-.38.59-.48.23-.09.47-.14.74-.14s.5.04.73.13.42.24.58.47c.16.23.29.53.39.91.09.38.14.86.14,1.45v1.27c0,.45-.05.81-.15,1.08-.1.28-.24.49-.41.64s-.37.26-.6.31-.47.08-.72.08ZM18.61,171.56c.16,0,.3-.02.42-.05s.22-.1.3-.2.14-.23.18-.4c.04-.17.06-.39.06-.66v-1.17c0-.79-.08-1.36-.23-1.71-.15-.34-.4-.52-.74-.52-.17,0-.31.04-.43.12-.12.08-.22.2-.3.38-.08.17-.14.4-.18.68-.04.28-.06.62-.06,1.02v1.2c0,.29.02.51.06.68s.1.3.19.4c.08.09.19.16.31.19.12.03.26.05.41.05Z" style="fill: #558d92;"/>
          <path d="M23.58,174.49c-.07,0-.1-.04-.1-.1v-.61c0-.07.04-.1.1-.1h.24c.57,0,.85-.3.85-.89v-4.55c0-.07.04-.1.1-.1h.67c.07,0,.11.03.11.1v2.65c0,.24.08.42.26.53.17.12.4.18.68.18h.12c.14,0,.24.03.31.09.07.06.11.16.11.3,0,.18-.03.3-.1.35-.07.05-.17.08-.32.08h-.22c-.36,0-.64-.11-.84-.33v.69c0,.56-.14.99-.43,1.29-.29.29-.7.44-1.25.44h-.28Z" style="fill: #558d92;"/>
          <path d="M26.67,172.41c-.14,0-.24-.02-.31-.07-.07-.05-.1-.15-.1-.29,0-.17.03-.29.1-.36.07-.06.17-.09.32-.09h.66c.17,0,.3-.04.38-.12.08-.08.12-.22.12-.43v-2.8c0-.07.03-.1.1-.1h.67c.07,0,.1.03.1.1v2.65c0,.24.09.42.26.53.17.12.4.18.68.18h.13c.14,0,.24.03.31.09.07.06.1.16.1.3,0,.18-.03.3-.1.35-.07.05-.17.08-.32.08h-.23c-.22,0-.42-.05-.59-.14-.17-.09-.3-.23-.39-.41-.17.36-.54.54-1.09.54h-.82ZM27.94,174.32c-.07,0-.1-.04-.1-.1v-.76c0-.07.03-.1.1-.1h.71c.07,0,.1.03.1.1v.76c0,.07-.04.1-.1.1h-.71Z" style="fill: #558d92;"/>
          <path d="M32.85,172.48c-.33,0-.62-.05-.87-.14-.25-.09-.46-.24-.64-.44-.15.22-.33.36-.56.42-.23.06-.44.09-.64.09h-.45c-.28,0-.42-.14-.42-.42,0-.17.03-.28.1-.33.07-.04.17-.07.32-.07h.52c.08,0,.15-.02.23-.05s.15-.08.21-.16c.06-.07.11-.17.15-.29.04-.12.06-.27.06-.46,0-.07,0-.14,0-.2v-.21c0-.8.18-1.38.53-1.74.36-.36.84-.54,1.46-.54s1.11.18,1.46.54c.36.36.53.94.53,1.74,0,.08,0,.15,0,.23,0,.08,0,.15-.02.22,0,.36.08.6.21.73s.28.19.43.19h.3c.14,0,.24.03.31.09.07.06.1.16.1.3,0,.18-.03.3-.1.35-.07.05-.17.08-.32.08h-.23c-.1,0-.2,0-.31-.02-.11-.01-.22-.03-.33-.07-.11-.04-.21-.08-.31-.15s-.18-.16-.25-.27c-.17.2-.39.35-.64.44-.25.09-.54.14-.86.14ZM32.85,168.75c-.39,0-.67.13-.85.39-.18.26-.27.62-.27,1.08,0,.5.09.87.27,1.1.18.23.46.34.85.34s.67-.11.85-.34.27-.6.27-1.1c0-.46-.09-.82-.27-1.08-.18-.26-.46-.39-.85-.39Z" style="fill: #558d92;"/>
          <path d="M38.96,172.41c-.22,0-.42-.05-.58-.14-.17-.09-.3-.23-.39-.41-.17.36-.54.54-1.09.54h-1.13c-.14,0-.24-.02-.31-.07-.07-.05-.1-.15-.1-.29,0-.17.03-.29.1-.36.07-.06.17-.09.32-.09h.97c.17,0,.3-.04.38-.12s.12-.22.12-.43v-1.9c0-.07.04-.1.1-.1h.67c.07,0,.1.03.1.1v1.75c0,.24.08.42.25.53.17.12.39.18.67.18h.26c.17,0,.3-.04.38-.12s.12-.22.12-.43v-1.9c0-.07.04-.1.1-.1h.67c.07,0,.11.03.11.1v1.79c0,.22.09.39.26.5.17.11.4.17.68.17h.24c.17,0,.3-.04.38-.12.08-.08.12-.22.12-.43v-2.8c0-.07.03-.1.1-.1h.67c.07,0,.1.03.1.1v2.65c0,.24.09.42.26.53.17.12.4.18.68.18h.12c.14,0,.24.03.31.09.07.06.1.16.1.3,0,.18-.03.3-.1.35-.07.05-.17.08-.32.08h-.22c-.22,0-.42-.05-.59-.14-.17-.09-.3-.23-.39-.41-.17.36-.54.54-1.09.54h-.5c-.22,0-.42-.05-.58-.14-.17-.09-.3-.23-.39-.41-.17.36-.54.54-1.09.54h-.5Z" style="fill: #558d92;"/>
          <path d="M44.31,172.41c-.14,0-.24-.02-.31-.07-.07-.05-.1-.15-.1-.29,0-.17.03-.29.1-.36.07-.06.17-.09.32-.09h.72c.17,0,.3-.04.38-.12s.12-.22.12-.43v-2.8c0-.07.04-.1.1-.1h.67c.07,0,.1.03.1.1v2.85c0,.45-.09.79-.28,1-.19.21-.5.32-.94.32h-.88ZM44.76,174.35c-.07,0-.11-.04-.11-.1v-.76c0-.07.04-.1.11-.1h.71c.07,0,.1.03.1.1v.76c0,.07-.04.1-.1.1h-.71ZM46.03,174.35c-.07,0-.1-.04-.1-.1v-.76c0-.07.04-.1.1-.1h.71c.07,0,.1.03.1.1v.76c0,.07-.03.1-.1.1h-.71Z" style="fill: #558d92;"/>
          <path d="M51.73,170.62c0,.35-.03.64-.09.87-.06.23-.15.41-.28.55-.12.14-.28.23-.47.29-.19.06-.42.08-.68.08h-2.32c-.07,0-.11-.04-.11-.1v-.61c0-.07.04-.1.11-.1h2c.2,0,.35-.02.47-.05s.21-.08.27-.16c.06-.07.11-.17.13-.29.02-.12.03-.27.03-.45v-.84c0-.7-.4-1.06-1.19-1.06h-1.21c-.07,0-.1-.04-.1-.1v-.61c0-.07.03-.1.1-.1h1.54c.53,0,.96.15,1.3.45.34.3.51.77.51,1.41v.82Z" style="fill: #558d92;"/>
          <path d="M55.55,166.89c-.07,0-.1-.04-.1-.1v-.61c0-.07.04-.11.1-.11h1.81c.44,0,.76.11.96.33.2.22.3.55.3.99v4.89c0,.07-.04.1-.1.1h-.67c-.07,0-.1-.04-.1-.1v-4.72c0-.24-.04-.41-.13-.52-.08-.11-.25-.17-.51-.17h-1.55Z" style="fill: #558d92;"/>
          <path d="M60.01,169.93v-.61c0-.07.04-.1.1-.1h2.78c.07,0,.1.04.1.1v.61c0,.07-.04.1-.1.1h-2.78c-.07,0-.1-.04-.1-.1Z" style="fill: #558d92;"/>
          <path d="M67.07,166.09c.02-.07.06-.09.12-.07l.68.17c.08.02.11.06.09.11l-1.68,6.01c-.02.08-.07.12-.15.13-.08.01-.18.02-.3.02-.11,0-.21,0-.29-.02-.08,0-.13-.05-.15-.13l-1.67-6.01c-.01-.06.02-.09.09-.11l.68-.17c.06-.02.1,0,.13.07l1.21,4.83,1.23-4.83Z" style="fill: #558d92;"/>
        </g>
      </g>
      <g>
        <path d="M121.55,102.97l-7.33.89s-7.8-4.46-16.71-7.21c-8.91-2.76-15.61-2.43-15.61-2.43l-5.05-4.38s12.85,0,21.92,3c9.07,3,22.78,10.13,22.78,10.13" style="fill: url(#linear-gradient);"/>
        <path d="M141.5,93.81l-4.57,3.57s-5.79-.1-15.92-4.38c-6.27-2.65-13.09-6.29-23.89-10.13-12.58-4.48-27.75-1.86-27.75-1.86l-2.6-3.89s12.77-2.92,28.3.89c8.21,2.01,20.62,8.79,30.59,12.4,8.89,3.22,15.85,3.4,15.85,3.4" style="fill: url(#linear-gradient-2);"/>
        <path d="M155.69,78.25c-.17.55-11.24.72-21.84-.73-7.32-1-15.55-5.47-22.78-9.16-21.84-11.15-49.82-5.67-49.82-5.67l1.18,4.3s14.71-3.5,30.67-.24c13.46,2.75,27.91,12.01,34.29,13.54,14.11,3.38,24.81,2.38,25.21,2.05.01-.01.01-.03.02-.05l3.07-4.03" style="fill: url(#linear-gradient-3);"/>
        <path d="M60.38,49.15s10.09-3.24,22.86-2.59c12.77.65,19.35,3.48,23.57,5.02,4.65,1.71,12.67,6.44,26.91,11.11,8.8,2.88,26.44.49,26.44.49l-2.8,4.57s-15.45,2.38-30.21-2.7c-12.93-4.46-18.68-11.02-34.45-13.46-16.63-2.57-32.32,1.38-32.32,1.38v-3.81Z" style="fill: url(#linear-gradient-4);"/>
        <path d="M64.84,52.02h-4.47c0-14.55,5.29-27.93,14.88-37.67C84.77,4.69,97.72,0,111.72,0v3.85c-26.73,0-46.88,20.71-46.88,48.18" style="fill: #10634b;"/>
        <path d="M161.43,50.78l-1,1.92c-.14-7.61-1.98-14.7-4.49-20.79-4.24-9.11-10.78-15.75-18.24-20.78-7.66-5.17-16.78-7.28-26.39-7.28V0c10.5,0,19.86,3,28.26,8.67,8.19,5.53,15.36,15,17.74,21.41,2.73,6.62,3.73,12.06,4.11,20.7" style="fill: url(#linear-gradient-5);"/>
      </g>
    </g>
  </g>
</svg>