<?xml version="1.0" encoding="UTF-8"?>
<svg id="Layer_2" data-name="Layer 2" xmlns="http://www.w3.org/2000/svg" viewBox="0 0 942.3 169.99">
  <defs>
    <style>
      .cls-1 {
        fill: #2c6855;
      }
    </style>
  </defs>
  <g id="Layer_1-2" data-name="Layer 1">
    <g>
      <g>
        <path class="cls-1" d="M781.85,54.38s5.54-8.67,6.09-9.31c.55-.64,10.54-1.3,13.17-1.03,2.62.26,7.34.51,6.37,5.04-.83,2.72-6.5,11.13-8.31,12.68-1.8,1.55-8.45,3.24-12.74,3.75-4.3.52-5.13.13-4.02-.38,1.12-.52,14.97-7.37,16.21-8.41l1.25-1.03s0-1.17-1.1-1.17-10.95-.13-13.44.39c-2.5.52-3.75,0-3.46-.52"/>
        <path class="cls-1" d="M884.77,96.04s.02-2.54.98-3.36c0,0,18.93-6.56,31.72-10.42l-.7,3.05-31.99,10.73h0Z"/>
        <path class="cls-1" d="M843.25,165.58s0-2.54.97-3.36c0,0,18.94-6.56,31.73-10.43l-.7,3.05-31.99,10.74h0Z"/>
        <path class="cls-1" d="M796.78,167.88s.02-2.54.98-3.35c0,0,18.93-6.57,31.73-10.43l-.71,3.05-32,10.73h0Z"/>
        <path class="cls-1" d="M877.86,83.09c4.77-12.21-4.86-19.43-4.86-19.43l-.94,3.5c8.22,6.65,4.62,15.2,4.62,15.2l-1.96,4.6c-2.12,7.02,2.11,6.5,2.11,6.5,2.19.23,4.61-3,5.01-6.2-.47-2.71-3.99-4.18-3.99-4.18M879.66,89.31s-2.43,2.26-3.84.44c0,0-.7.29.94-3.43,0,0,3.83,1.38,2.9,2.99"/>
        <path class="cls-1" d="M868.17,43.08s-4.5-1.94-4.43-3.28c0,0,.27-4.5,3.19-3.78,0,0,6.78,3.11,7.56,9.63l.19.06s.99-5.11,1.24-5.78c.27-.67.98-5.78,3.33-6.45,0,0,2.47-1.65,4.69,2.19,0,0,.14,3.42-1.24,3.9,0,0-2.22-2.25-2.61-2.13-.38.12-1.5-.98-2.61,4.14-1.1,5.11-1.29,8.71-2.6,10.53,0,0-1.05,1.16-1.5-.06,0,0-.84-7.67-4.05-9.31-.71-.43-1.17.36-1.17.36"/>
        <path class="cls-1" d="M903.38,143.28s-2.48,7.67-2.74,10.66c0,0-.66,3.53,1.89,4.25,0,0,1.3-.12,2.67-2.86,0,0,1.25-1.04.92,1.22,0,0-1.96,4.75-3.39,5.36,0,0-3.59,1.28-4.5-4.14,0,0,.46-7.43,3.85-14.37,0,0,.91-1.34,1.31-.12"/>
        <path class="cls-1" d="M914.35,45.08s-2.37,7.34-2.62,10.2c0,0-.63,3.39,1.8,4.09,0,0,1.25-.12,2.56-2.74,0,0,1.19-1,.87,1.15,0,0-1.88,4.55-3.24,5.14,0,0-3.43,1.22-4.3-3.97,0,0,.43-7.11,3.67-13.75,0,0,.87-1.28,1.25-.12"/>
        <path class="cls-1" d="M754.55,121.35c-6.3,24,3.78,30.14,12.02,33.39,13.21,5.19,36.86-5.43,46.47-10.88,9.61-5.44,16.68-11.85,17.96-14.6.66-1.43,2.14-6.1,2.14-6.1,0,0,.32,10.36,1.75,16.79,3.04,8.42,9.78,10.14,13.08,9.55,3.3-.61,8.94-1.55,11.46-6.13,4.32-7.05,3.69-13.61,3.84-15.54,3.28,7.52,8.53,9.54,14.33,10.08,7.11.59,18.15-4.95,19.93-5.78,1.79-.84,6.58-2.74,6.58-2.74,3.2,7.97,10.19,10.78,13.22,11.56,3.02.79,5.13-1.16,5.44-1.83,1.12-1.95,2.94-6.66,3.47-10.07.42-5.64-.51-8.42-2.24-9.74-6.17-3.86-14.05.08-16.65.7-.66-.73-2.03-9.48-3.09-16.14-1.06-6.66-5.46-63.02-6.26-74.72,5.42,7.61,5.95,6.04,5.78,5.6-.87-3.85-8.22-21.06-8.22-21.06-.66-.48-3.53,8.19-3.53,8.19l.9,3.54s2.39,35.1,3.91,57.46c1.68,24.71,4.82,39.34,4.82,39.34l-4.26,1.81c-8.03,4.1-15.61,5.51-20.02,5.44-10.55-.66-12.67-14.09-13.21-17.97-.54-3.88-2.57-45.7-2.88-50.03-.38-5.6-.96-16-1.57-22.91-1.04-11.8-2.49-23.7-2.7-24.76-.39-2-.87-.77-1.22.23-.36,1.01-3.31,9.93-3.31,9.93,0,0,.47,8.23.73,9.78.27,1.55,4.53,73.72,4.81,76.83.28,3.11,1.51,23.44,1.31,26.55-1.08,1.68-7.43,3.31-11.11,3.79-3.66.49-6.62-1.16-8.88-4.8-2.25-3.64-3.28-23.67-3.4-26.63-.11-2.96-2.44-53.58-3.06-64.25-.62-10.66-2.81-30.47-2.81-30.47-.29-3.33-1.01-2.66-1.01-2.66,0,0-3.39,11.89-3.39,13.34,0,1.27.2,6.57.47,8.68.26,2.1,4.38,74.26,4.38,74.26.49,9.56.55,14.56.08,16.34-9.93,9.01-27.86,17.32-45.31,21.67-17.83,4.46-26.59-4.59-29.02-12.79,0,0-.74-2.48-.86-5.34-.19-5.13,1.82-10.74,1.3-11.24-.83-.77-1.99,3.78-2.15,4.31M922.61,131.44s-.65,1.27-4.29.38c-3.93-.96-7.16-4.93-7.16-4.93,0,0,9.4-2.32,11.43,2.65.52,1.99.03,1.89.03,1.89"/>
        <path class="cls-1" d="M820.79,66.79s-5.26-2.29-11.63,9.95c0,0-4.28,9.15-3.3,11.44.98,2.28,3.55,3.08,5.39,3.31s5.15,0,5.64-.23c.5-.23,1.23.11.25.91-.98.8-9.19,7.2-14.57,9.84-4.3,2.85-6.38,4.01-4.3,4.12,2.09.12,11.52-1.94,13.23-3.32,1.72-1.37,6.62-6.62,7.73-8.92,1.1-2.29,3.79-8.01,3.79-9.38s-1.83-1.72-2.94-1.83-3.81,1.15-6.5,0c-2.69-1.14-3.54-2.63-3.54-2.63,0,0,4.53-6.06,6.61-4.8l1.23.46s4.89-9.72,2.94-8.92"/>
        <path class="cls-1" d="M805.53,107.37s-.55,3.62-2.12,7.57c-1.57,3.94-2.86,6.48-2.25,10.8.62,4.31,3.4,4.31,3.88,4.19.48-.13.81-.25,1.02-.69.2-.45.27-.76.61-1.34.34-.57,1.23-1.91,1.23-1.91,0,0,.75-.76.54.58-.2,1.33-.47,3.05-2.38,6.48,0,0-3.01,5.72-6.06,3.24-3.06-2.48-1.97-8.58-1.77-9.79.21-1.2,1.91-6.79,2.8-9.21.88-2.42,2.58-6.23,2.79-6.67.2-.45,1.16-2.67,1.16-2.67,0,0,.55-1.14.55-.57"/>
        <path class="cls-1" d="M928.81,11.29s10,23,10.1,25.53c0,.47-.4,1.43-1.39.08-.98-1.35-4.05-4.03-4.05-4.03,0,0-1.19-.32-.7,3,.5,3.32,5.36,38.02,5.36,38.02,0,0,3.66,40.09,3.76,41.75.1,1.66,1.29,18.58-.9,27.11-1.09,3.72-2.37,5.38-2.37,5.38,0,0-2.28,3.87-1.78.64.49-3.25.3-18.35-.79-27.99-1.08-9.64-3.46-36.37-3.46-36.37l-3.17-27.03-2.77-25.07s-.89-9.88-1.09-10.75-.99-2.45-.99-2.45c0,0-.2,0,.49-1.19.7-1.18,2.97-5.69,2.97-5.69,0,0,.41-1.11.8-.94"/>
        <path class="cls-1" d="M609.2,89.12s.42.56.95-.06c0,0,.48-1.56,1.61.23.69,1.08,1.49,2.37,2.16,4.07.36,1.49.87,2.6,1.12,3.91l.12.28s-1.55-.5-3.05,4.85c0,0,.18.67,1.2.06,0,0,.95-2.51,2.99-.56,0,0-4.07,1.01-4.55,2.4,0,0-.95,1.56-.95,2.51,0,0-.6,1.28.42,4.52,0,0,2.75,13.27,2.69,13.94s.36,5.73.36,5.73c0,0,.72.67,1.38-1.73.66-2.4-1.56-13.33-1.56-13.33,0,0-1.67-7.59-1.91-8.25l-.06-.39s1.97-1.83,8.18-2.62l1.56-2.62s0-2.23-5.31-4.46l1.07-4.46,1.13-6.24s1.5-3.57,2.93-1.23c0,0,1.32,2,2.15.56,0,0,.83-2.29.59-2.9,0,0-2.15-3.74-4.48-1.78-2.33,1.95-2.81,5.18-2.81,5.18,0,0-.83,3.92-.9,5.31l-.06.22s-.48-1.61-1.14-3.18c-.55-1.29-1.26-2.54-1.55-2.84-.65-.67-3.58-4.36-6.21-2.96-.42.5-1.01.83-.95,3.79.13.17.42.56,2.87,2.06"/>
        <path class="cls-1" d="M640.24,64.65s5.7-8.92,6.28-9.58c.57-.67,10.84-1.33,13.54-1.07,2.71.27,7.56.54,6.56,5.19-.86,2.8-6.7,11.45-8.56,13.05-1.85,1.6-8.7,3.33-13.12,3.86-4.41.53-5.27.13-4.13-.4,1.15-.53,15.4-7.58,16.68-8.65l1.28-1.06s0-1.21-1.14-1.21-11.27-.13-13.83.41c-2.57.53-3.85,0-3.57-.54"/>
        <path class="cls-1" d="M737.64,75.62s.53-.43.91-.13c.39.31,2.82,3.79,3.01,7.33.06,1.24,0,2.32.86.73.84-1.59,1.5-6.78,1.88-9.23.41-2.43,1.13-4.7,2.18-5.13,1.04-.43,2.02,1.77,2.02,1.77,0,0,.27.79.91-1.1.66-1.89.33-1.35.33-1.35,0,0-1.12-2.07-2.61-2.32-.88-.13-1.97.84-2.76,2.63-.36.82-.92,2.7-1.11,4.59-.33,3.24-.59,4.69-.77,5.26,0,0-1.39-3.18-1.58-3.86-.2-.66-2.1-4.2-4.52-5.08-2.43-.85-2.36.5-2.3,1.35.07.86.14,2.14.14,2.14l1.37,1.22,1.7,1.28.33-.12v.02Z"/>
        <path class="cls-1" d="M771,131.44s.52-.43.91-.13c.39.31,2.82,3.79,3.02,7.33.06,1.23,0,2.32.85.73.84-1.59,1.5-6.78,1.88-9.23.4-2.44,1.11-4.7,2.17-5.13,1.04-.43,2.02,1.77,2.02,1.77,0,0,.27.79.91-1.1.66-1.89.33-1.35.33-1.35,0,0-1.11-2.07-2.61-2.32-.88-.14-1.97.84-2.76,2.64-.36.82-.92,2.69-1.11,4.59-.32,3.24-.59,4.7-.78,5.25,0,0-1.38-3.18-1.57-3.85-.2-.67-2.1-4.21-4.52-5.08-2.43-.85-2.36.5-2.3,1.34.07.86.13,2.14.13,2.14l1.38,1.22,1.7,1.28.33-.12.02.02Z"/>
        <path class="cls-1" d="M695.16,44.41s.52-.43.92-.13c.4.31,2.82,3.8,3,7.33.07,1.23,0,2.33.85.74.86-1.59,1.51-6.79,1.9-9.23.39-2.45,1.11-4.71,2.16-5.14,1.05-.43,2.03,1.77,2.03,1.77,0,0,.26.79.92-1.1s.32-1.34.32-1.34c0,0-1.11-2.08-2.61-2.32-.87-.14-1.96.84-2.76,2.63-.35.82-.92,2.71-1.11,4.59-.33,3.24-.59,4.71-.78,5.26,0,0-1.38-3.18-1.57-3.85s-2.1-4.21-4.51-5.07c-2.42-.86-2.37.49-2.29,1.34.05.85.13,2.14.13,2.14l1.37,1.22,1.71,1.28.32-.12h0Z"/>
        <path class="cls-1" d="M645.38,36.48s.52-.43.91-.13c.4.31,2.82,3.8,3,7.33.07,1.23,0,2.33.86.74.85-1.59,1.51-6.79,1.91-9.23.38-2.44,1.11-4.71,2.15-5.13,1.06-.44,2.03,1.76,2.03,1.76,0,0,.26.79.92-1.1.65-1.89.32-1.34.32-1.34,0,0-1.11-2.08-2.62-2.32-.86-.14-1.95.84-2.74,2.62-.36.82-.92,2.7-1.11,4.59-.32,3.24-.59,4.7-.78,5.25,0,0-1.38-3.18-1.58-3.85s-2.1-4.22-4.51-5.08c-2.42-.85-2.37.49-2.29,1.35.06.85.13,2.13.13,2.13l1.38,1.22,1.71,1.29.32-.12v.02Z"/>
        <path class="cls-1" d="M635.61,90.39s.52-.44.91-.13c.39.31,2.81,3.79,3,7.33.07,1.22,0,2.32.86.74.85-1.59,1.51-6.8,1.9-9.23.39-2.45,1.11-4.71,2.15-5.14,1.05-.43,2.03,1.77,2.03,1.77,0,0,.26.78.92-1.1.65-1.9.33-1.34.33-1.34,0,0-1.12-2.09-2.63-2.33-.86-.14-1.96.85-2.75,2.63-.36.82-.92,2.7-1.11,4.58-.33,3.24-.59,4.71-.79,5.26,0,0-1.37-3.18-1.57-3.86-.19-.67-2.09-4.22-4.51-5.08-2.41-.85-2.36.49-2.29,1.35.06.86.13,2.13.13,2.13l1.36,1.22,1.71,1.29.33-.11.02.02Z"/>
        <path class="cls-1" d="M764.24,12.17s.59-.48,1.03-.14c.45.36,3.16,4.27,3.38,8.25.07,1.37,0,2.62.96.83s1.7-7.64,2.13-10.38c.45-2.75,1.27-5.3,2.43-5.77,1.19-.49,2.29,2,2.29,2,0,0,.29.89,1.04-1.24.74-2.13.37-1.51.37-1.51,0,0-1.25-2.35-2.95-2.62-.97-.16-2.21.96-3.08,2.96-.41.92-1.04,3.03-1.26,5.16-.37,3.65-.66,5.3-.88,5.91,0,0-1.55-3.58-1.77-4.33-.21-.76-2.35-4.74-5.08-5.71-2.73-.96-2.65.55-2.57,1.52.07.96.14,2.4.14,2.4l1.55,1.38,1.92,1.45.36-.14v-.02Z"/>
        <path class="cls-1" d="M583.01,48.92s.8-.66,1.41-.19c.61.48,4.36,5.87,4.65,11.36.11,1.89,0,3.59,1.33,1.14,1.32-2.46,2.33-10.5,2.94-14.28.6-3.79,1.73-7.29,3.33-7.94,1.64-.67,3.15,2.74,3.15,2.74,0,0,.39,1.22,1.43-1.71,1-2.94.51-2.08.51-2.08,0,0-1.73-3.21-4.07-3.6-1.33-.22-3.02,1.32-4.24,4.06-.57,1.26-1.43,4.18-1.73,7.1-.5,5.01-.91,7.28-1.21,8.13,0,0-2.12-4.93-2.43-5.95-.3-1.04-3.24-6.52-6.98-7.85-3.74-1.33-3.65.75-3.54,2.08.1,1.33.2,3.3.2,3.3l2.12,1.9,2.64,1.99.5-.2h-.01Z"/>
      </g>
      <polygon class="cls-1" points="631.54 116.75 637.81 108.73 646.33 115.01 640.68 123.04 631.54 116.75"/>
      <g>
        <path class="cls-1" d="M624.38,29.34s-.75,4.97-2.91,10.39c-2.15,5.41-3.92,8.89-3.07,14.83.83,5.93,4.67,5.93,5.32,5.76.67-.19,1.13-.35,1.41-.96.28-.62.37-1.05.84-1.83.47-.8,1.69-2.62,1.69-2.62,0,0,1.02-1.05.74.78-.28,1.84-.66,4.18-3.27,8.9,0,0-4.12,7.84-8.32,4.44-4.21-3.4-2.7-11.77-2.43-13.43.28-1.66,2.62-9.34,3.83-12.64,1.22-3.32,3.56-8.55,3.83-9.17.29-.61,1.59-3.67,1.59-3.67,0,0,.75-1.57.75-.78"/>
        <path class="cls-1" d="M567.08,25.71s-.75,4.97-2.91,10.37c-2.14,5.41-3.91,8.91-3.07,14.84.84,5.93,4.67,5.93,5.32,5.76.67-.18,1.13-.35,1.41-.96.28-.61.37-1.05.84-1.83.47-.79,1.69-2.62,1.69-2.62,0,0,1.02-1.04.74.78-.29,1.83-.65,4.19-3.27,8.9,0,0-4.12,7.85-8.32,4.44-4.2-3.39-2.71-11.77-2.43-13.44.28-1.65,2.61-9.33,3.84-12.65,1.21-3.31,3.55-8.55,3.83-9.16.29-.61,1.59-3.67,1.59-3.67,0,0,.75-1.57.75-.77"/>
        <path class="cls-1" d="M738.45,11.33s-.43,2.86-1.67,5.96c-1.24,3.12-2.25,5.12-1.77,8.53.49,3.41,2.69,3.41,3.07,3.31.38-.11.64-.21.8-.56s.22-.6.48-1.04c.27-.46.97-1.51.97-1.51,0,0,.59-.6.43.45-.16,1.06-.37,2.41-1.87,5.11,0,0-2.36,4.52-4.78,2.56-2.41-1.95-1.56-6.76-1.4-7.71.17-.96,1.51-5.37,2.21-7.27.69-1.9,2.04-4.91,2.2-5.27.16-.35.92-2.1.92-2.1,0,0,.43-.9.43-.46"/>
        <path class="cls-1" d="M699.24,76.49s-.44,2.86-1.68,5.97c-1.23,3.11-2.25,5.12-1.77,8.52.49,3.41,2.69,3.41,3.06,3.31.38-.1.65-.2.81-.55.16-.35.21-.61.49-1.05.26-.46.95-1.51.95-1.51,0,0,.61-.6.44.46-.16,1.05-.37,2.4-1.88,5.11,0,0-2.36,4.51-4.78,2.55-2.42-1.95-1.56-6.76-1.4-7.72.16-.95,1.51-5.37,2.2-7.27.71-1.9,2.04-4.92,2.2-5.26.16-.35.91-2.11.91-2.11,0,0,.44-.9.44-.45"/>
        <path class="cls-1" d="M676.22,133.76s-.44,2.84-1.67,5.95c-1.23,3.12-2.25,5.12-1.77,8.53.48,3.4,2.69,3.4,3.06,3.31.38-.11.64-.2.81-.55.16-.36.21-.61.48-1.06.27-.45.97-1.5.97-1.5,0,0,.59-.61.42.45-.16,1.05-.37,2.41-1.87,5.12,0,0-2.36,4.51-4.78,2.56-2.41-1.95-1.56-6.76-1.4-7.71.16-.96,1.5-5.37,2.2-7.27.71-1.91,2.04-4.92,2.21-5.26.16-.35.9-2.11.9-2.11,0,0,.44-.9.44-.45"/>
        <path class="cls-1" d="M769.28,54.99s-.43,2.85-1.67,5.97c-1.24,3.11-2.25,5.11-1.78,8.52.49,3.41,2.7,3.41,3.07,3.31.38-.11.65-.2.8-.55.16-.35.21-.61.48-1.06.28-.45.96-1.5.96-1.5,0,0,.59-.6.44.45-.16,1.05-.37,2.41-1.88,5.11,0,0-2.36,4.51-4.77,2.56-2.42-1.95-1.56-6.77-1.4-7.73.16-.94,1.51-5.36,2.21-7.27.69-1.9,2.03-4.9,2.19-5.25.16-.36.92-2.11.92-2.11,0,0,.43-.9.43-.45"/>
        <path class="cls-1" d="M812.07,6.9s-.43,2.85-1.67,5.96c-1.23,3.11-2.25,5.11-1.77,8.52.49,3.4,2.68,3.4,3.06,3.31.38-.1.64-.2.8-.55.17-.35.22-.61.48-1.05.27-.46.97-1.51.97-1.51,0,0,.59-.6.43.45-.15,1.05-.37,2.4-1.88,5.12,0,0-2.36,4.5-4.77,2.55-2.42-1.95-1.57-6.76-1.41-7.73.16-.94,1.51-5.35,2.2-7.26s2.04-4.91,2.2-5.26c.16-.36.92-2.11.92-2.11,0,0,.43-.9.43-.45"/>
        <path class="cls-1" d="M636.56,23.33s-.19-2.56,1.64-3.67c0,0,37.06-12.07,62.14-19.66l-1.11,3.28-62.67,20.05h0Z"/>
        <path class="cls-1" d="M801.51,27.04s-54.84,13.98-77.8,25.72c-1.94,3.83-2.42,4.97-2.42,4.97,0,0,10.88-8.58,77.33-26.63,2.17-2.71,2.9-4.06,2.9-4.06"/>
        <path class="cls-1" d="M719.55,109.89c-.32-3.04-.3-7.18-.14-7.18,2.84,15.02,11.8,15.72,16.64,15.57,4.85-.15,10.64-5.84,12.05-7.34,1.41-1.49,1.72-.59,1.88,0-.47,3,3.42,6.72,9.54,6.14,4.85-.45,7.2-4.31,9.07-6.59,1.01-1.21,1.73-1.64,1.73-1.64,0,.57,1.29,3.52,4.37,5.54,3.37,2.21,9.26,2.2,11.42-.9,6.25-8.98,1.72-22.9,1.72-22.9-.31,0-.71,1.5-.71,1.5,0,0-1.72,5.54-2.18,6.81-.47,1.28-.23,2.25-.23,2.25,0,0,2.5,4.04,1.88,4.71-6.5,2.32-10.88-2.02-11.57-3.44-.7-1.42.07-4.11,1.08-5.98,1.02-1.86.79-2.62.4-2.62s-1.95,1.5-2.26,1.87c-.21.24-1.6,2.73-3.14,5.32-.86,1.44-1.33,2.77-3.43,4.56-8.14,4.56-12.44.9-13.53-.22-1.1-1.12-.4-4.26.38-5.39.79-1.13-.23-1.65-1.17-1.05-.93.59-1.96,2.55-5.09,5.61-3.12,3.07-7.42,5.32-14.15,4.42-8.83-.97-10.7-8.84-11.81-13.4-1.08-4.57-2.1-23.64-2.1-23.64,0,0-2.11-25.51-3.14-38.53-1.02-13.02-3.08-23.06-3.71-24.87-.63-1.78-1.77,1.79-1.77,1.79,0,0-1.73,4.64-2.03,5.61-.32.97-.62,2.62-.62,3.44s1.34,10.65,1.34,10.65c0,0,2.49,30.22,2.65,32.17.15,1.95,1.95,34.16,1.95,38.23l1.13,15.48c.29,5.98,1.85,12.03,1.85,12.03-7.92,4.75-11.21,5.07-11.21,5.07-4.98,1.79-8.6.74-10.7-.39-1.25-.76-2.6-1.93-3.88-3.69-3.52-4.88-4.47-29.33-5.13-42.6-.66-13.25-1.85-25.76-3.22-40.76-2.24-24.58-5.99-32.77-5.99-32.77l-3.96,8.09s.19.69,1.05,4.18c2.8,11.36,5.92,47.48,6.32,53.74.14,2.34.35,4.82.56,6.99.34,3.63.68,9.44.86,13.85.34,8.64,1.19,22.66,3.2,29.88,2.68,9.61,7.28,12.35,11.63,12.84,3.71.68,8.23-.68,8.23-.68,5.21-1.8,15.18-7.74,15.18-7.74,3.74,5.3,10.19,7.95,10.19,7.95,6.24,2.64,8.5-3.39,8.5-3.39,2.49-5.93.34-11.65.34-11.65-1.59-5.29-9.06-4.45-9.06-4.45-.8-.1-8.62,2.65-8.62,2.65-1.74-2.25-2.59-15.15-2.59-15.15M737.41,133.43s-.61,1.27-4.31.35c0,0-4.54-1.41-4.76-2.67,0,0,6.12-2.05,9.07,2.32"/>
        <path class="cls-1" d="M662.54,87.81s8.4,10.99,9.05,14.04c.32.71-.22,1.33-1.31.51-1.09-.81-1.97-1.22-2.62-1.73-.66-.51-1.53-.2-.66,1.82.88,2.04,3.93,9.87,4.58,12.21.65,2.35,1.52,6.92-.87,14.96-1.86,4.47-11.1,11.31-11.1,11.31,0,0-21.96,14.04-47.44,15.04-14.28.71-27.46-7.53-27.57-24.11-.1-16.58,8.28-29.11,8.28-29.11,0,0,2.61-3.35,1.31-.11-1.31,3.26-5.77,12.53-5.99,20.16s2.49,18.31,15.58,22.37c13.08,4.08,42.96-4.17,55.6-12.52l8.51-5.89s-1.1-5.7-3.61-10.89c-2.5-5.19-4.03-15.97-4.03-15.97,0,0-.76-2.44-1.41-2.96.33-1.12,2.73-7.62,2.73-7.62,0,0,.44-1.74.98-1.53"/>
      </g>
      <polygon class="cls-1" points="470.36 152.23 481.99 157.67 477.23 167.54 465.33 162.6 470.36 152.23"/>
      <polygon class="cls-1" points="570.32 149.2 581.96 154.64 577.2 164.51 565.31 159.57 570.32 149.2"/>
      <polygon class="cls-1" points="544.77 71.16 556.4 76.59 551.64 86.47 539.75 81.53 544.77 71.16"/>
      <g>
        <path class="cls-1" d="M487.66,131.55c2,1.71,6.08,4.56,18.46.37,1.38-.59,2.72-.71,4.43-1.38l2.89-1.2,14.61-5.28,21.76-7.12,5.06-8.87-2.58.95.07-.1"/>
        <path class="cls-1" d="M552.35,108.93s-2.72.81-7.14,2.45c-4.09,1.51-15.39,5.36-20.75,6.66-2.14.34-5.11.29-9.93-1.49-7.01-2.59-13.16-9.75-15.26-14.57-1.47-3.85-1.39-6.23-1.39-6.23,0,0,8.98-6.03,22.38-6.23,9.85-.24,13.16.84,15.64,1.71,2.47.87,4,1.26,4,1.26,0,0-3.44-5.6-13.52-8.84-7.06-2.18-16.46-2.17-21.87.83-4.6,2.53-11.36,7.02-11.76,18.55.02,8.77,9.65,16.49,14.8,20.52-2.38.77-6.92,2.34-10.25,2.67-7.11,1.33-11.08-6.91-11.08-7.8s0-2.89-.24-4c-.24-1.12-2.86.22-4.76,3.55-1.91,3.34-6.2,6.02-10.73,8.46-4.53,2.45-10.25.22-13.11-2.22-2.86-2.45-5-16.47-6.67-31.83-2.15-15.8-10.73-31.15-10.73-31.15l-3.1,10.24s.96,1.33,1.67,3.78c.71,2.45,8.58,27.82,9.05,34.05-15.97,16.69-26.93,22.26-31.7,24.49-4.77,2.23-10.73,2.23-13.82-.45-3.1-3.12-.96-12.47-.48-15.13.48-2.67-.72-2.45-1.43-.89-8.11,29.82,4.29,30.71,18.35,24.49,14.06-6.9,27.42-23.82,27.42-23.82l3.33-6.9s.24,14.69,4.05,20.92c3.82,6.23,12.63,6.01,15.74,4.67,3.09-1.34,7.81-5.6,10.48-9.35,2.39-3.33,4.3-3.78,4.3-3.78,0,0-.48,4,3.81,8.01"/>
        <path class="cls-1" d="M334.98,151.78s.02-2.73,1.05-3.6c0,0,20.32-7.05,34.05-11.19l-.76,3.28-34.33,11.52h0Z"/>
        <path class="cls-1" d="M352.53,89.58s.02-2.73,1.05-3.61c16.99-5.89,15.97-5.73,34.05-11.19l-.76,3.28-34.33,11.51h0Z"/>
        <path class="cls-1" d="M297.88,47.09c5.12-13.09-5.21-20.86-5.21-20.86l-1.01,3.76c8.83,7.14,4.95,16.31,4.95,16.31l-2.09,4.94c-2.27,7.54,2.26,6.98,2.26,6.98,2.35.23,4.96-3.21,5.38-6.67-.51-2.9-4.28-4.47-4.28-4.47M299.82,53.76s-2.6,2.42-4.12.47c0,0-.76.32,1.01-3.69,0,0,4.12,1.49,3.1,3.22"/>
        <path class="cls-1" d="M377.65,152.1s-.83-2.98-1.93-.94c0,0-2.94,2.12.51,2.83,0,0,1.51,1.18,3.27-.47,1.77-1.65,2.86-1.88,2.86-1.88,0,0,.67.62-.76,3.05,0,0-5.96,4-7.22,7.6-1.26,3.61,2.86,4.08,6.39,3.77,0,0,3.61.15,5.71-.86,0,0,1.51-.32.5,1.09,0,0-5.71,4.32-11.76,3.14,0,0-7.14-1.25-.34-11.69,0,0-3.95-1.1-2.94-3.84,1-2.75,4.03-6.43,5.79-6.43s2.35,3.06,1.34,4.08-.75.87-1.43.55"/>
        <path class="cls-1" d="M162.22,134.3s-.84-2.98-1.93-.94c0,0-2.94,2.12.5,2.83,0,0,1.51,1.18,3.27-.48,1.76-1.64,2.86-1.88,2.86-1.88,0,0,.67.63-.76,3.06,0,0-5.96,4-7.22,7.61s2.86,4.08,6.38,3.76c0,0,3.61.16,5.71-.85,0,0,1.51-.32.51,1.09,0,0-5.72,4.31-11.76,3.13,0,0-7.13-1.25-.33-11.68,0,0-3.95-1.1-2.94-3.84,1-2.75,4.03-6.43,5.79-6.43s2.35,3.06,1.34,4.08c-1.01,1.02-.76.86-1.43.55"/>
        <path class="cls-1" d="M357.98,36.46s.44.6,1-.05c0,0,.51-1.65,1.71.23.72,1.14,1.56,2.5,2.27,4.29.38,1.58.93,2.73,1.19,4.12l.13.29s-1.64-.53-3.21,5.12c0,0,.19.71,1.26.05,0,0,1-2.64,3.15-.59,0,0-4.28,1.06-4.79,2.53,0,0-1.01,1.65-1.01,2.65,0,0-.63,1.35.44,4.77,0,0,2.9,13.99,2.84,14.71-.06.7.38,6.06.38,6.06,0,0,.76.71,1.45-1.82s-1.64-14.06-1.64-14.06c0,0-1.76-8-2.02-8.7l-.06-.43s2.08-1.93,8.63-2.76l1.64-2.76s0-2.36-5.61-4.71l1.14-4.7,1.2-6.59s1.57-3.77,3.08-1.3c0,0,1.39,2.11,2.27.59,0,0,.88-2.41.63-3.06,0,0-2.27-3.95-4.73-1.89-2.45,2.06-2.96,5.47-2.96,5.47,0,0-.88,4.12-.94,5.59l-.07.24s-.51-1.71-1.2-3.35c-.57-1.36-1.32-2.69-1.64-3-.69-.7-3.78-4.59-6.55-3.12-.44.53-1.07.89-1.01,4,.13.18.45.59,3.02,2.17"/>
        <path class="cls-1" d="M149.3,24.46s.44.59,1-.06c0,0,.51-1.65,1.7.24.73,1.14,1.56,2.5,2.28,4.29.38,1.58.93,2.74,1.19,4.12l.13.29s-1.64-.53-3.21,5.13c0,0,.19.7,1.26.05,0,0,1.01-2.64,3.14-.59,0,0-4.28,1.07-4.79,2.54,0,0-1.01,1.65-1.01,2.65,0,0-.63,1.35.44,4.75,0,0,2.9,14,2.83,14.71-.06.71.38,6.07.38,6.07,0,0,.75.7,1.45-1.83.69-2.53-1.64-14.05-1.64-14.05,0,0-1.77-8-2.02-8.71l-.06-.41s2.08-1.94,8.63-2.76l1.63-2.77s0-2.35-5.61-4.7l1.14-4.71,1.2-6.59s1.58-3.77,3.09-1.3c0,0,1.39,2.12,2.27.6,0,0,.88-2.41.63-3.06,0,0-2.27-3.93-4.73-1.88-2.46,2.06-2.96,5.47-2.96,5.47,0,0-.89,4.12-.95,5.59l-.07.24s-.5-1.71-1.2-3.36c-.57-1.35-1.32-2.67-1.64-2.99-.69-.71-3.78-4.59-6.55-3.12-.44.53-1.07.88-1.01,4,.12.17.44.59,3.02,2.17"/>
        <path class="cls-1" d="M469.78,77.19s-4.83-2.08-4.76-3.53c0,0,.28-4.83,3.43-4.05,0,0,7.28,3.33,8.11,10.32l.21.07s1.05-5.49,1.33-6.21,1.05-6.21,3.57-6.93c0,0,2.65-1.76,5.04,2.36,0,0,.14,3.66-1.33,4.19,0,0-2.38-2.43-2.8-2.29-.42.13-1.61-1.05-2.81,4.44-1.19,5.49-1.4,9.35-2.8,11.31,0,0-1.12,1.25-1.61-.06,0,0-.91-8.23-4.34-10-.77-.46-1.26.38-1.26.38"/>
        <path class="cls-1" d="M205.1,28.98s-4.83-2.34-4.76-3.96c0,0,.29-5.42,3.43-4.55,0,0,7.28,3.75,8.12,11.6l.21.07s1.05-6.16,1.33-6.97c.29-.8,1.05-6.97,3.58-7.78,0,0,2.66-1.98,5.04,2.64,0,0,.14,4.11-1.33,4.7,0,0-2.38-2.72-2.8-2.56-.42.14-1.61-1.18-2.8,4.99-1.19,6.15-1.4,10.49-2.8,12.69,0,0-1.12,1.4-1.61-.07,0,0-.91-9.25-4.34-11.23-.77-.51-1.26.44-1.26.44"/>
        <path class="cls-1" d="M547.35,119.41s-2.55,7.88-2.82,10.95c0,0-.66,3.63,1.95,4.37,0,0,1.34-.12,2.74-2.93,0,0,1.27-1.07.94,1.24,0,0-2.01,4.88-3.48,5.5,0,0-3.68,1.32-4.63-4.25,0,0,.47-7.63,3.95-14.76,0,0,.94-1.38,1.34-.13"/>
        <path class="cls-1" d="M521.52,91.53s-2.55,7.89-2.81,10.96c0,0-.67,3.62,1.94,4.37,0,0,1.34-.13,2.75-2.94,0,0,1.27-1.06.94,1.25,0,0-2.01,4.87-3.49,5.5,0,0-3.68,1.31-4.61-4.25,0,0,.47-7.64,3.95-14.77,0,0,.94-1.37,1.34-.13"/>
        <path class="cls-1" d="M568.85,78.71c.05-3.19-4.48-4.75-4.48-4.75l.84-3.19c-.61-2.78-1.84,1.2-1.84,1.2-2.92,8.1-2.24,10.93-2.24,10.93.89,2.98,3.8,1.82,3.8,1.82,4.3-2.3,3.92-6.01,3.92-6.01M563.14,81.38s-.67-1.62.51-3.87c0,0,2.91,1.04,3.24,2.5,0,0-1.12,1.99-3.75,1.36"/>
        <path class="cls-1" d="M472.69,103.9c.06-3.19-4.48-4.75-4.48-4.75l.84-3.19c-.61-2.78-1.84,1.21-1.84,1.21-2.92,8.1-2.24,10.92-2.24,10.92.89,2.98,3.81,1.83,3.81,1.83,4.31-2.3,3.92-6.02,3.92-6.02M466.98,106.57s-.67-1.62.5-3.87c0,0,2.91,1.04,3.24,2.5,0,0-1.11,1.99-3.75,1.36"/>
        <path class="cls-1" d="M388.67,10.49s-54.6,13.54-77.63,25.49c-2.03,4.04-2.54,5.23-2.54,5.23,0,0,11.01-8.87,77.18-26.46,2.23-2.83,3-4.25,3-4.25"/>
        <path class="cls-1" d="M611.1,8.88s-109.84,28.02-155.81,51.51c-3.87,7.68-4.84,9.94-4.84,9.94,0,0,21.78-17.17,154.84-53.33,4.36-5.42,5.81-8.13,5.81-8.13"/>
        <path class="cls-1" d="M164.84,149.75s-1.79,1.82-6.34,2.94c-2.25.6-7.74,1.39-9.91,2.03-1.87.59-3.32,1.9-3.45,2.62-.13.71-.34,3.13,2.64,3.22,2.04.04,4.76.12,5.48,1.71.13.36-.34.75-.34.75,0,0-.53-1.09-1.91-1.39-.25.48-.89,1.63-.55,2.18.34.36.93.75,1.78.32.85-.44,2-1.32,2.26-1.79-.05-.24-.3-.95-.68-1.54.34-.76.43-.88.43-.88,0,0,.26,1.15.98,1.39.55.2.6.36,4.25-.64,1.82-.51,3.45-.75,3.45-.75,0,0,.17-.72-1.49-1.03-.25.04-3.06.67-4.04.8-.98.12-2.13.12-2.04-.52.08-.63.93-1.91,1.87-2.62.93-.72,2.3-.8,2.21-.08-.04.48-.43.87-.43.87,0,0-.2-.76-.81-.52-.77.32-1.32.44-2.17,1.75.34.28.51.28,1.02.23,0,0,2.34-.23,4-.67s2.3.8,2.6,1.16c.08.16-.26,1.07-.52,1.38-.21.04-2.33.4-3.27.72-.93.32-3.31.83-3.31.83,0,0-.6,1.2-.09,1.62.51.37,1.32.18,1.7-.1.45-.32,1.28-1.25,1.28-1.25,0,0-.04.57.17.76.21.2.81.4,1.24-.2.42-.6.72-1.07.72-1.07,0,0,.21-.24.09.44,0,0,.02.34.36.36.34.01.45-.04.59-.22.15-.18.24-.5.3-.64.07-.14.21-.34.21-.22s.02.26.06.42c.04.15.36.37.72.37s.86-.17.86-.17c0,0-.7-.72-.7-1.29s.1-1.07.36-1.29.77-.39,1.43-.44,1.74-.12,2.19-.61c.45-.5.51-.77.51-.77,0,0,.1-.22.13-.14.02.08,0,.12-.04.24-.04.11-.3.6-.57.91-.28.31-.58.65-1.11.91-.54.26-2.25.32-2.38.42s.17.87.36,1.09.65.61,1.31.52c.66-.11,2.51-.77,2.81-.82-.23.52-.45.96-.45.96,0,0-2.81.67-3.17.85,0,0-1.98.91-2.61-.06-.26.54-.88,1.25-1.56.4,0,0-.51,1.04-1.06,1.13-.58.1-1-.08-1.1-.83,0,0-.64.82-.98,1.12-.39.33-2.04,1.03-2.32-.66,0,0-.04-.66.47-1.71-.4.08-1.21.08-1.47-.18.04.38-.08.67-.08.67,0,0-.18.6-.83,1.21-.43.39-1.74,1.49-2.79,1.27-.7-.16-1.29-.61-.93-2.07.3-1.13.66-1.48.66-1.48,0,0-1.17-.3-1.98-.26-.81.04-2.92-.2-3.51-.89-.6-.69-1-2.18-.06-4.05.72-1.17,2.53-2.19,4.74-2.6,2.21-.42,7.44-1.29,9.29-1.83,1.85-.54,3.25-.97,5.1-2.14.32-.22.58-.39.43-.14"/>
        <path class="cls-1" d="M403.55,33.37c-1.34-4.89-6.84-20.34-6.84-20.34l-4.33,9.15s.83,2.53,1,3.47.5,6.31.84,12.46c.33,6.15,6.84,77.64,6.84,77.64l-1.5,1.26c-1.51,1.26-12.18,3.63-15.01,3.47-2.84-.16-5.84-3.78-5.84-3.78l11.01-3,5.5-8.99s-.67-.8-3.83-2.37c-7.68-4.73-24.19-4.41-28.36-4.1-4.18.31-11.18,2.37-12.18,3.78-1,1.42-2,8.99-2,8.99,0,0,4.83-1.59,6.67-2.21,2.01-.16,9.01,5.51,9.01,5.51,0,0-.5.32-4.84,1.89-11.51,4.41-22.35,16.4-23.69,18.77-1.33,2.37-10.67,17.65-16.84,23.02-6.17,5.36-9.18,4.1-12.68,1.73s-2.34-11.67-2.17-12.61c.17-.94,1.5-5.05,1.5-5.05l-1.67.94s-2.84,7.41-1,15.13c1.83,7.73,9.51,8.2,13.34,8.99,3.84.79,8.68-3.47,13.18-11.04,8.84-17.5,16.85-23.33,19.35-25.54,2.5-2.21,17.02-9.46,21.52-10.72,8.68,10.25,13.18,10.24,14.34,10.24s7.68-.62,11.51-2.99c2.94-1.81,5.17-5.36,7.51-12.93,2.5-8.19.34-22.55.17-23.18-.17-.64-5.5-58.41-5.5-58.41l5.5,4.88s1-.31-.5-4.1M373.52,111.02l-4.5-3.79-.34-.64s10.18.94,11.51,1.42l-6.67,3h0Z"/>
      </g>
      <polygon class="cls-1" points="308.38 73.07 317.72 78.99 313.04 86.47 303.37 81.17 308.38 73.07"/>
      <polygon class="cls-1" points="340.72 69.36 350.06 75.28 345.39 82.75 335.71 77.46 340.72 69.36"/>
      <polygon class="cls-1" points="351.31 161.58 342.3 155.98 337.3 163.76 345.97 169.99 350.64 162.83 358.98 168.75 364.32 160.97 355.98 155.36 351.31 161.58"/>
      <g>
        <path class="cls-1" d="M312.66,100.84s1.75,2.8,2.25,3.86c0,0,2.25,3.61,7.51,1.28,0,0,3.5-1.06,5.75-6.31,0,0,3.5-6.55,5.63-6.31,0,0,2.5.47,2.63,4.91,0,0-.12,8.52-.75,9.58,0,0-1.12,1.87-1.5-.12,0,0-.63-4.68-1.25-5.15,0,0-2-.12-3.13,3.39,0,0-2.75,7.7-9.64,10.05l-.5.58s1.38,6.65.38,10.04c0,0-1.37,5.49-2.63,7.48,0,0-4.13,6.43-10.63,10.05,0,0-19.27,13.32-33.78,17.06,0,0-2.38,1.17-12.51,2.1-.38,0-16.02,1.17-19.39,2.11,0,0-1.87-.24.88-1.17l22.01-7.72s24.53-9.11,35.53-16.35c0,0,15.01-8.17,17.52-12.5,0,0,1.88,1.29-3.13-12.73l-3.25-5.02s.37-7.13,2-9.11"/>
        <path class="cls-1" d="M251.88,26.26s8.21,19.4,9.64,24.32c.2,1.14.1,2.65-.71,2.08s-3.65-4.16-3.65-4.16c0,0-1.22-1.04-1.11.75,0,0,.61,5.49,1.42,11.55.81,6.05,4.45,33.03,4.86,35.77.41,2.74,1.93,20.16,1.73,26.59-.2,6.44-.82,10.23-3.45,17.71-.71.85-6.89,7.67-18.65,14.86-11.76,7.2-24.03,12.4-37.72,11.84-5.67-.38-27.06-5.4-19.36-39.85,2.33-9.28,5.57-14.86,5.57-14.86,0,0,2.64-3.6,1.02.38-1.62,3.98-6.69,17.14-5.27,26.12.8,5.06,3.17,10.6,7.6,14.3,3.45,2.87,8.22,4.53,13.99,4.53,13.69,0,31.02-5.96,51.5-22.33-.1.09.31-5.96-.6-15.71-.92-9.75-4.87-41.55-5.37-45.62-.51-4.07-2.84-27.06-3.04-28.68-.2-1.61-.51-6.91-.81-7.66-.31-.76-1.32-2.84-1.32-2.84l2.94-8.14s.51-.95.81-.95"/>
        <path class="cls-1" d="M87.9,60.93l-.51-9.83s13.98,5.22,16.06,5.82c1.14.54,1.51,1.45,1,1.49-.51.04-4.03.62-4.03.62,0,0-.57.18.67,1.17,1.25,1.01,8.68,5.52,17.41,7.97,1.03.29,3.13,1.07,4.5,1.58,7,2.31,10.93,4.82,13.19,8.19,0,0,1.7,2.88,1.72,7.84-.14,2.73-1.55,7.8-1.55,7.8,0,0-.44.91-1.25,1.65-.31.29-3.64,3.72-9.72,7.76-4.12,2.73-11.49,7.97-18.11,12.09-7.29,4.53-13.65,7.83-13.65,7.83,0,0-5.2,2.41-8.25,1.53-3.06-.86-6.49-3.69-6.95-12.1-.45-8.39,3.23-18.59,6.37-24.05.11-.48,1.97-2.72.53,1.18-1.43,3.92-4.01,10.83-4.15,13.62-.14,2.8-.41,10.37,2.46,11.6,2.87,1.23,4.68,1.98,14.84-3.01,8.2-4.05,36.8-22.53,37.19-23.91.15-.01.14-1.03-.66-1.99-.81-.96-4.48-4.79-10.09-6.64-5.61-1.84-16.68-5.49-20.82-7.99-4.14-2.5-10.72-7.34-11.04-7.67-.32-.31-2.7-1.84-3.14-2.01-.46-.18-2.02-.55-2.02-.55"/>
        <path class="cls-1" d="M241.19,113.73c-.43-2.61-2.14-4.41-2.14-4.41l-2.87,9.22s2.72,2.94,2.29,4.4c-1.86.41-8.74.15-11.03-3.47-1.14-1.74.58-5.35.58-5.35,0,0,.71-2,.14-2s-1.72.87-3.86,5.28c-1.73,3.34-3.73,7.22-7.67,8.22-3.72,1-7.51-.26-8.87-2.47-1.22-1.74-.15-3.61.29-4.02.43-.39.79-2.13.43-2.33-.36-.2-1.86.54-2.87,1.47-.94.87-4.01,4.2-6.34,5.89,0,0-3.59,2.57-7.69,3.91-3.56,1.04-7.44,1.35-10.34-.58-6.04-4.01-6.85-6.27-6.85-6.27,0,0,14.36-5.64,17.58-5.77,1.35.26,1.47-.37,2.15-1.38.66-1,2.41-6.13,2.41-6.13,0,0,.67-1.14-2.68-2.26-3.36-1.13-9.4-5.89-28.06-5.39-12.88.25-21.47,6.14-21.06,6.14s-.94.13-1.2,8.78c.26-.13,1.08.12,3.48-1.26,2.42-1.37,4.16-2.26,4.97-2.12,2.14.37,3.35,2.38,8.99,6.89-4.29,2.25-16.23,6.39-17.85,6.63-1.61.26-2.68.38-2.68.38,0,0-1.22-2.89-2.93-5.8-.62-1.08-3.2-4.35-5.53-5.41-2.59-1.19-5.57-1.85-8.23-.39-.75.42-2.69,1.39-4.58,4.33-1.81,2.83-3.13,5.3-3.56,9.21-.15,1.42-.07,3.07.27,4.2.27,1.88,4.03,3.63,8.99,3.88,4.97.26,11.55-.62,11.55-.62,0,0,.93,1.76.13,2.88-.8,1.12-12.49,12.04-23.89,17.18-11.41,5.13-24.02,7.89-29.52,1.25-5.51-6.64-.27-21.81,2.15-26.19,1.61-2.75,3.08-6.01,1.61-4.75-1.48,1.24-4.96,4.25-9.12,18.66-3.49,12.78.41,24.44,10.47,25.43,10.06,1.01,27.24-7.13,31.67-10.28,4.43-3.13,16.64-12.14,19.6-19.42l1.75-5.39s18.79-6.13,25.77-10.01c2.95,2.87,6.17,10.65,14.76,12.27,3.86.73,6.72.61,9.01.04.67-.16,1.33-.35,2.06-.61.98-.37,2.81-1.54,2.81-1.54,4.1-2.63,6.59-6.16,6.59-6.16l1-.93s.71-.46.71.67.78,5.55,5.58,6.15c4.16.61,7.3-.4,10.02-3.61,2.43-2.87,3.14-5.28,3.14-5.28,0,0,.72-1.21,1.08-.47.36.73,1.86,4.01,3.65,5.01s4.8,1.87,7.8,1.07c1.72-.54,4.37-3.01,5.37-6.61,1-3.61,1.21-7.08.57-10.76M120.65,125.06s1.08-2.32,3.63-2.82c4.6-.91,8.52,5.01,8.52,5.01-10.06.75-12.15-2.19-12.15-2.19M168.76,115.23s-1.88-2.38-6.32-6.27c11.68-.75,18.26,1.76,18.26,1.76l-11.94,4.51h0Z"/>
        <path class="cls-1" d="M238.48,57.45s1.42-6.23,1.2-9.5-3.17-2.76-5.47-1.54c-2.3,1.23-4.92,4.6-5.36,7.47-.44,2.86,4.82,6.54,4.82,6.54-1.53,2.96-16.87,13.79-16.87,13.79l-3.16,2.04c-3.17,2.05-20.8,12.37-24.52,14.72-3.7,2.35-.91,1.95-.88,1.95,0,0,.45-.29,13.79-6.76,21.23-10.21,30.75-21.86,32.07-23.8,1.31-1.94,1.31-.81,1.31-.81l4.06,2.55,1.86-4.39-2.85-2.25h0ZM236.94,55.92c-.43.51-2.51-1.02-3.61-2.14-1.09-1.12-2.41-1.84-1.32-2.87,1.1-1.02,3.95-1.12,4.71-.2.76.92.22,5.21.22,5.21"/>
        <path class="cls-1" d="M199.81,55.86s1.89-8.31,1.61-12.67c-.29-4.35-4.22-3.67-7.3-2.05-3.06,1.63-6.57,6.14-7.14,9.95-.58,3.81,6.42,8.72,6.42,8.72-2.04,3.95-22.47,18.39-22.47,18.39l-4.23,2.72c-4.22,2.73-27.73,16.48-32.68,19.62-4.94,3.12-1.21,2.59-1.17,2.59,0-.02.6-.37,18.39-9,28.3-13.62,40.99-29.15,42.75-31.73,1.74-2.59,1.74-1.09,1.74-1.09l5.41,3.41,2.48-5.86-3.8-3h-.01ZM197.77,53.83c-.57.67-3.35-1.37-4.81-2.87s-3.21-2.45-1.76-3.82c1.46-1.36,5.26-1.5,6.28-.27,1.02,1.22.29,6.95.29,6.95"/>
        <path class="cls-1" d="M102.24,34.15s6.01-9.41,6.62-10.11c.6-.7,11.43-1.4,14.29-1.12,2.86.28,7.97.57,6.92,5.47-.91,2.95-7.07,12.08-9.03,13.76-1.95,1.68-9.17,3.51-13.83,4.07-4.67.56-5.56.14-4.37-.43,1.21-.56,16.25-8,17.6-9.12l1.36-1.13s0-1.26-1.21-1.26-11.88-.14-14.58.43c-2.71.56-4.06,0-3.76-.56"/>
        <path class="cls-1" d="M431.1,29.2s6.01-9.4,6.61-10.11,11.43-1.41,14.28-1.12c2.86.27,7.97.56,6.92,5.47-.9,2.95-7.06,12.08-9.02,13.76-1.95,1.69-9.17,3.51-13.83,4.07-4.67.57-5.56.14-4.36-.42,1.2-.56,16.24-8,17.59-9.13l1.35-1.12s0-1.26-1.2-1.26-11.88-.14-14.59.42c-2.71.57-4.06,0-3.76-.56"/>
        <path class="cls-1" d="M300.2,26.45s1.85-3.67,6.99-7.42l3.05-2.4s.56-1.27-1.77-.89c-2.33.37-12.61,3.44-16.79,4.42-4.18.97-11.64,3.21-25.46,2.18-7.23-1.06-11.88-3.01-11.88-3.01,0,0,.56,2.62-.57,5.47-.08-.07-.48-6.07-4.9-9.6.24-2.02.48-2.71.48-2.71,0,0-.08-1.27,1.45.16,1.53,1.42,2.01,4.72,14.37,6.22,12.37,1.51,26.02-1.05,35.26-3.89,6.02-1.42,9.32-3,11-2.18.32.3.8,2.02-.08,3.82-.88,1.8-9.47,7.95-9.95,9.08-.65.67-1.37,1.12-1.21.74"/>
        <path class="cls-1" d="M96.3,72.31s-.57,3.78-2.21,7.9c-1.64,4.11-2.99,6.77-2.35,11.29.64,4.51,3.56,4.51,4.05,4.38.5-.13.85-.27,1.07-.73.21-.46.28-.79.63-1.39.37-.59,1.29-1.99,1.29-1.99,0,0,.78-.79.56.61-.21,1.39-.49,3.18-2.48,6.77,0,0-3.13,5.97-6.33,3.38s-2.06-8.97-1.85-10.22c.22-1.26,2-7.1,2.92-9.63s2.7-6.5,2.91-6.97c.22-.47,1.22-2.79,1.22-2.79,0,0,.57-1.19.57-.6"/>
        <path class="cls-1" d="M333.93,38.14s-.57,3.78-2.21,7.9c-1.64,4.12-2.99,6.77-2.35,11.28.64,4.51,3.55,4.51,4.05,4.38s.85-.27,1.07-.73c.22-.46.28-.78.64-1.39.36-.6,1.28-1.99,1.28-1.99,0,0,.78-.8.57.6s-.5,3.19-2.49,6.77c0,0-3.13,5.97-6.33,3.38-3.2-2.59-2.06-8.97-1.85-10.22.22-1.26,1.99-7.11,2.92-9.63.93-2.53,2.7-6.51,2.92-6.96.21-.47,1.21-2.79,1.21-2.79,0,0,.57-1.19.57-.6"/>
        <path class="cls-1" d="M444.99,133.68s-.43,2.88-1.68,6.01c-1.24,3.12-2.27,5.15-1.78,8.58.49,3.43,2.7,3.43,3.07,3.33.38-.11.65-.2.81-.55.16-.35.22-.6.49-1.06s.97-1.51.97-1.51c0,0,.6-.61.43.45-.16,1.06-.38,2.42-1.89,5.15,0,0-2.38,4.55-4.81,2.58-2.44-1.97-1.57-6.81-1.4-7.77.16-.97,1.52-5.41,2.21-7.33.71-1.92,2.05-4.95,2.21-5.3.17-.35.93-2.12.93-2.12,0,0,.43-.9.43-.46"/>
        <path class="cls-1" d="M105.73,124.01s-.43,2.88-1.68,6.01-2.27,5.15-1.78,8.58,2.7,3.43,3.07,3.33c.38-.11.65-.21.81-.56.16-.36.22-.6.48-1.06.27-.46.98-1.51.98-1.51,0,0,.6-.61.44.46-.16,1.06-.38,2.42-1.89,5.14,0,0-2.38,4.55-4.81,2.58-2.44-1.97-1.58-6.81-1.41-7.78.16-.95,1.51-5.4,2.22-7.31.7-1.91,2.05-4.95,2.21-5.3.16-.36.92-2.12.92-2.12,0,0,.43-.91.43-.46"/>
        <path class="cls-1" d="M226.78,75.28s-.57,3.78-2.21,7.9c-1.64,4.11-2.99,6.77-2.35,11.29.64,4.51,3.55,4.51,4.05,4.38.51-.13.85-.27,1.07-.73.22-.47.28-.79.63-1.39.36-.6,1.29-1.99,1.29-1.99,0,0,.78-.8.57.61-.21,1.39-.5,3.18-2.49,6.76,0,0-3.13,5.97-6.33,3.39-3.2-2.59-2.06-8.97-1.85-10.23.21-1.25,1.99-7.1,2.92-9.62.92-2.52,2.7-6.5,2.91-6.97.22-.46,1.21-2.79,1.21-2.79,0,0,.57-1.19.57-.6"/>
        <path class="cls-1" d="M524.88,44.57s-.57,3.79-2.21,7.9c-1.64,4.12-2.99,6.76-2.34,11.29.63,4.51,3.55,4.51,4.05,4.38.5-.14.84-.27,1.07-.73.21-.46.28-.8.63-1.39.35-.6,1.28-1.99,1.28-1.99,0,0,.79-.8.57.61-.2,1.39-.49,3.18-2.48,6.76,0,0-3.13,5.98-6.34,3.39-3.19-2.59-2.05-8.97-1.84-10.23.21-1.26,1.99-7.1,2.92-9.62.92-2.52,2.7-6.5,2.92-6.97.21-.47,1.21-2.79,1.21-2.79,0,0,.57-1.19.57-.6"/>
        <path class="cls-1" d="M498.89,8.92s-.57,3.79-2.21,7.9c-1.63,4.12-2.99,6.77-2.34,11.28.63,4.51,3.55,4.51,4.05,4.38s.85-.27,1.07-.73c.22-.46.28-.79.63-1.39.36-.6,1.28-1.99,1.28-1.99,0,0,.78-.8.57.6-.21,1.39-.5,3.19-2.48,6.77,0,0-3.13,5.97-6.32,3.38-3.2-2.59-2.06-8.96-1.85-10.22s1.98-7.11,2.92-9.62c.92-2.53,2.7-6.51,2.91-6.97.21-.47,1.21-2.79,1.21-2.79,0,0,.57-1.2.57-.61"/>
        <path class="cls-1" d="M414.94,14.98s8.04,18.6,8.12,20.65c0,.38-.32,1.16-1.11.06-.79-1.08-3.26-3.26-3.26-3.26,0,0-.96-.25-.57,2.43.41,2.69,4.3,30.75,4.3,30.75,0,0,2.95,32.42,3.03,33.77.08,1.34,1.03,15.02-.72,21.93-.87,3-1.91,4.34-1.91,4.34,0,0-1.83,3.13-1.43.52.39-2.63.24-14.83-.64-22.64-.88-7.8-2.79-29.41-2.79-29.41l-2.55-21.87-2.23-20.27s-.72-7.99-.87-8.69c-.16-.71-.79-1.99-.79-1.99,0,0-.16,0,.4-.95.56-.97,2.39-4.61,2.39-4.61,0,0,.32-.89.63-.77"/>
        <path class="cls-1" d="M275.1,25.39s8.49,20.19,8.58,22.41c0,.42-.34,1.25-1.18.06-.84-1.17-3.44-3.53-3.44-3.53,0,0-1.01-.28-.59,2.64.41,2.91,4.53,33.38,4.53,33.38,0,0,3.11,35.18,3.19,36.65.09,1.46,1.1,16.3-.75,23.8-.92,3.26-2.01,4.71-2.01,4.71,0,0-1.94,3.41-1.51.56.41-2.85.25-16.11-.68-24.57-.92-8.47-2.94-31.93-2.94-31.93l-2.69-23.73-2.35-22.01s-.76-8.67-.93-9.43c-.16-.76-.84-2.16-.84-2.16,0,0-.17,0,.42-1.04.59-1.03,2.53-4.99,2.53-4.99,0,0,.34-.98.67-.83"/>
        <path class="cls-1" d="M588.69,102.08c.05-1.45.07-3.47-.27-5.03-.35-1.53-1.95-2.74-4.77-1.02-.17.11-.7.46-1.09.91-.65.76-1.81,2.42-3.47,5.99,0,0-3.49,7.93-10.61,6.81,0,0-4.75-.25-8.23-6.81,0,0-1.54,2.72-1.96,8.91,0,0,7.69,10.9,7.41,18.69l-.08.56c-6.66,6.25-9.55,8.66-20.93,14.87-2.55,1.39-4.39,2.65-9.68,4.83-.16.06-3.16,1.2-3.31,1.29-7.96,2.9-15.19,4.16-21.63,4.16-5.81,0-14.84-2.86-18.32-5.6-4.48-3.53-6.23-7.84-7.03-12.69-1.44-8.61.27-12.88.66-16.71.42-4.09-1.56-.48-1.56-.48,0,0,.55-4.63-1.49,4.31-8.26,36.34,18.45,39.79,24.17,40.15,12.95.51,24.29-2.42,36.07-8.81,14.07-7.8,20.86-14.46,22.12-16.19l1.29-1.51s5.3-7.67,3.21-19.81c0,0,3.35.5,7.25-3.21,0,0,2.19-1.73,3.73-6.46.11-.35.55-1.52.92-2.06.9-1.32,2.65-3.34,4.03-1.72.16.39.35.77.55,1.22.19.83.51,2.4.78,4.4,0,0,1.86,1.87,2.24-8.99"/>
        <path class="cls-1" d="M42.82,99.71s-.62.75-.93,5.09c-.38,5.4-.35,8.79-2.76,12.87,0,0-.51.58-.46.22.06-.35.33-2.65.44-3.41.11-.77.49-7.52.44-8.21-.04-.52.08-1.48.43-2.19.26-.52,1.64-3,1.97-3.51s.82-1.07.87-.87"/>
        <path class="cls-1" d="M42.93,98.59s2.19-2.29,3.27-2.7c1.09-.4,2.13.1,1.42,1.17s-2.23,2.45-3.16,2.7-1.91.1-1.91.1c0,0-1.8-.56-2.24-.56s-1.69.86-1.96,1.32c-.16.16-.33-.5.33-1.17.65-.66,1.91-1.38,2.62-1.27.7.11,1.63.4,1.63.4M43.36,98.7s1.36-1.83,3.11-1.98c.6,0-.06,1.02-.28,1.17-.22.15-1.58,1.23-2.84.82"/>
        <path class="cls-1" d="M35.28,107.87s-.44.67-.54,1.48c-.11.82-.5,4.18-1.48,6.11s-2.84,5.61-5.4,6.17c-1.8.15-3.65.1-4.42-2.1,0,0-1.48,3.73-4.04,4.44-2.57.71-5.84-.1-5.29-4.03-1.75,1.89-6.33,4.18-7.48,4.33-.76.21-.87-.15-.16-.71s6.82-5.04,8.13-6.31,2.02-2.14,2.24-1.98c.22.15,0,.5-.27,1.11-.28.61.16,2.2.92,2.86.77.66,3.06,1.16,5.84-.92,0-1.28.11-1.53.38-1.98.27-.46,1.75-2.71,1.86-2.96.11-.26.54-.36.49-.05s-.33.86-.38,1.22c-.06.36.22,1.94,1.09,2.34.87.41,3.87.36,5.08-1.17.16-1.49.11-3.42.33-3.98s2.35-3.72,3.06-3.97c.7-.25.05.1.05.1"/>
        <path class="cls-1" d="M30,105.35s-1.25,5-3.22,3.16c-.49.67-1.42,2.39-2.61,2.14-1.2-.26-1.31-1.58-.99-2.24.33-.66.6-.97.6-.21,0,1.07,1.03,1.02,1.42.92.6-.16,1.26-1.17,1.42-1.53.16-.36.27-.87.43-.67.17.21,1.04,1.18,1.75.1.28-.81.98-2.03,1.2-1.68"/>
        <path class="cls-1" d="M47.85,116.25l-1.28,1.9s-.16.24.16.39c.32.15,1.73,1.02,1.73,1.28.03.21.25.27.41.03s1.31-1.82,1.31-1.82c0,0,.19-.42-.19-.68-.39-.27-1.82-1.23-1.82-1.23,0,0-.19-.08-.32.12"/>
        <path class="cls-1" d="M40.05,118.55l-1.28,1.91s-.16.24.16.39c.32.15,1.73,1.02,1.73,1.28.03.21.26.27.42.03.16-.24,1.31-1.82,1.31-1.82,0,0,.2-.42-.19-.68-.39-.27-1.82-1.23-1.82-1.23,0,0-.19-.09-.32.12"/>
        <path class="cls-1" d="M58.18,131.61l1.15-1.67s.29-.48.63-.27c.36.21,1.88,1.13,1.86,1.43-.03.3-.96,1.43-1.15,1.73-.19.3-.41.66-.54.54-.13-.13-.23-.27-.38-.43-.16-.15-1.48-1.07-1.64-1.07-.09.27-.89,1.31-1.02,1.52-.12.21-.35.57-.48.57s-.19-.15-.41-.36-1.48-.87-1.48-.87c0,0-.41-.21-.32-.41.1-.21,1.25-1.97,1.25-1.97,0,0,.13-.3.48-.06.35.23,1.82,1.25,1.82,1.25,0,0,.19.14.22.05"/>
        <path class="cls-1" d="M37.57,131.65c.75-.08,2.81-.51,3.62-.75.77-.24,4.29-1.34,5.71-1.92,2.46.88,6.74-1.83,6.74-1.83.41-.21,3.94-2.63,4.29-3.04.36-.43.04-.46.04-.46,0,0-1.34-.17-4.24-.71,3.03-2.83,7.32-3.42,7.99-3.67,1.3-1.45,1.39-1.83,1.39-1.83,0,0-6.83,1.17-11.12,6.39,0,0,.5.13.76.07.27-.03,3.75.59,3.75.59,0,0-1.16.75-1.66,1.05,0,0-3.93,2.54-6.3,2.46.63-.75,1.16-2.04,1.21-2.46.05-.41-.01-1.36-.49-1.67-.59-.38-1.88-.3-2.91.83-1.02,1.12-1.34,2.38-1.38,2.71-.04.34.36.96.36.96l-1.65.59-1.97.5-2.72.54s1.61-1.08,2.27-1.71c.96-.9,2.41-2.38,2.59-2.71.18-.34.58-1.17.09-1.46-.5-.29-1.58-.74-2.34-.7-.66.04-.97,0-1.63.45,0,0-3.31,2.58-4.69,3.87-1.38,1.29-1.61,1.46-1.61,1.46,0,0,1.02-1.88,1.25-2.42.22-.54,1.11-4.05,1.25-6.09.13-2.04.45-6.42.45-6.8s.13-1,.26-1.37c.13-.38.36-.83.36-1.04s-.18-.17-.45.37-1.52,2.71-1.66,3.59c-.13.87-.76,10.25-1.02,11.34-.27,1.08-.72,2.79-1.11,3.12-.29.24-1.3,1.04-1.52,1.29-.23.26-.89.34-1.16.47-.27.12-8.26,2.08-17.37.33-5.85-1.25-7.9-2.83-8.58-2.92-.66-.09-1.21.83-1.43,1.25-.22.41-2.76,4.37-2.76,4.37,0,0-.45,1.04.09.5.53-.53,2.5-3.33,2.5-3.33,0,0,.31-.78.89-.41.58.38,5.4,3.17,12.28,3.42s14.96-1.46,18.26-2.5l1.44-.54s1.07-.09,1.91-.16M47,127.85s1.48-.58,1.74-.96c.27-.38.04-1.25-.36-1.67-.41-.42-2.05.13-2.5.62-.45.51.3,1.48.49,1.59.22.13.41.46.63.42M32.49,131.11s4.51-4.05,5.04-4.34c.54-.3,1.97-1.42,3.17-1.09,1.21.34,1.47.5,1.34.75-.13.26-2.91,2.34-5.94,3.47-2.68,1.04-3.61,1.21-3.61,1.21"/>
        <path class="cls-1" d="M25.14,122.46s-1.06,3-1.16,4.17c0,0-.28,1.38.8,1.67,0,0,.55-.05,1.14-1.12,0,0,.53-.41.39.47,0,0-.83,1.85-1.44,2.1,0,0-1.53.49-1.92-1.63,0,0,.19-2.9,1.64-5.61,0,0,.39-.53.56-.05"/>
        <path class="cls-1" d="M48.44,110.49s.05-1.04.34-1.36c0,0,5.78-2.36,9.67-3.71l-.25,1.23-9.76,3.84h0Z"/>
        <path class="cls-1" d="M23.47,104.14s.04-.92.31-1.21c0,0,5.11-2.08,8.56-3.29l-.23,1.1-8.64,3.39h0Z"/>
        <path class="cls-1" d="M29.31,96.24s-.51,1.71-1.25,1.1c0,0-.94-.44.3-2.44,0,0,1.11-1.49.99-3.95,0,0-.33-3.36-2.54-4.67l-.55,1.27s2.22,1.89,2.24,4.14c0,0,.3,1.08-.74,2.72-.95,2.16-1.15,3.98-.05,4.45,0,0,.88.68,1.67-1.13,0,0,.35-.86.23-1.46,0,0-.16-.28-.3-.03"/>
        <path class="cls-1" d="M20.37,103.18c-1.54-1.58-2.24-.89-2.24-.89-.55.41-.09.75-.09.75l-.15.23-.23.74c-.05.32-.08.14.04.6.12.45.77.43.77.43v.07c-.82.99-2.7,1.68-3.96,2.5s-1.16.74-1.04.74c.13,0,1.43-.4,1.71-.47.28-.06,2.12-.9,2.98-1.7.87-.8,1.01-1.04,1.01-1.04.08-.02.55,0,.55,0,.46.07.7.03.7.03,0,0,1.06-.94-.06-1.97M18.97,104.15c-.44.07-.84-.11-.84-.11.12-.64.56-.65.56-.65.39.3.28.76.28.76M19.4,104.27s0-.48.1-.57c.11-.1.45.24.52.33.08.08.28.2.29.38.02.08-.73-.16-.91-.14"/>
      </g>
    </g>
  </g>
</svg>