<?xml version="1.0" encoding="UTF-8"?>
<svg id="Layer_2" data-name="Layer 2" xmlns="http://www.w3.org/2000/svg" viewBox="0 0 174.17 53.07">
  <defs>
    <style>
      .cls-1 {
        fill: none;
        stroke: #fdc029;
        stroke-miterlimit: 10;
        stroke-width: .5px;
      }

      .cls-2 {
        fill: #fdc029;
      }

      .cls-3 {
        fill: #015d45;
      }
    </style>
  </defs>
  <g id="Layer_1-2" data-name="Layer 1">
    <g>
      <path class="cls-3" d="M10.08,13.76v.3c0,.07-.06.13-.13.13h-.55c-.37,0-.74-.05-1.07-.16-.26.1-.52.17-.78.17h0c-.45.07-.49.3-.49.61,0,.43.14.59.95.59.42,0,.78-.06,1.02-.09v.59c-.3.03-.59.07-1.01.07-1.05,0-1.67-.22-1.67-1.17,0-.82.43-1.1,1.27-1.16-.46-.35-.78-.89-.87-1.68-.08.02-.15.05-.23.08l-.19-.55c.66-.27,1.29-.4,1.82-.39.95,0,1.54.44,1.57,1.1.02.54-.29,1.06-.73,1.43h.98c.07,0,.13.06.13.13ZM8.26,13.53c.5-.25.82-.88.73-1.31-.08-.34-.41-.5-.87-.51-.23,0-.51.02-.81.1.34,1.08.53,1.55.95,1.73Z"/>
      <path class="cls-3" d="M14.24,13.76v.3c0,.07-.06.13-.13.13-.32,0-.59-.09-.81-.25-.23.17-.54.26-.96.26h-.06c-.38,0-.66-.09-.89-.21-.19.17-.51.2-.96.2h-.48c-.07,0-.13-.06-.13-.13v-.3c0-.07.06-.13.13-.13h.48c.38,0,.48-.03.48-.3v-1.88c.35-.18.84-.34,1.39-.34.98,0,1.45.48,1.45,1.36v.39c0,.26-.04.48-.12.66.14.06.31.1.48.1.07,0,.13.06.13.13ZM13.05,12.42c0-.49-.25-.73-.78-.73-.33,0-.57.08-.66.13v1.68c.14.07.37.14.66.14h.02c.51,0,.74-.24.74-.71v-.5Z"/>
      <path class="cls-3" d="M16.38,13.76v.3c0,.07-.06.13-.13.13-.26,0-.52-.06-.7-.2-.19.17-.51.2-.96.2h-.48c-.07,0-.13-.06-.13-.13v-.3c0-.07.06-.13.13-.13h.48c.39,0,.48-.03.48-.3v-2.13h.7v2.2c0,.2.22.23.48.23.07,0,.13.06.13.13ZM14.89,9.95v.63h-.66v-.63h.66ZM15.75,9.95v.63h-.66v-.63h.66Z"/>
      <path class="cls-3" d="M19.98,13.76v.3c0,.07-.06.13-.13.13h-3.6c-.07,0-.13-.06-.13-.13v-.3c0-.07.06-.13.13-.13h2.54c-.1-.19-.15-.43-.15-.71v-.58c0-.46-.21-.66-.67-.66-.43,0-.74.1-.99.23l-.17-.56c.21-.08.61-.26,1.25-.26.89,0,1.29.46,1.29,1.28v.62c0,.36.17.65.5.65.07,0,.13.06.13.13ZM18.02,15.5v-.62h.71v.62h-.71Z"/>
      <path class="cls-3" d="M23.65,12.47v.39c0,.86-.45,1.33-1.41,1.33h-.06c-.38,0-.66-.09-.89-.21-.19.17-.51.2-.96.2h-.48c-.07,0-.13-.06-.13-.13v-.3c0-.07.06-.13.13-.13h.48c.38,0,.48-.03.48-.3v-1.88c.35-.18.84-.34,1.39-.34.98,0,1.45.48,1.45,1.36ZM22.95,12.42c0-.49-.25-.73-.78-.73-.33,0-.57.08-.66.13v1.68c.14.07.37.14.66.14h.02c.51,0,.74-.24.74-.71v-.5Z"/>
      <path class="cls-3" d="M29.47,13.63v.56h-1.58c-.46,0-.69.02-.86.14l-.04-.02v-.54c.14-.03.33-.1.63-.12-.18-.18-.27-.42-.27-.7v-.08c0-1.13,1.01-1.35,2-.96l-.13.54c-.54-.28-1.17-.24-1.17.45v.18c0,.35.23.56.64.56h.78Z"/>
      <path class="cls-3" d="M31.37,13.76v.3c0,.07-.06.13-.13.13h-1.18v-4.43h.7v3.87h.48c.07,0,.13.06.13.13Z"/>
      <path class="cls-3" d="M32.18,13.67v.38c0,.08-.06.14-.14.14h-.8c-.08,0-.14-.06-.14-.14v-.38c0-.07.06-.14.14-.14h.8c.08,0,.14.07.14.14Z"/>
      <path class="cls-3" d="M32.98,13.67v.38c0,.08-.06.14-.14.14h-.8c-.08,0-.14-.06-.14-.14v-.38c0-.07.06-.14.14-.14h.8c.08,0,.14.07.14.14Z"/>
      <path class="cls-3" d="M33.79,13.67v.38c0,.08-.06.14-.14.14h-.8c-.08,0-.14-.06-.14-.14v-.38c0-.07.06-.14.14-.14h.8c.08,0,.14.07.14.14Z"/>
      <path class="cls-3" d="M34.59,13.67v.38c0,.08-.06.14-.14.14h-.8c-.08,0-.14-.06-.14-.14v-.38c0-.07.06-.14.14-.14h.8c.08,0,.14.07.14.14Z"/>
      <path class="cls-3" d="M35.39,13.67v.38c0,.08-.06.14-.14.14h-.8c-.08,0-.14-.06-.14-.14v-.38c0-.07.06-.14.14-.14h.8c.08,0,.14.07.14.14Z"/>
      <path class="cls-3" d="M36.18,13.67v.38c0,.08-.06.14-.14.14h-.8c-.08,0-.14-.06-.14-.14v-.38c0-.07.06-.14.14-.14h.8c.08,0,.14.07.14.14Z"/>
      <path class="cls-3" d="M38.31,13.76v.3c0,.07-.06.13-.13.13-.26,0-.52-.06-.7-.2-.19.17-.51.2-.96.2h-.48c-.07,0-.13-.06-.13-.13v-.3c0-.07.06-.13.13-.13h.48c.39,0,.48-.03.48-.3v-2.13h.7v2.2c0,.2.22.23.48.23.07,0,.13.06.13.13ZM37.51,9.95v.62h-.71v-.62h.71Z"/>
      <path class="cls-3" d="M39.85,11.2v2.99h-1.66c-.07,0-.13-.06-.13-.13v-.3c0-.07.06-.13.13-.13h.96v-2.43h.7ZM38.43,15.5v-.62h.72v.62h-.72Z"/>
      <path class="cls-3" d="M49.66,13.76v.3c0,.07-.06.13-.13.13h-1.18v-2.37c-.09-.05-.33-.13-.66-.13-.53,0-.78.24-.78.73v.56c0,.38.18.66.58.66h.17v.56h-2.86c-.91,0-1.33-.48-1.33-1.29v-1.14h.7v1.2c0,.47.23.67.72.67h1.61c-.19-.21-.28-.5-.28-.87v-.28c0-.88.46-1.38,1.45-1.38.55,0,1.04.16,1.39.33v2.2h.48c.07,0,.13.06.13.13ZM44.79,15.5v-.62h.66v.62h-.66ZM45.65,15.5v-.62h.66v.62h-.66Z"/>
      <path class="cls-3" d="M53.16,11.42v2.77h-3.62c-.07,0-.13-.06-.13-.13v-.3c0-.07.06-.13.13-.13h1.05c-.18-.19-.26-.46-.26-.82v-.38c0-.86.46-1.34,1.42-1.34.58,0,1.06.16,1.42.33ZM52.46,13.63v-1.82c-.11-.04-.35-.13-.68-.13-.51,0-.74.24-.74.71v.57c0,.42.26.67.75.67h.67ZM52.11,9.95v.62h-.71v-.62h.71Z"/>
      <path class="cls-3" d="M60.18,13.76v.3c0,.07-.06.13-.13.13-.26,0-.54-.06-.72-.21-.28.1-.7.21-1.13.21h-.06c-.96,0-1.41-.48-1.41-1.34v-.4c0-.88.47-1.36,1.45-1.36.56,0,1.05.15,1.39.33v1.98c0,.2.22.23.48.23.07,0,.13.06.13.13ZM58.03,9.95v.63h-.66v-.63h.66ZM58.87,11.8c-.08-.05-.32-.13-.65-.13-.54,0-.78.25-.78.73v.5c0,.47.23.71.74.71h.2c.22-.02.38-.07.49-.12v-1.7ZM58.9,9.95v.63h-.66v-.63h.66Z"/>
      <path class="cls-3" d="M62.32,13.76v.3c0,.07-.06.13-.13.13-.26,0-.52-.06-.7-.2-.19.17-.51.2-.96.2h-.48c-.07,0-.13-.06-.13-.13v-.3c0-.07.06-.13.13-.13h.48c.39,0,.48-.03.48-.3v-2.13h.7v2.2c0,.2.22.23.48.23.07,0,.13.06.13.13ZM59.94,15.5v-.62h.66v.62h-.66ZM60.8,15.5v-.62h.66v.62h-.66Z"/>
      <path class="cls-3" d="M66.65,11.2h.7v1.66c0,.91-.5,1.33-1.14,1.33-.35,0-.69-.13-.91-.34-.19.22-.5.34-.93.34h-2.18c-.07,0-.13-.06-.13-.13v-.3c0-.07.06-.13.13-.13h.96v-2.13h.7v2.13h.43c.41,0,.58-.21.58-.62v-1.5h.7v1.44c0,.15-.02.3-.05.43.15.15.33.25.58.25.33,0,.54-.18.54-.54v-1.89Z"/>
      <path class="cls-3" d="M69.63,13.76v.3c0,.07-.06.13-.13.13h-1.18v-4.43h.7v3.87h.48c.07,0,.13.06.13.13Z"/>
      <path class="cls-3" d="M73.95,11.2h.7v1.66c0,.91-.5,1.33-1.14,1.33-.35,0-.69-.13-.91-.34-.19.22-.5.34-.93.34h-2.18c-.07,0-.13-.06-.13-.13v-.3c0-.07.06-.13.13-.13h.96v-2.13h.7v2.13h.43c.41,0,.58-.21.58-.62v-1.5h.7v1.44c0,.15-.02.3-.05.43.15.15.33.25.58.25.33,0,.54-.18.54-.54v-1.89Z"/>
      <path class="cls-3" d="M76.54,9.02v.29h-1.14v-.29h.2c-.04-.06-.06-.14-.06-.26h0c0-.54.47-.63.93-.45l-.09.28c-.28-.14-.5-.09-.5.14v.13c0,.11.07.16.2.16h.46ZM75.62,14.19v-4.43h.7v4.43h-.7Z"/>
      <path class="cls-3" d="M82.72,11.42v2.45c-.24.13-.78.31-1.37.31h-.06c-.96,0-1.41-.48-1.41-1.34v-.4c0-.88.47-1.36,1.45-1.36.56,0,1.05.15,1.39.33ZM81.19,9.95v.63h-.66v-.63h.66ZM82.02,11.8c-.08-.05-.32-.13-.65-.13-.54,0-.78.25-.78.73v.5c0,.47.23.71.74.71h.2c.22-.02.38-.07.49-.12v-1.7ZM82.05,9.95v.63h-.66v-.63h.66Z"/>
      <path class="cls-3" d="M87.14,13.76v.3c0,.07-.06.13-.13.13-.8,0-1.19-.11-1.19-.89v-1.54h-.61c-.38,0-.59.06-.7.12v2.44c0,.97-.49,1.47-1.62,1.42v-.56c.7.05.91-.26.91-.82v-2.85c.21-.11.66-.3,1.39-.3h1.34v2.13c0,.27.1.3.49.3.07,0,.13.06.13.13ZM84.52,9.95v.62h-.72v-.62h.72ZM84.92,15.5v-.62h.66v.62h-.66ZM85.79,15.5v-.62h.66v.62h-.66Z"/>
      <path class="cls-3" d="M90.83,12.52v.38c0,.82-.45,1.3-1.38,1.3h-2.44c-.07,0-.13-.06-.13-.13v-.3c0-.07.06-.13.13-.13h2.36c.49,0,.74-.25.74-.67v-.51c0-.41-.26-.66-.74-.66h-1.76v-.56l1.1-1.49h.82l-1.12,1.49h1.05c.92,0,1.37.49,1.37,1.3Z"/>
      <path class="cls-3" d="M90.86,15.17c.71.05.92-.26.92-.82v-3.16h.7v3.12c0,.97-.49,1.47-1.62,1.42v-.56Z"/>
      <path class="cls-3" d="M98.9,13.76v.3c0,.07-.06.13-.13.13-.23,0-.45-.06-.6-.19-.2.16-.51.19-.94.19h-1.34v-.56h1.34c.39,0,.48-.03.48-.3v-.91c0-.49-.24-.73-.78-.73-.3,0-.55.06-.76.14l-.12-.58c.16-.05.58-.14.92-.14.98,0,1.44.47,1.44,1.36v.93c0,.18.13.23.36.23.07,0,.13.06.13.13Z"/>
      <path class="cls-3" d="M102.97,13.76v.3c0,.07-.06.13-.13.13h-.54c-.38,0-.74-.05-1.08-.17-.26.11-.53.17-.78.17h-1.66c-.07,0-.13-.06-.13-.13v-.3c0-.07.06-.13.13-.13h1.71c-.44-.35-.76-.9-.85-1.67-.08.02-.15.06-.23.08l-.19-.55c.66-.27,1.29-.4,1.82-.39.94,0,1.54.45,1.57,1.09.02.55-.29,1.07-.74,1.45h.97c.07,0,.13.06.13.13ZM101.16,13.52c.5-.24.83-.87.73-1.31-.08-.34-.4-.5-.86-.51-.24,0-.51.03-.81.1.33,1.08.53,1.55.94,1.73Z"/>
      <path class="cls-3" d="M104.51,11.2v2.99h-1.66c-.07,0-.13-.06-.13-.13v-.3c0-.07.06-.13.13-.13h.96v-2.43h.7ZM102.79,15.5v-.62h.66v.62h-.66ZM103.65,15.5v-.62h.66v.62h-.66Z"/>
      <path class="cls-3" d="M114.32,13.76v.3c0,.07-.06.13-.13.13h-1.18v-2.37c-.09-.05-.33-.13-.66-.13-.53,0-.78.24-.78.73v.56c0,.38.18.66.58.66h.17v.56h-2.86c-.91,0-1.33-.48-1.33-1.29v-1.14h.7v1.2c0,.47.23.67.72.67h1.61c-.19-.21-.28-.5-.28-.87v-.28c0-.88.46-1.38,1.45-1.38.55,0,1.04.16,1.39.33v2.2h.48c.07,0,.13.06.13.13ZM109.45,15.5v-.62h.66v.62h-.66ZM110.31,15.5v-.62h.66v.62h-.66Z"/>
      <path class="cls-3" d="M117.92,13.76v.3c0,.07-.06.13-.13.13h-3.6c-.07,0-.13-.06-.13-.13v-.3c0-.07.06-.13.13-.13h2.54c-.1-.19-.15-.43-.15-.71v-.58c0-.46-.21-.66-.67-.66-.43,0-.74.1-.99.23l-.17-.56c.21-.08.61-.26,1.25-.26.89,0,1.29.46,1.29,1.28v.62c0,.36.17.65.5.65.07,0,.13.06.13.13Z"/>
      <path class="cls-3" d="M119.46,11.2v2.99h-1.66c-.07,0-.13-.06-.13-.13v-.3c0-.07.06-.13.13-.13h.96v-2.43h.7ZM118.04,15.5v-.62h.72v.62h-.72Z"/>
      <path class="cls-3" d="M121.84,13.76v.3c0,.07-.06.13-.13.13h-.48v.13c0,.97-.49,1.47-1.62,1.42v-.56c.71.05.92-.26.92-.82v-3.16h.7v2.43h.48c.07,0,.13.06.13.13Z"/>
      <path class="cls-3" d="M123.33,9.76v4.43h-1.62c-.07,0-.13-.06-.13-.13v-.3c0-.07.06-.13.13-.13h.91v-3.87h.7Z"/>
      <path class="cls-3" d="M124.29,14.19v-4.43h.7v4.43h-.7Z"/>
      <path class="cls-3" d="M132.25,13.76v.3c0,.07-.06.13-.13.13-.8,0-1.19-.11-1.19-.89v-1.54h-.61c-.38,0-.59.06-.7.12v2.44c0,.97-.49,1.47-1.62,1.42v-.56c.7.05.91-.26.91-.82v-2.85c.21-.11.66-.3,1.39-.3h1.33v2.13c0,.27.1.3.49.3.07,0,.13.06.13.13ZM130.04,15.5v-.62h.66v.62h-.66ZM130.9,15.5v-.62h.66v.62h-.66Z"/>
      <path class="cls-3" d="M135.68,13.63v.56h-3.56c-.07,0-.13-.06-.13-.13v-.3c0-.07.06-.13.13-.13h1.03c-.18-.19-.26-.46-.26-.82v-.38c0-.87.48-1.35,1.46-1.33.59,0,.97.11,1.22.22l-.17.56c-.31-.11-.59-.18-.98-.19-.5,0-.82.21-.82.72v.41c0,.57.2.82.75.82h1.33ZM134.67,9.95v.62h-.71v-.62h.71Z"/>
      <path class="cls-3" d="M140.45,14.19c-.9,0-.93.23-.93.61,0,.44.14.59.95.59.42,0,.78-.05,1.03-.08v.58c-.31.03-.61.07-1.02.07-1.05,0-1.67-.22-1.67-1.17,0-.62.25-.88.74-.98-.33-.18-.49-.52-.49-1.01v-.38c0-.87.48-1.35,1.46-1.34.59,0,.97.12,1.22.22l-.17.57c-.31-.11-.59-.19-.98-.19-.5,0-.82.2-.82.72v.41c0,.57.2.82.75.82h1.33v.56h-1.42Z"/>
      <path class="cls-3" d="M143.77,13.76v.3c0,.07-.06.13-.13.13h-1.18v-4.43h.7v3.87h.48c.07,0,.13.06.13.13Z"/>
      <path class="cls-3" d="M144.58,13.67v.38c0,.08-.06.14-.14.14h-.8c-.08,0-.14-.06-.14-.14v-.38c0-.07.06-.14.14-.14h.8c.08,0,.14.07.14.14Z"/>
      <path class="cls-3" d="M145.38,13.67v.38c0,.08-.06.14-.14.14h-.8c-.08,0-.14-.06-.14-.14v-.38c0-.07.06-.14.14-.14h.8c.08,0,.14.07.14.14Z"/>
      <path class="cls-3" d="M146.18,13.67v.38c0,.08-.06.14-.14.14h-.8c-.08,0-.14-.06-.14-.14v-.38c0-.07.06-.14.14-.14h.8c.08,0,.14.07.14.14Z"/>
      <path class="cls-3" d="M146.98,13.67v.38c0,.08-.06.14-.14.14h-.8c-.08,0-.14-.06-.14-.14v-.38c0-.07.06-.14.14-.14h.8c.08,0,.14.07.14.14Z"/>
      <path class="cls-3" d="M147.78,13.67v.38c0,.08-.06.14-.14.14h-.8c-.08,0-.14-.06-.14-.14v-.38c0-.07.06-.14.14-.14h.8c.08,0,.14.07.14.14Z"/>
      <path class="cls-3" d="M152.75,13.76v.3c0,.07-.06.13-.13.13-.23,0-.45-.06-.6-.19-.19.16-.5.19-.94.19h-3.44c-.07,0-.13-.06-.13-.13v-.3c0-.07.06-.13.13-.13h.96v-3.87h.7v1.99c.34-.22,1.07-.69,1.78-.67.71.02,1.18.4,1.18,1.29v1.03c0,.18.13.23.36.23.07,0,.13.06.13.13ZM151.55,12.34c0-.5-.23-.69-.65-.68-.53,0-1.23.5-1.6.78v1.18h1.78c.39,0,.47-.03.47-.3v-.98Z"/>
      <path class="cls-3" d="M156.77,13.76v.3c0,.07-.06.13-.13.13h-4.02c-.07,0-.13-.06-.13-.13v-.3c0-.07.06-.13.13-.13h1.05c-.18-.19-.26-.46-.26-.82v-.38c0-.88.51-1.34,1.44-1.34s1.44.46,1.44,1.34v.38c0,.35-.09.62-.26.82h.62c.07,0,.13.06.13.13ZM154.73,9.95v.63h-.66v-.63h.66ZM154.11,12.96c0,.42.26.66.74.67.48,0,.74-.26.74-.67v-.58c0-.44-.25-.7-.74-.7-.49,0-.74.26-.74.7v.58ZM155.6,9.95v.63h-.66v-.63h.66Z"/>
      <path class="cls-3" d="M158.26,9.76v4.43h-1.62c-.07,0-.13-.06-.13-.13v-.3c0-.07.06-.13.13-.13h.91v-3.87h.7Z"/>
      <path class="cls-3" d="M159.22,14.19v-4.43h.7v4.43h-.7Z"/>
      <path class="cls-3" d="M161.09,13.42l-.54-.51.9-.92-.9-.94.52-.5,1.38,1.46-1.36,1.42ZM162.57,13.42l-.54-.51.9-.92-.9-.94.52-.5,1.38,1.46-1.35,1.42Z"/>
      <path class="cls-3" d="M9.8,23.76v.3c0,.07-.06.13-.13.13h-.48v.74c-.21.13-.69.37-1.56.37-.99,0-1.45-.5-1.45-1.39v-1.44h.7v1.54c0,.5.27.73.84.73.35,0,.61-.07.76-.14v-3.37h.7v2.4h.48c.07,0,.13.06.13.13ZM7.88,20.6v.62h-.71v-.62h.71Z"/>
      <path class="cls-3" d="M13.47,22.47v.39c0,.86-.45,1.33-1.41,1.33h-.06c-.38,0-.66-.09-.89-.21-.19.17-.51.2-.96.2h-.48c-.07,0-.13-.06-.13-.13v-.3c0-.07.06-.13.13-.13h.48c.38,0,.48-.03.48-.3v-1.88c.35-.18.84-.34,1.39-.34.98,0,1.45.48,1.45,1.36ZM12.77,22.42c0-.49-.25-.73-.78-.73-.33,0-.57.08-.66.13v1.68c.14.07.37.14.66.14h.02c.51,0,.74-.24.74-.71v-.5Z"/>
      <path class="cls-3" d="M16.91,21.41v2.9c0,.91-.42,1.42-1.44,1.42h-.74v-.57h.74c.56,0,.74-.3.74-.81v-.17h-.72c-.96,0-1.41-.48-1.41-1.34v-.4c0-.88.46-1.36,1.44-1.36.56,0,1.04.15,1.39.32ZM16.21,21.8c-.08-.05-.32-.13-.65-.13-.54,0-.78.24-.78.73v.5c0,.47.23.72.75.72h.68v-1.82Z"/>
      <path class="cls-3" d="M23.08,23.76v.3c0,.07-.06.13-.13.13-.26,0-.54-.06-.72-.21-.28.1-.7.21-1.13.21h-.06c-.96,0-1.41-.48-1.41-1.34v-.4c0-.88.47-1.36,1.45-1.36.56,0,1.05.15,1.39.33v1.98c0,.2.22.23.48.23.07,0,.13.06.13.13ZM20.94,19.95v.63h-.66v-.63h.66ZM21.77,21.8c-.08-.05-.32-.13-.65-.13-.54,0-.78.25-.78.73v.5c0,.47.23.71.74.71h.2c.22-.02.38-.07.49-.12v-1.7ZM21.8,19.95v.63h-.66v-.63h.66Z"/>
      <path class="cls-3" d="M26.75,22.47v.39c0,.86-.45,1.33-1.41,1.33h-.06c-.38,0-.66-.09-.89-.21-.19.17-.51.2-.96.2h-.48c-.07,0-.13-.06-.13-.13v-.3c0-.07.06-.13.13-.13h.48c.38,0,.48-.03.48-.3v-1.88c.35-.18.84-.34,1.39-.34.98,0,1.45.48,1.45,1.36ZM26.05,22.42c0-.49-.25-.73-.78-.73-.33,0-.57.08-.66.13v1.68c.14.07.37.14.66.14h.02c.51,0,.74-.24.74-.71v-.5Z"/>
      <path class="cls-3" d="M27.6,24.19v-4.43h.7v4.43h-.7Z"/>
      <path class="cls-3" d="M31.88,23.76v.3c0,.07-.06.13-.13.13-.23,0-.45-.06-.6-.19-.2.16-.51.19-.94.19h-1.34v-.56h1.34c.39,0,.48-.03.48-.3v-.91c0-.49-.24-.73-.78-.73-.29,0-.55.06-.76.14l-.12-.58c.16-.05.58-.14.92-.14.98,0,1.44.47,1.44,1.36v.93c0,.18.13.23.36.23.07,0,.13.06.13.13Z"/>
      <path class="cls-3" d="M34.02,23.76v.3c0,.07-.06.13-.13.13-.26,0-.52-.06-.7-.2-.19.17-.51.2-.96.2h-.48c-.07,0-.13-.06-.13-.13v-.3c0-.07.06-.13.13-.13h.48c.39,0,.48-.03.48-.3v-2.13h.7v2.2c0,.2.22.23.48.23.07,0,.13.06.13.13ZM32.52,19.95v.63h-.66v-.63h.66ZM33.39,19.95v.63h-.66v-.63h.66Z"/>
      <path class="cls-3" d="M39.65,23.76v.3c0,.07-.06.13-.13.13-.34,0-.62-.1-.85-.27-.2.18-.46.27-.76.27-.35,0-.69-.13-.91-.34-.19.22-.5.34-.93.34h-2.18c-.07,0-.13-.06-.13-.13v-.3c0-.07.06-.13.13-.13h.96v-2.13h.7v2.13h.43c.41,0,.58-.21.58-.62v-1.5h.7v1.44c0,.15-.02.3-.05.43.15.15.33.25.58.25.33,0,.54-.18.54-.54v-1.89h.7v1.66c0,.24-.03.45-.1.62.15.1.36.15.57.15.07,0,.13.06.13.13Z"/>
      <path class="cls-3" d="M43.81,23.76v.3c0,.07-.06.13-.13.13-.32,0-.59-.09-.81-.25-.23.17-.54.26-.96.26h-.06c-.38,0-.66-.09-.89-.21-.19.17-.51.2-.96.2h-.48c-.07,0-.13-.06-.13-.13v-.3c0-.07.06-.13.13-.13h.48c.38,0,.48-.03.48-.3v-1.88c.35-.18.84-.34,1.39-.34.98,0,1.45.48,1.45,1.36v.39c0,.26-.04.48-.12.66.14.06.31.1.48.1.07,0,.13.06.13.13ZM42.62,22.42c0-.49-.25-.73-.78-.73-.33,0-.57.08-.66.13v1.68c.14.07.37.14.66.14h.02c.51,0,.74-.24.74-.71v-.5Z"/>
      <path class="cls-3" d="M45.3,19.76v4.43h-1.62c-.07,0-.13-.06-.13-.13v-.3c0-.07.06-.13.13-.13h.91v-3.87h.7Z"/>
      <path class="cls-3" d="M46.26,24.19v-4.43h.7v4.43h-.7Z"/>
      <path class="cls-3" d="M53.13,23.76v.3c0,.07-.06.13-.13.13-.26,0-.54-.06-.72-.21-.28.1-.7.21-1.13.21h-.06c-.96,0-1.41-.48-1.41-1.34v-.4c0-.88.47-1.36,1.45-1.36.56,0,1.05.15,1.39.33v1.98c0,.2.22.23.48.23.07,0,.13.06.13.13ZM50.99,19.95v.63h-.66v-.63h.66ZM51.82,21.8c-.08-.05-.32-.13-.65-.13-.54,0-.78.25-.78.73v.5c0,.47.23.71.74.71h.2c.22-.02.38-.07.49-.12v-1.7ZM51.85,19.95v.63h-.66v-.63h.66Z"/>
      <path class="cls-3" d="M55.28,23.76v.3c0,.07-.06.13-.13.13-.26,0-.52-.06-.7-.2-.19.17-.51.2-.96.2h-.48c-.07,0-.13-.06-.13-.13v-.3c0-.07.06-.13.13-.13h.48c.39,0,.48-.03.48-.3v-2.13h.7v2.2c0,.2.22.23.48.23.07,0,.13.06.13.13ZM52.9,25.5v-.62h.66v.62h-.66ZM53.76,25.5v-.62h.66v.62h-.66Z"/>
      <path class="cls-3" d="M59.44,23.76v.3c0,.07-.06.13-.13.13-.32,0-.59-.09-.81-.25-.23.17-.54.26-.96.26h-.06c-.38,0-.66-.09-.89-.21-.19.17-.51.2-.96.2h-.48c-.07,0-.13-.06-.13-.13v-.3c0-.07.06-.13.13-.13h.48c.38,0,.48-.03.48-.3v-1.88c.35-.18.84-.34,1.39-.34.98,0,1.45.48,1.45,1.36v.39c0,.26-.04.48-.12.66.14.06.31.1.48.1.07,0,.13.06.13.13ZM58.25,22.42c0-.49-.25-.73-.78-.73-.33,0-.57.08-.66.13v1.68c.14.07.37.14.66.14h.02c.51,0,.74-.24.74-.71v-.5Z"/>
      <path class="cls-3" d="M61.58,23.76v.3c0,.07-.06.13-.13.13-.26,0-.52-.06-.7-.2-.19.17-.51.2-.96.2h-.48c-.07,0-.13-.06-.13-.13v-.3c0-.07.06-.13.13-.13h.48c.39,0,.48-.03.48-.3v-2.13h.7v2.2c0,.2.22.23.48.23.07,0,.13.06.13.13ZM60.78,19.95v.62h-.71v-.62h.71Z"/>
      <path class="cls-3" d="M63.73,23.76v.3c0,.07-.06.13-.13.13-.26,0-.52-.06-.7-.2-.19.17-.51.2-.96.2h-.48c-.07,0-.13-.06-.13-.13v-.3c0-.07.06-.13.13-.13h.48c.39,0,.48-.03.48-.3v-2.13h.7v2.2c0,.2.22.23.48.23.07,0,.13.06.13.13ZM62.23,19.95v.63h-.66v-.63h.66ZM63.09,19.95v.63h-.66v-.63h.66Z"/>
      <path class="cls-3" d="M65.22,19.76v4.43h-1.62c-.07,0-.13-.06-.13-.13v-.3c0-.07.06-.13.13-.13h.91v-3.87h.7Z"/>
      <path class="cls-3" d="M66.18,24.19v-4.43h.7v4.43h-.7Z"/>
      <path class="cls-3" d="M74.73,23.76v.3c0,.07-.06.13-.13.13h-.49c-.02.78-.43,1.23-1.33,1.23h-1.74c-.92,0-1.36-.48-1.36-1.3v-1.28s.7,0,.7,0v1.34c0,.47.25.68.74.68h1.57c.49,0,.72-.2.72-.67h-.74c-.95,0-1.41-.47-1.41-1.34v-.4c0-.89.47-1.36,1.46-1.36.55,0,1.03.14,1.38.33v2.21h.49c.07,0,.13.06.13.13ZM72.57,19.95v.63h-.66v-.63h.66ZM73.42,23.63v-1.82c-.09-.05-.33-.13-.66-.13-.53,0-.78.24-.78.73v.52c0,.46.23.7.74.7h.7ZM73.43,19.95v.63h-.66v-.63h.66Z"/>
      <path class="cls-3" d="M76.88,23.76v.3c0,.07-.06.13-.13.13-.26,0-.52-.06-.7-.2-.19.17-.51.2-.96.2h-.48c-.07,0-.13-.06-.13-.13v-.3c0-.07.06-.13.13-.13h.48c.39,0,.48-.03.48-.3v-2.13h.7v2.2c0,.2.22.23.48.23.07,0,.13.06.13.13ZM74.49,25.5v-.62h.66v.62h-.66ZM75.36,25.5v-.62h.66v.62h-.66Z"/>
      <path class="cls-3" d="M80.9,23.76v.3c0,.07-.06.13-.13.13h-4.02c-.07,0-.13-.06-.13-.13v-.3c0-.07.06-.13.13-.13h1.05c-.18-.19-.26-.46-.26-.82v-.38c0-.88.51-1.34,1.44-1.34s1.44.46,1.44,1.34v.38c0,.35-.09.62-.26.82h.62c.07,0,.13.06.13.13ZM78.86,19.95v.63h-.66v-.63h.66ZM78.24,22.96c0,.42.26.66.74.67.48,0,.74-.26.74-.67v-.58c0-.44-.25-.7-.74-.7-.49,0-.74.26-.74.7v.58ZM79.72,19.95v.63h-.66v-.63h.66Z"/>
      <path class="cls-3" d="M84.5,23.76v.3c0,.07-.06.13-.13.13h-3.6c-.07,0-.13-.06-.13-.13v-.3c0-.07.06-.13.13-.13h2.54c-.1-.19-.15-.43-.15-.71v-.58c0-.46-.21-.66-.67-.66-.43,0-.74.1-.99.23l-.17-.56c.21-.08.61-.26,1.25-.26.89,0,1.29.46,1.29,1.28v.62c0,.36.17.65.5.65.07,0,.13.06.13.13Z"/>
      <path class="cls-3" d="M86.64,23.76v.3c0,.07-.06.13-.13.13-.26,0-.52-.06-.7-.2-.19.17-.51.2-.96.2h-.48c-.07,0-.13-.06-.13-.13v-.3c0-.07.06-.13.13-.13h.48c.39,0,.48-.03.48-.3v-2.13h.7v2.2c0,.2.22.23.48.23.07,0,.13.06.13.13ZM85.15,19.95v.63h-.66v-.63h.66ZM86.01,19.95v.63h-.66v-.63h.66Z"/>
      <path class="cls-3" d="M88.13,19.76v4.43h-1.62c-.07,0-.13-.06-.13-.13v-.3c0-.07.06-.13.13-.13h.91v-3.87h.7Z"/>
      <path class="cls-3" d="M94.3,23.76v.3c0,.07-.06.13-.13.13-.26,0-.54-.06-.72-.21-.28.1-.7.21-1.13.21h-.06c-.96,0-1.41-.48-1.41-1.34v-.4c0-.88.47-1.36,1.45-1.36.56,0,1.05.15,1.39.33v1.98c0,.2.22.23.48.23.07,0,.13.06.13.13ZM92.99,21.8c-.08-.05-.32-.13-.65-.13-.54,0-.78.25-.78.73v.5c0,.47.23.71.74.71h.2c.22-.02.38-.07.49-.12v-1.7Z"/>
      <path class="cls-3" d="M96.45,23.76v.3c0,.07-.06.13-.13.13-.26,0-.52-.06-.7-.2-.19.17-.51.2-.96.2h-.48c-.07,0-.13-.06-.13-.13v-.3c0-.07.06-.13.13-.13h.48c.39,0,.48-.03.48-.3v-2.13h.7v2.2c0,.2.22.23.48.23.07,0,.13.06.13.13ZM95.65,19.95v.62h-.71v-.62h.71Z"/>
      <path class="cls-3" d="M99.88,23.63v.56h-3.56c-.07,0-.13-.06-.13-.13v-.3c0-.07.06-.13.13-.13h1.03c-.18-.19-.26-.46-.26-.82v-.38c0-.87.48-1.35,1.46-1.33.59,0,.97.11,1.22.22l-.17.56c-.31-.11-.59-.18-.98-.19-.5,0-.82.21-.82.72v.41c0,.57.2.82.75.82h1.33Z"/>
      <path class="cls-3" d="M108.5,23.76v.3c0,.07-.06.13-.13.13h-1.18v-2.37c-.09-.05-.33-.13-.66-.13-.53,0-.78.24-.78.73v.56c0,.38.18.66.58.66h.17v.56h-2.86c-.91,0-1.33-.48-1.33-1.29v-1.14h.7v1.2c0,.47.23.67.72.67h1.61c-.19-.21-.28-.5-.28-.87v-.28c0-.88.46-1.38,1.45-1.38.55,0,1.04.16,1.39.33v2.2h.48c.07,0,.13.06.13.13ZM106.83,19.95v.62h-.71v-.62h.71Z"/>
      <path class="cls-3" d="M111.93,23.63v.56h-3.56c-.07,0-.13-.06-.13-.13v-.3c0-.07.06-.13.13-.13h1.03c-.18-.19-.26-.46-.26-.82v-.38c0-.87.48-1.35,1.46-1.33.59,0,.97.11,1.22.22l-.17.56c-.31-.11-.59-.18-.98-.19-.5,0-.82.21-.82.72v.41c0,.57.2.82.75.82h1.33ZM110.92,19.95v.62h-.71v-.62h.71Z"/>
      <path class="cls-3" d="M117.55,19.76v4.43h-3.33v-.56h.76v-2.93h.71v2.93h1.14v-3.87h.71Z"/>
      <path class="cls-3" d="M119.71,25.17c.71.05.92-.26.92-.82v-3.16h.7v3.12c0,.97-.49,1.47-1.62,1.42v-.56Z"/>
      <path class="cls-3" d="M123.6,23.76v.3c0,.07-.06.13-.13.13h-1.18v-4.43h.7v3.87h.48c.07,0,.13.06.13.13Z"/>
      <path class="cls-3" d="M129.23,23.76v.3c0,.07-.06.13-.13.13-.34,0-.62-.1-.85-.27-.2.18-.46.27-.76.27-.35,0-.69-.13-.91-.34-.19.22-.5.34-.93.34h-2.18c-.07,0-.13-.06-.13-.13v-.3c0-.07.06-.13.13-.13h.96v-2.13h.7v2.13h.43c.41,0,.58-.21.58-.62v-1.5h.7v1.44c0,.15-.02.3-.05.43.15.15.33.25.58.25.33,0,.54-.18.54-.54v-1.89h.7v1.66c0,.24-.03.45-.1.62.15.1.36.15.57.15.07,0,.13.06.13.13Z"/>
      <path class="cls-3" d="M132.91,22.47v.39c0,.86-.45,1.33-1.41,1.33h-.06c-.38,0-.66-.09-.89-.21-.19.17-.51.2-.96.2h-.48c-.07,0-.13-.06-.13-.13v-.3c0-.07.06-.13.13-.13h.48c.38,0,.48-.03.48-.3v-1.88c.35-.18.84-.34,1.39-.34.98,0,1.45.48,1.45,1.36ZM132.2,22.42c0-.49-.25-.73-.78-.73-.33,0-.57.08-.66.13v1.68c.14.07.37.14.66.14h.02c.51,0,.74-.24.74-.71v-.5Z"/>
      <path class="cls-3" d="M136.35,21.41v2.9c0,.91-.42,1.42-1.44,1.42h-.74v-.57h.74c.56,0,.74-.3.74-.81v-.17h-.72c-.96,0-1.41-.48-1.41-1.34v-.4c0-.88.46-1.36,1.44-1.36.56,0,1.04.15,1.39.32ZM135.64,21.8c-.08-.05-.32-.13-.65-.13-.54,0-.78.24-.78.73v.5c0,.47.23.72.75.72h.68v-1.82Z"/>
      <path class="cls-3" d="M139.14,24.32l.52-1.49h.45l-.22,1.49h-.74Z"/>
      <path class="cls-3" d="M146.42,23.76v.3c0,.07-.06.13-.13.13-.26,0-.53-.06-.71-.2-.17.14-.44.19-.82.2h-2.65c-.92,0-1.33-.48-1.33-1.29v-1.06h.7v1.12c0,.47.22.67.71.67h2.42c.39,0,.49-.03.49-.3v-3.57h.7v3.64c0,.2.22.23.48.23.07,0,.13.06.13.13ZM143.49,22.41h-.81v-.29h.77c.18,0,.24-.06.24-.19v-.16c0-.14-.06-.22-.24-.22h-.62v-.29l.41-.51h.38l-.41.51h.28c.37,0,.51.18.51.49v.18c0,.3-.14.48-.51.48Z"/>
      <path class="cls-3" d="M150.75,21.2h.7v1.66c0,.91-.5,1.33-1.14,1.33-.35,0-.69-.13-.91-.34-.19.22-.5.34-.93.34h-2.18c-.07,0-.13-.06-.13-.13v-.3c0-.07.06-.13.13-.13h.96v-2.13h.7v2.13h.43c.41,0,.58-.21.58-.62v-1.5h.7v1.44c0,.15-.02.3-.05.43.15.15.33.25.58.25.33,0,.54-.18.54-.54v-1.89Z"/>
      <path class="cls-3" d="M153.73,23.76v.3c0,.07-.06.13-.13.13h-1.18v-4.43h.7v3.87h.48c.07,0,.13.06.13.13Z"/>
      <path class="cls-3" d="M157.89,23.76v.3c0,.07-.06.13-.13.13-.32,0-.59-.09-.81-.25-.23.17-.54.26-.96.26h-.06c-.38,0-.66-.09-.89-.21-.19.17-.51.2-.96.2h-.48c-.07,0-.13-.06-.13-.13v-.3c0-.07.06-.13.13-.13h.48c.38,0,.48-.03.48-.3v-1.88c.35-.18.84-.34,1.39-.34.98,0,1.45.48,1.45,1.36v.39c0,.26-.04.48-.12.66.14.06.31.1.48.1.07,0,.13.06.13.13ZM156.69,22.42c0-.49-.25-.73-.78-.73-.33,0-.57.08-.66.13v1.68c.14.07.37.14.66.14h.02c.51,0,.74-.24.74-.71v-.5Z"/>
      <path class="cls-3" d="M160.03,23.76v.3c0,.07-.06.13-.13.13-.26,0-.52-.06-.7-.2-.19.17-.51.2-.96.2h-.48c-.07,0-.13-.06-.13-.13v-.3c0-.07.06-.13.13-.13h.48c.39,0,.48-.03.48-.3v-2.13h.7v2.2c0,.2.22.23.48.23.07,0,.13.06.13.13ZM158.54,19.95v.63h-.66v-.63h.66ZM159.4,19.95v.63h-.66v-.63h.66Z"/>
      <path class="cls-3" d="M163.7,22.47v.39c0,.86-.45,1.33-1.41,1.33h-.06c-.38,0-.66-.09-.89-.21-.19.17-.51.2-.96.2h-.48c-.07,0-.13-.06-.13-.13v-.3c0-.07.06-.13.13-.13h.48c.38,0,.48-.03.48-.3v-1.88c.35-.18.84-.34,1.39-.34.98,0,1.45.48,1.45,1.36ZM163,22.42c0-.49-.25-.73-.78-.73-.33,0-.57.08-.66.13v1.68c.14.07.37.14.66.14h.02c.51,0,.74-.24.74-.71v-.5Z"/>
      <path class="cls-3" d="M9.8,33.76v.3c0,.07-.06.13-.13.13h-.48v.74c-.21.13-.69.37-1.56.37-.99,0-1.45-.5-1.45-1.39v-1.44h.7v1.54c0,.5.27.73.84.73.35,0,.61-.07.76-.14v-3.37h.7v2.4h.48c.07,0,.13.06.13.13ZM7.88,30.6v.62h-.71v-.62h.71Z"/>
      <path class="cls-3" d="M13.96,33.76v.3c0,.07-.06.13-.13.13-.32,0-.59-.09-.81-.25-.23.17-.54.26-.96.26h-.06c-.38,0-.66-.09-.89-.21-.19.17-.51.2-.96.2h-.48c-.07,0-.13-.06-.13-.13v-.3c0-.07.06-.13.13-.13h.48c.38,0,.48-.03.48-.3v-1.88c.35-.18.84-.34,1.39-.34.98,0,1.45.48,1.45,1.36v.39c0,.26-.04.48-.12.66.14.06.31.1.48.1.07,0,.13.06.13.13ZM12.77,32.42c0-.49-.25-.73-.78-.73-.33,0-.57.08-.66.13v1.68c.14.07.37.14.66.14h.02c.51,0,.74-.24.74-.71v-.5Z"/>
      <path class="cls-3" d="M18.45,32.36v1.82h-4.62c-.07,0-.13-.06-.13-.13v-.3c0-.07.06-.13.13-.13h.96v-2.43h.7v.55c.34-.22,1.07-.69,1.78-.67.71.02,1.18.4,1.18,1.29ZM17.74,32.34c0-.5-.23-.69-.65-.68-.53,0-1.23.5-1.6.78v1.18h2.25v-1.29ZM16.89,29.95v.62h-.72v-.62h.72Z"/>
      <path class="cls-3" d="M24.42,34.19c-.9,0-.93.23-.93.61,0,.44.14.59.95.59.42,0,.78-.05,1.03-.08v.58c-.31.03-.61.07-1.02.07-1.05,0-1.67-.22-1.67-1.17,0-.62.25-.88.74-.98-.33-.18-.49-.52-.49-1.01v-.38c0-.87.48-1.35,1.46-1.34.59,0,.97.12,1.22.22l-.17.57c-.31-.11-.59-.19-.98-.19-.5,0-.82.2-.82.72v.41c0,.57.2.82.75.82h1.33v.56h-1.42Z"/>
      <path class="cls-3" d="M27.74,33.76v.3c0,.07-.06.13-.13.13h-1.18v-4.43h.7v3.87h.48c.07,0,.13.06.13.13Z"/>
      <path class="cls-3" d="M32.72,33.76v.3c0,.07-.06.13-.13.13-.23,0-.45-.06-.6-.19-.19.16-.5.19-.94.19h-3.44c-.07,0-.13-.06-.13-.13v-.3c0-.07.06-.13.13-.13h.96v-3.87h.7v1.99c.34-.22,1.07-.69,1.78-.67.71.02,1.18.4,1.18,1.29v1.03c0,.18.13.23.36.23.07,0,.13.06.13.13ZM31.52,32.34c0-.5-.23-.69-.65-.68-.53,0-1.23.5-1.6.78v1.18h1.78c.39,0,.47-.03.47-.3v-.98Z"/>
      <path class="cls-3" d="M36.75,33.76v.3c0,.07-.06.13-.13.13h-4.02c-.07,0-.13-.06-.13-.13v-.3c0-.07.06-.13.13-.13h1.05c-.18-.19-.26-.46-.26-.82v-.38c0-.88.51-1.34,1.44-1.34s1.44.46,1.44,1.34v.38c0,.35-.09.62-.26.82h.62c.07,0,.13.06.13.13ZM34.71,29.95v.63h-.66v-.63h.66ZM34.09,32.96c0,.42.26.66.74.67.48,0,.74-.26.74-.67v-.58c0-.44-.25-.7-.74-.7-.49,0-.74.26-.74.7v.58ZM35.57,29.95v.63h-.66v-.63h.66Z"/>
      <path class="cls-3" d="M38.24,29.76v4.43h-1.62c-.07,0-.13-.06-.13-.13v-.3c0-.07.06-.13.13-.13h.91v-3.87h.7Z"/>
      <path class="cls-3" d="M39.2,34.19v-4.43h.7v4.43h-.7Z"/>
      <path class="cls-3" d="M44.67,34.19v-4.43h.7v4.43h-.7Z"/>
      <path class="cls-3" d="M48.95,33.76v.3c0,.07-.06.13-.13.13-.23,0-.45-.06-.6-.19-.2.16-.51.19-.94.19h-1.34v-.56h1.34c.39,0,.48-.03.48-.3v-.91c0-.49-.24-.73-.78-.73-.29,0-.55.06-.76.14l-.12-.58c.16-.05.58-.14.92-.14.98,0,1.44.47,1.44,1.36v.93c0,.18.13.23.36.23.07,0,.13.06.13.13ZM47.52,29.95v.62h-.71v-.62h.71Z"/>
      <path class="cls-3" d="M52.42,31.08c.37,0,1.32.16,1.32,1.3v.52c0,.78-.36,1.3-1.33,1.3h-.22v.62h-.7v-.62h-2.67c-.07,0-.13-.06-.13-.13v-.3c0-.07.06-.13.13-.13h1.06c-.18-.19-.27-.46-.27-.81v-.38c0-.79.45-1.28,1.21-1.33-.11-.2-.17-.47-.18-.8h.7c.02.49.14.77.73.77h.36ZM51.49,33.63v-1.48c0-.46-.23-.68-.59-.68s-.59.22-.59.68v.82c0,.43.24.66.73.66h.46ZM53.03,32.31c0-.39-.18-.67-.71-.67h-.39c.17.26.26.58.26.94v1.05h.13c.53,0,.71-.27.71-.66v-.66Z"/>
      <path class="cls-3" d="M59.79,34.19v-.43l.55-.54c1.33-1.26,1.93-1.94,1.94-2.72,0-.53-.26-1.02-1.03-1.02-.47,0-.86.24-1.1.44l-.22-.5c.36-.3.87-.53,1.47-.53,1.12,0,1.59.77,1.59,1.51,0,.96-.7,1.73-1.79,2.79l-.42.38v.02h2.33v.58h-3.32Z"/>
      <path class="cls-3" d="M67.35,31.53c0,1.77-.66,2.74-1.81,2.74-1.02,0-1.7-.95-1.72-2.67,0-1.74.75-2.7,1.81-2.7s1.72.98,1.72,2.63ZM64.53,31.61c0,1.35.42,2.12,1.06,2.12.72,0,1.06-.84,1.06-2.17s-.33-2.12-1.06-2.12c-.62,0-1.06.75-1.06,2.17Z"/>
      <path class="cls-3" d="M68.17,33.38c.2.13.66.33,1.15.33.9,0,1.18-.58,1.18-1.01,0-.73-.66-1.04-1.34-1.04h-.39v-.53h.39c.51,0,1.16-.26,1.16-.88,0-.42-.26-.78-.91-.78-.42,0-.82.18-1.04.34l-.18-.51c.27-.2.8-.4,1.36-.4,1.02,0,1.49.61,1.49,1.24,0,.54-.32.99-.96,1.22v.02c.64.13,1.16.61,1.16,1.34,0,.83-.65,1.56-1.89,1.56-.58,0-1.1-.18-1.35-.35l.19-.54Z"/>
      <path class="cls-3" d="M75.56,31.53c0,1.77-.66,2.74-1.81,2.74-1.02,0-1.7-.95-1.72-2.67,0-1.74.75-2.7,1.81-2.7s1.72.98,1.72,2.63ZM72.74,31.61c0,1.35.42,2.12,1.06,2.12.72,0,1.06-.84,1.06-2.17s-.33-2.12-1.06-2.12c-.62,0-1.06.75-1.06,2.17Z"/>
      <path class="cls-3" d="M83.34,33.76v.3c0,.07-.06.13-.13.13-.26,0-.54-.06-.72-.21-.28.1-.7.21-1.13.21h-.06c-.96,0-1.41-.48-1.41-1.34v-.4c0-.88.47-1.36,1.45-1.36.56,0,1.05.15,1.39.33v1.98c0,.2.22.23.48.23.07,0,.13.06.13.13ZM81.2,29.95v.63h-.66v-.63h.66ZM82.03,31.8c-.08-.05-.32-.13-.65-.13-.54,0-.78.25-.78.73v.5c0,.47.23.71.74.71h.2c.22-.02.38-.07.49-.12v-1.7ZM82.06,29.95v.63h-.66v-.63h.66Z"/>
      <path class="cls-3" d="M84.16,33.67v.38c0,.08-.06.14-.14.14h-.8c-.08,0-.14-.06-.14-.14v-.38c0-.07.06-.14.14-.14h.8c.08,0,.14.07.14.14Z"/>
      <path class="cls-3" d="M84.96,33.67v.38c0,.08-.06.14-.14.14h-.8c-.08,0-.14-.06-.14-.14v-.38c0-.07.06-.14.14-.14h.8c.08,0,.14.07.14.14Z"/>
      <path class="cls-3" d="M85.76,33.67v.38c0,.08-.06.14-.14.14h-.8c-.08,0-.14-.06-.14-.14v-.38c0-.07.06-.14.14-.14h.8c.08,0,.14.07.14.14Z"/>
      <path class="cls-3" d="M86.56,33.67v.38c0,.08-.06.14-.14.14h-.8c-.08,0-.14-.06-.14-.14v-.38c0-.07.06-.14.14-.14h.8c.08,0,.14.07.14.14Z"/>
      <path class="cls-3" d="M87.36,33.67v.38c0,.08-.06.14-.14.14h-.8c-.08,0-.14-.06-.14-.14v-.38c0-.07.06-.14.14-.14h.8c.08,0,.14.07.14.14Z"/>
      <path class="cls-3" d="M88.16,33.67v.38c0,.08-.06.14-.14.14h-.8c-.08,0-.14-.06-.14-.14v-.38c0-.07.06-.14.14-.14h.8c.08,0,.14.07.14.14Z"/>
      <path class="cls-3" d="M88.96,33.67v.38c0,.08-.06.14-.14.14h-.8c-.08,0-.14-.06-.14-.14v-.38c0-.07.06-.14.14-.14h.8c.08,0,.14.07.14.14Z"/>
      <path class="cls-3" d="M89.76,33.67v.38c0,.08-.06.14-.14.14h-.8c-.08,0-.14-.06-.14-.14v-.38c0-.07.06-.14.14-.14h.8c.08,0,.14.07.14.14Z"/>
      <path class="cls-3" d="M91.28,31.2v2.99h-1.66c-.07,0-.13-.06-.13-.13v-.3c0-.07.06-.13.13-.13h.96v-2.43h.7ZM89.56,35.5v-.62h.66v.62h-.66ZM90.42,35.5v-.62h.66v.62h-.66Z"/>
      <path class="cls-3" d="M94.84,31.41v2.9c0,.91-.42,1.42-1.44,1.42h-.74v-.57h.74c.56,0,.74-.3.74-.81v-.17h-.72c-.96,0-1.41-.48-1.41-1.34v-.4c0-.88.46-1.36,1.44-1.36.56,0,1.04.15,1.39.32ZM93.69,30.35v.29h-1.13v-.29h.21c-.04-.06-.06-.14-.06-.26v-.02c0-.52.46-.62.92-.43l-.08.27c-.28-.14-.51-.08-.51.14v.12c0,.11.08.17.21.17h.45ZM94.13,31.8c-.08-.05-.32-.13-.65-.13-.54,0-.78.24-.78.73v.5c0,.47.23.72.75.72h.68v-1.82Z"/>
      <path class="cls-3" d="M94.99,35.17c.71.05.92-.26.92-.82v-3.16h.7v3.12c0,.97-.49,1.47-1.62,1.42v-.56Z"/>
      <path class="cls-3" d="M106.98,33.76v.3c0,.07-.06.13-.13.13-.26,0-.52-.06-.7-.2-.19.17-.5.2-.95.2h-2.61c-.91,0-1.33-.48-1.33-1.29v-1.06h.7v1.12c0,.47.22.67.72.67h2.52c.39,0,.47-.03.47-.3v-2.13h.71v2.2c0,.2.22.23.47.23.07,0,.13.06.13.13ZM103.71,29.95v.63h-.66v-.63h.66ZM104.58,29.95v.63h-.66v-.63h.66Z"/>
      <path class="cls-3" d="M111.06,33.76v.3c0,.07-.06.13-.13.13h-.54c-.38,0-.74-.05-1.08-.17-.26.11-.53.17-.78.17h-1.66c-.07,0-.13-.06-.13-.13v-.3c0-.07.06-.13.13-.13h1.71c-.44-.35-.76-.9-.85-1.67-.08.02-.15.06-.23.08l-.19-.55c.66-.27,1.29-.4,1.82-.39.94,0,1.54.45,1.57,1.09.02.55-.29,1.07-.74,1.45h.97c.07,0,.13.06.13.13ZM109.24,33.52c.5-.24.83-.87.73-1.31-.08-.34-.4-.5-.86-.51-.24,0-.51.03-.81.1.33,1.08.53,1.55.94,1.73Z"/>
      <path class="cls-3" d="M115.55,32.36v1.82h-4.62c-.07,0-.13-.06-.13-.13v-.3c0-.07.06-.13.13-.13h.96v-2.43h.7v.55c.34-.22,1.07-.69,1.78-.67.71.02,1.18.4,1.18,1.29ZM114.84,32.34c0-.5-.23-.69-.65-.68-.53,0-1.23.5-1.6.78v1.18h2.25v-1.29ZM113.99,29.95v.62h-.72v-.62h.72Z"/>
      <path class="cls-3" d="M118.99,31.41v2.9c0,.91-.42,1.42-1.44,1.42h-.74v-.57h.74c.56,0,.74-.3.74-.81v-.17h-.72c-.96,0-1.41-.48-1.41-1.34v-.4c0-.88.46-1.36,1.44-1.36.56,0,1.04.15,1.39.32ZM118.29,31.8c-.08-.05-.32-.13-.65-.13-.54,0-.78.24-.78.73v.5c0,.47.23.72.75.72h.68v-1.82Z"/>
      <path class="cls-3" d="M128.65,33.76v.3c0,.07-.06.13-.13.13h-.49c-.02.78-.43,1.23-1.33,1.23h-1.74c-.92,0-1.36-.48-1.36-1.3v-1.28s.7,0,.7,0v1.34c0,.47.25.68.74.68h1.57c.49,0,.72-.2.72-.67h-.74c-.95,0-1.41-.47-1.41-1.34v-.4c0-.89.47-1.36,1.46-1.36.55,0,1.03.14,1.38.33v2.21h.49c.07,0,.13.06.13.13ZM126.49,29.95v.63h-.66v-.63h.66ZM127.34,33.63v-1.82c-.09-.05-.33-.13-.66-.13-.53,0-.78.24-.78.73v.52c0,.46.23.7.74.7h.7ZM127.35,29.95v.63h-.66v-.63h.66Z"/>
      <path class="cls-3" d="M130.74,33.76v.3c0,.07-.06.13-.13.13-.26,0-.52-.06-.7-.2-.19.17-.51.2-.96.2h-.43c-.07,0-.13-.06-.13-.13v-.3c0-.07.06-.13.13-.13h.43c.39,0,.48-.03.48-.3v-3.57h.7v3.64c0,.2.22.23.48.23.07,0,.13.06.13.13Z"/>
      <path class="cls-3" d="M135.73,33.76v.3c0,.07-.06.13-.13.13-.23,0-.45-.06-.6-.19-.19.16-.5.19-.94.19h-3.44c-.07,0-.13-.06-.13-.13v-.3c0-.07.06-.13.13-.13h.96v-3.87h.7v1.99c.34-.22,1.07-.69,1.78-.67.71.02,1.18.4,1.18,1.29v1.03c0,.18.13.23.36.23.07,0,.13.06.13.13ZM134.53,32.34c0-.5-.23-.69-.65-.68-.53,0-1.23.5-1.6.78v1.18h1.78c.39,0,.47-.03.47-.3v-.98Z"/>
      <path class="cls-3" d="M137.87,33.76v.3c0,.07-.06.13-.13.13-.26,0-.52-.06-.7-.2-.19.17-.51.2-.96.2h-.48c-.07,0-.13-.06-.13-.13v-.3c0-.07.06-.13.13-.13h.48c.39,0,.48-.03.48-.3v-2.13h.7v2.2c0,.2.22.23.48.23.07,0,.13.06.13.13ZM137.07,29.95v.62h-.71v-.62h.71Z"/>
      <path class="cls-3" d="M142.03,33.76v.3c0,.07-.06.13-.13.13-.32,0-.59-.09-.81-.25-.23.17-.54.26-.96.26h-.06c-.38,0-.66-.09-.89-.21-.19.17-.51.2-.96.2h-.48c-.07,0-.13-.06-.13-.13v-.3c0-.07.06-.13.13-.13h.48c.38,0,.48-.03.48-.3v-1.88c.35-.18.84-.34,1.39-.34.98,0,1.45.48,1.45,1.36v.39c0,.26-.04.48-.12.66.14.06.31.1.48.1.07,0,.13.06.13.13ZM140.84,32.42c0-.49-.25-.73-.78-.73-.33,0-.57.08-.66.13v1.68c.14.07.37.14.66.14h.02c.51,0,.74-.24.74-.71v-.5Z"/>
      <path class="cls-3" d="M143.52,29.76v4.43h-1.62c-.07,0-.13-.06-.13-.13v-.3c0-.07.06-.13.13-.13h.91v-3.87h.7Z"/>
      <path class="cls-3" d="M144.48,34.19v-4.43h.7v4.43h-.7Z"/>
      <path class="cls-3" d="M149.95,34.19v-4.43h.7v4.43h-.7Z"/>
      <path class="cls-3" d="M154.23,33.76v.3c0,.07-.06.13-.13.13-.23,0-.45-.06-.6-.19-.2.16-.51.19-.94.19h-1.34v-.56h1.34c.39,0,.48-.03.48-.3v-.91c0-.49-.24-.73-.78-.73-.29,0-.55.06-.76.14l-.12-.58c.16-.05.58-.14.92-.14.98,0,1.44.47,1.44,1.36v.93c0,.18.13.23.36.23.07,0,.13.06.13.13ZM152.81,29.95v.62h-.71v-.62h.71Z"/>
      <path class="cls-3" d="M155.05,33.67v.38c0,.08-.06.14-.14.14h-.8c-.08,0-.14-.06-.14-.14v-.38c0-.07.06-.14.14-.14h.8c.08,0,.14.07.14.14Z"/>
      <path class="cls-3" d="M155.85,33.67v.38c0,.08-.06.14-.14.14h-.8c-.08,0-.14-.06-.14-.14v-.38c0-.07.06-.14.14-.14h.8c.08,0,.14.07.14.14Z"/>
      <path class="cls-3" d="M156.65,33.67v.38c0,.08-.06.14-.14.14h-.8c-.08,0-.14-.06-.14-.14v-.38c0-.07.06-.14.14-.14h.8c.08,0,.14.07.14.14Z"/>
      <path class="cls-3" d="M157.45,33.67v.38c0,.08-.06.14-.14.14h-.8c-.08,0-.14-.06-.14-.14v-.38c0-.07.06-.14.14-.14h.8c.08,0,.14.07.14.14Z"/>
      <path class="cls-3" d="M158.25,33.67v.38c0,.08-.06.14-.14.14h-.8c-.08,0-.14-.06-.14-.14v-.38c0-.07.06-.14.14-.14h.8c.08,0,.14.07.14.14Z"/>
      <path class="cls-3" d="M159.05,33.67v.38c0,.08-.06.14-.14.14h-.8c-.08,0-.14-.06-.14-.14v-.38c0-.07.06-.14.14-.14h.8c.08,0,.14.07.14.14Z"/>
      <path class="cls-3" d="M162.5,31.08c.37,0,1.32.16,1.32,1.3v.52c0,.78-.36,1.3-1.33,1.3h-.22v.62h-.7v-.62h-2.67c-.07,0-.13-.06-.13-.13v-.3c0-.07.06-.13.13-.13h1.06c-.18-.19-.27-.46-.27-.81v-.38c0-.79.45-1.28,1.21-1.33-.11-.2-.17-.47-.18-.8h.7c.02.49.14.77.73.77h.36ZM161.57,33.63v-1.48c0-.46-.23-.68-.59-.68s-.59.22-.59.68v.82c0,.43.24.66.73.66h.46ZM163.12,32.31c0-.39-.18-.67-.71-.67h-.39c.17.26.26.58.26.94v1.05h.13c.53,0,.71-.27.71-.66v-.66Z"/>
      <path class="cls-3" d="M118.35,43.4l-1.35-1.41,1.37-1.43.44.42-.97,1.01.97.98-.46.43ZM119.81,43.4l-1.35-1.41,1.37-1.43.44.42-.97,1.01.97.98-.46.43Z"/>
      <path class="cls-3" d="M124.13,43.76v.3c0,.07-.06.13-.13.13-.26,0-.54-.06-.72-.21-.28.1-.7.21-1.13.21h-.06c-.96,0-1.41-.48-1.41-1.34v-.4c0-.88.47-1.36,1.45-1.36.56,0,1.05.15,1.39.33v1.98c0,.2.22.23.48.23.07,0,.13.06.13.13ZM121.98,39.95v.63h-.66v-.63h.66ZM122.81,41.8c-.08-.05-.32-.13-.65-.13-.54,0-.78.25-.78.73v.5c0,.47.23.71.74.71h.2c.22-.02.38-.07.49-.12v-1.7ZM122.85,39.95v.63h-.66v-.63h.66Z"/>
      <path class="cls-3" d="M125.66,41.2v2.99h-1.66c-.07,0-.13-.06-.13-.13v-.3c0-.07.06-.13.13-.13h.96v-2.43h.7ZM123.94,45.5v-.62h.66v.62h-.66ZM124.81,45.5v-.62h.66v.62h-.66Z"/>
      <path class="cls-3" d="M129.83,43.76v.3c0,.07-.06.13-.13.13h-.48v.13c0,.91-.42,1.42-1.44,1.42h-.74v-.57h.74c.56,0,.74-.3.74-.81v-.17h-.72c-.96,0-1.41-.48-1.41-1.34v-.4c0-.88.46-1.36,1.44-1.36.56,0,1.04.15,1.39.32v2.21h.48c.07,0,.13.06.13.13ZM128.52,43.63v-1.82c-.08-.05-.32-.13-.65-.13-.54,0-.78.24-.78.73v.5c0,.47.23.72.75.72h.68Z"/>
      <path class="cls-3" d="M133.99,43.76v.3c0,.07-.06.13-.13.13-.32,0-.59-.09-.81-.25-.23.17-.54.26-.96.26h-.06c-.38,0-.66-.09-.89-.21-.19.17-.51.2-.96.2h-.48c-.07,0-.13-.06-.13-.13v-.3c0-.07.06-.13.13-.13h.48c.38,0,.48-.03.48-.3v-1.88c.35-.18.84-.34,1.39-.34.98,0,1.45.48,1.45,1.36v.39c0,.26-.04.48-.12.66.14.06.31.1.48.1.07,0,.13.06.13.13ZM132.8,42.42c0-.49-.25-.73-.78-.73-.33,0-.57.08-.66.13v1.68c.14.07.37.14.66.14h.02c.51,0,.74-.24.74-.71v-.5Z"/>
      <path class="cls-3" d="M136.13,43.76v.3c0,.07-.06.13-.13.13-.26,0-.52-.06-.7-.2-.19.17-.51.2-.96.2h-.48c-.07,0-.13-.06-.13-.13v-.3c0-.07.06-.13.13-.13h.48c.39,0,.48-.03.48-.3v-2.13h.7v2.2c0,.2.22.23.48.23.07,0,.13.06.13.13ZM135.34,39.95v.62h-.71v-.62h.71Z"/>
      <path class="cls-3" d="M138.28,43.76v.3c0,.07-.06.13-.13.13-.26,0-.52-.06-.7-.2-.19.17-.51.2-.96.2h-.48c-.07,0-.13-.06-.13-.13v-.3c0-.07.06-.13.13-.13h.48c.39,0,.48-.03.48-.3v-2.13h.7v2.2c0,.2.22.23.48.23.07,0,.13.06.13.13ZM136.78,39.95v.63h-.66v-.63h.66ZM137.65,39.95v.63h-.66v-.63h.66Z"/>
      <path class="cls-3" d="M139.77,39.76v4.43h-1.62c-.07,0-.13-.06-.13-.13v-.3c0-.07.06-.13.13-.13h.91v-3.87h.7Z"/>
      <path class="cls-3" d="M140.73,44.19v-4.43h.7v4.43h-.7Z"/>
      <path class="cls-3" d="M144.89,43.76v.3c0,.07-.06.13-.13.13h-1.18v-4.43h.7v3.87h.48c.07,0,.13.06.13.13Z"/>
      <path class="cls-3" d="M148.62,43.76v.3c0,.07-.06.13-.13.13h-.38v.19c0,.82-.4,1.3-1.28,1.3s-1.29-.48-1.29-1.3v-.19h-.78c-.07,0-.13-.06-.13-.13v-.3c0-.07.06-.13.13-.13h.78v-1.46c0-.85.49-1.29,1.3-1.29.81,0,1.29.45,1.29,1.29v.58c0,.36-.12.68-.34.93.07-.03.16-.05.25-.05h.45c.07,0,.13.06.13.13ZM146.26,43.63h.46c.49,0,.73-.23.73-.66v-.83c0-.46-.25-.66-.59-.66-.35,0-.59.2-.59.66v1.5ZM147.41,44.28c0-.13.03-.25.1-.34-.26.16-.58.26-.94.26h-.3v.26c0,.36.14.66.58.66s.58-.3.58-.66v-.18Z"/>
      <path class="cls-3" d="M152.12,41.42v2.77h-3.62c-.07,0-.13-.06-.13-.13v-.3c0-.07.06-.13.13-.13h1.05c-.18-.19-.26-.46-.26-.82v-.38c0-.86.46-1.34,1.42-1.34.58,0,1.06.16,1.42.33ZM151.41,43.63v-1.82c-.11-.04-.35-.13-.68-.13-.51,0-.74.24-.74.71v.57c0,.42.26.67.75.67h.67ZM151.07,39.95v.62h-.71v-.62h.71Z"/>
      <path class="cls-3" d="M153.09,44.19v-4.43h.7v4.43h-.7Z"/>
      <path class="cls-3" d="M157.37,43.76v.3c0,.07-.06.13-.13.13-.23,0-.45-.06-.6-.19-.2.16-.51.19-.94.19h-1.34v-.56h1.34c.39,0,.48-.03.48-.3v-.91c0-.49-.24-.73-.78-.73-.3,0-.55.06-.76.14l-.12-.58c.16-.05.58-.14.92-.14.98,0,1.44.47,1.44,1.36v.93c0,.18.13.23.36.23.07,0,.13.06.13.13Z"/>
      <path class="cls-3" d="M160.84,41.08c.37,0,1.32.16,1.32,1.3v.52c0,.78-.36,1.3-1.33,1.3h-.22v.62h-.7v-.62h-2.67c-.07,0-.13-.06-.13-.13v-.3c0-.07.06-.13.13-.13h1.06c-.18-.19-.27-.46-.27-.81v-.38c0-.79.45-1.28,1.21-1.33-.11-.2-.17-.47-.18-.8h.7c.02.49.14.77.73.77h.36ZM159.91,43.63v-1.48c0-.46-.23-.68-.59-.68s-.59.22-.59.68v.82c0,.43.24.66.73.66h.46ZM161.45,42.31c0-.39-.18-.67-.71-.67h-.39c.17.26.26.58.26.94v1.05h.13c.53,0,.71-.27.71-.66v-.66Z"/>
      <path class="cls-3" d="M163.8,39.02v.29h-1.14v-.29h.2c-.04-.06-.06-.14-.06-.26h0c0-.54.47-.63.93-.45l-.09.28c-.28-.14-.5-.09-.5.14v.13c0,.11.07.16.2.16h.46ZM162.88,44.19v-4.43h.7v4.43h-.7Z"/>
    </g>
    <path class="cls-2" d="M165.06,3.45V0h3.75v3.45c0,1.27-.24,2.29-.73,3.08-.49.78-1.26,1.38-2.32,1.81l-.91-1.3c.7-.28,1.21-.69,1.54-1.24.33-.54.51-1.33.55-2.35h-1.87Z"/>
    <path class="cls-2" d="M170.42,3.45V0h3.75v3.45c0,1.27-.24,2.29-.73,3.08-.49.78-1.26,1.38-2.32,1.81l-.91-1.3c.7-.28,1.21-.69,1.54-1.24.33-.54.51-1.33.55-2.35h-1.87Z"/>
    <line class="cls-1" x1="162.09" y1="3.55" x2="6.75" y2="3.55"/>
    <line class="cls-1" x1="168.09" y1="49.55" x2="12.75" y2="49.55"/>
    <path class="cls-2" d="M9.17,49.62l-.06,3.45-3.75-.06.06-3.45c.02-1.27.28-2.29.78-3.06.5-.77,1.29-1.36,2.35-1.77l.89,1.31c-.7.27-1.22.67-1.56,1.21-.34.54-.54,1.32-.59,2.34l1.87.03Z"/>
    <path class="cls-2" d="M3.81,49.53l-.06,3.45-3.75-.06.06-3.45c.02-1.27.28-2.29.78-3.06.5-.77,1.29-1.36,2.35-1.77l.89,1.31c-.7.27-1.22.67-1.56,1.21-.34.54-.54,1.32-.59,2.34l1.87.03Z"/>
  </g>
</svg>