<?xml version="1.0" encoding="UTF-8"?>
<svg id="Layer_2" data-name="Layer 2" xmlns="http://www.w3.org/2000/svg" viewBox="0 0 720.27 43.9">
  <g id="Layer_1-2" data-name="Layer 1">
    <g>
      <g>
        <polygon points="293.57 43.9 293.03 3.94 292.49 43.9 293.57 43.9" style="fill: #558d92;"/>
        <polygon points="305.72 43.9 305.19 6.91 304.66 43.9 305.72 43.9" style="fill: #558d92;"/>
        <polygon points="257.16 43.9 256.55 0 255.95 43.9 257.16 43.9" style="fill: #558d92;"/>
        <polygon points="269.3 43.9 268.71 0 268.13 43.9 269.3 43.9" style="fill: #558d92;"/>
        <polygon points="281.43 43.9 280.87 1.69 280.31 43.9 281.43 43.9" style="fill: #558d92;"/>
        <polygon points="245.02 43.9 244.39 .2 243.77 43.9 245.02 43.9" style="fill: #558d92;"/>
        <polygon points="232.89 43.9 232.23 1.14 231.58 43.9 232.89 43.9" style="fill: #558d92;"/>
        <polygon points="1.08 43.9 .54 10.99 0 43.9 1.08 43.9" style="fill: #558d92;"/>
        <polygon points="172.14 43.9 171.35 12.64 170.56 43.9 172.14 43.9" style="fill: #558d92;"/>
        <polygon points="159.98 43.9 159.16 15.5 158.35 43.9 159.98 43.9" style="fill: #558d92;"/>
        <polygon points="147.53 43.9 146.68 17.92 145.84 43.9 147.53 43.9" style="fill: #558d92;"/>
        <polygon points="135.34 43.9 134.49 20.89 133.64 43.9 135.34 43.9" style="fill: #558d92;"/>
        <polygon points="123.15 43.9 122.3 23.2 121.46 43.9 123.15 43.9" style="fill: #558d92;"/>
        <polygon points="110.95 43.9 110.11 25.09 109.28 43.9 110.95 43.9" style="fill: #558d92;"/>
        <polygon points="98.73 43.9 97.92 26.48 97.12 43.9 98.73 43.9" style="fill: #558d92;"/>
        <polygon points="13.3 43.9 12.73 13.64 12.17 43.9 13.3 43.9" style="fill: #558d92;"/>
        <polygon points="25.51 43.9 24.92 17.21 24.34 43.9 25.51 43.9" style="fill: #558d92;"/>
        <polygon points="37.71 43.9 37.11 20.94 36.51 43.9 37.71 43.9" style="fill: #558d92;"/>
        <polygon points="220.75 43.9 220.07 2.74 219.4 43.9 220.75 43.9" style="fill: #558d92;"/>
        <polygon points="317.87 43.9 317.35 10.12 316.83 43.9 317.87 43.9" style="fill: #558d92;"/>
        <polygon points="330.02 43.9 329.51 13.64 329 43.9 330.02 43.9" style="fill: #558d92;"/>
        <polygon points="342.19 43.9 341.67 17.11 341.15 43.9 342.19 43.9" style="fill: #558d92;"/>
        <polygon points="354.39 43.9 353.83 20.42 353.27 43.9 354.39 43.9" style="fill: #558d92;"/>
        <polygon points="208.59 43.9 207.88 4.78 207.18 43.9 208.59 43.9" style="fill: #558d92;"/>
        <polygon points="196.14 43.9 195.4 7.2 194.66 43.9 196.14 43.9" style="fill: #558d92;"/>
        <polygon points="183.98 43.9 183.21 9.89 182.45 43.9 183.98 43.9" style="fill: #558d92;"/>
        <polygon points="49.93 43.9 49.3 23.87 48.67 43.9 49.93 43.9" style="fill: #558d92;"/>
        <polygon points="62.15 43.9 61.49 26.22 60.83 43.9 62.15 43.9" style="fill: #558d92;"/>
        <polygon points="74.38 43.9 73.68 27.3 72.97 43.9 74.38 43.9" style="fill: #558d92;"/>
        <polygon points="86.62 43.9 85.87 27.4 85.11 43.9 86.62 43.9" style="fill: #558d92;"/>
      </g>
      <g>
        <polygon points="427.79 43.9 427.24 3.94 426.7 43.9 427.79 43.9" style="fill: #558d92;"/>
        <polygon points="415.61 43.9 415.08 6.91 414.56 43.9 415.61 43.9" style="fill: #558d92;"/>
        <polygon points="464.32 43.9 463.72 0 463.12 43.9 464.32 43.9" style="fill: #558d92;"/>
        <polygon points="452.15 43.9 451.56 0 450.98 43.9 452.15 43.9" style="fill: #558d92;"/>
        <polygon points="439.96 43.9 439.4 1.69 438.84 43.9 439.96 43.9" style="fill: #558d92;"/>
        <polygon points="476.51 43.9 475.88 .2 475.25 43.9 476.51 43.9" style="fill: #558d92;"/>
        <polygon points="488.69 43.9 488.04 1.14 487.39 43.9 488.69 43.9" style="fill: #558d92;"/>
        <polygon points="720.27 43.9 719.73 10.99 719.19 43.9 720.27 43.9" style="fill: #558d92;"/>
        <polygon points="549.71 43.9 548.92 12.64 548.13 43.9 549.71 43.9" style="fill: #558d92;"/>
        <polygon points="561.93 43.9 561.11 15.5 560.3 43.9 561.93 43.9" style="fill: #558d92;"/>
        <polygon points="574.44 43.9 573.59 17.92 572.75 43.9 574.44 43.9" style="fill: #558d92;"/>
        <polygon points="586.63 43.9 585.78 20.89 584.93 43.9 586.63 43.9" style="fill: #558d92;"/>
        <polygon points="598.82 43.9 597.97 23.2 597.12 43.9 598.82 43.9" style="fill: #558d92;"/>
        <polygon points="610.99 43.9 610.16 25.09 609.33 43.9 610.99 43.9" style="fill: #558d92;"/>
        <polygon points="623.16 43.9 622.35 26.48 621.54 43.9 623.16 43.9" style="fill: #558d92;"/>
        <polygon points="708.11 43.9 707.54 13.64 706.98 43.9 708.11 43.9" style="fill: #558d92;"/>
        <polygon points="695.94 43.9 695.35 17.21 694.77 43.9 695.94 43.9" style="fill: #558d92;"/>
        <polygon points="683.76 43.9 683.16 20.94 682.56 43.9 683.76 43.9" style="fill: #558d92;"/>
        <polygon points="500.88 43.9 500.2 2.74 499.52 43.9 500.88 43.9" style="fill: #558d92;"/>
        <polygon points="403.44 43.9 402.92 10.12 402.41 43.9 403.44 43.9" style="fill: #558d92;"/>
        <polygon points="391.27 43.9 390.76 13.64 390.25 43.9 391.27 43.9" style="fill: #558d92;"/>
        <polygon points="379.12 43.9 378.6 17.11 378.09 43.9 379.12 43.9" style="fill: #558d92;"/>
        <polygon points="367 43.9 366.44 20.42 365.89 43.9 367 43.9" style="fill: #558d92;"/>
        <polygon points="513.1 43.9 512.39 4.78 511.68 43.9 513.1 43.9" style="fill: #558d92;"/>
        <polygon points="525.61 43.9 524.87 7.2 524.13 43.9 525.61 43.9" style="fill: #558d92;"/>
        <polygon points="537.82 43.9 537.06 9.89 536.3 43.9 537.82 43.9" style="fill: #558d92;"/>
        <polygon points="671.6 43.9 670.97 23.87 670.34 43.9 671.6 43.9" style="fill: #558d92;"/>
        <polygon points="659.44 43.9 658.78 26.22 658.12 43.9 659.44 43.9" style="fill: #558d92;"/>
        <polygon points="647.3 43.9 646.59 27.3 645.89 43.9 647.3 43.9" style="fill: #558d92;"/>
        <polygon points="635.16 43.9 634.4 27.4 633.65 43.9 635.16 43.9" style="fill: #558d92;"/>
      </g>
    </g>
  </g>
</svg>